<svg width="80" height="80" viewBox="0 0 80 80" fill="none" xmlns="http://www.w3.org/2000/svg">
<path fill-rule="evenodd" clip-rule="evenodd" d="M32.3245 45.6859C33.7182 45.7906 35.3423 44.6546 35.9144 44.006C37.9033 41.748 37.9513 38.4828 35.949 36.1181C35.2041 35.2378 33.4533 34.2649 32.3456 34.4019H28.3352V45.6718L32.3341 45.6859H32.3245ZM30.5967 43.2446V36.8291C31.2244 36.7859 31.8542 36.7859 32.4819 36.8291C32.9758 36.8892 33.4469 37.0805 33.8507 37.385C36.1544 39.0368 35.1945 42.9747 32.4435 43.2386C31.8287 43.2839 31.2117 43.2859 30.5967 43.2446Z" fill="#008CEB"/>
<path fill-rule="evenodd" clip-rule="evenodd" d="M67.5238 45.8257H69.8102V43.3965H74.3466L74.3601 45.8136H76.6465V41.8092C76.6465 40.6006 76.7425 39.094 76.4545 38.0002C76.193 36.9989 75.6265 36.1148 74.8414 35.4829C74.0563 34.8509 73.0957 34.5058 72.1062 34.5001C71.1167 34.4944 70.1526 34.8284 69.361 35.4513C68.5693 36.0741 67.9936 36.9516 67.7216 37.9498C67.4144 39.0295 67.5181 40.5785 67.5181 41.777C67.5181 43.1306 67.5046 44.4922 67.5181 45.8458L67.5238 45.8257ZM69.8122 40.9531C69.7987 39.946 69.697 38.8684 70.1481 38.0929C70.3461 37.7358 70.6308 37.4402 70.973 37.236C71.3153 37.0319 71.703 36.9265 72.0967 36.9306C72.4883 36.9336 72.8725 37.0433 73.2117 37.2487C73.5509 37.4542 73.8335 37.7486 74.0318 38.1029C74.4772 38.9086 74.3716 39.9158 74.3601 40.9552L69.8122 40.9531Z" fill="#008CEB"/>
<path fill-rule="evenodd" clip-rule="evenodd" d="M41.3813 45.7044H43.66C43.66 45.1968 43.5986 43.6438 43.6812 43.2752H48.2003L48.2156 45.7024H50.4982C50.4867 44.3569 50.4982 43.0133 50.4982 41.6739C50.4982 40.5257 50.6 38.8821 50.3063 37.8628C50.043 36.8628 49.4757 35.9804 48.6905 35.35C47.9052 34.7195 46.9452 34.3754 45.9565 34.3702C44.9677 34.3649 44.0044 34.6988 43.2132 35.3209C42.422 35.943 41.8461 36.8193 41.5733 37.8165C41.268 38.8639 41.3717 40.4653 41.3717 41.6316C41.3717 42.9771 41.3429 44.3569 41.3717 45.6984L41.3813 45.7044ZM43.662 40.8339C43.6466 39.8268 43.5487 38.735 43.9998 37.9756C44.1978 37.6195 44.4813 37.3241 44.822 37.1187C45.1627 36.9134 45.5488 36.8053 45.9417 36.8053C46.3346 36.8053 46.7207 36.9134 47.0614 37.1187C47.4021 37.3241 47.6855 37.6195 47.8835 37.9756C48.3308 38.7813 48.2233 39.8046 48.2156 40.8299L43.662 40.8339Z" fill="#008CEB"/>
<path fill-rule="evenodd" clip-rule="evenodd" d="M54.7296 38.9256L54.697 40.6035C54.697 42.0135 54.6317 44.6462 54.697 45.7923H56.9316C56.9834 44.9866 56.8509 39.264 56.9911 39.0807C56.9911 37.9688 58.0988 36.9335 59.2161 36.9294C59.7969 36.9258 60.3561 37.1599 60.7749 37.5821C61.0591 37.854 61.4948 38.4744 61.4872 39.1008C61.5908 39.1633 61.5083 45.1437 61.5409 45.8064H63.7774L63.7602 38.9679C63.8158 38.4321 63.5087 37.6042 63.3109 37.1853C62.9442 36.387 62.3718 35.7123 61.6586 35.2378C60.9453 34.7632 60.1196 34.5077 59.275 34.5002C58.4305 34.4926 57.6008 34.7333 56.8799 35.1951C56.159 35.6568 55.5757 36.3211 55.1961 37.1127C55.0041 37.5257 54.6816 38.3757 54.7296 38.9256Z" fill="#008CEB"/>
<path d="M13.8183 51C19.6083 51 24.3021 46.0751 24.3021 40C24.3021 33.9249 19.6083 29 13.8183 29C8.02823 29 3.33447 33.9249 3.33447 40C3.33447 46.0751 8.02823 51 13.8183 51Z" fill="#008CEB"/>
<path d="M19.9269 40.046V43.1419C19.9269 43.3433 19.8443 43.3856 19.6831 43.2869C19.4674 43.1511 19.2428 43.0313 19.0112 42.9284C18.3115 42.6359 17.5536 42.5301 16.8054 42.6202C15.9887 42.7314 15.1872 42.9423 14.4172 43.2487C13.6493 43.5206 12.8967 43.8147 12.1135 44.0423C11.4647 44.2444 10.7896 44.3376 10.1131 44.3183C9.36336 44.2877 8.63472 44.0494 8.00134 43.6274C7.92176 43.5771 7.85647 43.5053 7.81224 43.4196C7.76802 43.3339 7.74648 43.2373 7.74986 43.1399C7.74986 41.1122 7.74986 39.0845 7.74986 37.0568C7.74986 36.9581 7.74986 36.8412 7.83433 36.7909C7.91879 36.7405 8.00518 36.8231 8.07813 36.8735C8.76592 37.3614 9.58052 37.6147 10.4106 37.5986C11.0042 37.5731 11.5912 37.4584 12.1538 37.2582C12.9524 36.9984 13.7241 36.6539 14.5093 36.3618C15.1205 36.1154 15.7472 35.9135 16.3849 35.7576C16.9322 35.6231 17.5001 35.609 18.0529 35.7161C18.6056 35.8232 19.1313 36.0492 19.5967 36.38C19.7034 36.4486 19.7908 36.5457 19.8498 36.6615C19.9088 36.7773 19.9374 36.9074 19.9326 37.0386C19.9326 38.0458 19.9326 39.0529 19.9326 40.0601L19.9269 40.046Z" fill="#FEFEFE"/>
</svg>
