<svg width="80" height="80" viewBox="0 0 80 80" fill="none" xmlns="http://www.w3.org/2000/svg">
<g clip-path="url(#clip0_30990_34693)">
<path fill-rule="evenodd" clip-rule="evenodd" d="M4 30.8572H76V49.1429H4V30.8572Z" fill="white" fill-opacity="0.01"/>
<path d="M11.784 47.8367C16.083 47.8367 19.568 44.3282 19.568 40.0001C19.568 35.6721 16.083 32.1636 11.784 32.1636C7.48502 32.1636 4 35.6721 4 40.0001C4 44.3282 7.48502 47.8367 11.784 47.8367Z" fill="#00AED6"/>
<path fill-rule="evenodd" clip-rule="evenodd" d="M16.3166 39.7566C16.2909 39.2799 16.0782 38.8326 15.7248 38.5117C15.3713 38.1907 14.9056 38.0221 14.4286 38.0424H9.51207C9.4693 38.0422 9.42697 38.0336 9.38751 38.0171C9.34805 38.0006 9.31223 37.9765 9.28209 37.9462C9.25195 37.9158 9.22809 37.8798 9.21186 37.8402C9.19563 37.8007 9.18735 37.7583 9.1875 37.7155C9.1875 37.5349 9.33264 37.3886 9.51207 37.3886H14.4938C14.4814 37.0594 14.3648 36.7426 14.1609 36.4838C13.9569 36.2251 13.6761 36.0377 13.3589 35.9486C11.9074 35.6906 10.4218 35.6906 8.97036 35.9486C8.56603 36.0499 8.20145 36.2703 7.9239 36.5813C7.64635 36.8923 7.46863 37.2795 7.41379 37.6926C7.18352 39.2307 7.18352 40.7945 7.41379 42.3326C7.4982 42.7687 7.71295 43.1689 8.02965 43.4803C8.34635 43.7917 8.75009 43.9996 9.1875 44.0766C10.9892 44.302 12.812 44.302 14.6138 44.0766C15.0056 43.9949 15.3618 43.792 15.6319 43.4967C15.9021 43.2013 16.0724 42.8285 16.1189 42.4309C16.2789 41.5486 16.3464 40.6526 16.3166 39.7566ZM14.7018 40.8538V41.1441C14.7019 41.1868 14.6937 41.2292 14.6774 41.2688C14.6612 41.3084 14.6373 41.3444 14.6072 41.3747C14.5771 41.4051 14.5412 41.4292 14.5018 41.4457C14.4623 41.4622 14.42 41.4708 14.3772 41.4709C14.3344 41.4708 14.2921 41.4622 14.2527 41.4457C14.2132 41.4292 14.1774 41.4051 14.1472 41.3747C14.1171 41.3444 14.0932 41.3084 14.077 41.2688C14.0608 41.2292 14.0525 41.1868 14.0526 41.1441V40.8538C13.9787 40.788 13.9265 40.7013 13.903 40.6052C13.8795 40.5091 13.8858 40.4081 13.921 40.3156C13.9562 40.2231 14.0187 40.1435 14.1001 40.0874C14.1816 40.0312 14.2783 40.0012 14.3772 40.0012C14.4762 40.0012 14.5728 40.0312 14.6543 40.0874C14.7358 40.1435 14.7983 40.2231 14.8335 40.3156C14.8687 40.4081 14.8749 40.5091 14.8514 40.6052C14.8279 40.7013 14.7757 40.788 14.7018 40.8538Z" fill="white"/>
<path d="M25.6433 43.9016C25.9667 44.3676 26.4034 44.7434 26.9123 44.9938C27.4212 45.2441 27.9854 45.3607 28.5519 45.3325C29.9084 45.3325 30.905 44.4605 30.905 43.2753V42.6502H30.8719C30.129 43.3816 29.1153 43.7633 28.0787 43.7039C27.2726 43.7261 26.4752 43.5322 25.7692 43.1424C25.0632 42.7525 24.4744 42.1809 24.0639 41.4868C23.6505 40.7906 23.4289 39.9975 23.4215 39.1879C23.414 38.3783 23.6211 37.5812 24.0216 36.8776C24.4199 36.1764 24.9985 35.5945 25.6974 35.1922C26.3963 34.7899 27.1901 34.5818 27.9964 34.5896C28.5198 34.5561 29.0445 34.6292 29.5387 34.8044C30.033 34.9796 30.4865 35.2534 30.8719 35.6091H30.905V34.7542H33.225V43.2433C33.225 45.7108 31.2822 47.4216 28.5519 47.4216C27.6694 47.4693 26.7883 47.3061 25.9814 46.9456C25.1746 46.5851 24.4652 46.0376 23.9119 45.3485L25.6433 43.9016ZM30.8079 38.6193C30.8079 37.6331 29.6959 36.7279 28.4547 36.7279C26.8856 36.7279 25.8399 37.6822 25.8399 39.1131C25.7942 39.7919 26.0456 40.4559 26.5313 40.9279C26.7703 41.1612 27.0577 41.3392 27.3731 41.4492C27.6885 41.5592 28.0242 41.5985 28.3564 41.5645C29.713 41.5645 30.8079 40.7096 30.8079 39.6399V38.6193ZM39.3336 34.5073C42.161 34.5073 44.2204 36.5302 44.2204 39.1131C44.2204 41.6959 42.161 43.7199 39.3336 43.7199C38.4951 43.7741 37.6578 43.5965 36.9135 43.2064C36.1692 42.8163 35.5467 42.2289 35.1142 41.5085C34.6789 40.7855 34.4489 39.9575 34.4489 39.1136C34.4489 38.2697 34.6789 37.4418 35.1142 36.7188C35.5467 35.9984 36.1692 35.4109 36.9135 35.0209C37.6578 34.6308 38.4951 34.4531 39.3336 34.5073ZM39.3336 36.6445C38.6821 36.6511 38.0599 36.916 37.6035 37.381C37.1471 37.8459 36.8938 38.473 36.8993 39.1245C36.8999 39.776 37.159 40.4006 37.6197 40.8613C38.0803 41.3219 38.705 41.581 39.3564 41.5816C40.0079 41.578 40.6314 41.316 41.0899 40.8532C41.5484 40.3904 41.8046 39.7645 41.8022 39.1131C41.8173 38.7838 41.7636 38.455 41.6446 38.1476C41.5255 37.8402 41.3437 37.5611 41.1107 37.3279C40.879 37.0959 40.601 36.9152 40.2948 36.7976C39.9886 36.6801 39.6611 36.6272 39.3336 36.6445ZM45.4753 34.7542H47.7953V35.5268H47.8296C48.204 35.1796 48.6439 34.9107 49.1235 34.7356C49.6031 34.5606 50.1128 34.483 50.6227 34.5073C53.1142 34.5531 55.1119 36.5965 55.1164 39.1051C55.121 41.6148 53.1302 43.6651 50.6387 43.7199C49.6559 43.7428 48.6959 43.4171 47.9267 42.7988H47.8936V47.1748H45.4753V34.7542ZM50.2479 36.6628C48.9724 36.6628 47.8936 37.5668 47.8936 38.5542V39.6559C47.8936 40.7096 48.9404 41.5805 50.2627 41.5805C50.9127 41.5763 51.5344 41.3141 51.9911 40.8516C52.4478 40.3891 52.7021 39.7642 52.6982 39.1142C52.6983 38.7923 52.6351 38.4735 52.512 38.176C52.3889 37.8785 52.2085 37.6082 51.981 37.3804C51.7534 37.1527 51.4833 36.972 51.1859 36.8487C50.8885 36.7253 50.5698 36.6629 50.2479 36.6628ZM59.7759 38.2742C61.361 38.0605 61.8353 37.8308 61.8353 37.3862C61.8353 36.8102 61.2296 36.4651 60.2993 36.4651C59.8123 36.4249 59.3271 36.5603 58.9313 36.8469C58.5355 37.1334 58.2554 37.5522 58.1416 38.0273L55.8536 37.5508C56.1804 35.7736 57.9953 34.5073 60.233 34.5073C62.7656 34.5073 64.3359 35.8068 64.3359 37.9279V43.4731H62.161V42.5188H62.1267C61.7646 42.9306 61.3123 43.2532 60.805 43.4616C60.2977 43.6699 59.7492 43.7583 59.2022 43.7199C57.2902 43.7199 55.9679 42.6673 55.9679 41.1199C55.9679 39.4913 57.0456 38.6525 59.7747 38.2742H59.7759ZM62.0307 39.1953H61.9987C61.785 39.5085 61.3279 39.6891 60.1519 39.9039C58.7302 40.1668 58.2239 40.4456 58.2239 40.9553C58.2239 41.4822 58.649 41.7131 59.5633 41.7131C60.953 41.7131 62.0319 41.0708 62.0319 40.2319L62.0307 39.1953ZM68.9382 42.9965L64.9347 34.7542H67.5987L70.2296 40.4456H70.2616L72.8604 34.7542H75.5404L69.5439 47.1748H66.8799L68.9382 42.9965Z" fill="black"/>
</g>
<defs>
<clipPath id="clip0_30990_34693">
<rect width="72" height="18.2857" fill="white" transform="translate(4 30.8572)"/>
</clipPath>
</defs>
</svg>
