<svg width="80" height="80" viewBox="0 0 80 80" fill="none" xmlns="http://www.w3.org/2000/svg">
<g clip-path="url(#clip0_30990_34669)">
<mask id="mask0_30990_34669" style="mask-type:luminance" maskUnits="userSpaceOnUse" x="14" y="14" width="52" height="52">
<path d="M14 14.1792H65.8209V65.8215H14V14.1792Z" fill="white"/>
</mask>
<g mask="url(#mask0_30990_34669)">
<path fill-rule="evenodd" clip-rule="evenodd" d="M60.9555 65.8215H18.8655C16.1896 65.8215 14 63.6396 14 60.9727V19.0279C14 16.3612 16.1896 14.1792 18.8655 14.1792H60.9555C63.6316 14.1792 65.821 16.3612 65.821 19.0279V60.9727C65.821 63.6396 63.6316 65.8215 60.9555 65.8215Z" fill="#E82529"/>
</g>
<path fill-rule="evenodd" clip-rule="evenodd" d="M25.1795 23.9036H27.6347C27.8216 23.9036 27.9652 24.0687 27.9386 24.253L26.7984 32.1355C26.7545 32.4389 26.9907 32.7106 27.2982 32.7106H31.6052C31.7276 32.7106 31.8213 32.8189 31.8035 32.9394L31.4694 35.2033C31.4521 35.321 31.3508 35.4083 31.2313 35.4083H26.3613C24.9127 35.4083 23.5234 34.2243 23.7279 32.795L24.8753 24.1693C24.8954 24.0172 25.0255 23.9036 25.1795 23.9036Z" fill="#FEFEFE"/>
<path fill-rule="evenodd" clip-rule="evenodd" d="M33.3676 27.0489L32.2438 35.0877C32.226 35.2152 32.3253 35.3291 32.4545 35.3291H34.8303C34.9992 35.3291 35.1425 35.205 35.1658 35.0382L36.2787 27.1301C36.3025 26.9479 36.1601 26.7864 35.9757 26.7864H33.6703C33.5177 26.7864 33.3887 26.8984 33.3676 27.0489Z" fill="#FEFEFE"/>
<path fill-rule="evenodd" clip-rule="evenodd" d="M38.2671 34.7126C37.534 34.6862 37.1911 34.9152 36.7585 35.1723C36.8629 34.4476 37.6814 28.7995 37.7561 28.4525C37.8351 28.0826 37.9069 27.4654 38.2333 27.1541C38.6158 26.7887 39.2079 26.5796 42.1541 26.5701C45.1615 26.5604 45.7441 28.7173 45.5845 30.1188C45.4485 31.3184 45.001 34.2822 44.8747 35.1103C44.8554 35.2362 44.7475 35.3289 44.6203 35.3289H42.2972C42.127 35.3289 41.9962 35.1793 42.0199 35.0115C42.1374 34.1834 42.4525 31.9759 42.5593 31.3349C42.6919 30.542 42.7981 29.6695 42.5858 29.325C42.3735 28.9813 41.7365 28.7173 40.516 28.9289L39.6133 35.2896C39.6133 35.2896 39.0325 34.7402 38.2671 34.7126Z" fill="#FEFEFE"/>
<path fill-rule="evenodd" clip-rule="evenodd" d="M48.1033 23.4468H50.6802C50.7762 23.4468 50.8499 23.5312 50.8368 23.6259L49.2332 35.2022C49.2214 35.2881 49.1476 35.3521 49.0605 35.3521H46.5163C46.4105 35.3521 46.3292 35.259 46.3437 35.1547L47.9467 23.5829C47.9575 23.5049 48.0243 23.4468 48.1033 23.4468Z" fill="#FEFEFE"/>
<path fill-rule="evenodd" clip-rule="evenodd" d="M50.0999 30.4218L53.0122 27.023C53.104 26.9159 53.2382 26.8542 53.3796 26.8542H55.9363C56.1209 26.8542 56.218 27.0721 56.0946 27.2086L53.1168 30.502L55.8389 36.3364C55.9388 36.5505 55.7819 36.7954 55.5451 36.7954H53.2342C53.1135 36.7954 53.0039 36.7253 52.9536 36.6161L50.0999 30.4218Z" fill="#FEFEFE"/>
<path fill-rule="evenodd" clip-rule="evenodd" d="M36.7765 24.6094C36.5681 25.4854 35.7766 26.1372 34.9479 26.1372C34.1193 26.1372 33.4838 25.4271 33.6923 24.5513C33.9007 23.6754 34.5867 22.9653 35.5701 22.9653C36.3987 22.9653 36.9849 23.7335 36.7765 24.6094Z" fill="#FEFEFE"/>
<path fill-rule="evenodd" clip-rule="evenodd" d="M39.3947 37.3782C39.1863 38.2542 38.3948 38.9059 37.566 38.9059C36.7375 38.9059 36.1019 38.1959 36.3105 37.3201C36.5188 36.4442 37.2049 35.7341 38.1882 35.7341C39.0168 35.7341 39.603 36.5023 39.3947 37.3782Z" fill="#FEFEFE"/>
<path fill-rule="evenodd" clip-rule="evenodd" d="M51.8605 47.8454C51.6849 48.711 50.8851 49.3549 50.0139 49.3543C49.1425 49.354 48.4391 48.6518 48.6147 47.7864C48.7903 46.9209 49.4764 46.2194 50.5103 46.22C51.3815 46.2205 52.0361 46.9799 51.8605 47.8454Z" fill="#FEFEFE"/>
<path fill-rule="evenodd" clip-rule="evenodd" d="M29.9261 43.5346H28.3659C28.308 43.5346 28.2682 43.4765 28.2894 43.4228L29.6472 39.9882C29.6731 39.9228 29.7699 39.9368 29.7762 40.0067L30.0814 43.3652C30.0897 43.4561 30.0179 43.5346 29.9261 43.5346ZM33.7057 47.8476L31.9647 37.4627C31.8886 37.0086 31.4942 36.676 31.0323 36.676H29.2854C28.7526 36.676 28.2689 36.9861 28.0483 37.4693L23.3584 47.8605C23.2904 48.0113 23.4016 48.1815 23.5673 48.1806L26.0041 48.1664C26.1709 48.1655 26.321 48.0658 26.3861 47.913L27.1962 46.014C27.2181 45.9622 27.2691 45.9286 27.3256 45.9286H30.2746C30.347 45.9286 30.4076 45.9833 30.4146 46.055L30.5906 47.8521C30.6109 48.0612 30.7874 48.2207 30.9983 48.2207H33.3885C33.5873 48.2207 33.7385 48.0429 33.7057 47.8476Z" fill="#FEFEFE"/>
<path fill-rule="evenodd" clip-rule="evenodd" d="M32.5425 49.7286L33.1053 51.4613C33.2064 51.7464 33.2827 51.8097 33.4805 51.7681C34.1914 51.6188 35.9092 51.1129 36.7496 49.9799C37.8452 48.5027 37.9955 45.8912 38.1889 44.564C38.3481 43.4707 38.6968 40.7796 38.8149 39.865C38.8361 39.7004 38.7075 39.5549 38.5408 39.5549H36.3563C36.1632 39.5549 36 39.6969 35.9741 39.8876C35.798 41.1795 35.1635 45.8252 35.0527 46.4691C34.9239 47.2185 34.8981 48.2977 33.7858 48.942C33.2307 49.2633 32.9461 49.3247 32.7264 49.4269C32.6146 49.4789 32.4883 49.5346 32.5425 49.7286Z" fill="#FEFEFE"/>
<path fill-rule="evenodd" clip-rule="evenodd" d="M44.564 45.7283C44.564 45.7283 43.4249 46.1143 42.8781 45.7055C42.3311 45.2968 42.2856 44.4568 42.6046 43.2534C42.9236 42.0499 43.7211 41.8456 44.0627 41.8229C44.4046 41.8001 45.0471 41.9613 45.0471 41.9613L44.564 45.7283ZM47.7184 39.8657C46.9818 39.6821 45.7433 39.2786 43.7524 39.4241C41.9155 39.5582 39.8412 40.4049 39.4527 44.0185C39.0643 47.6322 40.722 48.3291 43.1048 48.4324C44.851 48.5081 46.2216 48.0293 46.8294 47.7681C47.041 47.6772 47.1883 47.4823 47.2193 47.2547L48.0997 40.2973C48.1342 40.0212 47.9957 39.9347 47.7184 39.8657Z" fill="#FEFEFE"/>
<path fill-rule="evenodd" clip-rule="evenodd" d="M49.4184 45.0681L50.0595 38.4059C50.0826 38.1672 50.2835 38.0698 50.5241 38.0698H52.7356C52.9417 38.0698 53.0289 38.2256 52.9721 38.4808L51.6222 45.152C51.5949 45.2811 51.4808 45.3735 51.3484 45.3735H49.6968C49.5318 45.3735 49.4026 45.2318 49.4184 45.0681Z" fill="#FEFEFE"/>
<path fill-rule="evenodd" clip-rule="evenodd" d="M23.5391 57.353C23.9771 57.5941 24.4886 57.6642 24.9755 57.5493C26.915 57.0913 31.2071 55.8586 40.2862 54.5507C51.6927 52.9075 60.1146 52.9143 60.1146 52.9143L60.1367 52.9009C60.1367 52.9009 52.6721 51.8788 40.4211 53.0712C28.17 54.2636 21.3323 56.1376 21.3323 56.1376L23.5391 57.353Z" fill="#FEFEFE"/>
</g>
<defs>
<clipPath id="clip0_30990_34669">
<rect width="52" height="52" fill="white" transform="translate(14 14)"/>
</clipPath>
</defs>
</svg>
