<svg width="80" height="80" viewBox="0 0 80 80" fill="none" xmlns="http://www.w3.org/2000/svg">
<path d="M32.4114 29.304C32.0367 29.1653 31.6349 29.0738 31.1243 29.0109C30.957 28.9909 30.6925 28.9866 29.1838 28.9823L27.4348 28.9766V29.856V30.7368H28.862C29.6986 30.7368 30.3521 30.7425 30.4451 30.7511C30.8426 30.7868 31.1372 30.8455 31.4604 30.9527C32.5 31.2973 33.1965 32.0751 33.6398 33.3892C33.6712 33.4836 34.4992 36.3076 35.4788 39.6663C36.4598 43.0237 37.2964 45.882 37.3379 46.015C37.5581 46.7142 37.8098 47.3104 38.0386 47.6736C38.2946 48.0811 38.6106 48.3857 38.9538 48.5573C39.4572 48.8075 40.2537 48.8476 40.8415 48.6517C41.2934 48.5001 41.6809 48.1655 41.9998 47.6522C42.1671 47.3805 42.3773 46.9158 42.5389 46.4597C42.6691 46.0908 42.7591 45.7833 44.531 39.715C45.502 36.3848 46.33 33.5608 46.37 33.4392C46.6574 32.5627 47.0822 31.8835 47.6056 31.466C48.1232 31.0542 48.751 30.8269 49.579 30.7511C49.672 30.7425 50.3255 30.7368 51.1635 30.7368H52.5893V29.856V28.9766L50.8417 28.9823C49.3316 28.9866 49.0671 28.9909 48.8998 29.0109C47.9545 29.1267 47.2552 29.377 46.626 29.8259C45.7537 30.4479 45.0887 31.4403 44.6397 32.7929C44.5839 32.9574 42.3144 40.7902 40.9001 45.6947C40.7456 46.2337 40.6413 46.4754 40.4925 46.6398C40.3524 46.7943 40.2208 46.8529 40.012 46.8529C39.6688 46.8529 39.4515 46.6498 39.2684 46.1594C39.2398 46.0822 39.1268 45.7061 39.0167 45.3229C37.6782 40.6801 35.4402 32.9559 35.3844 32.7886C34.7767 30.967 33.7971 29.8202 32.4114 29.304Z" fill="#5827D8"/>
<path d="M32.0381 32.3625C31.642 31.9965 31.1658 31.7763 30.5523 31.6719C30.4165 31.649 30.262 31.6462 28.9192 31.6419L27.4348 31.6362V32.5098V33.382H28.5345C29.1995 33.382 29.6929 33.3878 29.7815 33.3978C30.3378 33.4535 30.7296 33.7038 31.0156 34.1828C31.0914 34.3115 31.1715 34.4873 31.2387 34.6789C31.263 34.7476 32.0424 37.43 32.9705 40.6387C34.7404 46.7571 34.7424 46.7629 34.8958 47.2162L34.8982 47.2232C35.2886 48.3786 35.679 49.1564 36.221 49.8542C36.3583 50.0329 36.773 50.4533 36.9446 50.5891C37.2778 50.8537 37.7554 51.1211 38.1487 51.2612C38.4933 51.3856 38.8952 51.4742 39.3213 51.5228C39.6288 51.5572 40.3953 51.5572 40.7027 51.5228C41.332 51.4514 41.8125 51.3169 42.3144 51.0696C42.5833 50.938 42.8206 50.7908 43.0509 50.6106C43.2139 50.4848 43.5257 50.1831 43.6801 50.0043C44.3265 49.2508 44.827 48.2256 45.296 46.7013C45.3347 46.5755 46.1197 43.8659 47.0407 40.6815C47.9616 37.4958 48.7353 34.8291 48.7596 34.7547C49.0199 33.964 49.4103 33.5622 50.0581 33.4207C50.1882 33.3935 50.244 33.3921 51.3923 33.3863L52.5893 33.3806V32.5084V31.6362L51.1063 31.6419C49.4603 31.6462 49.5333 31.6433 49.1328 31.7448C48.189 31.9865 47.5126 32.6585 47.1522 33.7109C47.1294 33.7781 46.3228 36.5964 45.359 39.9738C44.3951 43.3511 43.5714 46.2309 43.5285 46.3724C43.2468 47.2833 42.9007 48.0168 42.5146 48.5258C42.3759 48.706 42.0556 49.032 41.8997 49.1493C41.4878 49.4581 41.0288 49.6397 40.4768 49.7141C40.2694 49.7412 39.7074 49.7369 39.4972 49.7055C38.9681 49.6283 38.542 49.4567 38.1458 49.1636C37.9628 49.0277 37.651 48.7117 37.498 48.5087C37.1191 48.0025 36.7859 47.299 36.5142 46.4325C36.4741 46.3052 35.6475 43.4183 34.678 40.0167C33.707 36.615 32.8947 33.7781 32.8718 33.7109C32.6831 33.1618 32.3885 32.6843 32.0381 32.3625Z" fill="#5827D8"/>
<path d="M65.1914 28.4631C67.6153 28.5775 69.665 29.2714 71.4912 30.594C73.4931 32.0453 74.9687 34.2514 75.6094 36.7493C75.8968 37.8731 76.0162 38.9356 75.999 40.2454C75.9876 41.109 75.9312 41.7229 75.7939 42.4836C75.3434 44.9771 74.094 47.2351 72.2852 48.8264C70.7493 50.1762 68.8239 51.0667 66.7432 51.3899C64.9829 51.6644 63.064 51.5842 61.4453 51.1682C59.888 50.7664 58.4704 50.0543 57.2334 49.052C55.8806 47.9553 54.7614 46.4122 54.0879 44.7122C53.6231 43.544 53.3657 42.3629 53.2627 40.9387C53.2384 40.6068 53.2384 39.4375 53.2627 39.1086C53.3456 37.9777 53.5041 37.0783 53.79 36.1418C54.3492 34.3045 55.3803 32.6224 56.7031 31.3899C58.1589 30.0345 59.9912 29.1027 61.9932 28.6995C63.0011 28.4979 64.132 28.4131 65.1914 28.4631ZM63.9521 30.261C62.1675 30.3525 60.5457 30.8626 59.1758 31.762C57.8888 32.607 56.9022 33.7325 56.1943 35.1624C55.6209 36.3219 55.2967 37.5334 55.1709 38.9875C55.1409 39.3468 55.128 40.3443 55.1494 40.7288C55.2209 41.9799 55.4523 43.0812 55.8613 44.1135C56.542 45.8335 57.6632 47.2359 59.126 48.2053C60.3301 49.0018 61.6817 49.4868 63.2305 49.6741C63.7982 49.7441 64.672 49.7729 65.2539 49.7415C67.5018 49.6213 69.3697 48.9292 70.917 47.6438C71.1572 47.445 71.7332 46.869 71.9307 46.6301C73.1076 45.2103 73.8266 43.4567 74.0469 41.4749C74.1012 40.9917 74.1145 40.7855 74.123 40.2522C74.1587 38.1533 73.7268 36.3243 72.8174 34.7229C72.4156 34.0166 71.9874 33.4559 71.4111 32.8811C70.9709 32.4423 70.6016 32.1412 70.0869 31.801C68.6984 30.886 67.1129 30.3793 65.2754 30.2649C65.0652 30.252 64.1724 30.2495 63.9521 30.261ZM59.2764 32.7668C60.9236 31.5288 62.9585 30.9724 65.332 31.1096C67.8717 31.2569 70.0526 32.3741 71.4912 34.2629C72.0875 35.0479 72.5744 36.0084 72.8633 36.9778C73.1493 37.9358 73.2832 38.913 73.2832 40.0383C73.2832 40.8418 73.2186 41.521 73.0742 42.2473C72.7467 43.8973 71.9875 45.3741 70.8965 46.4836C70.4989 46.8883 70.1745 47.1579 69.7012 47.4739C68.4871 48.286 67.1996 48.7228 65.5752 48.8772C65.2403 48.9086 64.1263 48.9136 63.8018 48.885C62.2977 48.752 61.0981 48.3786 59.9414 47.6838C58.8404 47.0233 57.9365 46.1166 57.2559 44.9915C56.3464 43.4845 55.9114 41.6584 55.9814 39.6438C56.0243 38.3813 56.2445 37.283 56.6592 36.2493C57.2355 34.8122 58.1195 33.6376 59.2764 32.7668ZM64.2529 32.8918C64.0472 32.9033 63.7643 32.9289 63.624 32.9475C61.7178 33.202 60.1058 34.1904 59.0762 35.7346C58.4428 36.6854 58.0605 37.7537 57.9189 38.9661C57.8275 39.7566 57.8418 40.6244 57.9619 41.4036C58.1721 42.7691 58.7258 44.005 59.5566 44.9573C59.7082 45.1317 60.0452 45.4627 60.2197 45.6086C61.5482 46.7239 63.352 47.2503 65.2969 47.093C66.8927 46.9643 68.3052 46.3449 69.3691 45.3069C70.4588 44.2473 71.1631 42.7302 71.3447 41.053C71.4033 40.5069 71.4113 39.6395 71.3613 39.1448C71.2269 37.8308 70.854 36.7224 70.2148 35.7473C69.1795 34.1688 67.4906 33.1517 65.54 32.9329C65.1496 32.8885 64.5933 32.8704 64.2529 32.8918Z" fill="#5827D8"/>
<path d="M15.947 28.4634C18.3709 28.5778 20.4207 29.2716 22.2468 30.5942C24.2487 32.0455 25.7244 34.2517 26.365 36.7495C26.6524 37.8734 26.7708 38.9359 26.7537 40.2456C26.7422 41.1091 26.6868 41.7224 26.5496 42.4829C26.0991 44.9766 24.8488 47.2352 23.0398 48.8267C21.504 50.1763 19.5793 51.067 17.4988 51.3901C15.7384 51.6647 13.8188 51.5846 12.2 51.1685C10.6428 50.7667 9.22588 50.0545 7.98901 49.0522C6.63619 47.9555 5.51608 46.4125 4.84253 44.7124C4.37782 43.5443 4.12029 42.363 4.01733 40.939C3.99304 40.607 3.99303 39.4377 4.01733 39.1089C4.10027 37.9779 4.25966 37.0786 4.54565 36.1421C5.1048 34.3047 6.13595 32.6227 7.45874 31.3901C8.91439 30.0349 10.746 29.1029 12.7478 28.6997C13.756 28.4981 14.8874 28.4133 15.947 28.4634ZM14.7078 30.2612C12.9231 30.3527 11.3014 30.8628 9.9314 31.7622C8.64436 32.6073 7.65782 33.7327 6.94995 35.1626C6.37651 36.3222 6.05138 37.5336 5.92554 38.9878C5.89553 39.3471 5.88261 40.3445 5.90405 40.729C5.97556 41.9801 6.20796 43.0814 6.61694 44.1138C7.29766 45.8337 8.41878 47.2362 9.88159 48.2056C11.0856 49.0019 12.4366 49.487 13.9851 49.6743C14.5528 49.7444 15.4275 49.7732 16.0095 49.7417C18.2572 49.6215 20.1245 48.9292 21.6716 47.644C21.9119 47.4453 22.4889 46.8692 22.6863 46.6304C23.8632 45.2105 24.5823 43.4569 24.8025 41.4751C24.8568 40.992 24.8691 40.7857 24.8777 40.2524C24.9134 38.1535 24.4825 36.3245 23.573 34.7231C23.1712 34.0168 22.743 33.4561 22.1667 32.8813C21.7265 32.4426 21.3572 32.1415 20.8425 31.8013C19.454 30.8862 17.8676 30.3795 16.03 30.2651C15.819 30.2523 14.9279 30.2498 14.7078 30.2612ZM10.031 32.7671C11.6784 31.5288 13.7138 30.9726 16.0876 31.1099C18.6274 31.2571 20.8082 32.3743 22.2468 34.2632C22.843 35.0481 23.329 36.0087 23.6179 36.978C23.9039 37.936 24.0388 38.9133 24.0388 40.0386C24.0388 40.842 23.9743 41.5213 23.8298 42.2476C23.5024 43.8975 22.7431 45.3744 21.6521 46.4839C21.2545 46.8885 20.9301 47.1581 20.4568 47.4741C19.2427 48.2863 17.9553 48.723 16.3308 48.8774C15.9962 48.9089 14.882 48.9139 14.5574 48.8853C13.053 48.7523 11.8529 48.379 10.696 47.6841C9.59502 47.0235 8.69115 46.1169 8.0105 44.9917C7.10105 43.4847 6.66705 41.6586 6.73706 39.644C6.77996 38.3815 7.00014 37.2832 7.41479 36.2495C7.99108 34.8125 8.87417 33.6379 10.031 32.7671ZM15.0085 32.8921C14.8026 32.9035 14.5188 32.9292 14.3787 32.9478C12.4726 33.2024 10.8614 34.1907 9.83179 35.7349C9.19835 36.6857 8.81613 37.7539 8.67456 38.9663C8.58309 39.7569 8.59743 40.6247 8.71753 41.4038C8.92775 42.7693 9.4814 44.0052 10.3123 44.9575C10.4639 45.132 10.8009 45.4631 10.9753 45.6089C12.3039 46.7242 14.1076 47.2505 16.0525 47.0933C17.6483 46.9645 19.0609 46.3451 20.1248 45.3071C21.2144 44.2476 21.9178 42.7304 22.0994 41.0532C22.158 40.5071 22.1669 39.6397 22.1169 39.145C21.9825 37.8311 21.6095 36.7226 20.9705 35.7476C19.9352 34.1691 18.2461 33.152 16.2957 32.9331C15.9054 32.8888 15.3489 32.8707 15.0085 32.8921Z" fill="#5827D8"/>
</svg>
