<svg width="80" height="80" viewBox="0 0 80 80" fill="none" xmlns="http://www.w3.org/2000/svg">
<path fill-rule="evenodd" clip-rule="evenodd" d="M26.4581 23.6599L4.94998 26.6355C4.94998 26.6355 4 26.75 4 27.9375V49.1291C4 49.1291 4.12978 51.6093 6.86161 51.6093H31.2379C31.2379 51.6093 33.4103 51.0707 33.4103 48.814V31.3279C33.4103 31.3279 33.4532 28.8477 30.5864 28.8477H7.07964C6.80299 28.787 6.54856 28.6463 6.34577 28.4419C6.14297 28.2375 6.00011 27.9776 5.9337 27.6925C5.86232 27.2993 6.01546 27.2589 6.41647 27.2589H28.0012V24.8434C28.0012 24.8434 27.9246 23.5482 26.4581 23.6599Z" fill="#E8451E"/>
<path fill-rule="evenodd" clip-rule="evenodd" d="M19.1434 48.0336C17.3602 48.0336 16.0469 47.2796 14.1093 45.2909C13.9506 45.1191 13.8629 44.8897 13.8648 44.6518C13.8667 44.4138 13.9581 44.186 14.1195 44.0169C14.281 43.8479 14.4997 43.7509 14.729 43.7466C14.9584 43.7424 15.1803 43.8313 15.3474 43.9943C17.3875 46.0867 18.3323 46.6064 19.9623 46.1486C20.9097 45.8793 21.7597 44.6298 21.809 43.1932C21.848 42.077 21.0888 41.3486 19.5535 41.0295C16.797 40.4572 15.1696 39.3639 14.718 37.7778C14.3546 36.5014 14.8322 35.0755 16.0274 33.8732L16.0767 33.8274C18.6463 31.599 21.63 33.2592 22.8486 34.4494C23.0112 34.6169 23.1044 34.8436 23.1084 35.0813C23.1124 35.319 23.0269 35.549 22.87 35.7223C22.7131 35.8955 22.4973 35.9985 22.2684 36.0092C22.0394 36.02 21.8155 35.9376 21.6442 35.7797C21.5417 35.6801 19.2329 33.5042 17.2318 35.2061C16.5478 35.9076 16.239 36.6764 16.4077 37.2662C16.6517 38.1252 17.8923 38.828 19.9 39.2454C23.3119 39.9537 23.6026 42.2924 23.5688 43.2646C23.4962 45.3825 21.7883 47.7549 20.1855 47.965C19.8399 48.0106 19.4918 48.0336 19.1434 48.0336Z" fill="white"/>
<path fill-rule="evenodd" clip-rule="evenodd" d="M42.4579 28.7343C42.0687 28.4877 41.6473 28.3005 41.2068 28.1782C40.2984 27.909 39.643 27.5643 39.3302 27.124C39.0512 26.7416 39.0512 26.2434 39.386 25.6052C39.5755 25.2228 40.0349 24.9805 40.6254 24.932C41.3727 24.9012 42.1141 25.0813 42.7706 25.453C42.8653 25.5022 42.9749 25.5102 43.0753 25.4755C43.1756 25.4408 43.2586 25.3661 43.306 25.2679C43.3533 25.1697 43.3611 25.056 43.3276 24.9519C43.2941 24.8477 43.2222 24.7616 43.1275 24.7125C42.2126 24.2251 41.3106 24.0393 40.5592 24.0985C39.6871 24.1672 39.0019 24.5617 38.6722 25.1986C38.1687 26.1613 38.2024 26.9489 38.6722 27.6087C39.107 28.1998 39.8999 28.6522 40.9836 28.9646C41.3545 29.0717 41.7108 29.2273 42.0439 29.4277C42.4682 29.697 42.7473 30.008 42.8822 30.3433C43.0115 30.6598 43.0298 31.0133 42.9341 31.3424C42.8818 31.5129 42.8104 31.6765 42.7213 31.8298C42.7213 31.8527 42.6992 31.8756 42.6772 31.9106C42.3527 32.4087 41.8284 32.6632 41.1912 32.6632C40.4878 32.6632 39.6274 32.3737 38.7125 31.7948C38.5827 31.714 38.4529 31.6318 38.3439 31.5511C38.2551 31.4896 38.1464 31.4673 38.0418 31.489C37.9371 31.5108 37.845 31.5747 37.7858 31.6669C37.7266 31.759 37.7051 31.8717 37.7261 31.9803C37.747 32.0889 37.8087 32.1844 37.8975 32.2458C38.0285 32.3315 38.155 32.4246 38.2764 32.5245C39.3263 33.1856 40.3204 33.5088 41.1692 33.5088C42.0854 33.5088 42.8446 33.1385 43.3248 32.3966C43.3442 32.3562 43.3668 32.3175 43.3923 32.2808C43.5219 32.0641 43.6232 31.8305 43.6933 31.5861C43.8432 31.0741 43.8115 30.5234 43.6038 30.0336C43.3625 29.4866 42.9616 29.0321 42.4579 28.7343Z" fill="#E8451E"/>
<path fill-rule="evenodd" clip-rule="evenodd" d="M48.6083 27.8073C48.1509 27.6908 47.6715 27.7066 47.2222 27.8531C46.7105 28.0171 46.2384 28.2925 45.8375 28.6609V24.4816C45.8317 24.3752 45.7868 24.2751 45.7121 24.2019C45.6374 24.1287 45.5386 24.0879 45.4358 24.0879C45.3331 24.0879 45.2342 24.1287 45.1596 24.2019C45.0849 24.2751 45.04 24.3752 45.0342 24.4816V33.0907C45.04 33.1971 45.0849 33.2972 45.1596 33.3704C45.2342 33.4436 45.3331 33.4844 45.4358 33.4844C45.5386 33.4844 45.6374 33.4436 45.7121 33.3704C45.7868 33.2972 45.8317 33.1971 45.8375 33.0907V29.8687C45.8455 29.8622 45.8529 29.855 45.8596 29.8471C46.3631 29.2089 46.9211 28.8158 47.4571 28.6421C47.7644 28.5387 48.0935 28.5266 48.4071 28.6071C48.6623 28.6788 48.8865 28.8383 49.043 29.0595C49.2173 29.3395 49.303 29.669 49.2883 30.002V33.0813C49.2883 33.192 49.3307 33.2981 49.4061 33.3764C49.4816 33.4547 49.5839 33.4987 49.6906 33.4987C49.7973 33.4987 49.8996 33.4547 49.9751 33.3764C50.0505 33.2981 50.0929 33.192 50.0929 33.0813V29.9979C50.1067 29.4943 49.9658 28.9992 49.6906 28.5842C49.4277 28.2027 49.045 27.928 48.6083 27.8073Z" fill="#E8451E"/>
<path fill-rule="evenodd" clip-rule="evenodd" d="M55.4443 32.0627C55.0701 32.4483 54.5642 32.6646 54.0368 32.6646C53.5095 32.6646 53.0035 32.4483 52.6294 32.0627C52.2578 31.6745 52.0492 31.1496 52.0492 30.6025C52.0492 30.0554 52.2578 29.5305 52.6294 29.1423C53.005 28.7586 53.5104 28.5426 54.0375 28.5404C54.4307 28.5407 54.815 28.6619 55.1419 28.8886C55.4688 29.1153 55.7236 29.4375 55.8741 29.8144C56.0247 30.1913 56.0642 30.606 55.9877 31.0062C55.9112 31.4063 55.7221 31.774 55.4443 32.0627ZM54.0375 27.7178C53.3104 27.7341 52.6185 28.0452 52.1099 28.5844C51.6012 29.1236 51.3164 29.848 51.3164 30.6025C51.3164 31.357 51.6012 32.0814 52.1099 32.6207C52.6185 33.1599 53.3104 33.471 54.0375 33.4873C54.7645 33.471 55.4565 33.1599 55.9651 32.6207C56.4737 32.0814 56.7586 31.357 56.7586 30.6025C56.7586 29.848 56.4737 29.1236 55.9651 28.5844C55.4565 28.0452 54.7645 27.7341 54.0375 27.7178Z" fill="#E8451E"/>
<path fill-rule="evenodd" clip-rule="evenodd" d="M62.2129 32.0627C61.8386 32.4481 61.3335 32.6656 60.8061 32.6686C60.4129 32.6684 60.0286 32.5472 59.7017 32.3205C59.3748 32.0937 59.12 31.7716 58.9695 31.3947C58.8189 31.0178 58.7794 30.6031 58.856 30.2029C58.9325 29.8028 59.1216 29.4351 59.3994 29.1463C59.7743 28.7625 60.2794 28.5464 60.8061 28.5445C61.1986 28.5455 61.5819 28.667 61.908 28.8935C62.2341 29.1201 62.4883 29.4416 62.6386 29.8176C62.789 30.1937 62.8288 30.6075 62.7531 31.007C62.6773 31.4065 62.4894 31.7738 62.2129 32.0627ZM60.8165 27.7178C60.4515 27.7173 60.0899 27.7918 59.7527 27.9369C59.4155 28.0821 59.1093 28.2949 58.8517 28.5633C58.819 28.5912 58.789 28.6223 58.7621 28.6562V28.1352C58.7621 28.0245 58.7198 27.9183 58.6443 27.84C58.5689 27.7618 58.4665 27.7178 58.3598 27.7178C58.2531 27.7178 58.1508 27.7618 58.0754 27.84C57.9999 27.9183 57.9575 28.0245 57.9575 28.1352V36.3377C57.9575 36.4484 57.9999 36.5545 58.0754 36.6328C58.1508 36.7111 58.2531 36.7551 58.3598 36.7551C58.4665 36.7551 58.5689 36.7111 58.6443 36.6328C58.7198 36.5545 58.7621 36.4484 58.7621 36.3377V32.5488C58.7945 32.577 58.8245 32.6081 58.8517 32.6417C59.175 32.977 59.573 33.2244 60.0105 33.3619C60.448 33.4995 60.9114 33.523 61.3598 33.4304C61.8081 33.3377 62.2275 33.1318 62.5808 32.8309C62.9341 32.5299 63.2104 32.1432 63.3853 31.705C63.5601 31.2668 63.6281 30.7907 63.5833 30.3187C63.5384 29.8467 63.382 29.3935 63.128 28.9992C62.874 28.6049 62.5301 28.2817 62.1269 28.0581C61.7238 27.8346 61.2737 27.7177 60.8165 27.7178Z" fill="#E8451E"/>
<path fill-rule="evenodd" clip-rule="evenodd" d="M65.6422 29.964C65.7416 29.6269 65.92 29.3207 66.1613 29.0726C66.319 28.9071 66.5067 28.7757 66.7137 28.686C66.9206 28.5963 67.1427 28.5501 67.367 28.5501C67.5913 28.5501 67.8133 28.5963 68.0203 28.686C68.2272 28.7757 68.415 28.9071 68.5726 29.0726C68.8124 29.3254 68.9958 29.6297 69.1099 29.964H65.6422ZM69.1384 28.4829C68.9089 28.2389 68.6343 28.0454 68.331 27.914C68.0278 27.7826 67.7021 27.716 67.3735 27.7181C67.0443 27.7124 66.7176 27.7774 66.4139 27.909C66.1101 28.0407 65.8359 28.236 65.6085 28.4829C64.6481 29.56 64.6598 30.7193 65.0387 31.8894C65.2083 32.3881 65.5401 32.81 65.977 33.0823C66.4215 33.3699 66.9397 33.5107 67.463 33.4863C68.1019 33.4618 68.7307 33.3124 69.3162 33.046C69.3676 33.0268 69.4147 32.997 69.4545 32.9584C69.4944 32.9197 69.5262 32.873 69.5481 32.8211C69.57 32.7693 69.5814 32.7133 69.5817 32.6567C69.582 32.6001 69.5712 32.544 69.5499 32.4919C69.5286 32.4398 69.4972 32.3927 69.4578 32.3536C69.4183 32.3145 69.3716 32.2841 69.3204 32.2644C69.2693 32.2447 69.2148 32.236 69.1603 32.2389C69.1058 32.2418 69.0524 32.2562 69.0035 32.2812C68.5139 32.5144 67.9845 32.6444 67.4461 32.6636C67.0778 32.6772 66.7134 32.5809 66.3962 32.3862C66.1149 32.1874 65.8972 31.9062 65.7707 31.5784C65.6851 31.3308 65.6255 31.0744 65.5929 30.8136H69.289C69.4901 30.8136 70.1494 30.8594 69.8081 29.6893C69.6855 29.2345 69.4542 28.8191 69.1358 28.4815L69.1384 28.4829Z" fill="#E8451E"/>
<path fill-rule="evenodd" clip-rule="evenodd" d="M71.7458 29.968C71.8446 29.6307 72.0231 29.3243 72.2649 29.0767C72.4227 28.9111 72.6105 28.7797 72.8176 28.69C73.0247 28.6003 73.2468 28.5541 73.4712 28.5541C73.6956 28.5541 73.9178 28.6003 74.1248 28.69C74.3319 28.7797 74.5198 28.9111 74.6775 29.0767C74.9168 29.3296 75.0998 29.6338 75.2135 29.968H71.7458ZM76 30.4029V30.0986C75.9818 29.9616 75.9522 29.8265 75.9117 29.6947C75.7905 29.2384 75.5596 28.8215 75.2408 28.4829C75.0115 28.2388 74.7372 28.0453 74.4341 27.9139C74.131 27.7824 73.8055 27.7159 73.4771 27.7181C73.1479 27.7124 72.8212 27.7773 72.5174 27.9089C72.2137 28.0406 71.9395 28.236 71.7121 28.4829C70.7517 29.5601 70.7621 30.7193 71.1423 31.8894C71.3115 32.3884 71.6434 32.8103 72.0806 33.0823C72.5251 33.3699 73.0433 33.5108 73.5666 33.4863C74.2056 33.4618 74.8343 33.3124 75.4199 33.046C75.4712 33.0268 75.5183 32.997 75.5581 32.9584C75.598 32.9197 75.6299 32.873 75.6517 32.8212C75.6736 32.7693 75.685 32.7133 75.6853 32.6567C75.6856 32.6001 75.6748 32.544 75.6535 32.4919C75.6322 32.4398 75.6008 32.3927 75.5614 32.3536C75.5219 32.3145 75.4752 32.2842 75.424 32.2644C75.3729 32.2447 75.3184 32.236 75.2639 32.2389C75.2094 32.2418 75.156 32.2562 75.1071 32.2812C74.6175 32.5144 74.0881 32.6444 73.5497 32.6636C73.1814 32.6772 72.817 32.5809 72.4998 32.3862C72.2182 32.1878 72.0003 31.9064 71.8743 31.5784C71.7888 31.3307 71.7288 31.0743 71.6952 30.8136H75.3926C75.5392 30.8149 75.9286 30.8392 75.9961 30.4029H76Z" fill="#E8451E"/>
<path fill-rule="evenodd" clip-rule="evenodd" d="M44.5222 44.2611H40.3485V37.9692H44.1121C44.1767 37.9687 44.2412 37.9723 44.3054 37.9799C44.8791 38.0459 47.3838 38.4956 47.3838 41.2827C47.3838 44.2584 44.5196 44.2584 44.5196 44.2584L44.5222 44.2611ZM43.785 35.5712H37.9995V51.6166H40.3485V46.8274H44.0368C45.2746 46.8398 46.4929 46.5069 47.5642 45.8633C48.8295 45.0864 50.0936 43.7171 50.0936 41.3501C50.0936 39.1298 48.9826 37.7214 47.8017 36.8503C46.623 36.0017 45.2195 35.5539 43.785 35.5685V35.5712Z" fill="#E8451E"/>
<path fill-rule="evenodd" clip-rule="evenodd" d="M55.9125 49.3914C55.2243 49.3914 54.5516 49.1797 53.9793 48.7832C53.407 48.3866 52.9609 47.823 52.6973 47.1634C52.4337 46.5039 52.3645 45.7781 52.4983 45.0777C52.6322 44.3774 52.9632 43.7339 53.4495 43.2287C53.9357 42.7235 54.5554 42.3791 55.2303 42.2392C55.9051 42.0992 56.6048 42.17 57.2409 42.4425C57.877 42.715 58.4209 43.177 58.804 43.7701C59.1871 44.3632 59.3921 45.0609 59.3931 45.7749V45.7843C59.3924 46.7414 59.0254 47.6591 58.3727 48.3355C57.72 49.012 56.835 49.3918 55.9125 49.3914ZM59.3931 40.1952V41.3249C58.5814 40.6414 57.5996 40.2105 56.5615 40.0821C55.5234 39.9537 54.4715 40.1331 53.5277 40.5995C52.5838 41.0659 51.7867 41.8002 51.2286 42.7174C50.6705 43.6345 50.3743 44.697 50.3743 45.7816C50.3743 46.8662 50.6705 47.9287 51.2286 48.8458C51.7867 49.763 52.5838 50.4973 53.5277 50.9637C54.4715 51.4301 55.5234 51.6095 56.5615 51.4811C57.5996 51.3527 58.5814 50.9218 59.3931 50.2383V51.5161H61.7395V40.1952H59.3931Z" fill="#E8451E"/>
<path fill-rule="evenodd" clip-rule="evenodd" d="M62.7949 40.0417H65.933L69.6148 47.3529L73.1668 40.0417H75.9947V40.0619L67.5617 56.3471H64.7987L68.0185 50.2949L62.7949 40.0417Z" fill="#E8451E"/>
</svg>
