<svg width="100" height="101" viewBox="0 0 100 101" fill="none" xmlns="http://www.w3.org/2000/svg">
<g clip-path="url(#clip0_30212_153898)">
<rect width="100" height="100" transform="translate(0 0.8125)" fill="white"/>
<path d="M35.4779 64.3718C32.8065 65.6878 29.5066 65.1182 26.9728 63.6058C24.4193 62.0933 22.4944 59.7166 20.7463 57.3203C19.7445 55.9257 18.782 54.4918 18.2124 52.8811C16.3857 47.676 19.057 41.8619 22.9069 37.8942C26.7371 33.9264 31.6673 31.1962 35.7921 27.5231C37.5403 25.9714 39.1313 24.2625 40.9973 22.8679C45.6918 19.3127 51.9576 17.9181 57.7324 19.1556C60.8359 19.8234 63.8608 21.2769 66.0018 23.6143C67.6714 25.4214 68.7517 27.6802 70.0874 29.7427C71.3837 31.7462 72.9158 33.5926 74.664 35.2229C76.2157 36.6764 77.9245 37.9727 79.3388 39.5637C84.1118 44.9653 84.3475 53.824 79.8888 59.4809C76.9424 63.2129 72.4641 65.3932 67.9856 66.9057C64.3715 68.1431 66.1196 57.2614 62.309 56.8882C59.5395 56.6132 50.1505 61.0523 47.381 65.5307C46.2025 67.436 44.0615 67.436 41.8419 67.2985C39.0724 67.1414 36.3421 66.2575 33.9851 64.7843" fill="#1B84FF" fill-opacity="0.2"/>
<path d="M27.4639 86.9463C27.5818 85.9838 28.4657 85.257 28.7014 84.3142C28.7996 83.9214 28.7799 83.4892 28.7603 83.0767C28.6032 80.1697 28.6032 77.243 28.7603 74.336C28.8192 73.0985 28.9175 71.8218 29.5656 70.7611C30.0567 69.9558 30.8424 69.2879 30.9406 68.3451C30.9995 67.7755 30.7835 67.2255 30.7835 66.6559C30.7835 66.0863 31.1174 65.4185 31.687 65.4185L31.4317 65.3006C31.6281 64.1221 30.8817 62.9828 29.9782 62.1972C29.0746 61.4115 27.9746 60.8615 27.1104 60.0561C26.1086 59.133 25.4408 57.9348 24.8123 56.7366C23.6534 54.5563 22.5534 52.2779 22.357 49.8226C22.2981 49.0958 22.3373 48.3494 22.5927 47.6816C23.1819 46.1691 24.7533 45.3442 26.2068 44.637L26.2658 44.2835C26.7372 42.7907 28.3675 41.9264 29.9192 41.8479C31.4709 41.7693 32.9834 42.3193 34.4565 42.8692C36.8922 43.7728 39.4653 44.7942 40.8992 46.9548C42.2938 49.0369 42.0384 51.2761 42.1563 53.6332C42.2545 55.4402 42.8241 56.9527 42.667 58.8383C42.608 59.4669 42.5295 60.0954 42.608 60.7043C42.7848 61.9221 43.6294 63.0614 43.4919 64.2792L43.3348 63.6507C44.6508 66.047 45.4758 68.6987 45.7508 71.429C45.849 72.3129 45.8883 73.2557 46.34 74.0217C46.7918 74.7878 47.5972 75.2788 48.2257 75.927C50.1899 78.0091 49.9149 81.2893 49.4435 84.1374" fill="white"/>
<path d="M48.9718 76.4163C48.579 75.8467 48.0682 75.3949 47.5379 74.9235C46.9879 74.4325 46.5165 73.9218 46.3004 73.195C46.0844 72.4486 46.0844 71.6826 45.9862 70.9165C45.888 70.1112 45.7308 69.3255 45.554 68.5398C45.1612 66.9292 44.5523 65.3775 43.7862 63.9043C43.747 62.8436 43.1381 61.9008 42.922 60.8794C42.7845 60.2508 42.8827 59.583 42.9417 58.9545C43.0006 58.3063 42.9809 57.6581 42.9023 57.0295C42.7648 55.8314 42.4702 54.6332 42.4309 53.4154C42.372 52.2368 42.4113 51.0387 42.2345 49.8601C42.0774 48.6816 41.6649 47.5424 40.9578 46.5799C40.3292 45.7157 39.5043 45.0282 38.6007 44.4586C37.6775 43.8889 36.6562 43.4372 35.6544 43.0443C34.4955 42.5926 33.317 42.1211 32.1188 41.8265C30.8617 41.5122 29.5064 41.4533 28.2886 41.9443C27.2279 42.3765 26.344 43.1425 25.9905 44.2425C25.9708 44.321 25.9708 44.3996 26.0101 44.4586C24.7137 45.0871 23.3388 45.8138 22.5924 47.0906C21.7085 48.603 22.0424 50.5673 22.4942 52.1583C22.9852 53.9064 23.8298 55.5563 24.6745 57.1474C25.0869 57.9134 25.4994 58.6598 26.0297 59.3277C26.5601 60.0151 27.1886 60.5847 27.8957 61.0758C28.6814 61.6258 29.5064 62.1168 30.1743 62.8043C30.7832 63.4525 31.2938 64.3168 31.1367 65.24C31.1367 65.2793 31.1367 65.2989 31.1367 65.3185C30.8224 65.5149 30.6063 65.8882 30.5278 66.2614C30.3706 67.0078 30.7831 67.7345 30.626 68.4809C30.4885 69.1488 29.9778 69.6791 29.585 70.2094C29.1529 70.7987 28.8582 71.4665 28.7011 72.1933C28.544 72.9397 28.485 73.7057 28.4654 74.4718C28.4261 75.336 28.3868 76.2199 28.3868 77.1038C28.3475 78.8716 28.3868 80.6394 28.4457 82.4072C28.4654 82.859 28.5047 83.3304 28.485 83.8018C28.4654 84.1947 28.3475 84.5482 28.1511 84.9017C27.7975 85.5499 27.2868 86.1392 27.1886 86.8856C27.169 87.0428 27.2279 87.1999 27.385 87.2392C27.5225 87.2785 27.719 87.1999 27.7386 87.0428C27.8368 86.4142 28.21 85.9231 28.5439 85.3928C28.9172 84.7643 29.0939 84.1357 29.0546 83.409C28.9957 81.7394 28.9172 80.0698 28.9368 78.3806C28.9368 76.7306 28.9564 75.061 29.1136 73.4111C29.1725 72.6843 29.31 71.9379 29.6243 71.2897C29.9189 70.6808 30.3707 70.1898 30.7439 69.6398C30.9403 69.3452 31.0974 69.0309 31.1956 68.697C31.2939 68.3041 31.2546 67.8917 31.1956 67.4988C31.1367 67.106 31.0385 66.7131 31.1367 66.3203C31.1956 66.1435 31.2939 65.9471 31.451 65.8292C33.2581 66.2417 35.0848 66.6738 36.9508 66.5363C38.5222 66.4185 40.0739 65.9274 41.4096 65.1024C42.0185 64.7292 42.5881 64.3168 43.0988 63.8257C43.138 63.9043 43.1774 63.9829 43.2166 64.0614C43.2166 64.14 43.2166 64.2186 43.197 64.2971C43.1773 64.4936 43.3345 64.5918 43.472 64.5721C44.0416 65.731 44.513 66.9292 44.8469 68.1666C45.0434 68.913 45.2201 69.6791 45.338 70.4451C45.4559 71.2112 45.4951 71.9968 45.613 72.7629C45.7308 73.4896 45.9862 74.1378 46.4773 74.6878C46.929 75.2182 47.5183 75.611 47.9897 76.1021C48.8736 77.0252 49.3057 78.2627 49.4432 79.5198C49.6003 81.0323 49.4236 82.5447 49.1682 84.0375C49.1093 84.4107 49.6789 84.5679 49.7378 84.1947C50.1503 81.6805 50.5039 78.6752 48.9718 76.4163ZM39.3079 65.4167C37.7758 65.9471 36.1847 66.0453 34.5741 65.8489C33.6902 65.731 32.8063 65.5346 31.9421 65.3382C31.9224 65.24 31.8438 65.1614 31.726 65.1614C31.8438 63.6096 30.7046 62.3722 29.5064 61.4883C28.8189 60.9776 28.0725 60.5455 27.4244 59.9759C26.7762 59.4062 26.2851 58.7384 25.8333 58.0116C25.3816 57.2849 24.9887 56.4992 24.5959 55.7331C24.1834 54.9278 23.7905 54.1225 23.4763 53.2779C23.162 52.4529 22.9066 51.5886 22.7495 50.7244C22.612 49.8798 22.5138 48.937 22.7495 48.0924C23.2013 46.4621 24.8512 45.6174 26.2458 44.9496C26.3048 45.0478 26.4226 45.1264 26.5601 45.1068C26.8743 45.0478 27.2279 44.9889 27.5422 45.0674C27.9154 45.1656 28.0529 45.4406 28.1118 45.8138C28.21 46.4424 28.1118 47.1299 27.8368 47.6995C27.7386 47.8959 27.6208 48.0727 27.5029 48.2495C27.3458 48.2691 27.2475 48.387 27.2475 48.5441C27.0118 48.7602 26.7565 48.9369 26.4422 49.0548C25.6762 49.3494 24.6941 49.428 23.8888 49.2316C23.5156 49.1334 23.3584 49.703 23.7316 49.8012C24.5173 49.9976 25.3815 49.9584 26.1672 49.7619C26.5797 49.6637 26.9529 49.5066 27.2868 49.2709C27.444 50.0762 27.935 50.803 28.6422 51.2154C28.6618 51.2351 28.6815 51.2351 28.7011 51.2351C28.7797 51.5297 28.8779 51.8047 28.9957 52.0797C29.3493 52.8851 30.0171 53.8868 31.0188 53.7886C31.0974 53.7886 31.1563 53.7493 31.2153 53.71C31.6081 54.1618 32.1188 54.535 32.6884 54.751C31.7652 55.6153 31.3331 56.951 31.6474 58.1884C31.7456 58.5616 32.3152 58.4045 32.217 58.0313C31.942 56.9117 32.3938 55.6349 33.3366 54.9475L33.3563 54.9278C33.3956 54.9278 33.4348 54.9475 33.4741 54.9475C34.2794 55.0653 35.1044 54.9671 35.8705 54.6725C36.558 54.3975 37.2847 53.9457 37.5597 53.2189C37.7365 52.7475 37.6383 52.2957 37.3829 51.9422C37.4026 51.9225 37.4222 51.9226 37.4419 51.9029C37.5008 51.8636 37.5597 51.844 37.6186 51.8047C37.6383 51.8047 37.6579 51.7851 37.6579 51.7851C37.6972 51.7654 37.7168 51.7654 37.7561 51.7458C37.815 51.7261 37.874 51.7065 37.9525 51.7065C37.9722 51.7065 37.9918 51.7065 38.0115 51.7065C38.0507 51.7065 38.0704 51.7065 38.1097 51.7065C38.149 51.7065 38.1882 51.7065 38.2079 51.7065C38.2275 51.7065 38.2472 51.7065 38.2472 51.7065C38.2668 51.7065 38.2668 51.7065 38.2864 51.7065C38.2668 51.7065 38.2668 51.7065 38.2472 51.7065C38.2668 51.7065 38.3257 51.7262 38.3454 51.7262C38.3847 51.7262 38.424 51.7458 38.4632 51.7458C38.6204 51.7851 38.7972 51.6868 38.8168 51.5493C38.8561 51.3922 38.7775 51.2351 38.6204 51.1958C38.0508 51.019 37.4026 51.1565 36.9508 51.5297C36.8526 51.4708 36.774 51.4119 36.6562 51.3726C36.4598 51.294 36.2633 51.2351 36.0669 51.2154C36.0865 51.2154 36.0865 51.1958 36.1062 51.1958C36.3026 51.0387 36.4597 50.8422 36.5972 50.6262C36.9312 50.1351 37.2454 49.6441 37.5793 49.1727C37.6776 49.0352 37.599 48.8387 37.4811 48.7602C37.3436 48.6816 37.1668 48.7405 37.0686 48.8584C36.774 49.2905 36.4794 49.7227 36.2044 50.1548C36.0865 50.3316 35.9883 50.4887 35.8508 50.6262C35.8312 50.6458 35.7723 50.7047 35.7526 50.7244C35.7723 50.7047 35.7133 50.7637 35.7133 50.7637C35.6937 50.7833 35.674 50.7833 35.6544 50.803C35.6544 50.803 35.6347 50.803 35.6347 50.8226C35.6151 50.8226 35.5955 50.8423 35.5759 50.8423C35.5759 50.8423 35.4776 50.8423 35.5365 50.8423C35.3794 50.8226 35.2223 50.8815 35.183 51.0387C35.1634 51.1172 35.183 51.2155 35.2419 51.294C35.2026 51.294 35.183 51.3137 35.1437 51.3137C35.1633 51.2744 35.183 51.2351 35.183 51.1762C35.1634 50.3708 34.5545 49.6048 33.7491 49.4673C33.592 49.4477 33.4152 49.5066 33.3956 49.6637C33.3563 49.8012 33.4348 49.9977 33.592 50.0173C33.6705 50.0369 33.7491 50.0565 33.8277 50.0762C33.8473 50.0762 33.867 50.0958 33.8866 50.0958C33.8473 50.0762 33.8473 50.0762 33.8669 50.0762C33.8669 50.0762 33.8866 50.0762 33.8866 50.0958C33.9259 50.1155 33.9652 50.1351 33.9848 50.1548C34.0241 50.1744 34.0437 50.1941 34.083 50.2137C34.1027 50.2334 34.1223 50.2334 34.1223 50.253C34.0634 50.2137 34.1027 50.253 34.1223 50.253C34.1812 50.3119 34.2402 50.3708 34.2991 50.4298C34.3188 50.4494 34.3384 50.469 34.3384 50.469L34.3187 50.4494C34.3187 50.4691 34.3384 50.469 34.3384 50.4887C34.358 50.528 34.3777 50.5476 34.3973 50.5869C34.417 50.6262 34.4366 50.6655 34.4562 50.6851C34.4562 50.7048 34.4759 50.7244 34.4759 50.744C34.4955 50.8226 34.5348 50.8815 34.5348 50.9601C34.5348 50.9797 34.5348 50.9994 34.5544 51.019C34.5544 51.0583 34.5544 51.0976 34.5544 51.1369C34.5544 51.2351 34.6134 51.353 34.7116 51.3922C34.4562 51.4905 34.2009 51.6083 33.9652 51.7262C33.6312 51.8833 33.9259 52.394 34.2598 52.2368C34.8687 51.9422 35.6151 51.5887 36.3026 51.8244C36.4597 51.8833 36.5972 51.9422 36.6954 52.0404C36.7151 52.06 36.7151 52.0797 36.7347 52.0993C36.7544 52.119 36.774 52.119 36.7937 52.1386C37.0294 52.394 37.1276 52.7279 36.9508 53.0814C36.6562 53.6511 35.9687 53.985 35.399 54.1814C34.7509 54.3975 34.0241 54.4564 33.3563 54.2993C32.0992 54.0046 31.176 53.0618 30.901 51.8047C30.7635 51.1369 30.7439 50.4298 30.8028 49.7619C30.8617 49.1334 31.0778 48.4852 31.5295 48.0334C32.0402 47.5227 32.767 47.287 33.4348 47.071C34.2991 46.796 35.1633 46.521 36.0276 46.246C36.3811 46.1281 36.224 45.5585 35.8705 45.6764C34.9669 45.971 34.0437 46.246 33.1402 46.5406C32.4331 46.7763 31.6867 47.0513 31.1367 47.5816C30.5867 48.112 30.3314 48.8584 30.2331 49.6048C30.1349 50.4101 30.1546 51.2547 30.351 52.0404C30.4492 52.4332 30.6063 52.8065 30.8224 53.1404C30.1742 53.0815 29.7618 52.3351 29.5261 51.7851C29.2118 51.078 29.0939 50.2923 29.0743 49.5262C29.0546 48.7406 29.1528 47.9156 29.3689 47.1495C29.4671 46.737 29.6439 46.3835 29.9582 46.0889C30.2332 45.8335 30.6064 45.6371 30.9403 45.4603C31.667 45.1067 32.3938 45.3228 33.1599 45.3425C33.5331 45.3621 33.5331 44.7728 33.1599 44.7532C32.3938 44.7139 31.6474 44.5175 30.901 44.8317C30.0564 45.1853 29.251 45.7353 28.9171 46.6192C28.6029 47.4638 28.5047 48.4459 28.485 49.3494C28.485 49.6637 28.5047 49.978 28.5439 50.2923C28.1118 49.8798 27.8565 49.2905 27.8172 48.6816C27.8368 48.6423 27.8761 48.6227 27.8957 48.5834C28.2886 48.0924 28.5636 47.5031 28.6618 46.8746C28.76 46.246 28.7993 45.4407 28.4065 44.9103C28.2297 44.655 27.994 44.5175 27.719 44.4389C27.7386 44.3996 27.7583 44.3604 27.7583 44.3211C27.7583 44.2425 27.7779 44.1639 27.8172 44.0657C27.8368 44.0068 27.8368 43.9871 27.8565 43.9675C27.8761 43.9282 27.8957 43.8693 27.935 43.83C28.0332 43.6729 28.1904 43.5157 28.3083 43.4175C28.7011 43.1229 29.1529 43.005 29.6243 42.9068C29.7814 42.8675 29.8796 42.6908 29.8207 42.5533C29.7814 42.3961 29.6243 42.3176 29.4671 42.3569C28.8975 42.4747 28.3475 42.6514 27.8957 43.005C27.4833 43.3389 27.2083 43.8103 27.169 44.3407C27.169 44.3603 27.169 44.38 27.169 44.3996C26.9137 44.3996 26.6583 44.4389 26.4226 44.4782C26.4226 44.4782 26.4226 44.4586 26.4029 44.4586C26.4422 44.4193 26.4815 44.38 26.5011 44.3211C26.7958 43.4175 27.5618 42.7693 28.4261 42.4157C29.4671 42.0033 30.5671 42.0229 31.6474 42.2586C32.826 42.514 33.9652 42.9657 35.1044 43.3978C36.0865 43.7711 37.049 44.1836 37.9525 44.6943C38.8364 45.2049 39.6614 45.8335 40.29 46.6192C40.9971 47.5031 41.4096 48.5441 41.606 49.6637C41.7828 50.7637 41.7631 51.8833 41.8024 53.0029C41.8417 54.1618 42.0381 55.301 42.2345 56.4403C42.3327 57.0885 42.3917 57.7563 42.372 58.4241C42.3524 59.1509 42.1953 59.8776 42.2935 60.6044C42.3917 61.4097 42.8042 62.1758 43.0399 62.9615C41.9988 64.1007 40.7221 64.9257 39.3079 65.4167ZM37.6383 51.8047C37.6383 51.8047 37.6579 51.8047 37.6383 51.8047V51.8047ZM35.5759 50.8226C35.5562 50.8226 35.5562 50.8226 35.5759 50.8226V50.8226ZM44.9059 69.8559C43.9238 70.3076 42.9416 70.7594 41.9399 71.1326C40.1328 71.8005 38.2864 72.095 36.3812 71.7808C34.4759 71.4861 32.6884 70.6808 30.9403 69.9148C30.5867 69.7576 30.901 69.247 31.2349 69.4041C32.1777 69.8166 33.1402 70.2487 34.1223 70.5826C35.8508 71.1915 37.6776 71.5058 39.5043 71.1915C41.3114 70.8772 42.9809 70.1112 44.6112 69.3452C44.9452 69.188 45.2398 69.6987 44.9059 69.8559ZM41.4292 68.2256C41.547 68.3631 41.7042 68.4613 41.881 68.5202C42.2149 68.6381 42.6274 68.5398 42.8631 68.2648C43.0791 67.9899 43.1774 67.597 43.0399 67.2631C42.9613 67.0667 42.8631 66.9292 42.6863 66.8113C42.5488 66.7131 42.3524 66.6738 42.1953 66.6738C41.9988 66.6738 41.8024 66.7327 41.6453 66.831C41.4488 66.9488 41.331 67.1059 41.2524 67.322C41.2328 67.3809 41.2328 67.4595 41.2721 67.5184C41.2328 67.5774 41.1935 67.6363 41.2131 67.6952C41.2328 67.8917 41.2917 68.0684 41.4292 68.2256ZM42.1363 67.9899C42.1363 67.9899 42.1559 67.9899 42.1756 67.9899C42.1559 67.9899 42.1363 67.9899 42.1363 67.9899ZM42.3524 67.9702C42.3524 67.9506 42.3524 67.9506 42.3524 67.9702V67.9702ZM42.4309 67.9113C42.4309 67.9113 42.4506 67.8916 42.4506 67.872C42.4506 67.8916 42.4309 67.8916 42.4309 67.9113ZM42.4899 67.8131L42.5095 67.7738C42.4899 67.7934 42.4899 67.8131 42.4899 67.8131ZM42.5292 67.6756C42.5292 67.6559 42.5292 67.6559 42.5292 67.6559C42.5292 67.6559 42.5292 67.6559 42.5292 67.6756ZM42.5095 67.4595C42.5095 67.4595 42.5095 67.4595 42.5095 67.4399C42.5095 67.4595 42.5095 67.4595 42.5095 67.4595ZM42.4702 67.4006C42.4702 67.4006 42.4506 67.3809 42.4506 67.3613C42.4703 67.3809 42.4702 67.4006 42.4702 67.4006ZM42.0184 67.3024C41.9988 67.3024 41.9988 67.3024 41.9988 67.3024C41.9988 67.3024 41.9988 67.3024 42.0184 67.3024ZM41.8613 67.4202C41.881 67.4006 41.9006 67.3809 41.9006 67.3613C41.9006 67.3613 41.9202 67.3613 41.9202 67.3417C41.9399 67.322 41.9595 67.322 41.9792 67.3024C41.9792 67.3024 41.9988 67.3024 41.9988 67.2827C42.0185 67.2827 42.0577 67.2631 42.0774 67.2631C42.097 67.2631 42.097 67.2631 42.1167 67.2631C42.1363 67.2631 42.156 67.2631 42.1953 67.2631C42.2149 67.2631 42.2149 67.2631 42.2345 67.2631C42.2542 67.2631 42.2935 67.2827 42.2935 67.2827C42.3131 67.2827 42.3131 67.2828 42.3327 67.3024C42.3524 67.322 42.372 67.322 42.3917 67.3417L42.4113 67.3613L42.4309 67.3809C42.4309 67.3809 42.431 67.4006 42.4506 67.4006C42.4506 67.4203 42.4702 67.4202 42.4702 67.4399C42.4702 67.4399 42.4702 67.4399 42.4899 67.4595C42.4899 67.4791 42.5095 67.5185 42.5095 67.5381V67.5577C42.5095 67.5774 42.5095 67.6167 42.5095 67.6363C42.5095 67.6559 42.5095 67.6756 42.5095 67.6756C42.5095 67.6952 42.4899 67.7345 42.4899 67.7345C42.4899 67.7345 42.4899 67.7541 42.4899 67.7738V67.7935C42.4899 67.8131 42.4702 67.8131 42.4702 67.8327C42.4702 67.8327 42.4506 67.8524 42.4506 67.872C42.4506 67.872 42.4506 67.8917 42.4309 67.8917C42.4113 67.9113 42.4113 67.9113 42.3917 67.9309L42.372 67.9506C42.3524 67.9702 42.3327 67.9702 42.3131 67.9899H42.2935C42.2738 67.9899 42.2738 67.9899 42.2542 67.9899C42.2345 67.9899 42.2149 67.9899 42.1756 67.9899C42.1756 67.9899 42.1756 67.9899 42.156 67.9899H42.1363C42.097 67.9899 42.0774 67.9702 42.0381 67.9702C42.0381 67.9702 42.0184 67.9702 42.0184 67.9506C41.9988 67.9309 41.9595 67.9113 41.9399 67.8917C41.9203 67.872 41.9203 67.872 41.9006 67.8523C41.881 67.8327 41.881 67.8327 41.8613 67.8131L41.8417 67.7935C41.8417 67.7738 41.822 67.7738 41.822 67.7541C41.822 67.7541 41.822 67.7542 41.822 67.7345V67.7149C41.822 67.6952 41.8024 67.6756 41.8024 67.6559V67.6363C41.8024 67.597 41.7827 67.5774 41.7827 67.5577C41.8024 67.5381 41.822 67.5184 41.822 67.4792C41.822 67.4595 41.8417 67.4595 41.8417 67.4399C41.8417 67.4399 41.8417 67.4202 41.8613 67.4202Z" fill="black"/>
<path d="M54.9823 100.065C54.0395 97.5903 55.5716 94.9386 56.7698 92.5619C58.4393 89.2228 59.5196 85.5693 59.8928 81.857C60.0893 79.8927 60.2071 77.7125 61.6606 76.3768V76.3964C62.5445 69.1681 61.7196 61.6059 64.1945 54.7508C64.5284 53.8472 64.9213 52.9241 65.648 52.2759C66.2962 51.667 67.1605 51.3331 68.0051 51.0384C69.4979 50.5474 71.0496 50.1545 72.621 49.9188C73.9959 49.7028 75.4298 49.5849 76.7458 49.9974C77.7476 50.3117 78.769 50.9795 79.26 51.9419C79.4368 52.2955 79.4172 52.7669 79.7511 52.9437C80.1047 53.1205 80.7725 52.8258 81.2243 53.0812C81.6367 53.3169 81.951 53.6901 82.2653 54.0633C82.6974 54.5936 83.1099 55.1436 83.4831 55.7133C83.7188 56.0472 83.9349 56.4007 84.0134 56.7936C84.092 57.1668 84.0331 57.54 83.9742 57.9132C83.3653 61.5077 81.4992 64.8665 78.7493 67.2628C77.9833 67.9307 77.1387 68.5396 76.2941 69.1092C75.4691 69.6592 74.2906 70.1306 73.5835 70.8377C73.0335 71.3877 72.9942 72.3502 72.8371 73.0966C72.6014 74.2358 72.4246 75.3947 72.3067 76.5536L72.621 76.8679C73.8192 77.2411 74.2709 78.7339 74.1531 79.9713C74.0352 81.2088 73.5442 82.4069 73.5442 83.664C73.5638 85.5693 74.7227 87.2389 75.6655 88.9085C77.6494 92.4441 78.6708 96.51 78.5922 100.556" fill="white"/>
<path d="M83.7973 55.6345C83.4437 55.1042 83.0509 54.5739 82.658 54.0632C82.3044 53.6114 81.9509 53.1596 81.4598 52.865C81.2438 52.7472 81.0277 52.6882 80.7723 52.6686C80.517 52.6686 80.2813 52.7275 80.0259 52.6882C79.8295 52.6686 79.7706 52.5311 79.7117 52.3543C79.6331 52.1186 79.5742 51.8829 79.4367 51.6472C79.1813 51.1758 78.7885 50.8026 78.376 50.4686C76.3725 48.9562 73.6815 49.3687 71.3834 49.8205C70.1263 50.0758 68.8692 50.4097 67.6514 50.8419C66.5907 51.2151 65.5889 51.7258 64.9015 52.6489C64.214 53.5918 63.8408 54.7507 63.5069 55.8506C63.1337 57.0488 62.8587 58.2666 62.6426 59.504C61.798 64.4539 61.9748 69.5019 61.5427 74.5107C61.4838 75.0803 61.4248 75.6499 61.3659 76.2195C60.3248 77.2213 59.9517 78.6551 59.7749 80.0301C59.6767 80.7765 59.6177 81.5425 59.5195 82.2889C59.4213 83.1728 59.2642 84.0371 59.0874 84.9014C58.7142 86.6495 58.2035 88.3584 57.5553 90.0083C56.9071 91.6386 56.0429 93.1511 55.3357 94.7421C54.5893 96.4313 54.0001 98.317 54.6679 100.124C54.8054 100.478 55.375 100.32 55.2375 99.9669C54.6483 98.3955 55.1 96.7456 55.7286 95.2724C56.3964 93.7207 57.2411 92.2672 57.9089 90.7155C58.5767 89.1244 59.107 87.4941 59.4999 85.8245C59.8731 84.1942 60.0892 82.564 60.2659 80.8944C60.4231 79.4409 60.6391 77.8498 61.6802 76.7499C61.6802 76.7499 61.6802 76.7499 61.6998 76.7499C64.8426 77.7712 68.3192 78.8712 71.5995 77.7124C71.9727 77.5749 72.3852 77.457 72.6994 77.182C73.8976 77.6927 74.0155 79.3623 73.819 80.4819C73.6619 81.3461 73.4065 82.1908 73.3083 83.055C73.2298 83.88 73.3476 84.6853 73.603 85.471C74.1333 87.0424 75.1351 88.3977 75.8815 89.8708C76.6671 91.4226 77.2564 93.0725 77.6689 94.7617C78.1206 96.6474 78.3367 98.592 78.3171 100.537C78.3171 100.91 78.9063 100.91 78.9063 100.537C78.9653 96.9813 78.1992 93.4261 76.6868 90.2047C76.3136 89.4191 75.8815 88.653 75.4493 87.887C75.0172 87.1602 74.5851 86.4138 74.2708 85.6085C73.9565 84.8032 73.7994 83.9782 73.878 83.1336C73.9565 82.23 74.2512 81.3462 74.4083 80.4623C74.6244 79.0873 74.3494 77.3195 72.9941 76.6713C73.0137 76.5142 72.9744 76.3767 72.8369 76.2392C72.778 76.1803 72.7387 76.1606 72.6798 76.1606C72.7584 75.4535 72.8762 74.766 72.9941 74.0589C73.0137 74.0196 73.0137 73.9803 73.0137 73.9214C73.0923 73.5286 73.1512 73.1357 73.2101 72.7429C73.2887 72.2715 73.3476 71.7608 73.5833 71.3286C73.819 70.8769 74.2904 70.6019 74.7029 70.3465C75.1743 70.0519 75.6654 69.8162 76.1368 69.5412C76.6475 69.2269 77.1582 68.8734 77.6296 68.5198C78.5724 67.8323 79.4563 67.0663 80.242 66.1824C81.7152 64.5521 82.8544 62.6468 83.5812 60.5843C83.758 60.0737 83.9151 59.563 84.033 59.0326C84.1705 58.4827 84.3079 57.8934 84.3276 57.3238C84.4062 56.7149 84.1508 56.1649 83.7973 55.6345ZM77.9635 59.6808C77.9046 59.6808 77.8457 59.6808 77.7867 59.6808H77.7475C78.2974 59.1112 78.6903 58.3452 78.9456 57.5595C79.0242 57.7559 79.1224 57.9523 79.2206 58.1095C79.1224 58.5809 78.9653 59.0523 78.6117 59.3665C78.4742 59.504 78.2778 59.6023 78.0814 59.6416C78.0617 59.6416 78.0421 59.6415 78.0224 59.6612C78.0224 59.6808 77.9635 59.6808 77.9635 59.6808ZM71.4423 77.1624C71.0298 77.2999 70.6173 77.4177 70.2048 77.4963C69.321 77.6534 68.3978 77.673 67.4943 77.5945C65.6086 77.4373 63.7819 76.8285 61.9748 76.2392C62.1319 74.825 62.2498 73.4107 62.3284 71.9965C64.6461 73.6464 67.4943 74.5303 70.3424 74.491C71.0102 74.491 71.678 74.4125 72.3459 74.3142C72.3262 74.4517 72.3066 74.5696 72.2869 74.7071C72.1887 75.316 72.1102 75.9445 72.0512 76.5731C72.0316 76.7302 72.1298 76.8088 72.2477 76.8481C72.2084 76.8677 72.1495 76.907 72.1102 76.9267C71.8941 77.0052 71.678 77.0838 71.4423 77.1624ZM83.6597 58.1095C83.5615 58.6398 83.4437 59.1505 83.2865 59.6808C82.6776 61.7236 81.6759 63.6289 80.3206 65.2592C78.867 67.0073 77.0207 68.402 75.0368 69.5019C74.1922 69.9733 73.2494 70.4644 72.9155 71.4465C72.7583 71.9179 72.6994 72.409 72.6012 72.9C72.5423 73.175 72.503 73.4303 72.4441 73.7053C69.7531 74.1964 66.905 73.8035 64.4301 72.5857C63.7033 72.2322 63.0159 71.8197 62.3873 71.3286L62.3676 71.309C62.5248 68.1073 62.5837 64.9056 62.9569 61.7236C63.2319 59.3273 63.7229 56.9309 64.5676 54.6524C64.9604 53.6114 65.4908 52.6489 66.4532 52.04C67.455 51.4311 68.6728 51.1168 69.7924 50.8222C71.0102 50.5079 72.2477 50.2329 73.4851 50.0955C74.6637 49.958 75.9011 49.958 77.0403 50.3901C77.9242 50.7436 78.7296 51.3722 79.0831 52.2561C78.8867 52.2757 78.7099 52.4721 78.8474 52.6882C79.0242 52.9632 79.0831 53.2775 79.1028 53.6114C78.5528 54.4364 78.4349 55.497 78.6314 56.4792C78.5921 56.6559 78.5528 56.8327 78.4939 57.0095C78.16 58.2077 77.5314 59.5237 76.2939 59.9558C76.3136 59.9165 76.3529 59.8773 76.3725 59.838C76.8046 59.1112 77.06 58.2862 77.335 57.5005C77.6492 56.597 77.9242 55.6935 78.0617 54.7506C78.2189 53.7096 78.1796 52.6686 77.8653 51.6865C77.7474 51.3329 77.1778 51.49 77.2957 51.8436C77.826 53.4542 77.4921 55.1435 76.9814 56.7149C76.7457 57.4809 76.4707 58.2469 76.1564 58.9737C75.8618 59.6219 75.4886 60.2308 74.8404 60.5647C74.2512 60.8594 73.5637 60.879 72.9548 60.6629C73.328 60.3683 73.7012 60.0737 74.0155 59.7201C74.4476 59.2487 74.7225 58.6791 74.919 58.0702C75.135 57.4024 75.3511 56.7345 75.4886 56.0667C75.8029 54.6917 75.8225 53.1793 74.9976 51.9811C74.7815 51.6668 74.2708 51.9615 74.4869 52.2758C75.0958 53.14 75.194 54.2399 75.0565 55.281C74.9779 55.8506 74.8208 56.4006 74.6637 56.9702C74.5065 57.4809 74.369 58.0112 74.1529 58.4826C73.9172 58.9933 73.5833 59.3862 73.1708 59.7398C72.778 60.0737 72.3655 60.4272 71.9334 60.7022C71.2066 61.1736 69.8709 61.6254 69.4781 60.5058C69.2817 59.9362 69.4585 59.3273 69.6942 58.7773C69.8513 58.3844 70.1263 57.8148 70.6174 57.8148C70.8138 57.8148 70.9513 57.6184 70.8923 57.4416C70.6566 56.6559 70.7155 55.8309 71.0887 55.0845C71.128 55.006 71.128 54.9078 71.1084 54.8488C71.462 54.456 71.7566 54.0042 71.9923 53.5328C72.0512 53.3953 72.0316 53.1989 71.8941 53.1203C71.7566 53.0418 71.5602 53.081 71.4816 53.2185C71.3441 53.5132 71.1673 53.8078 70.9709 54.0828C70.9513 54.1025 70.9316 54.1417 70.912 54.1614L70.8923 54.181C70.8727 54.2007 70.8727 54.2007 70.8531 54.2203C70.7941 54.2792 70.7548 54.3578 70.6959 54.4167C70.6566 54.456 70.6174 54.4953 70.5781 54.5346C69.7335 54.2007 69.537 53.1204 69.3995 52.315C69.3799 52.1579 69.1835 52.0793 69.046 52.1186C68.8888 52.1579 68.8103 52.315 68.8496 52.4722C68.9478 53.0418 69.046 53.6311 69.3406 54.1418C69.5567 54.515 69.8709 54.8292 70.2638 55.0257C70.2638 55.0846 70.3031 55.1631 70.3424 55.2024C70.362 55.2221 70.3816 55.2417 70.4209 55.2417C70.2049 55.8899 70.146 56.5773 70.2834 57.2452C69.9102 57.363 69.6352 57.6773 69.4192 58.0113C69.1049 58.5416 68.8692 59.1898 68.8496 59.8183C68.8299 60.3487 68.987 60.9379 69.3799 61.3111C69.8317 61.7433 70.4602 61.8022 71.0299 61.6843C71.5406 61.5861 72.0316 61.3308 72.4637 61.0165C73.1315 61.3701 73.9172 61.4486 74.644 61.2522C75.1547 61.1147 75.5868 60.8201 75.9404 60.4469C75.9993 60.5451 76.1171 60.604 76.2546 60.5647C76.6475 60.4665 77.0011 60.3094 77.3153 60.0933C77.885 60.3683 78.5528 60.2308 79.0438 59.838C79.417 59.5237 79.6527 59.0915 79.7902 58.6201C79.8099 58.6398 79.8492 58.6594 79.8688 58.6791C80.5563 59.0916 81.4009 58.9934 82.1277 59.288C82.4812 59.4255 82.6383 58.8558 82.2848 58.7183C81.6759 58.463 80.9688 58.522 80.3599 58.2666C79.7313 57.9916 79.4956 57.2255 79.3385 56.6166C79.0242 55.4185 79.201 53.965 80.3206 53.2579C80.4581 53.2579 80.5759 53.2382 80.7134 53.2382C80.9884 53.2382 81.1848 53.2971 81.4009 53.4543C81.8527 53.8078 82.2062 54.3185 82.5598 54.7703C82.933 55.2614 83.3062 55.7524 83.6008 56.2827C83.8562 56.8916 83.7776 57.4613 83.6597 58.1095ZM64.2533 74.491C64.273 74.6285 64.2729 74.7857 64.1944 74.9035C64.1158 75.0214 64.0176 75.0999 63.8801 75.1392C63.6444 75.1981 63.4087 75.1196 63.2319 74.9625C63.1533 74.8839 63.0748 74.7856 63.0551 74.6874C63.0158 74.5696 63.0355 74.4517 63.0748 74.3339C63.0748 74.3142 63.0944 74.2946 63.0944 74.275C63.1533 74.1375 63.2908 74.0393 63.4283 74.0196C63.4872 74 63.5462 74 63.6051 74C63.664 74 63.7426 74.0196 63.8015 74.0392C63.9194 74.0785 64.0176 74.1375 64.0962 74.216C64.1551 74.275 64.2337 74.3928 64.2533 74.491ZM73.3869 62.8236C74.2708 64.0414 74.369 65.7503 73.6422 67.0859C73.4654 67.4198 72.9548 67.1252 73.1316 66.7913C73.7601 65.6324 73.6422 64.1985 72.8762 63.1378C72.6601 62.8039 73.1709 62.5093 73.3869 62.8236Z" fill="black"/>
<path d="M45.4561 67.5121C45.7114 65.2533 46.7328 63.1123 48.3042 61.482C48.5006 61.2659 48.7363 61.0302 48.7559 60.7356C48.7756 60.4017 48.5006 60.107 48.3828 59.7927C48.0685 59.0267 48.5596 58.1624 48.6381 57.3375C48.7167 56.4536 48.2845 55.609 48.3042 54.7251C48.3042 53.2323 49.7577 51.8966 51.2505 51.9948L50.7791 51.5234C52.3898 46.9861 48.4417 43.2148 46.6346 39.3649C46.006 38.0292 45.4365 36.5953 45.5936 35.1418C45.7507 33.6883 46.9096 32.2348 48.3828 32.2544C48.1471 30.7027 49.797 29.1706 51.3291 29.5438C51.7416 28.8563 52.1737 28.11 52.8808 27.7564C53.5879 27.4028 54.6486 27.5796 54.9432 28.326C55.4539 27.7564 56.1021 27.2261 56.8682 27.2261C57.5949 27.2261 58.2431 27.7368 58.6163 28.3457C58.9895 28.9546 59.1466 29.6813 59.3038 30.3884C60.502 29.5831 62.2698 30.2509 63.0555 31.4688C63.8411 32.6866 63.8608 34.2383 63.6251 35.6722C63.3697 37.2043 62.859 38.6971 62.1126 40.0524C61.2876 41.5255 60.0305 42.9594 59.5591 44.5897C59.0092 46.4361 59.6966 48.5378 60.2466 50.3056L60.1877 49.8734C61.0716 51.2484 61.5037 52.8984 61.4055 54.509C61.3859 54.784 61.3662 55.0983 61.4841 55.3536C61.6216 55.6483 61.9358 55.825 62.1716 56.0607C62.4073 56.2964 62.5644 56.6893 62.3287 56.9446" fill="white"/>
<path d="M62.0931 40.681C62.9967 39.1882 63.6252 37.5185 63.9198 35.79C64.1752 34.2383 64.1948 32.4509 63.1931 31.1348C62.3681 30.0545 60.8164 29.4063 59.52 29.9563C59.2646 28.876 58.8718 27.7171 57.8111 27.1868C56.8683 26.6957 55.9451 27.0493 55.1987 27.6778C55.1005 27.5796 54.9434 27.5993 54.8255 27.6975C54.3738 27.3046 53.7255 27.2064 53.1166 27.3636C52.2131 27.6189 51.6435 28.4439 51.1917 29.2099C51.1721 29.2099 51.1524 29.2296 51.1328 29.2296C49.5811 29.0528 48.1275 30.3884 48.0686 31.9205C48.0293 31.9402 47.9901 31.9598 47.9508 31.9795C47.9311 31.9795 47.9311 31.9991 47.9114 31.9991C46.7329 32.2151 45.8097 33.2366 45.4562 34.3758C44.9258 36.0061 45.5741 37.7739 46.2615 39.2471C47.4597 41.8595 49.4043 44.079 50.3667 46.7896C50.9167 48.3021 51.0149 49.8931 50.4846 51.4252C50.4453 51.5627 50.4846 51.6609 50.5828 51.7395C49.7185 51.8966 48.9329 52.4466 48.4614 53.193C48.1668 53.6448 47.99 54.1948 47.99 54.7251C47.99 55.4322 48.2454 56.1197 48.324 56.8071C48.3829 57.475 48.1472 58.0642 48.0293 58.7124C47.9704 59.0071 47.9507 59.2821 48.0097 59.5767C48.0686 59.9106 48.265 60.1659 48.4025 60.4802C48.5204 60.7552 48.3829 60.9516 48.2061 61.1677C47.99 61.4034 47.774 61.6391 47.5579 61.8748C47.1454 62.3659 46.7722 62.8962 46.4579 63.4659C45.7508 64.723 45.3187 66.0979 45.1615 67.5121C45.1223 67.8853 45.7115 67.8853 45.7508 67.5121C45.8883 66.3139 46.2615 65.1158 46.8115 64.0551C47.0865 63.5248 47.4204 62.9944 47.7936 62.523C47.9704 62.307 48.1472 62.0909 48.3436 61.8748C48.54 61.6588 48.7954 61.4427 48.9329 61.1677C49.0704 60.932 49.09 60.657 48.9918 60.382C48.9132 60.1267 48.7168 59.9106 48.6186 59.6356C48.4025 59.0464 48.7168 58.3982 48.8347 57.8089C48.9722 57.1804 48.8936 56.5715 48.7561 55.9429C48.6382 55.3536 48.4811 54.7644 48.6382 54.1751C48.9329 53.0555 50.0525 52.2109 51.2113 52.2698C51.3096 52.2698 51.3685 52.2502 51.4078 52.1912C53.1363 52.5448 54.9237 52.5644 56.6522 52.2305C57.4772 52.0734 58.3218 51.8573 59.0879 51.5234C59.5396 51.327 59.9717 51.0324 60.2467 50.6395C60.7181 51.5823 61.0128 52.6037 61.0717 53.6644C61.0913 53.9787 61.0913 54.2733 61.0717 54.5876C61.0521 54.9215 61.0521 55.2554 61.2288 55.5501C61.3663 55.7858 61.5628 55.9429 61.7788 56.1001C61.8967 56.1983 62.2503 56.5125 62.0931 56.7089C61.8574 57.0036 62.2699 57.4161 62.5056 57.1214C62.9377 56.5715 62.5449 55.9822 62.0931 55.609C61.8181 55.3929 61.6413 55.1965 61.6413 54.8233C61.6413 54.4501 61.6806 54.0965 61.661 53.7233C61.602 52.2895 61.1503 50.8949 60.3842 49.6967C60.3646 49.6574 60.3253 49.6181 60.286 49.5985C59.8342 48.1253 59.3825 46.5736 59.6771 45.0415C60.07 43.4308 61.2289 42.0756 62.0931 40.681ZM57.654 27.7564C58.4593 28.2475 58.754 29.1903 58.9504 30.0742C58.7736 30.0938 58.5771 30.1331 58.42 30.1724C58.1254 30.2313 57.8111 30.3492 57.5558 30.5063C56.9861 30.8795 56.7701 31.5277 56.9076 32.1955C57.104 33.2169 58.0075 33.8651 58.9897 34.1008C58.9504 34.1794 58.9504 34.2776 58.9897 34.3561C58.97 34.3758 58.9504 34.4151 58.9307 34.4544C58.8914 34.6115 58.8325 34.7687 58.7932 34.9258C58.7736 35.0044 58.7539 35.0829 58.7146 35.1615C58.695 35.2204 58.695 35.2794 58.6558 35.3186C58.5968 35.3776 58.479 35.3972 58.4004 35.4168C58.2825 35.4365 58.1647 35.4561 58.0468 35.4561C57.6147 35.4758 57.2022 35.3579 56.8486 35.1418C56.8486 35.0829 56.8683 35.0437 56.8683 34.9847C56.9076 34.1794 56.6326 33.3741 56.554 32.5687C56.4754 31.783 56.3772 30.9974 56.1808 30.2117C56.004 29.5242 55.7683 28.8367 55.4933 28.1885C56.0826 27.6582 56.8487 27.2654 57.654 27.7564ZM53.1363 27.9724C53.6273 27.7564 54.4523 27.835 54.688 28.4046C54.7469 28.5421 54.8845 28.6403 55.022 28.6206C55.2773 29.2295 55.4737 29.8581 55.6308 30.5063C55.8273 31.3509 55.9058 32.1955 56.0041 33.0401C56.0826 33.7276 56.3379 34.4347 56.2594 35.1222L56.2398 35.1418C56.2005 35.2204 56.1808 35.299 56.2201 35.3579C56.2201 35.3776 56.2005 35.4168 56.2005 35.4365C56.1219 35.7311 55.9451 36.0257 55.6308 36.1436C55.3362 36.2615 55.022 36.2222 54.8255 35.9668C54.7666 35.8883 54.688 35.8686 54.6094 35.8686C54.3737 34.2776 53.8237 32.6866 53.0773 31.2723C52.7238 30.6045 52.3506 29.8777 51.7417 29.4063C52.0952 28.8563 52.5077 28.2278 53.1363 27.9724ZM51.2703 29.8384C51.2899 29.8384 51.2899 29.8384 51.3096 29.8384C51.8006 30.192 52.1149 30.742 52.4095 31.2723C52.7631 31.9205 53.0774 32.5883 53.3327 33.2758C53.5881 33.9829 53.7845 34.7097 53.9416 35.4365C54.0595 35.9668 54.2166 36.6347 54.0005 37.1846C53.863 37.5382 53.5488 37.6167 53.1952 37.5971C52.8417 37.5775 52.5078 37.5186 52.1738 37.4203C52.1149 36.9293 51.8792 36.3989 51.7417 35.9865C51.3881 34.9847 50.9953 33.924 50.4649 33.0009C50.0917 32.3527 49.4043 31.7437 48.6579 31.7634C48.7954 30.5652 50.0917 29.5635 51.2703 29.8384ZM59.9128 50.1877C59.6771 50.6592 59.1664 50.9341 58.695 51.1109C57.9486 51.4055 57.1629 51.602 56.3772 51.7395C54.7666 52.0144 53.1167 51.9752 51.5256 51.6412C51.4078 51.6216 51.3292 51.6609 51.2703 51.7198C51.1917 51.7198 51.1132 51.7198 51.0346 51.7198C51.0542 51.7002 51.0739 51.6609 51.0935 51.6216C51.4274 50.6788 51.5256 49.6967 51.447 48.7342C51.4863 48.7735 51.5649 48.8128 51.6435 48.8128C54.2559 48.8914 56.8879 48.2235 59.1271 46.8682C59.2254 47.9878 59.5789 49.1074 59.9128 50.1877ZM59.1861 44.8844C59.0879 45.3165 59.0682 45.7486 59.0682 46.2004C56.8486 47.595 54.2363 48.3021 51.6238 48.2039C51.506 48.2039 51.4274 48.2628 51.3882 48.3217C51.3489 48.0664 51.3095 47.8111 51.2506 47.5557C50.9167 46.22 50.2882 44.9826 49.6007 43.804C48.8936 42.5862 48.1079 41.4273 47.4401 40.2095C46.6937 38.8346 45.908 37.2632 45.908 35.6722C45.908 34.258 46.8311 32.5491 48.4222 32.5491C48.5597 32.5491 48.6579 32.4705 48.6971 32.3527C49.2471 32.3134 49.7579 32.8633 50.0132 33.3348C50.4257 34.0812 50.7596 34.9062 51.0542 35.7115C51.2113 36.1436 51.3489 36.5561 51.4864 36.9882C51.5453 37.165 51.6238 37.4007 51.6435 37.5971C51.6435 37.6167 51.6435 37.6364 51.6435 37.656C51.6435 37.7935 51.6042 37.9114 51.4864 38.0096C50.9757 38.4417 50.0917 38.0292 49.64 37.6953C48.8936 37.1453 48.4418 36.2615 48.0293 35.4561C47.8525 35.1222 47.3418 35.4168 47.5186 35.7508C47.6954 36.1043 47.8722 36.4382 48.0883 36.7721C48.049 36.7918 48.0097 36.7918 47.9508 36.8114C47.8722 36.8311 47.7936 36.8507 47.715 36.8507C47.6561 36.8704 47.6365 36.8703 47.5383 36.8703C47.224 36.89 46.949 36.89 46.674 36.8114C46.5169 36.7721 46.3401 36.8507 46.3205 37.0078C46.2812 37.165 46.3597 37.3418 46.5169 37.3614C47.1454 37.4989 47.8133 37.4596 48.4222 37.2436C48.6579 37.5775 48.9525 37.8721 49.2668 38.1275C49.915 38.6185 50.9364 38.9917 51.7024 38.5399C51.9381 38.4024 52.0756 38.206 52.1542 37.9899C52.822 38.1864 53.6666 38.3042 54.1969 37.8917C54.5898 37.5775 54.7077 37.0864 54.7077 36.5954C55.1005 36.8311 55.6308 36.8114 56.0237 36.5954C56.3576 36.399 56.5933 36.0847 56.7111 35.7311C57.1629 35.9668 57.6736 36.065 58.1843 36.0257C58.4789 36.0061 58.8718 35.9472 59.0879 35.6918C59.2254 35.5347 59.2646 35.3579 59.3236 35.1615C59.3432 35.0829 59.3825 34.9847 59.4021 34.9061C59.795 35.3383 60.3253 35.6329 60.9146 35.7508C61.0717 35.7704 61.2485 35.7115 61.2681 35.5543C61.3074 35.4168 61.2288 35.2204 61.0717 35.2008C60.9931 35.1811 60.895 35.1615 60.8164 35.1418C60.7771 35.1222 60.7378 35.1222 60.6985 35.1026C60.6789 35.1026 60.6396 35.0829 60.62 35.0829C60.4628 35.0044 60.3057 34.9258 60.1485 34.8276C60.1289 34.8079 60.1289 34.808 60.1093 34.7883L60.0896 34.7686C60.0503 34.749 60.0307 34.7097 59.9914 34.6901C59.9325 34.6312 59.8735 34.5722 59.8146 34.5133C59.795 34.474 59.7557 34.4544 59.7361 34.4151L59.7164 34.3955C59.6968 34.3758 59.6968 34.3758 59.6771 34.3561C59.6378 34.3169 59.6182 34.2776 59.5985 34.2187C59.6967 34.2187 59.795 34.2383 59.8932 34.2187C60.7771 34.199 61.6217 33.8651 62.3681 33.4526C62.702 33.2759 62.4074 32.7651 62.0735 32.9419C60.8753 33.6098 59.2057 34.0419 58.0665 33.0205C57.6147 32.6277 57.2611 31.9009 57.6147 31.3116C57.7718 31.0563 58.0272 30.9188 58.3022 30.8402C58.4593 30.7813 58.6164 30.7616 58.7736 30.7223C58.9307 30.7027 59.0879 30.6438 59.2254 30.6831C59.3039 30.7224 59.3825 30.7027 59.4414 30.6831C59.4611 30.6831 59.4807 30.6635 59.5003 30.6635C60.5806 29.976 62.0538 30.5456 62.7609 31.5277C63.6841 32.8044 63.5859 34.5722 63.2913 36.0454C62.9574 37.715 62.3092 39.2864 61.4057 40.7202C60.561 42.0166 59.5004 43.313 59.1861 44.8844ZM55.4737 44.1772C53.2541 43.4897 52.8416 40.6416 53.1756 38.6774C53.2345 38.3042 53.8041 38.4614 53.7452 38.8346C53.4506 40.4649 53.7452 43.038 55.6308 43.6076C56.004 43.7255 55.8469 44.2951 55.4737 44.1772Z" fill="black"/>
<path d="M16.7197 14.3625C16.5036 14.0482 17.0143 13.7536 17.2304 14.0678C18.9392 16.5427 20.9034 18.8016 23.123 20.8247C23.398 21.0801 22.9855 21.4926 22.7105 21.2372C20.4517 19.1944 18.4482 16.8767 16.7197 14.3625ZM78.3568 10.7679C76.1175 14.0285 74.0158 17.3677 72.032 20.7854C71.4624 21.7675 70.9124 22.7497 70.3624 23.7318C70.1856 24.0657 70.6963 24.3603 70.8731 24.0264C72.7784 20.5694 74.8212 17.1713 76.9818 13.8714C77.5907 12.9286 78.2193 11.9858 78.8675 11.0626C79.0835 10.7483 78.5728 10.4537 78.3568 10.7679ZM58.9307 0.946859C58.0468 2.26288 58.7539 4.22708 60.2271 4.75742C60.561 4.87527 60.6985 4.40387 60.4628 4.22709C59.3039 3.38248 57.5164 3.99138 57.0254 5.30741C56.8879 5.66097 57.4575 5.81812 57.595 5.46456C58.1253 4.10925 57.2218 2.42003 55.8076 2.08611C55.7879 2.28254 55.7486 2.47894 55.729 2.65572C56.9075 2.79321 58.0861 2.40036 58.9699 1.61467C59.2449 1.35933 58.8325 0.946869 58.5575 1.20222C57.7914 1.88969 56.7504 2.18431 55.729 2.06645C55.3951 2.02717 55.3362 2.57713 55.6504 2.63606C56.77 2.91105 57.4379 4.20743 57.0254 5.28775C57.2218 5.34667 57.3986 5.38597 57.595 5.44489C57.9682 4.46279 59.3432 4.10924 60.1681 4.71814C60.2467 4.54136 60.3253 4.3646 60.4038 4.18782C59.2646 3.79497 58.7932 2.24324 59.461 1.24149C59.6574 0.927217 59.1467 0.632585 58.9307 0.946859ZM9.68778 28.0727C9.86456 28.4262 10.1985 28.6227 10.5324 28.7995C10.8467 28.9762 11.102 29.1726 11.2395 29.5065C11.4948 30.0958 11.377 30.8422 10.8859 31.2743C11.0627 31.3529 11.2199 31.4119 11.3966 31.4904C11.4556 30.8619 12.1627 30.469 12.7323 30.4494C13.5573 30.4101 14.3037 30.8815 14.9715 31.294C15.0501 31.1172 15.1286 30.9404 15.2072 30.7637C14.4804 30.469 13.9698 29.7226 13.9698 28.9369C13.9698 28.1316 14.4805 27.4245 15.1876 27.1102C15.4822 26.9727 15.3054 26.5799 15.0304 26.5602C14.5197 26.5209 14.1073 26.8352 13.7734 27.1691C13.4198 27.5031 13.1055 27.7977 12.6537 27.9352C11.7895 28.1905 10.827 27.9155 10.277 27.2084C10.0413 26.9138 9.62884 27.3263 9.86455 27.6209C10.4931 28.387 11.5341 28.7208 12.5162 28.5637C12.9876 28.4851 13.4394 28.2887 13.793 27.9744C14.1662 27.6602 14.5197 27.1102 15.0697 27.1495C15.0108 26.9727 14.9715 26.7763 14.9126 26.5995C13.9894 27.012 13.3608 27.9941 13.4001 29.0155C13.4394 30.0565 14.1269 30.9601 15.0697 31.3333C15.384 31.4511 15.5804 30.9601 15.3054 30.8029C14.4608 30.2922 13.518 29.7423 12.4966 29.919C11.6717 30.0565 10.9252 30.6458 10.8467 31.51C10.827 31.785 11.1806 31.8636 11.3574 31.7261C11.9663 31.1958 12.1431 30.2922 11.9074 29.5458C11.7895 29.1726 11.5734 28.8387 11.2592 28.5834C10.9252 28.328 10.4342 28.2102 10.2378 27.8173C10.0414 27.4245 9.53065 27.7191 9.68778 28.0727ZM43.1384 4.20743C43.0402 7.50731 43.2955 10.8072 43.9044 14.0482C43.983 14.4214 44.533 14.2642 44.474 13.891C43.8848 10.6894 43.6294 7.44839 43.7277 4.20743C43.7473 3.83423 43.158 3.83423 43.1384 4.20743ZM78.0818 32.6493C78.3764 32.9243 78.8478 32.8457 79.1032 32.5511C79.2407 32.3743 79.3192 32.1779 79.3192 31.9422C79.3192 31.7261 79.2603 31.51 79.2014 31.3136C79.1621 31.1761 79.0443 31.0976 78.9264 31.0976C78.5925 31.0779 78.2586 31.0779 77.9443 31.0583C77.7872 31.0583 77.6497 31.1958 77.6497 31.3529C77.6497 31.5101 77.7872 31.6476 77.9443 31.6476C78.2782 31.6672 78.6121 31.6672 78.9264 31.6868C78.8282 31.6083 78.7299 31.5493 78.6514 31.4708C78.671 31.5493 78.6907 31.6279 78.7103 31.7065C78.7103 31.7457 78.73 31.785 78.73 31.8243V31.844C78.73 31.8047 78.73 31.785 78.73 31.8047C78.73 31.8243 78.73 31.844 78.73 31.8636C78.73 31.9029 78.73 31.9422 78.73 31.9815V32.0011C78.73 32.0404 78.73 32.0208 78.73 31.9815C78.73 31.9815 78.73 32.0208 78.7103 32.0404C78.7103 32.0601 78.7104 32.0797 78.6907 32.0993V32.119C78.6711 32.1582 78.6907 32.1386 78.7103 32.0993C78.6907 32.1189 78.6907 32.1386 78.671 32.1582C78.7103 32.0993 78.7104 32.119 78.6907 32.1386C78.6907 32.1583 78.671 32.1582 78.671 32.1582C78.671 32.1582 78.6514 32.1779 78.6318 32.1779C78.6907 32.119 78.671 32.1386 78.6514 32.1582C78.6317 32.1779 78.6121 32.1779 78.5728 32.1975C78.5335 32.2172 78.6318 32.1779 78.5925 32.1975C78.5729 32.1975 78.5728 32.1975 78.5532 32.2172C78.5335 32.2172 78.5335 32.2172 78.5139 32.2172C78.455 32.2368 78.5925 32.2172 78.5336 32.2172C78.5139 32.2172 78.5139 32.2172 78.4943 32.2172C78.4354 32.2172 78.5139 32.2172 78.5336 32.2172C78.5336 32.2172 78.4943 32.2172 78.4943 32.1975C78.4354 32.1779 78.5335 32.2172 78.5139 32.2172C78.5139 32.2172 78.4943 32.1975 78.4746 32.1975C78.455 32.1975 78.5336 32.2564 78.4943 32.1975C78.3764 32.0797 78.18 32.0797 78.0818 32.1975C77.9836 32.3546 77.9639 32.5511 78.0818 32.6493ZM39.3082 11.3572C39.7207 12.7125 40.1331 14.0875 40.5456 15.4428C40.6634 15.7963 41.2331 15.6588 41.1152 15.2856C40.7028 13.9303 40.2903 12.5554 39.8778 11.2001C39.7796 10.8465 39.21 11.0036 39.3082 11.3572ZM22.2784 17.4659C22.8284 18.0159 23.3587 18.5462 23.9087 19.0962C24.0265 19.2141 24.223 19.2141 24.3212 19.0962C24.4194 18.9783 24.439 18.8016 24.3212 18.6837C23.7712 18.1338 23.2409 17.6034 22.6909 17.0534C22.573 16.9356 22.3766 16.9356 22.2784 17.0534C22.1802 17.1516 22.1605 17.348 22.2784 17.4659ZM71.1285 16.2874C70.4803 17.2695 69.8517 18.2516 69.2035 19.2337C68.9875 19.548 69.4981 19.8426 69.7142 19.5283C70.3624 18.5462 70.991 17.5641 71.6391 16.582C71.8552 16.2677 71.3445 15.9534 71.1285 16.2874Z" fill="black"/>
</g>
<defs>
<clipPath id="clip0_30212_153898">
<rect width="100" height="100" fill="white" transform="translate(0 0.8125)"/>
</clipPath>
</defs>
</svg>
