<svg width="48" height="14" viewBox="0 0 48 14" fill="none" xmlns="http://www.w3.org/2000/svg">
<g clip-path="url(#clip0_30799_34495)">
<path d="M0.0505562 9.62672C0.0505562 8.93104 0.0372917 8.3474 -0.000244141 7.8267H1.31605L1.37786 8.7205H1.41455C1.71229 8.24806 2.25896 7.68925 3.27666 7.68925C4.07112 7.68925 4.69145 8.13799 4.95195 8.80743H4.97735C5.1893 8.47186 5.43709 8.22463 5.72185 8.05022C6.05685 7.81456 6.44209 7.68925 6.93937 7.68925C7.94352 7.68925 8.96038 8.37224 8.96038 10.3097V13.8711H7.47136V10.5321C7.47136 9.5271 7.12423 8.93104 6.39298 8.93104C5.87058 8.93104 5.48507 9.30386 5.32476 9.73848C5.28751 9.88722 5.24997 10.0732 5.24997 10.2462V13.8711H3.76011V10.3709C3.76011 9.5271 3.42539 8.93104 2.71814 8.93104C2.14692 8.93104 1.76281 9.3778 1.62621 9.79916C1.56441 9.94931 1.53816 10.1226 1.53816 10.2964V13.8711H0.0505562V9.62672Z" fill="#003A70"/>
<path d="M13.2734 10.9186C12.1933 10.8932 11.1638 11.1283 11.1638 12.0475C11.1638 12.6424 11.5487 12.9165 12.0328 12.9165C12.6398 12.9165 13.0877 12.5194 13.2229 12.085C13.2604 11.9735 13.2734 11.8488 13.2734 11.75V10.9186ZM14.7624 12.42C14.7624 12.9658 14.7876 13.4976 14.8502 13.8718H13.4721L13.373 13.2012H13.3344C12.9627 13.6731 12.3299 14.0078 11.5487 14.0078C10.3318 14.0078 9.64966 13.1284 9.64966 12.2081C9.64966 10.6815 11.0015 9.91274 13.2359 9.92487V9.82553C13.2359 9.42816 13.0742 8.77029 12.0079 8.77029C11.4116 8.77029 10.7901 8.95741 10.3815 9.2179L10.0832 8.22532C10.5299 7.95128 11.3125 7.68994 12.2681 7.68994C14.2045 7.68994 14.7624 8.91987 14.7624 10.235V12.42Z" fill="#003A70"/>
<path d="M15.8185 9.62672C15.8185 8.93104 15.8047 8.3474 15.7686 7.8267H17.1077L17.1825 8.73264H17.2192C17.4797 8.26189 18.1384 7.68925 19.1428 7.68925C20.1989 7.68925 21.2908 8.37224 21.2908 10.2837V13.8711H19.7637V10.4582C19.7637 9.58919 19.4409 8.93104 18.6097 8.93104C18.0015 8.93104 17.5804 9.36482 17.4182 9.82456C17.3696 9.96172 17.3563 10.1483 17.3563 10.3201V13.8711H15.8185V9.62672Z" fill="#003A70"/>
<path d="M26.3824 10.3462C26.3824 10.2229 26.3697 10.0739 26.3455 9.94971C26.2086 9.35393 25.7251 8.8702 25.0297 8.8702C24.0493 8.8702 23.5035 9.73945 23.5035 10.8686C23.5035 11.9733 24.0493 12.781 25.0179 12.781C25.6376 12.781 26.1843 12.3585 26.3328 11.7006C26.3697 11.5638 26.3824 11.4136 26.3824 11.2525V10.3462ZM27.9087 5.39884V12.1711C27.9087 12.7914 27.9341 13.4623 27.9584 13.8712H26.5932L26.5323 12.9165H26.5069C26.147 13.5856 25.413 14.0078 24.533 14.0078C23.0937 14.0078 21.9515 12.781 21.9515 10.9186C21.9394 8.89476 23.2057 7.68994 24.6578 7.68994C25.4886 7.68994 26.085 8.03792 26.3576 8.48638H26.3824V5.39884H27.9087Z" fill="#003A70"/>
<path d="M31.6071 9.77602C31.6071 8.957 31.5947 8.3728 31.5571 7.82754H32.8856L32.9347 8.98071H32.9852C33.2826 8.12444 33.9905 7.82754 34.6359 7.82754C34.7846 7.82754 34.8716 7.80186 34.9958 7.82754V9.16839C34.8716 9.14299 34.7353 9.11815 34.5481 9.11815C33.8166 9.11815 33.3202 9.58947 33.1842 10.2719C33.1593 10.4082 33.1348 10.5708 33.1348 10.7452V13.8711H31.6071V9.77602Z" fill="#003A70"/>
<path fill-rule="evenodd" clip-rule="evenodd" d="M46.7383 1.44318C45.9788 0.578165 45.1728 0.968764 44.5293 1.28768C44.2598 1.42089 43.2813 2.07226 42.3116 2.52636C41.6207 2.85007 40.6289 2.75214 40.0851 2.08045C40.0521 2.0398 39.1729 0.97469 39.0798 0.843456C38.5089 0.127453 37.0647 -0.466347 35.3392 0.521156C34.4146 1.05625 32.2359 2.30651 31.4214 2.77161C30.9264 3.0242 29.7771 3.13455 29.128 2.25768C29.1173 2.24329 28.2644 1.17902 28.2303 1.1381C28.2051 1.10931 27.6542 0.292272 26.4263 0.267154C26.2457 0.262639 25.3437 0.257277 24.4623 0.75766C23.2936 1.42625 20.5735 2.98131 20.5735 2.98131C20.5715 2.98131 20.5715 2.98272 20.5715 2.98272C19.4534 3.6228 18.5813 4.1198 18.5813 4.1198L19.6109 5.38529C20.0929 5.98276 21.1783 6.44589 22.1204 5.90515C22.1204 5.90515 25.6002 3.89007 25.6124 3.88442C27.1177 3.05835 28.2794 3.05835 29.049 3.36598C29.7413 3.65752 30.343 4.38565 30.343 4.38565C30.343 4.38565 31.1301 5.36102 31.2684 5.53148C31.716 6.08239 32.4563 5.8662 32.4563 5.8662C32.4563 5.8662 32.7298 5.83459 33.1452 5.58906C33.1452 5.58906 36.515 3.63522 36.5169 3.63465C37.5877 3.00671 38.5698 2.88958 39.0708 2.9353C40.6419 3.07839 41.1305 4.17596 41.8123 4.94135C42.2133 5.39263 42.5749 5.64776 43.1283 5.63478C43.4927 5.62659 43.9033 5.40674 43.964 5.36723L47.9998 3.03747C47.9998 3.03747 47.5863 2.41432 46.7383 1.44318Z" fill="#FFB700"/>
<path d="M28.988 7.82725H30.5293V13.8711H28.988V7.82725Z" fill="#003A70"/>
<path d="M35.7031 7.82725H37.2413V13.8711H35.7031V7.82725Z" fill="#003A70"/>
</g>
<defs>
<clipPath id="clip0_30799_34495">
<rect width="48" height="14.0081" fill="white"/>
</clipPath>
</defs>
</svg>
