<svg width="48" height="12" viewBox="0 0 48 12" fill="none" xmlns="http://www.w3.org/2000/svg">
<g clip-path="url(#clip0_30799_31483)">
<path d="M12.9875 2.83667H15.5742C16.6218 2.83667 17.4028 3.29571 17.4028 4.26285C17.4028 4.9719 17.0404 5.36666 16.4118 5.57618V5.59237C17.1613 5.74571 17.548 6.14856 17.548 6.83332C17.548 8.17903 16.3633 8.46094 15.3561 8.46094H12.9875V2.83667ZM14.4861 5.06095H14.9052C15.3966 5.06095 15.9047 4.94 15.9047 4.46428C15.9047 3.94905 15.4209 3.90048 14.9209 3.90048H14.4861V5.06095ZM14.4861 7.39761H14.9294C15.4775 7.39761 16.0494 7.31666 16.0494 6.74475C16.0494 6.13237 15.4614 6.07618 14.9452 6.07618H14.4861V7.39761Z" fill="#00529C"/>
<path d="M19.5151 2.83667H21.3523L23.5199 8.46094H21.8761L21.457 7.26046H19.3461L18.9027 8.46094H17.3799L19.5151 2.83667ZM20.4337 3.99714H20.4175L19.6923 6.19713H21.1027L20.4337 3.99714Z" fill="#00529C"/>
<path d="M23.7285 2.83667H25.638L27.5399 6.65618H27.5556L27.5318 2.83667H28.9018V8.46094H27.0399L25.0742 4.61714H25.0585L25.1061 8.46094H23.7285V2.83667Z" fill="#00529C"/>
<path d="M29.4102 2.83667H30.9087V5.13333H30.9249L32.6168 2.83667H34.4216L32.343 5.45523L34.583 8.46094H32.673L30.9249 5.90666H30.9087V8.46094H29.4102V2.83667Z" fill="#00529C"/>
<path d="M36.4417 2.83667H39.0283C40.0754 2.83667 40.8574 3.29571 40.8574 4.26285C40.8574 4.9719 40.495 5.36666 39.8664 5.57618V5.59237C40.6159 5.74571 41.0021 6.14856 41.0021 6.83332C41.0021 8.17903 39.8178 8.46094 38.8107 8.46094H36.4417V2.83667ZM37.9402 5.06095H38.3593C38.8512 5.06095 39.3583 4.94 39.3583 4.46428C39.3583 3.94905 38.8755 3.90048 38.3755 3.90048H37.9402V5.06095ZM37.9402 7.39761H38.3835C38.9312 7.39761 39.5035 7.31666 39.5035 6.74475C39.5035 6.13237 38.9155 6.07618 38.3997 6.07618H37.9402V7.39761Z" fill="#00529C"/>
<path d="M41.3345 2.83667H44.0097C45.0087 2.83667 45.8226 3.2881 45.8226 4.25524C45.8226 5.00428 45.4683 5.5038 44.743 5.67285V5.68904C45.2259 5.81809 45.2583 6.24523 45.5407 6.92999L46.0883 8.46094H44.5254L44.203 7.44618C43.8968 6.47904 43.703 6.23666 43.1473 6.23666H42.833V8.46094H41.3345V2.83667ZM42.833 5.17333H43.2278C43.7116 5.17333 44.324 5.15714 44.324 4.52047C44.324 3.99714 43.8002 3.90048 43.2278 3.90048H42.833V5.17333Z" fill="#00529C"/>
<path d="M9.56759 0.000338554H1.72428C0.771902 0.000338554 0 0.791288 0 1.767V1.78557V9.5346C0 10.5008 0.757616 11.2865 1.69761 11.3008H9.5633C10.5157 11.3008 11.2881 10.5103 11.2881 9.5346L11.2914 1.767C11.2914 0.791288 10.52 0.000338554 9.56759 0.000338554ZM2.65618 10.3955L2.22856 10.4003C1.71047 10.4003 1.29047 9.97459 1.29047 9.44936L1.28809 9.3746V2.20128L1.29095 1.81462C1.31047 1.30652 1.69666 0.897955 2.2019 0.897955H3.0719C3.86046 0.897955 4.49951 1.58367 4.49951 2.39176C4.49951 2.79176 4.34284 3.15461 4.08904 3.41842L1.86952 5.6708L3.94999 7.78936C4.21808 8.06603 4.37999 8.42888 4.37999 8.8265C4.37999 9.69317 3.60856 10.3955 2.65618 10.3955ZM9.05188 10.3884L5.17332 10.387C5.17332 10.387 5.62141 9.41793 5.62141 8.81793C5.62141 8.08603 5.37713 7.4327 4.99427 7.00032L3.66761 5.64794L5.02141 4.2489C5.42475 3.87033 5.69236 3.19795 5.69236 2.43176C5.69236 1.8251 5.52474 1.28795 5.25475 0.897955H6.19427C6.98284 0.897955 7.62236 1.58367 7.62236 2.39176C7.62236 2.79176 7.46569 3.15461 7.21188 3.41842L5.03475 5.64746L9.55664 10.2584C9.41331 10.3484 9.23283 10.3884 9.05188 10.3884ZM9.99902 8.94888L6.75855 5.64604L8.30188 4.07747C8.61569 3.68461 8.81521 3.09319 8.81521 2.43176C8.81521 1.82129 8.64521 1.27033 8.37283 0.880336L9.06331 0.901288C9.5814 0.901288 10.0014 1.327 10.0014 1.85224L9.99902 8.94888Z" fill="#00529C"/>
<path d="M46.5015 2.83594H48V8.46021H46.5015V2.83594Z" fill="#00529C"/>
</g>
<defs>
<clipPath id="clip0_30799_31483">
<rect width="48" height="11.3004" fill="white"/>
</clipPath>
</defs>
</svg>
