<svg width="48" height="16" viewBox="0 0 48 16" fill="none" xmlns="http://www.w3.org/2000/svg">
<g clip-path="url(#clip0_30799_35240)">
<path d="M7.07253 11.4325C7.07253 10.8322 7.07904 9.2276 7.06426 9.02989C7.07714 6.6422 5.34326 4.9579 4.24787 5.08921C3.4899 5.15507 2.85466 5.46452 2.51358 6.35475C2.19745 7.1844 2.48008 8.28795 3.53112 8.5469C4.655 8.82499 5.31125 9.05637 5.78619 9.3828C6.36813 9.78243 6.8432 10.546 6.85581 11.4335" fill="#0060AF"/>
<path d="M7.52127 15.0621C5.53961 15.0621 3.50303 14.5734 1.46916 13.6068L1.41925 13.5823L1.39538 13.5313C0.482667 11.6023 0 9.49248 0 7.42825C0 5.36713 0.462867 3.34756 1.37626 1.42115L1.40135 1.36996L1.4522 1.34443C3.33364 0.452036 5.35761 0 7.46974 0C9.43729 0 11.5386 0.503227 13.5454 1.45781L13.597 1.48076L13.6207 1.5329C14.5509 3.49747 15.0415 5.60679 15.0415 7.63682C15.0415 9.65896 14.5705 11.6803 13.6392 13.6436L13.6146 13.6952L13.5628 13.7191C11.7101 14.5973 9.62078 15.0621 7.52127 15.0621ZM1.6574 13.3423C3.63322 14.2729 5.60376 14.7428 7.52127 14.7428C9.55447 14.7428 11.5765 14.2979 13.3765 13.4544C14.2706 11.5518 14.7238 9.59378 14.7238 7.63682C14.7238 5.67197 14.2508 3.6281 13.356 1.72138C11.4084 0.804675 9.37436 0.318557 7.46974 0.318557C5.42488 0.318557 3.46492 0.752805 1.64031 1.60949C0.764482 3.4767 0.318704 5.43326 0.318704 7.42825C0.318704 9.42703 0.781977 11.4717 1.6574 13.3423Z" fill="#0060AF"/>
<path d="M6.603 11.4337C6.60666 10.6642 6.1777 9.98379 5.61705 9.61812C5.11974 9.29494 4.45209 9.08257 3.37501 8.8091C3.04206 8.72383 2.69379 8.5344 2.58598 8.29297C2.30077 8.5807 2.24896 9.22759 2.29914 9.60562C2.35746 10.0431 2.86806 10.7642 3.63688 10.7924C4.1064 10.8113 4.7 10.6912 4.98466 10.6307C5.47574 10.5245 6.25269 10.8325 6.37638 11.4328" fill="#0060AF"/>
<path d="M7.46974 1.36914C6.16617 1.36914 5.04013 2.2299 5.0442 3.71934C5.04827 4.97185 6.05429 5.64237 6.41327 6.12129C6.95574 6.843 7.24936 7.69723 7.27987 9.00433C7.3036 10.0446 7.30238 11.0718 7.30767 11.4359H7.59546C7.59044 11.055 7.57742 9.96448 7.59233 8.97214C7.61186 7.66464 7.91605 6.843 8.4588 6.12129C8.8209 5.64237 9.8261 4.97185 9.82827 3.71934C9.83315 2.2299 8.70779 1.36914 7.40531 1.36914" fill="#0060AF"/>
<path d="M7.80066 11.4325C7.80066 10.8322 7.79387 9.2276 7.80839 9.02989C7.79564 6.6422 9.52844 4.9579 10.6248 5.08921C11.3827 5.15507 12.0173 5.46452 12.3593 6.35475C12.6752 7.1844 12.3909 8.28795 11.3411 8.5469C10.2167 8.82499 9.56126 9.05637 9.0851 9.3828C8.50384 9.78243 8.06199 10.546 8.04843 11.4335" fill="#0060AF"/>
<path d="M8.27005 11.4337C8.26598 10.6642 8.69481 9.98379 9.25383 9.61812C9.75317 9.29494 10.4216 9.08257 11.4978 8.8091C11.8314 8.72383 12.1793 8.5344 12.2852 8.29297C12.5717 8.5807 12.6234 9.22759 12.5732 9.60562C12.5137 10.0431 12.0044 10.7642 11.237 10.7924C10.7676 10.8113 10.1709 10.6912 9.88743 10.6307C9.39826 10.5245 8.61913 10.8325 8.4949 11.4328" fill="#0060AF"/>
<path d="M8.67194 13.9189L8.50513 12.7002L8.90778 12.6391C9.00583 12.6256 9.12517 12.6427 9.17291 12.7042C9.22567 12.7685 9.24181 12.8216 9.25198 12.9057C9.26717 13.0099 9.23706 13.1303 9.11989 13.1904V13.194C9.25076 13.194 9.32982 13.2881 9.35274 13.447C9.35613 13.4805 9.36603 13.5616 9.35613 13.6292C9.32955 13.7901 9.23367 13.8419 9.07187 13.8645L8.67194 13.9189ZM8.9311 13.7007C8.97884 13.6938 9.02726 13.6913 9.0651 13.6671C9.12301 13.6292 9.11772 13.5482 9.10971 13.488C9.08951 13.3557 9.05506 13.3055 8.91497 13.3263L8.82695 13.3399L8.88269 13.7074L8.9311 13.7007ZM8.84675 13.1375C8.90005 13.1289 8.97233 13.1225 9.00244 13.0718C9.01817 13.038 9.03838 13.0111 9.02509 12.9359C9.00868 12.8467 8.97911 12.7914 8.86601 12.8129L8.76063 12.8298L8.80213 13.1422" fill="#0060AF"/>
<path d="M10.4164 13.1859C10.4195 13.2086 10.4232 13.2339 10.4246 13.2565C10.4571 13.4788 10.4164 13.6628 10.1669 13.7134C9.798 13.7846 9.72734 13.5551 9.66238 13.2338L9.6278 13.06C9.57694 12.7526 9.55511 12.5199 9.91477 12.4482C10.1175 12.4111 10.2515 12.4919 10.3072 12.694C10.3159 12.7241 10.3268 12.754 10.3308 12.7843L10.1102 12.8299C10.0847 12.754 10.0509 12.6183 9.95166 12.6297C9.77345 12.6512 9.83231 12.8732 9.85062 12.9659L9.91694 13.2996C9.93687 13.4005 9.97648 13.5616 10.1307 13.5305C10.2558 13.5054 10.2013 13.3102 10.1902 13.2302" fill="#0060AF"/>
<path d="M10.7704 13.5549L10.6941 12.2937L10.9906 12.2031L11.6121 13.3L11.3787 13.3699L11.2314 13.0912L10.9722 13.1691L11.0057 13.486L10.7704 13.5549ZM10.9505 12.9654L11.1378 12.9111L10.8891 12.4008" fill="#0060AF"/>
<path d="M3.44809 12.6006C3.54086 12.3032 3.62399 12.0844 3.97795 12.1816C4.16741 12.2345 4.28486 12.3182 4.2793 12.5386C4.27838 12.5876 4.26221 12.6375 4.25163 12.686L4.03125 12.6251C4.06014 12.5034 4.07845 12.4069 3.92872 12.3607C3.75568 12.3132 3.7135 12.5232 3.68963 12.6139L3.59999 12.9446C3.57151 13.0427 3.53733 13.205 3.68963 13.2468C3.81548 13.2808 3.89184 13.1571 3.9374 12.9765L3.78321 12.9356L3.8365 12.7443L4.19901 12.8611L4.02691 13.4983L3.8601 13.453L3.89767 13.3183H3.89292C3.81616 13.4284 3.72245 13.4399 3.6404 13.4242C3.27789 13.326 3.31573 13.0888 3.40225 12.7718" fill="#0060AF"/>
<path d="M4.7973 13.1399L4.68812 13.6583L4.44238 13.6051L4.70426 12.3945L5.12319 12.4893C5.36839 12.5423 5.44243 12.6516 5.40772 12.8766C5.38791 13.0057 5.32431 13.1449 5.16903 13.1336L5.1674 13.1315C5.29868 13.1775 5.3098 13.2438 5.28688 13.3584C5.27698 13.4072 5.20876 13.703 5.25582 13.7508L5.25745 13.7871L5.00316 13.7207C4.99259 13.6387 5.02853 13.4912 5.04277 13.4096C5.05714 13.3374 5.08006 13.2355 5.00683 13.1972C4.94946 13.1667 4.92817 13.1682 4.86334 13.1532L4.7973 13.1399ZM4.8392 12.9524L5.00466 12.997C5.10515 13.0116 5.16103 12.9594 5.18083 12.8379C5.19873 12.7264 5.17554 12.6828 5.08535 12.6612L4.90796 12.6252" fill="#0060AF"/>
<path d="M6.3736 12.6636L6.61663 12.6918L6.51193 13.5428C6.46107 13.8126 6.35692 13.9306 6.06046 13.8937C5.75884 13.8555 5.68724 13.718 5.70554 13.446L5.81092 12.5957L6.05585 12.6238L5.95074 13.4551C5.93962 13.5454 5.91874 13.6791 6.07917 13.6953C6.22144 13.7062 6.25371 13.6118 6.26972 13.4945" fill="#0060AF"/>
<path d="M6.88452 13.9415L6.95762 12.7246L7.42456 12.7448C7.64521 12.7557 7.70298 12.9362 7.69606 13.1083C7.68969 13.213 7.657 13.33 7.56587 13.3934C7.49114 13.4473 7.39512 13.46 7.30602 13.4557L7.15386 13.4472L7.12348 13.9573L6.88452 13.9415ZM7.16078 13.2616L7.28446 13.2686C7.38495 13.2722 7.45154 13.2325 7.46022 13.0847C7.4651 12.9428 7.41154 12.9188 7.28134 12.9131L7.18329 12.9097" fill="#0060AF"/>
<path d="M39.817 2.54526L37.9612 5.91781C37.2607 5.34831 36.4054 4.92914 35.3141 4.92914C32.7315 4.92914 31.6825 6.85664 31.6825 8.21438C31.6825 9.22219 32.3416 10.7092 34.6395 10.7092C35.604 10.7092 36.9753 10.0373 37.3699 9.73167L35.5345 13.6444C34.6596 13.8191 34.3722 13.9275 33.6316 13.9504C29.5187 14.0733 27.8567 11.5436 27.8579 8.95863C27.8606 5.5414 30.8951 1.3855 35.9254 1.3855C36.2337 1.3855 36.6107 1.49223 36.9331 1.6105L37.2588 1.19336" fill="#0060AF"/>
<path d="M47.4745 1.29883L48 13.5566H44.0891L44.0868 11.4544H41.42L40.5422 13.5566H36.3008L40.7351 4.8035L39.7352 4.79698L41.6351 1.29883H47.4745ZM44.0614 5.04873L42.5536 8.6141H44.1068" fill="#0060AF"/>
<path d="M25.3888 1.2978C27.3255 1.30866 28.42 2.36128 28.42 3.88183C28.42 5.28357 27.2657 6.52439 25.9986 7.16598C27.3032 7.64612 27.416 8.82476 27.416 9.65863C27.416 11.6732 25.397 13.5556 22.7727 13.5556H17.0493L19.2819 4.9244L18.3648 4.91911L20.2395 1.2978C20.2395 1.2978 23.8138 1.28693 25.3888 1.2978ZM23.4886 6.26761C23.8892 6.26761 24.5966 6.16604 24.7735 5.38974C24.9673 4.54706 24.3034 4.52438 23.985 4.52438L22.8471 4.51939L22.4503 6.26765L23.4886 6.26761ZM21.8799 8.43369L21.356 10.4482H22.6958C23.2229 10.4482 23.9413 10.1863 24.1173 9.53072C24.2912 8.87324 23.789 8.43369 23.2638 8.43369" fill="#0060AF"/>
</g>
<defs>
<clipPath id="clip0_30799_35240">
<rect width="48" height="15.0621" fill="white"/>
</clipPath>
</defs>
</svg>
