<svg width="1140" height="336" viewBox="0 0 1140 336" fill="none" xmlns="http://www.w3.org/2000/svg">
<g opacity="0.25" clip-path="url(#clip0_30069_31404)">
<rect width="1140" height="570" transform="translate(0 -117)" fill="white"/>
<mask id="mask0_30069_31404" style="mask-type:alpha" maskUnits="userSpaceOnUse" x="-29" y="-50" width="1199" height="436">
<rect x="-29" y="-50" width="1199" height="436" fill="url(#paint0_radial_30069_31404)"/>
</mask>
<g mask="url(#mask0_30069_31404)">
<path d="M783.054 -33.1995L829.542 -132.893L929.236 -86.4053L882.748 13.2886L783.054 -33.1995Z" stroke="#DBDFE9"/>
<path d="M881.841 12.866L928.329 -86.8279L1028.02 -40.3399L981.535 59.354L881.841 12.866Z" stroke="#DBDFE9"/>
<path d="M980.629 58.9314L1027.12 -40.7625L1126.81 5.72556L1080.32 105.419L980.629 58.9314Z" stroke="#DBDFE9"/>
<path d="M539.413 -26.5425L585.901 -126.236L685.595 -79.7483L639.107 19.9455L539.413 -26.5425Z" stroke="#DBDFE9"/>
<path d="M638.201 19.5227L684.689 -80.1711L784.383 -33.6831L737.895 66.0107L638.201 19.5227Z" stroke="#DBDFE9"/>
<path d="M736.989 65.5881L783.477 -34.1057L883.17 12.3823L836.682 112.076L736.989 65.5881Z" stroke="#DBDFE9"/>
<path d="M835.776 111.654L882.264 11.9597L981.958 58.4477L935.47 158.142L835.776 111.654Z" stroke="#DBDFE9"/>
<path d="M934.563 157.719L981.051 58.0251L1080.75 104.513L1034.26 204.207L934.563 157.719Z" stroke="#DBDFE9"/>
<path d="M295.773 -19.8857L342.261 -119.58L441.955 -73.0916L395.467 26.6023L295.773 -19.8857Z" stroke="#DBDFE9"/>
<path d="M394.56 26.1797L441.048 -73.5142L540.742 -27.0261L494.254 72.6677L394.56 26.1797Z" stroke="#DBDFE9"/>
<path d="M493.348 72.2451L539.836 -27.4487L639.53 19.0393L593.042 118.733L493.348 72.2451Z" stroke="#DBDFE9"/>
<path d="M592.136 118.31L638.624 18.6165L738.317 65.1045L691.829 164.798L592.136 118.31Z" stroke="#DBDFE9"/>
<path d="M690.923 164.376L737.411 64.6819L837.105 111.17L790.617 210.864L690.923 164.376Z" stroke="#DBDFE9"/>
<path d="M789.71 210.441L836.198 110.747L935.892 157.235L889.404 256.929L789.71 210.441Z" stroke="#DBDFE9"/>
<path d="M888.498 256.507L934.986 156.813L1034.68 203.301L988.192 302.995L888.498 256.507Z" stroke="#DBDFE9"/>
<path d="M557.54 -18.0901L687.595 42.5556" stroke="url(#paint1_linear_30069_31404)" stroke-width="2"/>
<path d="M150.92 32.8362L197.408 -66.8577L297.102 -20.3697L250.614 79.3242L150.92 32.8362Z" stroke="#DBDFE9"/>
<path d="M249.707 78.9016L296.195 -20.7922L395.889 25.6958L349.401 125.39L249.707 78.9016Z" stroke="#DBDFE9"/>
<path d="M348.495 124.967L394.983 25.2732L494.677 71.7612L448.189 171.455L348.495 124.967Z" stroke="#DBDFE9"/>
<path d="M447.282 171.032L493.771 71.3386L593.464 117.827L546.976 217.52L447.282 171.032Z" stroke="#DBDFE9"/>
<path d="M546.07 217.098L592.558 117.404L692.252 163.892L645.764 263.586L546.07 217.098Z" stroke="#DBDFE9"/>
<path d="M644.858 263.163L691.346 163.469L791.04 209.957L744.552 309.651L644.858 263.163Z" stroke="#DBDFE9"/>
<path d="M743.645 309.229L790.133 209.535L889.827 256.023L843.339 355.717L743.645 309.229Z" stroke="#DBDFE9"/>
<path d="M842.432 355.294L888.92 255.6L988.614 302.088L942.126 401.782L842.432 355.294Z" stroke="#DBDFE9"/>
<path d="M486.552 69.0759L356.497 8.43021" stroke="url(#paint2_linear_30069_31404)" stroke-width="2"/>
<path d="M104.855 131.624L151.343 31.9299L251.036 78.4179L204.548 178.112L104.855 131.624Z" stroke="#DBDFE9"/>
<path d="M203.642 177.689L250.13 77.9954L349.824 124.483L303.336 224.177L203.642 177.689Z" stroke="#DBDFE9"/>
<path d="M302.429 223.755L348.917 124.061L448.611 170.549L402.123 270.243L302.429 223.755Z" stroke="#DBDFE9"/>
<path d="M401.217 269.82L447.705 170.126L547.399 216.614L500.911 316.308L401.217 269.82Z" stroke="#DBDFE9"/>
<path d="M500.005 315.885L546.493 216.191L646.187 262.679L599.699 362.373L500.005 315.885Z" stroke="#DBDFE9"/>
<path d="M598.792 361.951L645.28 262.257L744.974 308.745L698.486 408.439L598.792 361.951Z" stroke="#DBDFE9"/>
<path d="M697.58 408.016L744.068 308.322L843.762 354.81L797.274 454.504L697.58 408.016Z" stroke="#DBDFE9"/>
<path d="M614.042 248.793L744.097 309.439" stroke="url(#paint3_linear_30069_31404)" stroke-width="2"/>
<path d="M58.7891 230.411L105.277 130.718L204.971 177.206L158.483 276.899L58.7891 230.411Z" stroke="#DBDFE9"/>
<path d="M157.577 276.477L204.065 176.783L303.759 223.271L257.271 322.965L157.577 276.477Z" stroke="#DBDFE9"/>
<path d="M256.364 322.542L302.852 222.848L402.546 269.336L356.058 369.03L256.364 322.542Z" stroke="#DBDFE9"/>
<path d="M355.152 368.608L401.64 268.914L501.334 315.402L454.846 415.096L355.152 368.608Z" stroke="#DBDFE9"/>
<path d="M453.939 414.673L500.427 314.979L600.121 361.467L553.633 461.161L453.939 414.673Z" stroke="#DBDFE9"/>
<path d="M12.7237 329.199L59.2117 229.505L158.906 275.993L112.418 375.687L12.7237 329.199Z" stroke="#DBDFE9"/>
<path d="M111.511 375.264L157.999 275.571L257.693 322.059L211.205 421.752L111.511 375.264Z" stroke="#DBDFE9"/>
<path d="M210.299 421.33L256.787 321.636L356.48 368.124L309.992 467.818L210.299 421.33Z" stroke="#DBDFE9"/>
</g>
</g>
<defs>
<radialGradient id="paint0_radial_30069_31404" cx="0" cy="0" r="1" gradientUnits="userSpaceOnUse" gradientTransform="translate(570.5 175.47) rotate(90) scale(176.913 669.964)">
<stop stop-color="#D9D9D9"/>
<stop offset="1" stop-color="#D9D9D9" stop-opacity="0"/>
</radialGradient>
<linearGradient id="paint1_linear_30069_31404" x1="690.314" y1="43.8236" x2="557.54" y2="-18.0901" gradientUnits="userSpaceOnUse">
<stop stop-color="#1B84FF"/>
<stop offset="1" stop-color="#1B84FF" stop-opacity="0"/>
</linearGradient>
<linearGradient id="paint2_linear_30069_31404" x1="356.497" y1="8.43005" x2="492.896" y2="72.0343" gradientUnits="userSpaceOnUse">
<stop stop-color="#F8285A"/>
<stop offset="1" stop-color="#F8285A" stop-opacity="0"/>
</linearGradient>
<linearGradient id="paint3_linear_30069_31404" x1="746.816" y1="310.707" x2="614.042" y2="248.793" gradientUnits="userSpaceOnUse">
<stop stop-color="#1B84FF"/>
<stop offset="1" stop-color="#1B84FF" stop-opacity="0"/>
</linearGradient>
<clipPath id="clip0_30069_31404">
<rect width="1140" height="570" fill="white" transform="translate(0 -117)"/>
</clipPath>
</defs>
</svg>
