<svg width="100" height="136" viewBox="0 0 100 136" fill="none" xmlns="http://www.w3.org/2000/svg">
<path d="M41.4085 72.9461C42.704 68.4866 44.2486 64.7496 46.0673 61.6853C47.8859 58.6209 50.2776 55.1082 53.2174 51.1469C55.3599 48.2072 57.054 45.7657 58.2748 43.8723C59.4955 41.9789 60.517 39.8612 61.3391 37.5194C62.1363 35.1775 62.5349 32.6862 62.5349 29.9956V29.9208C62.5349 25.2621 61.3391 21.6496 58.9474 19.0587C56.5557 16.4926 53.2174 15.1971 48.9323 15.1971C44.5974 15.1971 41.2341 16.7915 38.8424 19.9804C36.4507 23.1693 35.23 27.6786 35.1802 33.5333V33.608H18.5381V33.5333C18.7623 26.4579 20.0827 20.404 22.5491 15.3964C25.0155 10.3888 28.4785 6.55217 32.913 3.93628C37.3725 1.32039 42.6542 0 48.7579 0C55.1357 0 60.6166 1.17091 65.1508 3.53767C69.71 5.90444 73.1729 9.31757 75.5646 13.802C77.9563 18.2864 79.1521 23.6676 79.1521 29.9956V30.0703C79.1521 33.882 78.6538 37.2952 77.6573 40.3595C76.6608 43.4238 75.4649 46.0647 74.0449 48.3318C72.6248 50.574 70.6816 53.3144 68.2152 56.5282C65.5245 59.9663 63.3571 63.0057 61.7128 65.6465C60.0436 68.3122 58.6485 71.5011 57.5274 75.2132C56.4063 78.9502 55.8333 83.2353 55.8333 88.1183H39.4403C39.4902 82.4629 40.113 77.4055 41.4085 72.9461ZM39.0666 100.949H56.2817V118.164H39.0666V100.949Z" fill="#1B84FF"/>
<path d="M98.958 113.903C96.7158 107.774 97.9615 105.183 97.0895 98.8056C96.1428 91.9545 94.0003 84.929 91.1601 78.7505C90.1885 76.6328 88.5193 74.0917 86.9249 72.273C80.0737 64.5001 73.7707 57.5243 63.7555 53.015V53.0649C63.631 52.3673 63.5064 51.6697 63.3569 50.9971C64.2538 50.1251 65.35 49.3528 66.4462 48.6054C68.2898 47.3348 70.1084 46.0643 71.952 44.8186C72.4004 44.5196 72.8489 44.1957 73.098 43.7971C73.3471 43.3985 73.372 42.8754 72.9984 42.6013C72.7243 42.402 72.3008 42.3771 71.9022 42.3273C71.3042 42.2774 70.6814 42.2276 70.0835 42.3522C69.4856 42.4518 68.9126 42.701 68.3894 42.975C66.2219 44.0214 64.2787 45.267 62.3853 46.5874C61.7874 44.0463 61.1147 41.3805 60.4171 38.1916C60.4171 38.1418 60.4171 38.1169 60.4421 38.0671C61.7126 38.3909 63.1327 38.1917 64.179 37.3944C65.8482 36.1488 66.3963 33.6076 65.3749 31.7889C64.5528 30.3191 62.7839 29.4471 61.1147 29.5966C61.2891 21.4001 59.5203 16.542 54.7618 16.7662C52.6193 16.7164 50.4767 17.6631 48.7079 18.9088C43.4014 22.6458 38.1945 26.5322 33.4859 29.8208C33.4859 29.8208 38.9917 33.1093 41.7073 34.7038C41.7073 34.7038 39.3903 43.2989 37.5218 49.1784C37.4471 49.1784 37.3973 49.1535 37.3225 49.1535C36.2264 49.1037 35.0056 49.6518 34.7067 50.5487C34.4824 51.2462 34.8312 52.0185 35.3544 52.5915C35.5039 52.7659 35.6783 52.9154 35.8527 53.0649C25.3642 60.8129 18.2888 64.799 12.1601 75.0135C9.91794 78.7256 5.08477 85.9504 3.68962 89.9614C1.99552 94.8693 0.151937 99.6029 2.69309 104.909C1.84604 105.034 0.550531 105.482 0.401051 106.23C0.226658 107.052 0.475803 107.899 0.724936 108.696C0.998982 109.618 1.37268 110.639 2.3443 111.088C1.29794 111.661 0.700023 112.782 0.849503 113.853C0.998982 114.925 1.92077 115.871 3.0917 116.195C1.74638 116.992 2.02043 118.936 3.21626 119.882C4.43701 120.829 6.18095 121.028 7.80031 121.153C9.41968 121.277 11.1387 121.352 12.5089 122.149L12.6833 121.925C12.7082 123.146 13.7546 124.167 14.9006 124.89C20.4812 128.452 29.8486 127.406 35.5039 130.869L36.0769 131.492C37.8956 133.609 40.4865 135.578 43.526 135.553C45.6436 135.528 47.5868 134.556 49.3307 133.51C52.1958 131.766 54.8366 129.648 56.8546 127.182C62.4102 128.751 67.069 126.41 72.824 127.78C82.0419 129.972 95.1463 127.257 97.0148 123.918C98.8334 120.804 100.154 117.167 98.958 113.903Z" fill="#F1F1F4"/>
<path d="M20.4316 22.8447C20.6807 24.5637 20.7306 26.3326 20.8302 28.0765C20.8551 28.5499 20.1077 28.5499 20.0828 28.0765C19.9832 26.4572 19.9334 24.8129 19.7341 23.2184C19.5846 21.9977 19.2607 20.6773 18.4635 19.7057C17.7908 18.9084 16.7694 18.3105 15.6981 18.2856C14.6517 18.2856 13.6552 18.9583 13.5057 20.0295C13.431 20.5278 13.6054 21.051 14.0289 21.3499C14.4026 21.624 14.9258 21.7485 15.3493 21.4994C15.7728 21.2752 16.1465 21.923 15.723 22.1472C14.3777 22.8697 12.7334 21.7236 12.7334 20.2537C12.7334 18.8835 13.8545 17.7375 15.1998 17.5382C16.4704 17.3638 17.7908 17.9368 18.6877 18.8088C19.7589 19.8801 20.2323 21.3998 20.4316 22.8447ZM24.8413 33.3582C24.8164 33.3582 24.8413 33.3582 24.8413 33.3582C24.8164 33.3582 24.8164 33.3582 24.8413 33.3582C24.8164 33.3332 24.8163 33.3332 24.8163 33.3332C24.8163 33.3581 24.8164 33.3582 24.8413 33.3582ZM24.7416 33.682C24.7416 33.6571 24.7416 33.6571 24.7416 33.682V33.682ZM25.5887 33.4329C25.5638 33.9062 25.2648 34.255 24.8911 34.5291C24.8164 34.5789 24.7416 34.6287 24.6669 34.6785C24.5672 34.7533 24.4426 34.7782 24.3181 34.7533C24.2682 34.7284 24.2184 34.7035 24.1686 34.6785C23.9942 34.554 23.8696 34.3796 23.7949 34.1554C23.6952 33.8564 23.7451 33.4578 23.9693 33.2086C23.9444 33.1339 23.9444 33.0592 23.9693 32.9845C24.0441 32.7602 24.2184 32.5858 24.4426 32.5111C24.6419 32.4613 24.8413 32.4862 25.0157 32.5609C25.3395 32.7353 25.6136 33.0592 25.5887 33.4329ZM24.4925 33.981C24.4925 33.9561 24.4925 33.981 24.4925 33.981C24.4925 33.9561 24.4925 33.9561 24.4925 33.981ZM24.5174 33.682C24.5423 33.6571 24.5672 33.6322 24.5174 33.682V33.682ZM24.6669 33.1837C24.6669 33.2087 24.6669 33.2087 24.6669 33.1837C24.642 33.2087 24.642 33.2087 24.6669 33.1837C24.6669 33.2087 24.6669 33.2087 24.6669 33.1837ZM24.7914 33.6073C24.7914 33.5824 24.8163 33.5574 24.8163 33.5574C24.8163 33.5325 24.8413 33.5076 24.8413 33.4578C24.8413 33.4329 24.8413 33.408 24.8413 33.3831L24.8163 33.3582V33.3831C24.7914 33.3581 24.7914 33.3581 24.7665 33.3332C24.7665 33.3332 24.7665 33.3332 24.7416 33.3332C24.7167 33.3332 24.6918 33.3083 24.6918 33.3083H24.6669C24.6669 33.3083 24.6669 33.3083 24.642 33.3083C24.642 33.3581 24.6669 33.383 24.6669 33.4329C24.6669 33.5076 24.617 33.6322 24.5672 33.7069C24.5423 33.7318 24.5174 33.7568 24.4925 33.7568L24.4676 33.7817V33.8066C24.4676 33.8315 24.4676 33.8315 24.4676 33.8564C24.4676 33.8813 24.4676 33.9311 24.4676 33.956C24.4676 33.956 24.4676 33.9561 24.4676 33.981C24.4925 33.9561 24.5672 33.9062 24.4676 33.981C24.4925 33.9561 24.4925 33.9561 24.5174 33.9311C24.5672 33.9062 24.5921 33.8564 24.642 33.8315C24.6669 33.8066 24.6669 33.8066 24.6918 33.7817L24.7167 33.7568C24.7167 33.7568 24.7167 33.7817 24.6918 33.7817C24.7416 33.682 24.7665 33.6322 24.7914 33.6073ZM97.9119 44.9428C97.4386 44.8183 97.2393 45.5407 97.7126 45.6653C98.9583 45.9892 99.4814 47.4341 99.1327 48.5802C98.734 49.9006 97.4635 50.8473 96.1929 51.2459C94.8226 51.6694 93.303 51.5448 92.0324 50.8473C90.8365 50.1995 89.6905 49.1781 88.2456 49.1282C87.0248 49.0784 85.6297 49.8009 85.5549 51.1462C85.53 51.6196 86.2774 51.6196 86.3023 51.1462C86.3771 49.9504 87.9964 49.7262 88.8933 50.0002C89.6407 50.2244 90.2884 50.6978 90.9362 51.0964C91.6088 51.495 92.2815 51.8687 93.0538 52.068C94.4988 52.4417 96.0683 52.2673 97.3887 51.5698C98.6095 50.9469 99.7057 49.8009 99.9548 48.3808C100.204 46.9359 99.4067 45.3165 97.9119 44.9428ZM81.7183 52.8154C81.7183 52.7905 81.7183 52.8154 81.7183 52.8154V52.8154ZM82.3909 52.3421C82.5155 52.6161 82.5404 52.94 82.366 53.214C82.2414 53.4133 82.0422 53.5379 81.793 53.5877C81.5688 53.6375 81.3197 53.6126 81.1203 53.4881L81.0954 53.4632C80.7716 53.5877 80.3481 53.4881 80.1488 53.1642C80.1238 53.1144 80.074 53.0396 80.074 52.9898C80.0491 52.8901 80.074 52.7905 80.1238 52.6908C80.1736 52.5663 80.2235 52.4417 80.3231 52.3421C80.4975 52.0929 80.7218 51.9185 81.0207 51.794C81.4941 51.5698 82.1418 51.8189 82.3909 52.3421ZM81.3197 52.4417C81.2948 52.4417 81.2698 52.4666 81.2449 52.4666H81.22H81.1951C81.22 52.4666 81.2449 52.4915 81.2948 52.4915C81.4442 52.5164 81.5439 52.6659 81.5688 52.8154H81.5937H81.6186H81.6435H81.6685C81.6685 52.8154 81.6934 52.8154 81.7183 52.7905C81.7183 52.7905 81.7183 52.7905 81.7183 52.7656V52.7407C81.7183 52.7407 81.7183 52.7407 81.7183 52.7158V52.6908V52.7158V52.6908C81.7183 52.6908 81.7183 52.6909 81.7183 52.6659V52.641C81.6934 52.6161 81.6934 52.5912 81.6685 52.5663C81.6685 52.5663 81.6685 52.5663 81.6435 52.5414C81.6186 52.5165 81.5937 52.4915 81.5688 52.4915C81.5688 52.4915 81.5688 52.4915 81.5439 52.4915C81.519 52.4915 81.494 52.4666 81.4691 52.4417C81.494 52.4417 81.519 52.4417 81.4691 52.4417H81.4442H81.4193C81.3944 52.4417 81.2947 52.4168 81.3695 52.4168C81.3944 52.4168 81.4193 52.4417 81.3695 52.4168C81.3446 52.4168 81.3446 52.4168 81.3197 52.4168C81.3446 52.4417 81.3446 52.4417 81.3197 52.4417C81.3197 52.4417 81.2948 52.4417 81.3197 52.4417C81.3197 52.4417 81.2948 52.4417 81.3197 52.4417ZM81.7432 52.7656V52.7407C81.7183 52.7407 81.7183 52.7656 81.7432 52.7656ZM81.7183 52.7158C81.7183 52.6908 81.7183 52.7158 81.7183 52.7158V52.6908V52.7158ZM81.3446 52.4417H81.3197C81.3446 52.4666 81.3446 52.4417 81.3446 52.4417ZM93.0289 16.5666C92.9293 15.6199 92.5805 14.6732 91.9078 13.9756C91.3099 13.3777 90.5127 12.9791 89.6905 12.8296C88.7936 12.6552 87.7971 12.7549 86.9999 13.2531C86.3023 13.6766 85.2061 14.9971 86.2027 15.6697C86.6013 15.9438 86.975 15.296 86.5764 15.022C86.3771 14.8974 86.9002 14.2746 87.0248 14.15C87.2739 13.9258 87.5729 13.7514 87.8968 13.6268C88.5943 13.4026 89.3417 13.4275 90.0144 13.6517C90.712 13.8759 91.3348 14.2995 91.7334 14.9223C92.2317 15.7196 92.3812 16.6912 92.2566 17.588C91.9826 19.6309 90.5874 21.2503 88.8933 22.2717C86.975 23.4427 84.8075 23.8662 82.7148 24.6136C81.5937 25.0122 80.4726 25.5852 79.7501 26.5568C79.0775 27.4537 78.7038 28.5997 79.0526 29.6959C79.202 30.1443 79.9245 29.945 79.7751 29.4966C79.4263 28.4253 79.9494 27.3291 80.7217 26.5817C81.5937 25.7347 82.8145 25.3361 83.9356 25.0122C86.2027 24.3146 88.5196 23.6419 90.3881 22.1222C92.0324 20.8517 93.2282 18.7341 93.0289 16.5666ZM78.5045 33.682C78.355 33.682 78.2055 33.682 78.056 33.682C78.0062 33.682 77.9564 33.682 77.9066 33.7069C77.8567 33.7318 77.8318 33.7568 77.782 33.7817C77.7571 33.8066 77.7322 33.8564 77.7072 33.9062C77.6823 33.9561 77.6823 34.0059 77.6823 34.0557C77.6823 34.1554 77.7073 34.255 77.782 34.3297C77.8567 34.4045 77.9564 34.4294 78.056 34.4294C78.2055 34.4294 78.355 34.4294 78.5045 34.4294C78.5543 34.4294 78.6041 34.4294 78.654 34.4045C78.7038 34.3796 78.7287 34.3547 78.7785 34.3297C78.8034 34.3048 78.8283 34.255 78.8532 34.2052C78.8782 34.1554 78.8782 34.1055 78.8782 34.0557C78.8782 33.9561 78.8533 33.8564 78.7785 33.7817C78.7038 33.7069 78.6041 33.682 78.5045 33.682Z" fill="#111318"/>
<path d="M42.1563 69.5087C41.7328 69.2844 42.1065 68.6367 42.53 68.8609C45.8186 70.6049 49.7549 71.1031 53.3922 70.3806C53.8656 70.281 54.0649 71.0035 53.5915 71.1031C49.7549 71.8754 45.6442 71.3273 42.1563 69.5087ZM99.7558 118.065C99.6562 119.659 99.2077 121.204 98.3856 122.574C97.5884 123.869 96.4922 124.941 95.2465 125.763C92.2569 127.756 88.5449 128.478 85.0321 128.752C82.9394 128.927 80.8217 128.902 78.729 128.777C77.6079 128.703 76.4868 128.603 75.3657 128.453C74.1699 128.304 73.0239 128.08 71.853 127.88C69.2869 127.457 66.7208 127.731 64.1547 127.93C61.8129 128.105 59.496 128.13 57.2039 127.557C56.1327 128.927 54.9119 130.148 53.5417 131.219C52.894 131.717 52.2462 132.19 51.5486 132.639C50.7763 133.137 49.9791 133.561 49.2317 134.059C47.8365 135.006 46.1923 135.604 44.4982 135.753C41.1847 136.027 38.0207 134.383 35.9778 131.817C35.8284 131.617 35.654 131.418 35.5045 131.194C35.4796 131.194 35.4297 131.169 35.3799 131.144C33.5862 130.048 31.5433 129.45 29.5004 129.026C25.6637 128.204 21.6776 127.93 17.9406 126.66C16.1967 126.062 14.2535 125.215 13.0825 123.695C12.7836 123.321 12.5843 122.898 12.4597 122.449C12.4348 122.449 12.4099 122.424 12.385 122.424C11.2888 121.802 10.0182 121.652 8.77255 121.552C6.8044 121.403 4.43762 121.403 2.86808 119.983C1.82173 119.036 1.52278 117.342 2.41966 116.296C1.49787 115.847 0.700622 115.025 0.52623 113.979C0.326923 112.858 0.85012 111.786 1.69717 111.089C1.27365 110.765 0.974675 110.317 0.750455 109.818C0.426582 109.096 0.177468 108.274 0.0529015 107.501C-0.0716649 106.704 0.00305673 105.882 0.501322 105.209C0.899935 104.686 1.44803 104.337 2.09578 104.238C-0.121504 97.6607 2.44458 90.6102 5.53382 84.7058C6.48053 82.912 7.50197 81.1431 8.54832 79.3992C9.54485 77.7549 10.5414 76.1107 11.6126 74.5162C13.5808 71.6263 15.7981 68.8858 18.2147 66.3945C23.3468 61.088 28.9025 57.0022 35.1059 53.0659C34.508 52.4182 34.0595 51.596 34.3585 50.6991C34.7073 49.6279 35.928 49.0798 36.9744 49.03C37.0491 49.03 37.1239 49.03 37.1737 49.03C37.2235 48.8805 37.2733 48.7061 37.3232 48.5566C38.2699 45.5172 39.1667 42.4528 40.0138 39.3885C40.4373 37.8937 40.8608 36.3989 41.2594 34.8792C40.6366 34.5055 40.0138 34.1567 39.3909 33.783C37.3481 32.5872 35.3052 31.3664 33.2623 30.1457C33.0131 29.9962 33.0381 29.6474 33.2623 29.4979C34.7571 28.4516 36.2519 27.3803 37.7467 26.309C40.537 24.316 43.3023 22.2731 46.0926 20.28C47.4379 19.3084 48.7833 18.2621 50.2532 17.5147C51.1251 17.0662 52.0469 16.7423 52.9936 16.543C52.3957 16.2192 51.7729 15.7956 51.1998 15.1977C49.73 13.6531 49.157 8.77008 52.296 6.40332C54.613 13.0801 59.3465 10.0656 64.2544 14.3756C68.0412 17.7389 65.5001 25.8855 62.4108 29.2986C63.7312 29.5727 64.9769 30.3948 65.6246 31.5907C66.7208 33.5837 66.1478 36.3242 64.3042 37.6695C63.507 38.2674 62.5105 38.5664 61.5139 38.5664C61.2648 38.5664 61.0406 38.5415 60.7915 38.5165C61.0157 39.5878 61.2648 40.6342 61.5139 41.7054C61.8627 43.1753 62.2364 44.6701 62.5852 46.14C62.9838 45.8659 63.3824 45.5919 63.806 45.3179C64.9769 44.5705 66.1478 43.848 67.3935 43.2252C68.0163 42.9013 68.6392 42.5774 69.3118 42.3532C69.9845 42.129 70.682 42.104 71.3796 42.129C71.9775 42.1539 72.7 42.1539 73.1983 42.5276C73.6467 42.9013 73.6965 43.5241 73.4474 44.0224C73.1734 44.5954 72.5754 44.9691 72.0772 45.3428C71.4294 45.7912 70.7817 46.2397 70.1339 46.6881C68.8634 47.585 67.5679 48.4569 66.2973 49.3538C65.226 50.1012 64.1548 50.8486 63.2579 51.8202C63.4074 52.0943 63.507 52.3683 63.5568 52.6673C63.6565 52.6424 63.7561 52.6424 63.8558 52.6922C64.7278 53.1656 65.5748 53.6389 66.4468 54.1372C69.8599 56.1302 73.1733 58.3475 76.2626 60.8388C79.3518 63.3052 82.2169 66.0457 84.758 69.0851C87.3739 72.1993 89.6411 75.5626 91.4846 79.175C93.4777 83.0864 94.9974 87.222 96.0437 91.4822C96.6168 93.7991 97.0652 96.1659 97.3891 98.5575C97.7129 100.899 97.7628 103.241 97.8126 105.608C97.8624 107.751 98.0617 109.868 98.6596 111.936C98.8589 112.584 99.133 113.231 99.3074 113.904C99.4319 114.377 99.5067 114.876 99.5565 115.374C99.7558 116.246 99.8057 117.143 99.7558 118.065ZM39.3162 44.72C38.8927 46.1898 38.4442 47.6597 37.9958 49.1047C40.1882 49.5033 41.7328 51.6708 43.5764 52.7919C45.5694 54.0126 48.1355 54.9095 50.4774 54.4112C51.7978 54.1372 52.9189 53.2901 54.0151 52.5427C55.1362 51.7704 56.2323 50.9483 57.3285 50.1261C58.898 48.9552 60.4427 47.7594 62.0371 46.6383C61.3894 43.8729 60.6918 41.1324 60.0939 38.3671C59.3714 38.1428 58.7236 37.7692 58.2005 37.2211C58.051 37.0716 58.051 36.8474 58.2005 36.6979C58.3499 36.5484 58.5742 36.5484 58.7237 36.6979C60.0441 38.0432 62.4357 38.2425 63.9555 37.0965C65.4752 35.9754 65.9734 33.6336 65.0516 31.9644C64.1298 30.3201 61.8877 29.4979 60.1188 30.1955C59.9195 30.2702 59.7202 30.1706 59.6455 29.9713C59.5707 29.772 59.6704 29.5727 59.8697 29.4979C60.0192 29.4481 60.1686 29.3983 60.343 29.3485L59.5458 29.1242C57.2039 26.5333 58.4745 23.8675 58.325 21.5755C58.1257 18.1873 56.4316 17.8385 54.4386 17.116C52.7943 17.1659 51.2497 17.7887 49.8545 18.6108C48.4345 19.4579 47.1141 20.5042 45.7438 21.4759C44.3736 22.4724 43.0034 23.444 41.6331 24.4405C39.1667 26.2343 36.7003 28.0031 34.209 29.772C34.2837 29.8218 34.3585 29.8467 34.4083 29.8966C36.8996 31.3913 39.4159 32.8862 41.9321 34.356C42.0816 34.4308 42.1563 34.6301 42.1065 34.7795C41.957 35.3526 41.8075 35.9007 41.6331 36.4737C40.8857 39.239 40.1134 41.9795 39.3162 44.72ZM35.6789 52.5925C36.1273 53.0659 36.6754 53.4396 37.1986 53.8382C37.6719 54.187 38.0955 54.5856 38.519 55.0091C40.8359 57.4756 41.7079 60.8139 43.3273 63.7039C44.9217 63.1059 46.7653 63.6042 48.3597 63.9779C49.4808 64.252 50.6269 64.5011 51.748 64.7751C52.7694 65.0243 53.8406 65.1987 54.8372 65.5474C55.46 65.7717 56.1327 66.1205 56.4067 66.7433C57.6026 65.7218 58.3749 64.227 59.5956 63.2056C60.343 62.5578 61.3396 62.0596 61.8876 61.2375C62.2364 60.7392 62.2613 60.0665 61.788 59.7676C61.7132 59.8174 61.6634 59.8672 61.5887 59.917C61.4143 60.0665 61.2399 60.216 61.0655 60.3655C60.7167 60.6894 60.4178 61.0132 60.0939 61.362C59.9693 61.5115 59.6953 61.4866 59.5707 61.362C59.4212 61.2126 59.4461 60.9883 59.5707 60.8388C60.069 60.2658 60.6171 59.7427 61.1901 59.2693C61.1901 59.1447 61.2399 58.9953 61.3645 58.9454C61.9126 58.7212 62.3859 58.2728 62.5105 57.6749C62.635 57.1517 62.4357 56.6534 62.1617 56.205C61.5389 56.778 60.9409 57.351 60.3181 57.924C60.1686 58.0735 59.9444 58.0735 59.7949 57.924C59.6454 57.7994 59.6454 57.5254 59.7949 57.4008C60.4676 56.778 61.1402 56.1552 61.8129 55.5074C61.8129 55.4327 61.8627 55.333 61.9126 55.2832C62.7347 54.5607 63.208 53.4645 62.8094 52.468C62.2613 53.041 61.6883 53.5891 61.1402 54.1621C60.9908 54.3116 60.7666 54.2867 60.6171 54.1621C60.4676 54.0126 60.4676 53.7635 60.6171 53.6389C61.2648 52.9912 61.8876 52.3434 62.5354 51.6957C62.5603 51.6458 62.5852 51.596 62.6101 51.5462C63.0337 51.0479 63.507 50.6244 64.0302 50.2009C65.1015 49.3289 66.2724 48.5566 67.4184 47.7843C68.6391 46.9372 69.8599 46.0902 71.0807 45.2431C71.6287 44.8694 72.2516 44.5206 72.7 44.0224C72.8495 43.848 73.0239 43.5739 72.9492 43.3248C72.8744 43.1006 72.5754 43.0508 72.3512 43.0009C71.7035 42.9013 71.0059 42.8515 70.3582 42.9511C69.6606 43.0508 69.0377 43.3497 68.4149 43.6487C63.7312 45.9656 59.7451 49.3787 55.5099 52.4182C54.4386 53.1905 53.3424 54.0126 52.1715 54.6105C51.1251 55.1337 49.9542 55.333 48.7833 55.2832C46.5411 55.1586 44.274 54.2617 42.4304 52.9413C41.384 52.1939 40.5121 51.1725 39.4159 50.4998C38.4193 49.877 37.1737 49.5282 36.0526 50.0265C35.6291 50.2258 35.1806 50.5497 35.081 51.023C34.9564 51.596 35.3052 52.1939 35.6789 52.5925ZM14.4279 118.364C14.4777 118.314 14.5275 118.289 14.5773 118.264C14.3282 117.94 14.104 117.616 13.8798 117.292C13.3566 116.545 12.8085 115.822 12.1358 115.175C11.4881 114.552 10.7407 114.029 9.99327 113.53C8.49848 112.534 6.90404 111.612 5.7082 110.267C4.41271 108.822 3.31653 107.178 2.56914 105.384C2.4944 105.234 2.44455 105.085 2.39473 104.935H2.36982C1.79681 104.96 1.29854 105.309 1.0245 105.807C0.700622 106.405 0.750473 107.103 0.924866 107.726C1.19891 108.822 1.52277 110.192 2.61895 110.74C2.86808 110.865 2.84317 111.263 2.61895 111.388C1.7719 111.861 1.12417 112.833 1.32347 113.854C1.52278 114.826 2.36984 115.548 3.29163 115.798C3.59059 115.897 3.6653 116.321 3.39126 116.47C2.69368 116.894 2.54423 117.666 2.79336 118.413C3.34145 120.132 5.55872 120.506 7.10334 120.656C8.8971 120.83 10.7905 120.78 12.4348 121.577C12.4597 121.353 12.4846 121.154 12.5594 120.93C12.8583 119.933 13.6555 119.111 14.4279 118.364ZM34.483 129.849C33.9599 129.126 33.4367 128.429 32.8388 127.756C32.0415 126.834 31.1945 125.962 30.2478 125.215C28.7281 124.019 26.9841 123.321 25.1406 122.823C22.6741 122.15 20.1828 121.552 17.7662 120.755C17.3427 120.606 16.8943 120.506 16.5206 120.232C16.1718 119.983 15.8479 119.709 15.5489 119.41C15.3746 119.236 15.2002 119.036 15.0258 118.837C15.0009 118.862 15.0008 118.887 14.9759 118.912C14.2036 119.684 13.1573 120.631 13.1573 121.802C13.1324 122.873 14.0292 123.745 14.8514 124.318C16.2963 125.339 17.9904 125.962 19.7095 126.411C21.553 126.909 23.4215 127.208 25.29 127.532C28.3295 128.03 31.618 128.478 34.483 129.849ZM56.4067 127.382C55.9583 127.233 56.1576 126.535 56.606 126.66C56.7057 126.685 56.7804 126.71 56.8801 126.734C56.8801 126.734 56.8801 126.734 56.8801 126.71C58.5742 124.393 59.6953 121.727 60.2434 118.912C61.3894 112.908 59.8946 106.605 57.5029 101.099C56.8552 99.6039 56.0081 98.1838 55.46 96.6392C54.9867 95.2939 54.7624 93.8738 54.7874 92.4787C54.8123 89.813 55.6842 87.2718 56.3071 84.7058C56.9299 82.0899 57.204 79.4491 56.2573 76.883C55.9832 76.1356 55.6095 75.4131 55.186 74.7404C54.9368 74.3418 54.6877 73.9681 54.4137 73.6193C54.1396 73.2457 53.7161 72.8969 53.5168 72.4733C53.3424 72.1246 53.1929 71.6761 53.1182 71.2277H53.168C53.2427 69.9571 54.6379 69.1599 55.3853 68.263C55.6593 67.9391 55.9583 67.4907 55.759 67.0173C55.4849 66.3696 54.5631 66.1454 53.9652 65.9959C51.8974 65.4727 49.7798 65.0243 47.712 64.526C46.9148 64.3516 46.1175 64.1772 45.2954 64.1523C44.5978 64.1274 43.8504 64.1772 43.2276 64.5509C42.5051 64.9744 42.3058 65.7218 42.3058 66.4942C42.3058 67.3412 42.4553 68.1384 42.3307 68.9855C42.256 69.4588 41.5335 69.2595 41.6082 68.7862C41.7826 67.7896 41.4588 66.7682 41.6082 65.7468C41.7079 65.0243 42.1065 64.4263 42.6795 64.0277C41.8075 62.508 41.1598 60.8638 40.4124 59.2693C39.9391 58.2479 39.391 57.2762 38.7183 56.3544C37.9709 55.3579 37.0242 54.6105 36.0526 53.8631C35.9529 53.7884 35.8284 53.6887 35.7287 53.5891C34.1343 54.6105 33.0381 55.3828 31.4685 56.479C25.589 60.515 20.0583 65.0741 15.5489 70.5799C13.232 73.3951 11.3137 76.4345 9.42029 79.5238C7.3774 82.8622 5.40924 86.3002 3.98918 89.9624C2.69369 93.251 1.82173 96.7638 2.09578 100.326C2.39474 103.964 4.03901 107.501 6.60508 110.092C7.87565 111.388 9.49501 112.26 10.9898 113.281C11.7123 113.78 12.4348 114.353 13.0576 115C13.6555 115.623 14.1538 116.346 14.677 117.068C15.2002 117.791 15.7233 118.513 16.396 119.111C16.7448 119.435 17.1185 119.709 17.5918 119.858C17.9655 119.983 18.3392 120.108 18.7129 120.232C20.0084 120.656 21.3288 121.029 22.6492 121.353C24.5925 121.851 26.5855 122.275 28.4042 123.147C30.3723 124.069 31.9917 125.564 33.4118 127.208C34.5079 128.453 35.4796 129.799 36.4512 131.144C37.4228 132.514 38.793 133.611 40.3377 134.308C41.7826 134.956 43.402 135.18 44.9715 134.956C45.7687 134.831 46.5411 134.607 47.2885 134.308C48.1106 133.934 48.8331 133.386 49.6054 132.963C52.1465 131.543 54.5382 129.699 56.4067 127.382ZM98.8341 114.95C98.6347 113.755 98.1365 112.634 97.8375 111.463C97.5635 110.416 97.3891 109.345 97.2894 108.274C97.0901 106.256 97.1648 104.213 97.0652 102.17C96.841 97.4364 95.8444 92.678 94.4493 88.1687C93.2036 84.1826 91.5095 80.321 89.3919 76.7086C87.3739 73.3204 84.9823 70.1564 82.2916 67.2914C79.6508 64.4762 76.711 61.935 73.5969 59.643C70.4578 57.3261 67.1444 55.2832 63.7312 53.4147C63.6565 54.2119 63.2828 54.9842 62.7098 55.5821C63.1582 56.2548 63.4821 57.0271 63.2828 57.8492C63.1582 58.3973 62.8094 58.8707 62.361 59.2195C62.7347 59.5433 62.9589 60.0416 62.9091 60.5897C62.8343 61.4118 62.2863 62.0347 61.6634 62.5329C60.9658 63.1059 60.1686 63.6042 59.5458 64.2769C58.5243 65.3731 57.752 66.6935 56.5562 67.5903C56.5064 67.964 56.332 68.3128 56.1078 68.6367C55.7092 69.1599 55.2109 69.5834 54.7375 70.0318C54.3888 70.3806 53.9403 70.8042 53.9154 71.3273C53.9652 71.6263 54.04 71.9751 54.1894 72.2242C54.3887 72.5481 54.7126 72.847 54.9617 73.1709C56.8302 75.6124 57.8517 78.5023 57.6026 81.6165C57.4033 84.2573 56.4815 86.7736 55.9334 89.3396C55.3354 92.1548 55.4102 94.9949 56.6808 97.6357C57.4032 99.1555 58.1756 100.65 58.7984 102.22C59.3963 103.74 59.9195 105.284 60.343 106.854C61.8378 112.559 61.9624 118.787 59.3465 124.193C58.8731 125.165 58.325 126.087 57.7022 126.959C58.5991 127.183 59.5458 127.307 60.4676 127.332C62.934 127.457 65.3755 127.058 67.8419 126.959C69.1125 126.909 70.408 126.959 71.6536 127.133C72.8495 127.307 74.0204 127.557 75.2162 127.706C79.3269 128.229 83.5373 128.379 87.648 127.706C90.8369 127.183 94.2002 126.137 96.5171 123.795C98.8091 121.428 99.3572 118.139 98.8341 114.95ZM75.9138 103.441C76.5117 103.989 76.2377 104.761 75.7643 105.284C75.2162 105.907 74.3443 106.43 73.4972 106.281C72.8246 106.181 72.401 105.633 72.2516 105.01C72.2266 104.91 72.2017 104.786 72.1519 104.686C71.7035 105.06 71.3298 105.508 70.9062 105.932C70.3581 106.48 69.7602 106.928 69.0377 107.252C67.6426 107.9 66.0482 108.149 64.5035 107.925C64.0302 107.85 64.2295 107.128 64.7029 107.202C65.1015 107.252 65.4752 107.277 65.8738 107.252C67.518 107.178 69.1374 106.605 70.3333 105.434C70.8315 104.935 71.3049 104.412 71.853 103.964C71.0059 102.12 69.3367 100.75 68.3153 99.006C67.7174 97.9845 67.3935 96.8634 67.6177 95.6676C67.7423 94.9451 68.116 94.3223 68.4398 93.6994C68.7637 93.1264 69.3118 92.2794 69.0377 91.5818C68.7637 90.8593 67.7174 90.7348 67.0945 90.4358C66.397 90.1119 65.7741 89.6386 65.226 89.1154C64.1548 88.0441 63.4073 86.6241 63.1831 85.1293C63.1084 84.6559 63.8309 84.4566 63.9056 84.93C64.1298 86.5493 64.9769 88.0192 66.2475 89.0407C66.8703 89.5389 67.5679 89.8628 68.3153 90.1369C69.1125 90.4358 69.7852 90.9341 69.835 91.8559C69.9097 93.2759 68.6392 94.397 68.3402 95.7423C68.0911 96.7887 68.4398 97.8102 68.9879 98.7319C70.0094 100.426 71.6038 101.771 72.4758 103.565C72.999 103.291 73.572 103.142 74.145 103.067C74.7429 102.992 75.4654 103.042 75.9138 103.441ZM74.419 103.789C73.8709 103.814 73.273 103.964 72.7747 104.238C72.7997 104.288 72.7997 104.313 72.8246 104.362C72.9741 104.811 73.0239 105.459 73.5969 105.558C74.0204 105.633 74.4689 105.384 74.7927 105.135C75.0668 104.935 75.3657 104.661 75.4654 104.337C75.6647 103.789 74.7429 103.764 74.419 103.789ZM52.6697 22.8212C52.0718 23.4938 51.6234 24.2662 51.3244 25.1132C51.2497 25.2876 51.3992 25.5367 51.5735 25.5616C51.7729 25.6115 51.9722 25.4869 52.022 25.3125C52.0469 25.2128 52.0967 25.1381 52.1217 25.0385C52.1217 25.0135 52.1466 24.9886 52.1466 24.9637V24.9388C52.1715 24.889 52.1964 24.8391 52.1964 24.8142C52.2711 24.6398 52.3708 24.4405 52.4704 24.2662C52.5701 24.0918 52.6697 23.9423 52.7943 23.7679C52.8192 23.7181 52.8441 23.6932 52.8691 23.6433C52.8691 23.6433 52.8691 23.6433 52.8691 23.6184C52.8691 23.6184 52.8691 23.6184 52.8691 23.5935C52.894 23.5686 52.894 23.5437 52.9189 23.5437C52.9936 23.4689 53.0434 23.3942 53.1182 23.2945C53.2428 23.1451 53.2677 22.8959 53.1182 22.7714C53.0434 22.6966 52.7943 22.6717 52.6697 22.8212ZM48.6587 25.2876C48.858 25.3872 49.0573 25.3125 49.1819 25.163C49.6552 24.4904 50.1286 23.8177 50.6019 23.1451C50.7265 22.9956 50.6268 22.7215 50.4774 22.6219C50.278 22.5222 50.0787 22.597 49.9542 22.7465C49.4808 23.4191 49.0075 24.0918 48.5341 24.7644C48.4096 24.9388 48.4843 25.2129 48.6587 25.2876ZM49.0573 20.878C49.6801 21.0274 50.3279 21.1769 50.9507 21.3264C51.15 21.3762 51.3742 21.2766 51.3992 21.0772C51.449 20.8779 51.3493 20.6537 51.15 20.6288C50.5272 20.4793 49.8795 20.3299 49.2566 20.1804C49.0573 20.1305 48.8331 20.2302 48.8082 20.4295C48.7334 20.6039 48.858 20.8281 49.0573 20.878ZM52.3957 20.3049C52.5701 20.4046 52.8192 20.3548 52.9189 20.1804C53.0933 19.8316 53.3424 19.5576 53.6912 19.3832C53.9901 19.2337 54.314 19.1589 54.6379 19.2835C54.6379 19.2835 54.7126 19.3084 54.7126 19.3333C54.7375 19.3582 54.7624 19.3582 54.7874 19.3832C54.8123 19.3832 54.8123 19.4081 54.8372 19.4081C54.8372 19.4081 54.8372 19.4081 54.8621 19.433C54.887 19.4579 54.9368 19.4828 54.9617 19.5326C54.9617 19.5326 55.0116 19.6074 55.0365 19.6074C55.0614 19.6323 55.0614 19.6572 55.0863 19.6821C55.1112 19.7319 55.1361 19.7568 55.1611 19.8067C55.1611 19.8316 55.186 19.8565 55.186 19.8565C55.2109 19.9312 55.2358 20.006 55.2607 20.0807C55.2607 20.0807 55.2607 20.0807 55.2607 20.1056C55.2607 20.1305 55.2607 20.1306 55.2607 20.1555C55.2607 20.2053 55.2607 20.2302 55.2607 20.28C55.2607 20.28 55.2607 20.28 55.2607 20.3049C55.2607 20.3548 55.2358 20.3797 55.2358 20.4295C55.2358 20.4295 55.2358 20.4295 55.2358 20.4544C55.2358 20.4793 55.2109 20.4793 55.2109 20.5043C55.2109 20.5292 55.1361 20.6288 55.186 20.5541C55.0614 20.7036 55.0365 20.9278 55.186 21.0772C55.3105 21.2018 55.5846 21.2267 55.7091 21.0772C55.9583 20.7783 56.0579 20.4046 56.0081 20.006C55.9583 19.6323 55.7839 19.2835 55.5348 19.0344C54.9368 18.4115 54.015 18.4115 53.3175 18.8351C52.8939 19.0842 52.5452 19.4579 52.3458 19.8814C52.1465 19.9811 52.1964 20.2053 52.3957 20.3049ZM43.6013 47.7095C43.7259 47.859 43.9999 47.8341 44.1245 47.7095C44.2739 47.5601 44.249 47.3358 44.1245 47.1864C43.6262 46.5635 43.2774 45.841 43.0781 45.0937C42.9286 44.5456 42.7791 43.7483 43.1279 43.2252C43.5016 42.6771 44.1992 43.1255 44.4733 43.549C44.6975 43.8729 44.7722 44.2715 44.8719 44.6452C44.9715 45.0438 45.0961 45.4424 45.2705 45.841C45.4947 46.2646 46.1175 45.8909 45.9182 45.4673C45.5695 44.7698 45.5694 43.9726 45.1957 43.2999C44.8719 42.7269 44.274 42.2037 43.5764 42.2286C42.9037 42.2535 42.4304 42.7767 42.2809 43.3995C42.1065 44.0722 42.2311 44.7947 42.4304 45.4673C42.6546 46.2646 43.0532 47.0369 43.6013 47.7095ZM40.7114 69.3093C36.0526 71.2028 32.7142 75.6871 31.917 80.62C31.7177 81.8407 31.6678 83.1113 31.7924 84.357C31.8671 84.9798 31.9668 85.6026 32.1163 86.2006C32.3156 87.0227 32.5896 87.8448 32.7142 88.667C32.9384 90.087 32.5647 91.3825 31.7426 92.5285C30.9703 93.6247 29.9239 94.5465 28.9025 95.4185C26.735 97.3368 24.0195 100.351 25.5143 103.465C25.7136 103.889 26.3613 103.515 26.162 103.092C24.9163 100.476 27.4077 97.7852 29.2014 96.1659C31.0699 94.4967 33.2623 92.678 33.5114 90.0123C33.6609 88.4428 33.0132 86.923 32.6893 85.4033C32.4402 84.2324 32.3903 83.0366 32.49 81.8407C32.6893 79.4491 33.5114 77.1072 34.8318 75.1141C36.3017 72.8719 38.3944 71.0284 40.8857 70.0069C41.3342 69.8325 41.1598 69.11 40.7114 69.3093ZM60.1935 34.1318C60.2184 34.1069 60.2434 34.082 60.2683 34.0321C60.3181 33.9823 60.343 33.9325 60.3928 33.8827C60.4925 33.783 60.5672 33.6834 60.6669 33.6086C60.8662 33.4342 61.0157 33.3097 61.2399 33.1602C61.6883 32.8861 62.087 32.6868 62.5852 32.5623C62.7845 32.5124 62.9091 32.2882 62.8344 32.1138C62.7845 31.9145 62.5603 31.8149 62.3859 31.8647C61.2399 32.1388 60.2434 32.8363 59.5458 33.7581C59.4212 33.9076 59.5209 34.1816 59.6704 34.2813C59.8697 34.3809 60.069 34.2813 60.1935 34.1318Z" fill="#111318"/>
</svg>
