<svg width="158" height="67" viewBox="0 0 158 67" fill="none" xmlns="http://www.w3.org/2000/svg">
<path d="M1.62416 29.9472C1.58601 28.4817 1.84507 27.0237 2.38574 25.6611C2.9264 24.2985 3.73745 23.0595 4.76998 22.0189C5.90113 20.864 7.28932 19.9929 8.82126 19.4767C9.08404 19.3789 9.36375 19.335 9.64384 19.3473C9.92393 19.3597 10.1987 19.4282 10.4518 19.5487C10.7049 19.6692 10.9313 19.8393 11.1175 20.0489C11.3036 20.2586 11.4458 20.5034 11.5356 20.769C11.7233 21.3004 11.6927 21.8845 11.4504 22.3933C11.2082 22.9021 10.7741 23.2941 10.2433 23.4834C9.31361 23.8002 8.47179 24.3318 7.78616 25.035C6.4938 26.3274 5.89016 28.0087 5.89016 29.9472H9.68216C9.96227 29.9472 10.2396 30.0024 10.4984 30.1096C10.7572 30.2168 10.9924 30.3739 11.1904 30.572C11.3885 30.77 11.5456 31.0052 11.6528 31.2639C11.76 31.5227 11.8152 31.8001 11.8152 32.0802C11.8152 32.3603 11.76 32.6377 11.6528 32.8965C11.5456 33.1553 11.3885 33.3904 11.1904 33.5885C10.9924 33.7865 10.7572 33.9437 10.4984 34.0508C10.2396 34.158 9.96227 34.2132 9.68216 34.2132H5.89016V49.4258C5.89016 49.9915 5.66543 50.534 5.26542 50.934C4.8654 51.3341 4.32287 51.5588 3.75716 51.5588C3.19145 51.5588 2.64891 51.3341 2.2489 50.934C1.84888 50.534 1.62416 49.9915 1.62416 49.4258V29.9472Z" fill="#EFF6FF"/>
<path d="M14.335 49.4683V21.4152C14.335 20.8495 14.5597 20.3069 14.9597 19.9069C15.3597 19.5069 15.9023 19.2822 16.468 19.2822C17.0337 19.2822 17.5762 19.5069 17.9762 19.9069C18.3762 20.3069 18.601 20.8495 18.601 21.4152V49.4683C18.601 50.034 18.3762 50.5765 17.9762 50.9765C17.5762 51.3766 17.0337 51.6013 16.468 51.6013C15.9023 51.6013 15.3597 51.3766 14.9597 50.9765C14.5597 50.5765 14.335 50.034 14.335 49.4683Z" fill="#EFF6FF"/>
<path d="M38.4239 32.2321V53.4771C38.4207 55.4876 37.7364 57.4377 36.4827 59.0095C35.2289 60.5812 33.4797 61.6818 31.5201 62.1318C29.5606 62.5818 27.5064 62.3546 25.6926 61.4874C23.8787 60.6201 22.4122 59.1639 21.5321 57.3562C21.41 57.1051 21.3387 56.8323 21.3224 56.5536C21.3061 56.2749 21.3451 55.9957 21.4372 55.7321C21.5293 55.4685 21.6726 55.2257 21.8589 55.0177C22.0452 54.8097 22.2707 54.6407 22.5227 54.5203C22.771 54.4002 23.0406 54.3304 23.316 54.3148C23.5914 54.2992 23.8672 54.3382 24.1275 54.4294C24.3878 54.5207 24.6275 54.6625 24.8329 54.8467C25.0382 55.0309 25.2052 55.2538 25.3241 55.5027C25.7132 56.2783 26.3098 56.9307 27.0475 57.3874C27.7853 57.8441 28.6353 58.0871 29.503 58.0895C30.1121 58.0937 30.7161 57.9777 31.2802 57.748C31.8443 57.5183 32.3576 57.1794 32.7904 56.7509C33.2233 56.3223 33.5673 55.8125 33.8027 55.2507C34.038 54.6889 34.1601 54.0862 34.162 53.4771V50.3738C32.8213 51.1766 31.2864 51.5969 29.7238 51.5892C27.4424 51.5866 25.2539 50.6852 23.6326 49.0802C22.0113 47.4752 21.0877 45.2959 21.0622 43.0146V32.2321C21.0534 31.9493 21.1016 31.6676 21.2037 31.4038C21.3059 31.1399 21.4601 30.8993 21.657 30.6961C21.854 30.493 22.0897 30.3314 22.3503 30.2211C22.6109 30.1108 22.8909 30.054 23.1739 30.054C23.4569 30.054 23.7369 30.1108 23.9975 30.2211C24.2581 30.3314 24.4938 30.493 24.6908 30.6961C24.8877 30.8993 25.0419 31.1399 25.1441 31.4038C25.2463 31.6676 25.2944 31.9493 25.2856 32.2321V42.9174C25.2856 44.0945 25.7532 45.2234 26.5855 46.0557C27.4179 46.888 28.5467 47.3556 29.7238 47.3556C30.9009 47.3556 32.0298 46.888 32.8621 46.0557C33.6944 45.2234 34.162 44.0945 34.162 42.9174V32.2321C34.162 31.6664 34.3867 31.1239 34.7867 30.7239C35.1867 30.3239 35.7293 30.0991 36.295 30.0991C36.8607 30.0991 37.4032 30.3239 37.8033 30.7239C38.2033 31.1239 38.428 31.6664 38.428 32.2321H38.4239Z" fill="#EFF6FF"/>
<path d="M45.275 49.5534V60.2893C45.275 60.855 45.0502 61.3975 44.6502 61.7975C44.2502 62.1975 43.7077 62.4223 43.142 62.4223C42.5763 62.4223 42.0337 62.1975 41.6337 61.7975C41.2337 61.3975 41.009 60.855 41.009 60.2893V40.9363C41.0136 38.5027 41.8404 36.1421 43.3553 34.2374C44.8701 32.3328 46.9841 30.9959 49.3543 30.4437C51.7244 29.8915 54.2116 30.1564 56.4122 31.1954C58.6129 32.2344 60.3979 33.9865 61.4776 36.1675C62.5574 38.3485 62.8684 40.8303 62.3604 43.2103C61.8523 45.5903 60.555 47.7288 58.6788 49.2788C56.8027 50.8288 54.4578 51.6993 52.0247 51.7492C49.5916 51.799 47.213 51.0252 45.275 49.5534ZM45.275 40.9363V40.9788C45.2806 42.7203 45.9771 44.3884 47.2115 45.6168C48.4459 46.8452 50.1173 47.5336 51.8588 47.5308C53.6003 47.528 55.2694 46.8342 56.4999 45.6018C57.7303 44.3694 58.4213 42.6991 58.4213 40.9576C58.4213 39.2161 57.7303 37.5458 56.4999 36.3134C55.2694 35.081 53.6003 34.3872 51.8588 34.3844C50.1173 34.3816 48.4459 35.0699 47.2115 36.2984C45.9771 37.5268 45.2806 39.1948 45.275 40.9363Z" fill="#EFF6FF"/>
<path d="M86.685 40.9363V49.3812C86.6949 49.6669 86.6459 49.9516 86.5411 50.2176C86.4363 50.4835 86.2779 50.7251 86.0757 50.9272C85.8736 51.1294 85.632 51.2878 85.366 51.3926C85.1001 51.4974 84.8154 51.5464 84.5297 51.5365C83.6668 51.5365 82.4615 50.631 82.4615 49.3812C80.608 50.9329 78.5399 51.5365 76.0828 51.5365C70.0058 51.5365 65.1808 47.0112 65.1808 40.9363C65.1716 39.5021 65.4474 38.0803 65.992 36.7535C66.5366 35.4267 67.3393 34.2212 68.3535 33.2071C69.3677 32.1929 70.5731 31.3902 71.8999 30.8456C73.2268 30.3009 74.6485 30.0252 76.0828 30.0343C82.1597 30.0343 86.685 34.8594 86.685 40.9363ZM82.4615 40.9363C82.4615 37.3165 79.7026 34.2517 76.0828 34.2517C72.4629 34.2517 69.3981 37.3125 69.3981 40.9363C69.3981 44.5602 72.4569 47.313 76.0828 47.313C79.7087 47.313 82.4615 44.5642 82.4615 40.9363Z" fill="#EFF6FF"/>
<path d="M106.636 32.2321V53.4771C106.632 55.4876 105.948 57.4377 104.694 59.0095C103.441 60.5812 101.691 61.6818 99.7318 62.1318C97.7722 62.5818 95.7181 62.3546 93.9042 61.4873C92.0903 60.6201 90.6238 59.1639 89.7438 57.3562C89.616 57.1065 89.5393 56.8339 89.5182 56.5543C89.497 56.2747 89.5317 55.9936 89.6204 55.7276C89.709 55.4615 89.8498 55.2158 90.0345 55.0048C90.2191 54.7937 90.444 54.6216 90.696 54.4985C90.9479 54.3753 91.2218 54.3036 91.5018 54.2876C91.7818 54.2715 92.0621 54.3114 92.3265 54.4048C92.5909 54.4983 92.834 54.6436 93.0416 54.8321C93.2492 55.0206 93.4172 55.2485 93.5358 55.5027C93.9248 56.2783 94.5214 56.9307 95.2592 57.3874C95.997 57.8441 96.847 58.0871 97.7146 58.0894C98.3237 58.0937 98.9277 57.9777 99.4918 57.7479C100.056 57.5182 100.569 57.1794 101.002 56.7509C101.435 56.3223 101.779 55.8125 102.014 55.2507C102.25 54.6889 102.372 54.0862 102.374 53.4771V50.3738C101.033 51.1766 99.4981 51.5969 97.9354 51.5892C95.6541 51.5866 93.4656 50.6852 91.8442 49.0802C90.2229 47.4752 89.2994 45.2959 89.2738 43.0146V32.2321C89.2738 31.6723 89.4962 31.1355 89.892 30.7396C90.2879 30.3438 90.8247 30.1214 91.3845 30.1214C91.9443 30.1214 92.4812 30.3438 92.877 30.7396C93.2729 31.1355 93.4952 31.6723 93.4952 32.2321V42.9174C93.52 44.0783 93.9986 45.1833 94.8284 45.9956C95.6583 46.8079 96.7732 47.2628 97.9344 47.2628C99.0956 47.2628 100.211 46.8079 101.04 45.9956C101.87 45.1833 102.349 44.0783 102.374 42.9174V32.2321C102.374 31.6664 102.598 31.1239 102.998 30.7239C103.398 30.3239 103.941 30.0991 104.507 30.0991C105.072 30.0991 105.615 30.3239 106.015 30.7239C106.415 31.1239 106.64 31.6664 106.64 32.2321H106.636Z" fill="#EFF6FF"/>
<path d="M127.078 3.64627C120.773 3.64627 114.443 8.77925 112.984 15.0972L112.457 17.4004C111.554 21.3099 113.251 24.6643 116.422 25.9506L116.65 24.9661C116.837 24.1547 117.096 23.3615 117.424 22.5961C117.353 22.5549 117.285 22.5082 117.222 22.4564C115.788 21.397 115.109 19.5313 115.601 17.3923L116.134 15.083C117.191 10.5051 121.783 6.77791 126.347 6.77791H152.468L152.3 7.50917C151.807 9.64014 150.274 11.5058 148.346 12.5733C147.304 13.1704 146.127 13.4918 144.926 13.5071H132.309C127.137 13.5071 121.978 16.9507 119.468 21.6542C119.435 21.7022 119.407 21.753 119.383 21.8061C119.152 22.2599 118.946 22.7136 118.751 23.1795C118.735 23.2423 118.706 23.3193 118.69 23.3821C118.497 23.8962 118.338 24.4227 118.214 24.958L117.884 26.376L117.85 26.5259L115.577 36.4171H122.31C127.544 36.4171 132.803 32.8742 135.274 28.0552C134.869 28.0937 134.452 28.1201 134.049 28.1201H131.904C129.955 31.1585 126.434 33.2652 123.049 33.2652H119.456L121.01 26.536L121.372 24.9601C121.497 24.4204 121.67 23.893 121.889 23.3841C121.994 23.1451 122.091 22.904 122.227 22.6772C122.303 22.5117 122.391 22.3519 122.49 22.1991C122.561 22.0628 122.641 21.9321 122.731 21.8082C122.799 21.6893 122.876 21.5755 122.96 21.4679C123.008 21.386 123.063 21.3093 123.126 21.239C123.248 21.0567 123.383 20.884 123.532 20.7224C123.532 20.7103 123.532 20.7103 123.564 20.6981C123.715 20.5017 123.879 20.3162 124.056 20.1431C124.781 19.3614 125.616 18.6899 126.536 18.1499C126.752 18.0243 126.983 17.8987 127.214 17.7711C127.425 17.6589 127.642 17.5582 127.864 17.4692C127.887 17.4469 127.918 17.4333 127.949 17.4308C128.125 17.354 128.305 17.2863 128.488 17.2282C128.589 17.1795 128.695 17.1414 128.804 17.1148C128.963 17.0569 129.125 17.0102 129.29 16.975C129.352 16.9542 129.415 16.9373 129.479 16.9243C129.667 16.8737 129.852 16.8372 130.038 16.7988L130.285 16.7603C130.467 16.736 130.662 16.7096 130.854 16.6975C131.099 16.6732 131.342 16.659 131.596 16.659H144.199C144.756 16.6594 145.312 16.6093 145.86 16.5091C146.433 16.4158 146.995 16.268 147.539 16.0675C151.303 14.7812 154.55 11.4268 155.454 7.51727L156.349 3.64627H127.078Z" fill="#EFF6FF"/>
<path d="M142.246 18.2451C141.549 20.0371 140.245 21.5275 138.562 22.4564C137.515 23.0535 136.335 23.3749 135.13 23.3902H123.515C123.263 23.8904 123.073 24.4197 122.95 24.9661L122.585 26.536H134.401C134.932 26.5336 135.462 26.4876 135.985 26.3983C136.574 26.3073 137.154 26.1594 137.715 25.9567C141.26 24.7413 144.343 21.719 145.453 18.1114C144.917 18.1984 144.375 18.2411 143.832 18.239L142.246 18.2451Z" fill="#EFF6FF"/>
</svg>
