<svg width="1231" height="308" viewBox="0 0 1231 308" fill="none" xmlns="http://www.w3.org/2000/svg">
<mask id="mask0_29929_97816" style="mask-type:luminance" maskUnits="userSpaceOnUse" x="0" y="0" width="1231" height="308">
<path d="M0.671875 0H1230.32V307.413H0.671875V0Z" fill="url(#paint0_radial_29929_97816)"/>
</mask>
<g mask="url(#mask0_29929_97816)">
<path d="M151.752 0L169.587 10.2967V30.8917L151.752 41.1875L133.917 30.8917V10.2967L151.752 0ZM187.585 0L205.42 10.2967V30.8917L187.585 41.1875L169.75 30.8917V10.2967L187.585 0Z" stroke="#DDDDDD" stroke-width="0.296556"/>
<path d="M223.418 0L241.253 10.2967V30.8917L223.418 41.1883L205.583 30.8917V10.2967L223.418 0Z" fill="#DDDDDD" fill-opacity="0.74902" stroke="#DDDDDD" stroke-width="0.296556"/>
<path d="M259.252 0L277.087 10.2967V30.8917L259.252 41.1883L241.417 30.8917V10.2967L259.252 0ZM295.085 0L312.92 10.2967V30.8917L295.085 41.1883L277.25 30.8917V10.2967L295.085 0ZM438.418 0L456.253 10.2967V30.8917L438.418 41.1883L420.583 30.8917V10.2967L438.418 0ZM545.918 0L563.753 10.2967V30.8917L545.918 41.1883L528.083 30.8917V10.2967L545.918 0ZM581.752 0L599.587 10.2967V30.8917L581.752 41.1883L563.917 30.8917V10.2967L581.752 0Z" stroke="#DDDDDD" stroke-width="0.296556"/>
<path d="M653.418 0L671.253 10.2967V30.8917L653.418 41.1883L635.583 30.8917V10.2967L653.418 0Z" fill="#DDDDDD" fill-opacity="0.0196078" stroke="#DDDDDD" stroke-width="0.296556"/>
<path d="M689.252 0L707.087 10.2967V30.8917L689.252 41.1883L671.417 30.8917V10.2967L689.252 0ZM796.752 0L814.587 10.2967V30.8917L796.752 41.1883L778.917 30.8917V10.2967L796.752 0Z" stroke="#DDDDDD" stroke-width="0.296556"/>
<path d="M868.418 0L886.254 10.2967V30.8917L868.418 41.1883L850.583 30.8917V10.2967L868.418 0Z" fill="#DDDDDD" fill-opacity="0.494118" stroke="#DDDDDD" stroke-width="0.296556"/>
<path d="M940.085 0L957.92 10.2967V30.8917L940.085 41.1883L922.25 30.8917V10.2967L940.085 0ZM1083.42 0L1101.25 10.2967V30.8917L1083.42 41.1883L1065.58 30.8917V10.2967L1083.42 0ZM1119.25 0L1137.09 10.2967V30.8917L1119.25 41.1883L1101.42 30.8917V10.2967L1119.25 0ZM169.668 30.8908L187.503 41.1875V61.7817L169.668 72.0783L151.833 61.7817V41.1875L169.668 30.8908ZM241.335 30.8908L259.17 41.1875V61.7817L241.335 72.0783L223.5 61.7817V41.1875L241.335 30.8908ZM277.168 30.8908L295.003 41.1875V61.7817L277.168 72.0783L259.333 61.7817V41.1875L277.168 30.8908ZM420.502 30.8908L438.337 41.1875V61.7817L420.502 72.0783L402.667 61.7817V41.1875L420.502 30.8908ZM456.335 30.8908L474.17 41.1875V61.7817L456.335 72.0783L438.5 61.7817V41.1875L456.335 30.8908Z" stroke="#DDDDDD" stroke-width="0.296556"/>
<path d="M492.168 30.8908L510.003 41.1875V61.7817L492.168 72.0783L474.333 61.7817V41.1875L492.168 30.8908Z" fill="#DDDDDD" stroke="#DDDDDD" stroke-width="0.296556"/>
<path d="M528.002 30.8908L545.837 41.1875V61.7817L528.002 72.0783L510.167 61.7817V41.1875L528.002 30.8908Z" fill="#DDDDDD" fill-opacity="0.211765" stroke="#DDDDDD" stroke-width="0.296556"/>
<path d="M563.835 30.8908L581.67 41.1875V61.7817L563.835 72.0783L546 61.7817V41.1875L563.835 30.8908Z" fill="#DDDDDD" fill-opacity="0.576471" stroke="#DDDDDD" stroke-width="0.296556"/>
<path d="M743.002 30.8908L760.837 41.1875V61.7817L743.002 72.0783L725.167 61.7817V41.1875L743.002 30.8908ZM778.835 30.8908L796.67 41.1875V61.7817L778.835 72.0783L761 61.7817V41.1875L778.835 30.8908ZM814.668 30.8908L832.503 41.1875V61.7817L814.668 72.0783L796.833 61.7817V41.1875L814.668 30.8908ZM850.502 30.8908L868.337 41.1875V61.7817L850.502 72.0783L832.667 61.7817V41.1875L850.502 30.8908ZM886.335 30.8908L904.17 41.1875V61.7817L886.335 72.0783L868.5 61.7817V41.1875L886.335 30.8908Z" stroke="#DDDDDD" stroke-width="0.296556"/>
<path d="M958.001 30.8908L975.836 41.1875V61.7817L958.001 72.0783L940.167 61.7817V41.1875L958.001 30.8908Z" fill="#DDDDDD" fill-opacity="0.905882" stroke="#DDDDDD" stroke-width="0.296556"/>
<path d="M1065.5 30.8908L1083.34 41.1875V61.7817L1065.5 72.0784L1047.67 61.7817V41.1875L1065.5 30.8908ZM187.585 61.7817L205.42 72.0784V92.6725L187.585 102.969L169.75 92.6725V72.0784L187.585 61.7817ZM223.418 61.7817L241.253 72.0784V92.6725L223.418 102.969L205.583 92.6725V72.0784L223.418 61.7817ZM259.252 61.7817L277.087 72.0784V92.6725L259.252 102.969L241.417 92.6725V72.0784L259.252 61.7817Z" stroke="#DDDDDD" stroke-width="0.296556"/>
<path d="M295.085 61.7812L312.92 72.0779V92.6721L295.085 102.969L277.25 92.6721V72.0779L295.085 61.7812Z" fill="#DDDDDD" fill-opacity="0.0470588" stroke="#DDDDDD" stroke-width="0.296556"/>
<path d="M330.919 61.7812L348.753 72.0779V92.6721L330.919 102.969L313.083 92.6721V72.0779L330.919 61.7812Z" fill="#DDDDDD" fill-opacity="0.811765" stroke="#DDDDDD" stroke-width="0.296556"/>
<path d="M366.752 61.7812L384.586 72.0779V92.6721L366.752 102.969L348.917 92.6721V72.0779L366.752 61.7812ZM402.585 61.7812L420.42 72.0779V92.6721L402.585 102.969L384.75 92.6721V72.0779L402.585 61.7812Z" stroke="#DDDDDD" stroke-width="0.296556"/>
<path d="M474.252 61.7812L492.086 72.0779V92.6721L474.252 102.969L456.417 92.6721V72.0779L474.252 61.7812Z" fill="#DDDDDD" fill-opacity="0.737255" stroke="#DDDDDD" stroke-width="0.296556"/>
<path d="M581.751 61.7812L599.587 72.0779V92.6721L581.751 102.969L563.917 92.6721V72.0779L581.751 61.7812ZM653.418 61.7812L671.253 72.0779V92.6721L653.418 102.969L635.583 92.6721V72.0779L653.418 61.7812Z" stroke="#DDDDDD" stroke-width="0.296556"/>
<path d="M689.251 61.7812L707.087 72.0779V92.6721L689.251 102.969L671.417 92.6721V72.0779L689.251 61.7812Z" fill="#DDDDDD" fill-opacity="0.839216" stroke="#DDDDDD" stroke-width="0.296556"/>
<path d="M725.085 61.7812L742.92 72.0779V92.6721L725.085 102.969L707.25 92.6721V72.0779L725.085 61.7812ZM760.918 61.7812L778.753 72.0779V92.6721L760.918 102.969L743.083 92.6721V72.0779L760.918 61.7812Z" stroke="#DDDDDD" stroke-width="0.296556"/>
<path d="M832.585 61.7812L850.42 72.0779V92.6721L832.585 102.969L814.75 92.6721V72.0779L832.585 61.7812Z" fill="#DDDDDD" fill-opacity="0.760784" stroke="#DDDDDD" stroke-width="0.296556"/>
<path d="M868.418 61.7812L886.254 72.0779V92.6721L868.418 102.969L850.583 92.6721V72.0779L868.418 61.7812ZM940.085 61.7812L957.92 72.0779V92.6721L940.085 102.969L922.25 92.6721V72.0779L940.085 61.7812Z" stroke="#DDDDDD" stroke-width="0.296556"/>
<path d="M1011.75 61.7812L1029.59 72.0779V92.6721L1011.75 102.969L993.917 92.6721V72.0779L1011.75 61.7812Z" fill="#DDDDDD" fill-opacity="0.968627" stroke="#DDDDDD" stroke-width="0.296556"/>
<path d="M1047.58 61.7812L1065.42 72.0779V92.6721L1047.58 102.969L1029.75 92.6721V72.0779L1047.58 61.7812Z" stroke="#DDDDDD" stroke-width="0.296556"/>
<path d="M1083.42 61.7812L1101.25 72.0779V92.6721L1083.42 102.969L1065.58 92.6721V72.0779L1083.42 61.7812Z" fill="#DDDDDD" fill-opacity="0.443137" stroke="#DDDDDD" stroke-width="0.296556"/>
<path d="M1119.25 61.7812L1137.09 72.0779V92.6721L1119.25 102.969L1101.42 92.6721V72.0779L1119.25 61.7812Z" stroke="#DDDDDD" stroke-width="0.296556"/>
<path d="M205.502 92.6729L223.337 102.97V123.564L205.502 133.86L187.667 123.564V102.97L205.502 92.6729Z" fill="#DDDDDD" fill-opacity="0.898039" stroke="#DDDDDD" stroke-width="0.296556"/>
<path d="M277.168 92.6729L295.003 102.97V123.564L277.168 133.86L259.333 123.564V102.97L277.168 92.6729ZM348.835 92.6729L366.67 102.97V123.564L348.835 133.86L331 123.564V102.97L348.835 92.6729ZM456.335 92.6729L474.17 102.97V123.564L456.335 133.86L438.5 123.564V102.97L456.335 92.6729Z" stroke="#DDDDDD" stroke-width="0.296556"/>
<path d="M492.169 92.6729L510.003 102.97V123.564L492.169 133.86L474.333 123.564V102.97L492.169 92.6729Z" fill="#DDDDDD" fill-opacity="0.886275" stroke="#DDDDDD" stroke-width="0.296556"/>
<path d="M563.835 92.6729L581.67 102.97V123.564L563.835 133.86L546 123.564V102.97L563.835 92.6729Z" fill="#DDDDDD" fill-opacity="0.309804" stroke="#DDDDDD" stroke-width="0.296556"/>
<path d="M599.668 92.6729L617.503 102.97V123.564L599.668 133.86L581.833 123.564V102.97L599.668 92.6729ZM635.501 92.6729L653.337 102.97V123.564L635.501 133.86L617.666 123.564V102.97L635.501 92.6729ZM778.835 92.6729L796.67 102.97V123.564L778.835 133.86L761 123.564V102.97L778.835 92.6729ZM814.668 92.6729L832.503 102.97V123.564L814.668 133.86L796.833 123.564V102.97L814.668 92.6729ZM850.501 92.6729L868.336 102.97V123.564L850.501 133.86L832.666 123.564V102.97L850.501 92.6729ZM886.335 92.6729L904.17 102.97V123.564L886.335 133.86L868.5 123.564V102.97L886.335 92.6729ZM922.168 92.6729L940.003 102.97V123.564L922.168 133.86L904.333 123.564V102.97L922.168 92.6729ZM958.001 92.6729L975.836 102.97V123.564L958.001 133.86L940.166 123.564V102.97L958.001 92.6729ZM1065.5 92.6729L1083.34 102.97V123.564L1065.5 133.86L1047.67 123.564V102.97L1065.5 92.6729ZM1101.33 92.6729L1119.17 102.97V123.564L1101.33 133.86L1083.5 123.564V102.97L1101.33 92.6729ZM151.752 123.564L169.587 133.86V154.455L151.752 164.75L133.917 154.455V133.86L151.752 123.564ZM223.418 123.564L241.253 133.86V154.455L223.418 164.75L205.583 154.455V133.86L223.418 123.564ZM259.251 123.564L277.087 133.86V154.455L259.251 164.75L241.417 154.455V133.86L259.251 123.564Z" stroke="#DDDDDD" stroke-width="0.296556"/>
<path d="M295.085 123.563L312.92 133.86V154.454L295.085 164.75L277.25 154.454V133.86L295.085 123.563Z" fill="#DDDDDD" fill-opacity="0.184314" stroke="#DDDDDD" stroke-width="0.296556"/>
<path d="M402.585 123.563L420.42 133.86V154.454L402.585 164.75L384.75 154.454V133.86L402.585 123.563Z" fill="#DDDDDD" fill-opacity="0.0470588" stroke="#DDDDDD" stroke-width="0.296556"/>
<path d="M438.418 123.563L456.253 133.86V154.454L438.418 164.75L420.583 154.454V133.86L438.418 123.563ZM510.085 123.563L527.92 133.86V154.454L510.085 164.75L492.25 154.454V133.86L510.085 123.563ZM545.918 123.563L563.753 133.86V154.454L545.918 164.75L528.083 154.454V133.86L545.918 123.563Z" stroke="#DDDDDD" stroke-width="0.296556"/>
<path d="M617.585 123.563L635.42 133.86V154.454L617.585 164.75L599.75 154.454V133.86L617.585 123.563Z" fill="#DDDDDD" fill-opacity="0.403922" stroke="#DDDDDD" stroke-width="0.296556"/>
<path d="M653.418 123.563L671.253 133.86V154.454L653.418 164.75L635.583 154.454V133.86L653.418 123.563ZM689.252 123.563L707.087 133.86V154.454L689.252 164.75L671.417 154.454V133.86L689.252 123.563Z" stroke="#DDDDDD" stroke-width="0.296556"/>
<path d="M725.085 123.563L742.92 133.86V154.454L725.085 164.75L707.25 154.454V133.86L725.085 123.563Z" fill="#DDDDDD" fill-opacity="0.427451" stroke="#DDDDDD" stroke-width="0.296556"/>
<path d="M796.751 123.563L814.587 133.86V154.454L796.751 164.75L778.917 154.454V133.86L796.751 123.563Z" fill="#DDDDDD" fill-opacity="0.403922" stroke="#DDDDDD" stroke-width="0.296556"/>
<path d="M832.585 123.563L850.42 133.86V154.454L832.585 164.75L814.75 154.454V133.86L832.585 123.563ZM940.085 123.563L957.92 133.86V154.454L940.085 164.75L922.25 154.454V133.86L940.085 123.563ZM1047.58 123.563L1065.42 133.86V154.454L1047.58 164.751L1029.75 154.454V133.86L1047.58 123.563ZM1083.42 123.563L1101.25 133.86V154.454L1083.42 164.751L1065.58 154.454V133.86L1083.42 123.563Z" stroke="#DDDDDD" stroke-width="0.296556"/>
<path d="M133.835 154.454L151.67 164.75V185.344L133.835 195.642L116 185.345V164.75L133.835 154.454Z" fill="#DDDDDD" fill-opacity="0.223529" stroke="#DDDDDD" stroke-width="0.296556"/>
<path d="M169.668 154.454L187.503 164.75V185.344L169.668 195.642L151.833 185.345V164.75L169.668 154.454ZM205.502 154.454L223.337 164.751V185.345L205.502 195.642L187.667 185.345V164.75L205.502 154.454ZM277.168 154.454L295.003 164.751V185.345L277.168 195.642L259.333 185.345V164.75L277.168 154.454ZM420.502 154.454L438.337 164.751V185.345L420.502 195.642L402.667 185.345V164.75L420.502 154.454Z" stroke="#DDDDDD" stroke-width="0.296556"/>
<path d="M456.335 154.454L474.17 164.751V185.345L456.335 195.642L438.5 185.345V164.75L456.335 154.454Z" fill="#DDDDDD" fill-opacity="0.623529" stroke="#DDDDDD" stroke-width="0.296556"/>
<path d="M528.002 154.454L545.837 164.751V185.345L528.002 195.642L510.167 185.345V164.75L528.002 154.454ZM599.668 154.454L617.503 164.751V185.345L599.668 195.642L581.833 185.345V164.75L599.668 154.454ZM671.335 154.454L689.17 164.751V185.345L671.335 195.642L653.5 185.345V164.75L671.335 154.454ZM707.168 154.454L725.003 164.751V185.345L707.168 195.642L689.333 185.345V164.75L707.168 154.454Z" stroke="#DDDDDD" stroke-width="0.296556"/>
<path d="M778.835 154.454L796.67 164.751V185.345L778.835 195.642L761 185.345V164.75L778.835 154.454Z" fill="#DDDDDD" fill-opacity="0.270588" stroke="#DDDDDD" stroke-width="0.296556"/>
<path d="M814.668 154.454L832.504 164.751V185.345L814.668 195.642L796.833 185.345V164.75L814.668 154.454Z" fill="#DDDDDD" fill-opacity="0.596078" stroke="#DDDDDD" stroke-width="0.296556"/>
<path d="M850.501 154.454L868.337 164.751V185.345L850.501 195.642L832.667 185.345V164.75L850.501 154.454Z" fill="#DDDDDD" fill-opacity="0.772549" stroke="#DDDDDD" stroke-width="0.296556"/>
<path d="M922.168 154.454L940.004 164.751V185.345L922.168 195.642L904.333 185.345V164.75L922.168 154.454Z" fill="#DDDDDD" fill-opacity="0.141176" stroke="#DDDDDD" stroke-width="0.296556"/>
<path d="M958.002 154.454L975.837 164.751V185.345L958.002 195.642L940.167 185.345V164.75L958.002 154.454ZM993.835 154.454L1011.67 164.751V185.345L993.835 195.642L976 185.345V164.75L993.835 154.454ZM1029.67 154.454L1047.5 164.751V185.345L1029.67 195.642L1011.83 185.345V164.75L1029.67 154.454ZM1065.5 154.454L1083.34 164.751V185.345L1065.5 195.642L1047.67 185.345V164.75L1065.5 154.454ZM187.585 185.345L205.42 195.642V216.236L187.585 226.533L169.75 216.236V195.642L187.585 185.345ZM223.418 185.345L241.253 195.642V216.236L223.418 226.533L205.583 216.236V195.642L223.418 185.345ZM295.085 185.345L312.92 195.642V216.236L295.085 226.533L277.25 216.236V195.642L295.085 185.345ZM330.918 185.345L348.753 195.642V216.236L330.918 226.533L313.083 216.236V195.642L330.918 185.345ZM366.752 185.345L384.587 195.642V216.236L366.752 226.533L348.917 216.236V195.642L366.752 185.345ZM402.585 185.345L420.42 195.642V216.236L402.585 226.533L384.75 216.236V195.642L402.585 185.345ZM438.418 185.345L456.253 195.642V216.236L438.418 226.533L420.583 216.236V195.642L438.418 185.345ZM474.252 185.345L492.087 195.642V216.236L474.252 226.533L456.417 216.236V195.642L474.252 185.345ZM510.085 185.345L527.92 195.642V216.236L510.085 226.533L492.25 216.236V195.642L510.085 185.345ZM653.418 185.345L671.253 195.642V216.236L653.418 226.533L635.583 216.236V195.642L653.418 185.345ZM689.252 185.345L707.087 195.642V216.236L689.252 226.533L671.417 216.236V195.642L689.252 185.345ZM725.085 185.345L742.92 195.642V216.236L725.085 226.533L707.25 216.236V195.642L725.085 185.345Z" stroke="#DDDDDD" stroke-width="0.296556"/>
<path d="M832.585 185.345L850.42 195.641V216.236L832.585 226.532L814.75 216.236V195.641L832.585 185.345Z" fill="#DDDDDD" fill-opacity="0.607843" stroke="#DDDDDD" stroke-width="0.296556"/>
<path d="M868.418 185.345L886.254 195.641V216.236L868.418 226.532L850.583 216.236V195.641L868.418 185.345Z" fill="#DDDDDD" fill-opacity="0.478431" stroke="#DDDDDD" stroke-width="0.296556"/>
<path d="M904.251 185.345L922.087 195.641V216.236L904.251 226.532L886.417 216.236V195.641L904.251 185.345Z" stroke="#DDDDDD" stroke-width="0.296556"/>
<path d="M1011.75 185.345L1029.59 195.641V216.236L1011.75 226.532L993.917 216.236V195.641L1011.75 185.345Z" fill="#DDDDDD" fill-opacity="0.419608" stroke="#DDDDDD" stroke-width="0.296556"/>
<path d="M1083.42 185.345L1101.25 195.641V216.236L1083.42 226.532L1065.58 216.236V195.641L1083.42 185.345Z" stroke="#DDDDDD" stroke-width="0.296556"/>
<path d="M1119.25 185.345L1137.09 195.641V216.236L1119.25 226.532L1101.42 216.236V195.641L1119.25 185.345Z" fill="#DDDDDD" fill-opacity="0.921569" stroke="#DDDDDD" stroke-width="0.296556"/>
<path d="M133.835 216.235L151.67 226.532V247.126L133.835 257.423L116 247.126V226.532L133.835 216.235Z" fill="#DDDDDD" fill-opacity="0.678431" stroke="#DDDDDD" stroke-width="0.296556"/>
<path d="M169.668 216.235L187.503 226.532V247.126L169.668 257.423L151.833 247.126V226.532L169.668 216.235Z" fill="#DDDDDD" fill-opacity="0.792157" stroke="#DDDDDD" stroke-width="0.296556"/>
<path d="M348.835 216.235L366.67 226.532V247.126L348.835 257.423L331 247.126V226.532L348.835 216.235Z" fill="#DDDDDD" fill-opacity="0.713726" stroke="#DDDDDD" stroke-width="0.296556"/>
<path d="M384.669 216.235L402.503 226.532V247.126L384.669 257.423L366.833 247.126V226.532L384.669 216.235ZM420.502 216.235L438.337 226.532V247.126L420.502 257.423L402.667 247.126V226.532L420.502 216.235ZM456.335 216.235L474.17 226.532V247.126L456.335 257.423L438.5 247.126V226.532L456.335 216.235ZM528.002 216.235L545.837 226.532V247.126L528.002 257.423L510.167 247.126V226.532L528.002 216.235Z" stroke="#DDDDDD" stroke-width="0.296556"/>
<path d="M599.668 216.235L617.504 226.532V247.126L599.668 257.423L581.833 247.126V226.532L599.668 216.235Z" fill="#DDDDDD" fill-opacity="0.313726" stroke="#DDDDDD" stroke-width="0.296556"/>
<path d="M635.501 216.235L653.337 226.532V247.126L635.501 257.423L617.667 247.126V226.532L635.501 216.235ZM671.335 216.235L689.17 226.532V247.126L671.335 257.423L653.5 247.126V226.532L671.335 216.235ZM707.168 216.235L725.003 226.532V247.126L707.168 257.423L689.333 247.126V226.532L707.168 216.235Z" stroke="#DDDDDD" stroke-width="0.296556"/>
<path d="M743.001 216.235L760.837 226.532V247.126L743.001 257.423L725.167 247.126V226.532L743.001 216.235Z" fill="#DDDDDD" fill-opacity="0.976471" stroke="#DDDDDD" stroke-width="0.296556"/>
<path d="M778.835 216.235L796.67 226.532V247.126L778.835 257.423L761 247.126V226.532L778.835 216.235ZM814.668 216.235L832.503 226.532V247.126L814.668 257.423L796.833 247.126V226.532L814.668 216.235ZM886.335 216.235L904.17 226.532V247.126L886.335 257.423L868.5 247.126V226.532L886.335 216.235Z" stroke="#DDDDDD" stroke-width="0.296556"/>
<path d="M993.835 216.235L1011.67 226.532V247.126L993.835 257.423L976 247.126V226.532L993.835 216.235Z" fill="#DDDDDD" fill-opacity="0.690196" stroke="#DDDDDD" stroke-width="0.296556"/>
<path d="M1029.67 216.235L1047.5 226.532V247.126L1029.67 257.423L1011.83 247.126V226.532L1029.67 216.235Z" fill="#DDDDDD" fill-opacity="0.462745" stroke="#DDDDDD" stroke-width="0.296556"/>
<path d="M1065.5 216.235L1083.34 226.532V247.126L1065.5 257.423L1047.67 247.126V226.532L1065.5 216.235Z" fill="#DDDDDD" fill-opacity="0.568627" stroke="#DDDDDD" stroke-width="0.296556"/>
<path d="M1101.33 216.235L1119.17 226.532V247.126L1101.33 257.423L1083.5 247.126V226.532L1101.33 216.235ZM187.585 247.126L205.42 257.423V278.017L187.585 288.314L169.75 278.017V257.423L187.585 247.126ZM223.418 247.126L241.253 257.423V278.017L223.418 288.314L205.583 278.017V257.423L223.418 247.126ZM259.252 247.126L277.087 257.423V278.017L259.252 288.314L241.417 278.017V257.423L259.252 247.126Z" stroke="#DDDDDD" stroke-width="0.296556"/>
<path d="M330.919 247.127L348.753 257.424V278.018L330.919 288.314L313.083 278.018V257.424L330.919 247.127Z" fill="#DDDDDD" fill-opacity="0.6" stroke="#DDDDDD" stroke-width="0.296556"/>
<path d="M366.752 247.127L384.586 257.424V278.018L366.752 288.314L348.917 278.018V257.424L366.752 247.127Z" stroke="#DDDDDD" stroke-width="0.296556"/>
<path d="M474.252 247.127L492.086 257.424V278.018L474.252 288.314L456.417 278.018V257.424L474.252 247.127Z" fill="#DDDDDD" fill-opacity="0.862745" stroke="#DDDDDD" stroke-width="0.296556"/>
<path d="M510.085 247.127L527.92 257.424V278.018L510.085 288.314L492.25 278.018V257.424L510.085 247.127ZM725.085 247.127L742.92 257.424V278.018L725.085 288.314L707.25 278.018V257.424L725.085 247.127ZM760.918 247.127L778.753 257.424V278.018L760.918 288.314L743.083 278.018V257.424L760.918 247.127Z" stroke="#DDDDDD" stroke-width="0.296556"/>
<path d="M796.751 247.127L814.587 257.424V278.018L796.751 288.314L778.917 278.018V257.424L796.751 247.127Z" fill="#DDDDDD" fill-opacity="0.0745098" stroke="#DDDDDD" stroke-width="0.296556"/>
<path d="M832.585 247.127L850.42 257.424V278.018L832.585 288.314L814.75 278.018V257.424L832.585 247.127Z" fill="#DDDDDD" fill-opacity="0.517647" stroke="#DDDDDD" stroke-width="0.296556"/>
<path d="M868.418 247.127L886.254 257.424V278.018L868.418 288.314L850.583 278.018V257.424L868.418 247.127Z" stroke="#DDDDDD" stroke-width="0.296556"/>
<path d="M940.085 247.127L957.92 257.424V278.018L940.085 288.314L922.25 278.018V257.424L940.085 247.127Z" fill="#DDDDDD" fill-opacity="0.176471" stroke="#DDDDDD" stroke-width="0.296556"/>
<path d="M975.918 247.127L993.753 257.424V278.018L975.918 288.314L958.083 278.018V257.424L975.918 247.127Z" fill="#DDDDDD" fill-opacity="0.121569" stroke="#DDDDDD" stroke-width="0.296556"/>
<path d="M1011.75 247.127L1029.59 257.424V278.018L1011.75 288.314L993.917 278.018V257.424L1011.75 247.127ZM1047.59 247.127L1065.42 257.424V278.018L1047.59 288.314L1029.75 278.018V257.424L1047.59 247.127ZM277.168 278.017L295.003 288.314V308.909L277.168 319.205L259.333 308.909V288.314L277.168 278.017ZM313.002 278.017L330.837 288.314V308.909L313.002 319.205L295.167 308.909V288.314L313.002 278.017ZM384.669 278.017L402.503 288.314V308.909L384.669 319.205L366.834 308.909V288.314L384.669 278.017ZM420.502 278.017L438.337 288.314V308.909L420.502 319.205L402.667 308.909V288.314L420.502 278.017ZM492.169 278.017L510.003 288.314V308.909L492.169 319.205L474.334 308.909V288.314L492.169 278.017ZM528.002 278.017L545.837 288.314V308.909L528.002 319.205L510.167 308.909V288.314L528.002 278.017ZM563.835 278.017L581.67 288.314V308.909L563.835 319.205L546 308.909V288.314L563.835 278.017ZM599.668 278.017L617.504 288.314V308.909L599.668 319.205L581.834 308.909V288.314L599.668 278.017ZM635.502 278.017L653.337 288.314V308.909L635.502 319.205L617.667 308.909V288.314L635.502 278.017Z" stroke="#DDDDDD" stroke-width="0.296556"/>
<path d="M707.168 278.017L725.003 288.314V308.908L707.168 319.205L689.333 308.908V288.314L707.168 278.017Z" fill="#DDDDDD" fill-opacity="0.141176" stroke="#DDDDDD" stroke-width="0.296556"/>
<path d="M743.002 278.017L760.837 288.314V308.908L743.002 319.205L725.167 308.908V288.314L743.002 278.017Z" fill="#DDDDDD" fill-opacity="0.596078" stroke="#DDDDDD" stroke-width="0.296556"/>
<path d="M778.835 278.017L796.67 288.314V308.908L778.835 319.205L761 308.908V288.314L778.835 278.017ZM814.668 278.017L832.503 288.314V308.908L814.668 319.205L796.833 308.908V288.314L814.668 278.017Z" stroke="#DDDDDD" stroke-width="0.296556"/>
<path d="M850.501 278.017L868.337 288.314V308.908L850.501 319.205L832.667 308.908V288.314L850.501 278.017Z" fill="#DDDDDD" fill-opacity="0.0431373" stroke="#DDDDDD" stroke-width="0.296556"/>
<path d="M958.001 278.017L975.836 288.314V308.908L958.001 319.205L940.167 308.908V288.314L958.001 278.017Z" fill="#DDDDDD" fill-opacity="0.266667" stroke="#DDDDDD" stroke-width="0.296556"/>
<path d="M993.835 278.017L1011.67 288.314V308.908L993.835 319.205L976 308.908V288.314L993.835 278.017Z" stroke="#DDDDDD" stroke-width="0.296556"/>
<path d="M1065.5 278.017L1083.34 288.314V308.908L1065.5 319.205L1047.67 308.908V288.314L1065.5 278.017Z" fill="#DDDDDD" fill-opacity="0.745098" stroke="#DDDDDD" stroke-width="0.296556"/>
<path d="M1101.33 278.017L1119.17 288.314V308.908L1101.33 319.205L1083.5 308.908V288.314L1101.33 278.017ZM151.752 308.908L169.587 319.205V339.799L151.752 350.096L133.917 339.799V319.205L151.752 308.908ZM187.585 308.908L205.42 319.205V339.799L187.585 350.096L169.75 339.799V319.205L187.585 308.908ZM295.085 308.908L312.92 319.205V339.799L295.085 350.096L277.25 339.799V319.205L295.085 308.908Z" stroke="#DDDDDD" stroke-width="0.296556"/>
</g>
<defs>
<radialGradient id="paint0_radial_29929_97816" cx="0" cy="0" r="1" gradientUnits="userSpaceOnUse" gradientTransform="translate(615.498 153.706) scale(614.826 153.706)">
<stop stop-color="white"/>
<stop offset="1" stop-color="white" stop-opacity="0"/>
</radialGradient>
</defs>
</svg>
