<svg width="150" height="150" viewBox="0 0 150 150" fill="none" xmlns="http://www.w3.org/2000/svg">
<rect width="150" height="150" fill="white"/>
<path d="M98.0212 86.4025C102.579 91.657 111.753 82.3963 117.472 78.4192C123.191 74.442 128.387 67.8812 126.732 61.1171C124.7 52.8144 113.436 48.605 113.088 40.0701C112.943 36.2091 115.178 32.7254 116.368 29.0676C117.559 25.4098 117.181 20.4456 113.669 18.8779C112.623 18.4135 111.433 18.3264 110.272 18.2393C104.872 17.8909 99.4727 17.5135 94.0731 17.1652C86.9607 16.7007 79.616 16.2652 72.91 18.6457C63.388 22.0422 56.7111 30.5191 48.2922 36.18C47.131 36.9638 45.8828 37.7186 44.4893 37.7767C40.3089 37.9509 38.48 32.4061 34.8222 30.3449C31.2515 28.3128 26.3453 30.2869 24.2551 33.8286C22.1649 37.3703 22.3682 41.87 23.7036 45.76C25.039 49.6501 27.3614 53.1047 29.3935 56.6754C31.4257 60.2462 33.1965 64.1363 33.2836 68.2295C33.3707 72.6712 31.4256 76.9096 29.3354 80.8287C27.2452 84.7478 86.6994 73.3389 98.0212 86.4025Z" fill="#F4F6F9"/>
<path d="M128.881 124.955C127.371 121.036 130.332 116.304 128.474 112.559C126.936 109.453 122.93 108.64 120.259 106.434C118.459 104.924 117.298 102.834 115.933 100.918C114.569 99.0018 112.769 97.202 110.446 96.7955L110.475 96.6213C108.734 93.7183 106.208 91.0185 104.931 88.667C103.944 86.8962 111.898 82.861 111.898 82.861C106.005 77.0259 92.4476 66.3427 84.6384 63.5268C84.3481 59.4625 83.9708 49.4761 83.9708 49.4761C87.077 48.6922 93.3475 47.0375 93.3475 47.0375C89.6897 42.5088 85.7126 37.2833 81.5902 32.1449C80.2258 30.4321 78.3969 28.9226 76.3067 28.342L69.6588 26.9775L66.7848 39.1703C65.1591 38.4155 63.0399 38.7348 61.7626 40.0122C60.253 41.4927 60.0788 44.1345 61.3561 45.8182C62.169 46.8924 63.4754 47.473 64.8108 47.531L64.7817 47.6472C62.5464 52.9307 60.5142 57.3142 58.2499 61.901L58.2208 61.7849C50.8181 65.0654 43.8798 67.9103 37.1158 72.4391C30.3807 76.9388 24.3134 82.7448 20.6556 90.0024C20.6556 90.0024 25.2714 88.609 29.5679 90.3508C29.2485 90.6991 28.9873 91.0765 28.755 91.483C27.739 93.2538 27.5648 95.373 26.9842 97.3181C24.865 104.343 17.5493 108.843 15.3721 115.868C15.3721 115.868 18.7976 123.532 42.6315 127.364C43.4154 127.481 43.4154 126 43.5896 125.274C43.7347 124.549 43.6186 123.765 43.067 123.213C42.8347 122.981 42.5444 122.836 42.1961 122.72C42.7477 122.197 43.2702 121.646 43.6767 121.036C44.6347 119.73 45.1282 118.162 44.6347 116.739C44.3153 115.839 43.6476 115.085 43.067 114.301C39.8446 109.917 46.0571 108.64 49.1924 105.998C50.0633 105.243 50.8181 104.285 51.3406 103.298C52.7341 104.982 54.5049 106.376 56.479 107.334C58.1918 108.669 59.9917 109.337 61.4432 109.598C61.6755 109.685 61.9368 109.772 62.198 109.83L62.0819 109.685C62.169 109.685 62.2851 109.714 62.3722 109.714L64.2302 98.8276C64.2302 98.8276 74.5939 99.2631 75.3487 88.1735C75.4648 86.3736 75.2907 84.8931 74.9133 83.6158C78.1356 83.2093 80.9516 83.3254 83.4772 83.5867C84.1159 84.0802 84.7836 84.7479 85.3352 85.5898C85.3642 85.8221 85.4803 86.0543 85.6545 86.2575C85.7126 86.3156 85.7416 86.3446 85.7997 86.4027C86.7577 88.3187 87.2222 91.0185 86.3222 94.8505C85.5384 98.218 84.1159 100.715 82.5193 102.602C82.4612 102.573 82.4322 102.515 82.3741 102.485L82.4322 102.718C78.8614 106.869 74.5069 107.827 74.5069 107.827L72.8811 119.41L98.6021 113.604L95.2055 100.163C96.0764 100.047 96.9473 99.8147 97.8183 99.5534C97.7312 100.105 97.7311 100.686 97.7892 101.266C97.9634 102.602 98.544 103.879 99.4439 104.866H99.6762C99.8213 111.804 100.605 118.742 102.057 125.507C102.637 128.235 103.45 131.167 105.714 132.793C105.714 132.793 110.011 124.461 119.881 128.526C129.752 132.59 134.513 128.526 134.513 128.526C132.074 128.729 129.723 127.19 128.881 124.955ZM92.1283 88.1735L91.4316 85.4156C91.5477 85.3866 91.6929 85.3285 91.809 85.2995C93.1734 84.9802 94.8281 85.1834 95.6119 86.3446C95.641 86.4027 95.67 86.4607 95.699 86.5188C94.4507 86.9542 93.2605 87.5058 92.1283 88.1735ZM94.1024 96.0117C95.7281 95.344 97.4408 94.7924 99.0956 94.3279C97.7311 94.8215 95.8442 95.7504 94.2766 96.7375L94.1024 96.0117Z" fill="white"/>
<path d="M67.5106 77.0837L68.4396 67.823C68.4396 67.823 61.182 69.0132 55.7824 74.558C56.1598 74.6451 56.5662 74.7612 56.9436 74.8774C58.0177 75.1967 59.2079 75.516 60.1369 76.2128C60.9207 76.8224 61.4433 77.8385 61.182 78.8545C60.8917 79.8706 59.8466 80.306 58.8596 80.248C57.6984 80.1899 56.5952 79.6383 55.5211 79.2319C54.6212 78.8836 53.6922 78.5933 52.7051 78.6804C52.5019 79.0577 52.2987 79.4061 52.1245 79.8125C52.4438 79.9577 52.7632 80.1028 53.0825 80.248C54.6211 81.0318 56.0727 82.0188 57.379 83.2091C58.4241 84.1671 60.5724 86.025 59.0048 87.4475C58.6564 87.7378 58.279 87.912 57.8725 87.9701C58.3951 88.5797 58.8596 89.3345 58.6854 90.1764C58.5112 91.0473 57.6694 91.5408 56.8275 91.5118C55.8405 91.4827 54.9115 90.8731 54.0405 90.4376C53.547 90.2054 53.0535 89.9731 52.56 89.7699C52.6471 89.828 52.7632 89.8861 52.8503 89.9731C53.3728 90.3215 53.8664 90.6989 54.3308 91.1344C54.6502 91.4537 54.9985 91.8021 55.1147 92.2375C55.5211 93.6019 53.5761 93.7761 52.7342 93.8052C51.8633 93.8342 51.0214 93.7471 50.1795 93.5729C50.2666 94.56 49.9182 95.7212 50.5278 96.3889C51.0214 96.9404 51.9504 97.2888 52.1826 98.1016C52.4439 99.0306 51.7181 100.801 52.0665 101.585C54.7663 107.711 59.5853 109.714 62.4593 109.859L64.3173 98.9726C64.3173 98.9726 74.6811 99.408 75.4359 88.3184C76.1036 78.2449 67.5106 77.0837 67.5106 77.0837Z" fill="#FFE945"/>
<path d="M49.2504 93.573C49.2504 93.4859 49.2504 93.3988 49.2214 93.2827H49.1924C49.2214 93.3698 49.2214 93.4569 49.2504 93.573Z" fill="black"/>
<path d="M52.0083 73.8034C54.9404 70.4939 58.7724 68.0263 63.0108 66.72C63.0979 66.6909 63.156 66.6619 63.185 66.6038C64.5784 66.778 65.9719 67.0974 67.3073 67.5328C62.8366 69.0424 58.6853 71.3648 55.0565 74.3549C55.4049 74.442 55.7822 74.5291 56.1306 74.6162C59.7884 71.6842 63.9979 69.4488 68.4976 68.0844C68.6137 68.0554 68.6718 67.9973 68.7298 67.9393C69.0492 67.8231 69.1362 67.2425 68.7008 67.0974C66.8718 66.4587 65.0139 65.9652 63.0689 65.762C62.9237 65.7329 62.8076 65.82 62.7205 65.9361C58.2498 67.3296 54.2146 69.9714 51.1665 73.5131C51.1084 73.5711 51.0793 73.6582 51.0503 73.7163C51.3406 73.7163 51.689 73.7453 52.0083 73.8034Z" fill="black"/>
<path d="M63.8817 100.453C62.6914 99.9598 61.9076 98.8567 61.2109 97.8406C60.8335 97.3181 60.4852 96.7665 60.0788 96.273C59.7014 95.7795 59.2369 95.2279 58.7143 94.9085C58.1337 94.5602 57.3208 94.5021 56.9144 95.1698C56.537 95.7795 56.7983 96.5923 56.9144 97.231C57.2337 98.7406 57.6983 100.221 58.3369 101.644C59.0627 103.298 60.0207 104.808 61.1529 106.23C61.5012 106.666 62.1109 106.056 61.7625 105.621C59.9626 103.385 58.6853 100.773 57.9886 98.0148C57.8144 97.3761 57.6112 96.6504 57.6112 95.9827C57.5821 95.1408 58.3659 95.6633 58.6853 95.9827C59.5272 96.7955 60.1368 97.8406 60.8335 98.7696C61.5883 99.8147 62.4592 100.773 63.6785 101.266C63.9107 101.353 64.143 101.179 64.201 100.976C64.2591 100.744 64.0849 100.54 63.8817 100.453Z" fill="black"/>
<path d="M68.8749 84.8058C68.3233 84.08 67.8298 83.3252 67.3363 82.5414C65.188 79.0287 63.7655 75.1096 63.1269 71.0454C63.0398 70.4938 62.1979 70.726 62.285 71.2776C62.8075 74.7322 63.9397 78.0707 65.5364 81.1479C66.3493 82.6865 67.2782 84.1671 68.3233 85.5605C68.7587 86.1121 69.4264 86.925 69.049 87.6798C68.9329 87.912 68.7007 88.1442 68.4104 88.0862C68.062 88.0281 67.8588 87.5927 67.7137 87.3024C67.2202 86.4314 66.7556 85.5605 66.2912 84.7187C65.8847 83.9639 65.5074 83.122 64.9558 82.4543C64.5203 81.9027 63.8526 81.4673 63.1269 81.6414C62.4011 81.8156 61.9657 82.5124 61.9076 83.2091C61.8205 84.051 62.256 84.8348 62.6334 85.5605C63.0688 86.4024 63.4752 87.2443 63.8526 88.1152C64.6074 89.857 65.2171 91.6569 65.6816 93.4858C65.7687 93.8342 65.8848 94.1825 65.8267 94.5599C65.7687 95.0244 65.4202 94.8503 65.1299 94.618C64.4042 93.9793 63.7655 93.2246 63.1559 92.4698C61.9076 90.9312 60.8915 89.2184 60.1077 87.4185C59.8754 86.8959 59.1207 87.3604 59.3529 87.8539C60.1077 89.5087 61.0367 91.1053 62.1398 92.5569C62.6914 93.2826 63.3011 94.0084 63.9397 94.6761C64.4623 95.2276 65.217 96.0986 66.088 95.6341C66.7266 95.2857 66.7556 94.5019 66.6395 93.8632C66.4944 92.9343 66.1751 92.0053 65.8848 91.1344C65.2751 89.2474 64.5203 87.3895 63.6204 85.6186C63.272 84.8928 62.5753 83.9929 62.7785 83.151C62.8366 82.8607 63.0398 82.5704 63.3301 82.5123C63.7075 82.4543 64.0268 82.7736 64.23 83.0349C64.4623 83.3252 64.6365 83.6445 64.8107 83.9639C65.0719 84.4574 65.3622 84.9509 65.6234 85.4444C66.0879 86.3153 66.5524 87.2153 67.075 88.0572C67.4524 88.6958 68.1201 89.2184 68.9039 88.9281C69.5716 88.6668 70.0361 87.912 69.978 87.1862C70.007 86.2282 69.3974 85.5025 68.8749 84.8058Z" fill="black"/>
<path d="M50.9343 95.8375C50.8472 95.1118 50.8181 94.357 50.8471 93.6312C50.5568 93.6022 50.2665 93.5441 49.9762 93.4861C49.9472 94.1828 49.9762 94.8795 50.0343 95.5763" fill="black"/>
<path d="M51.8633 102.659C56.5081 109.046 60.5724 109.569 62.111 110.033C62.6626 110.178 62.8948 109.336 62.3433 109.191C57.8436 107.885 54.1277 104.604 52.2407 100.395" fill="black"/>
<path d="M84.9578 85.0381C85.0159 84.6027 85.1901 84.1672 85.4513 83.8189C86.2061 82.8318 87.5125 82.4254 88.6447 82.077C89.2833 81.8738 89.922 81.6996 90.5607 81.5545L87.7738 70.552L83.1289 71.7132L80.5742 82.1351C80.5742 82.1351 83.0999 82.6867 84.9578 85.0381Z" fill="#9ED5F0"/>
<path d="M87.3094 91.6862C87.89 91.0185 88.5287 90.3798 89.1964 89.7992C90.0963 89.0444 91.0543 88.3477 92.0994 87.7671L91.6058 85.8511C90.6769 86.1123 89.777 86.5768 88.877 86.8671C88.0351 87.1574 86.9901 87.3897 86.1191 87.0704C86.6707 88.4638 86.961 90.2637 86.7288 92.5281C86.903 92.2668 87.1062 91.9475 87.3094 91.6862Z" fill="#9ED5F0"/>
<path d="M92.5349 100.685C92.0414 100.627 91.4608 100.482 91.1705 100.047C90.9382 99.6984 91.0253 99.2629 91.1995 98.9145C91.693 98.0146 92.7091 97.3469 93.58 96.7953C92.9123 97.0856 92.2446 97.3759 91.6059 97.7243C90.764 98.1597 89.8641 98.6533 88.8771 98.4501C87.9771 98.2759 87.3965 97.492 87.4836 96.5921C87.5417 95.9825 87.8901 95.4599 88.2965 94.9664C87.7159 94.8793 87.2224 94.618 86.845 94.0374C86.7288 93.8633 86.6708 93.6891 86.6418 93.5149C86.5837 93.9503 86.4966 94.4148 86.3804 94.8793C83.8258 105.766 74.5651 107.856 74.5651 107.856L72.9395 119.439L98.6603 113.633L95.3799 100.627C94.4219 100.802 93.4929 100.831 92.5349 100.685Z" fill="#9ED5F0"/>
<path d="M72.1263 105.795C71.9812 105.592 72.0973 105.33 72.2715 105.185C72.4747 105.04 72.7359 105.156 72.8811 105.33C73.4326 106.172 74.0133 106.985 74.5648 107.827C74.71 108.03 74.5939 108.291 74.4197 108.437C74.2165 108.582 73.9552 108.466 73.8101 108.291C73.2585 107.45 72.7069 106.637 72.1263 105.795ZM86.4963 106.462C87.1931 107.42 88.7897 109.307 87.4833 110.411C86.9027 110.904 86.0609 110.672 85.5674 110.149C85.0158 109.569 84.6674 108.785 84.1739 108.146C83.7094 107.537 83.1579 106.869 82.5192 106.433C82.287 106.259 81.8224 106.027 81.5321 106.317C81.2999 106.579 81.5612 107.014 81.7063 107.246C82.1418 108.001 82.6643 108.727 83.1579 109.482C83.6804 110.265 84.2029 111.078 84.7255 111.862C85.0448 112.327 84.29 112.762 83.9707 112.298C83.3901 111.427 82.8385 110.556 82.2579 109.685C81.9676 109.249 81.6773 108.814 81.387 108.379C81.1257 108.001 80.8645 107.624 80.6903 107.188C80.458 106.521 80.6031 105.766 81.2999 105.475C81.9966 105.156 82.6934 105.475 83.245 105.911C83.8836 106.433 84.4351 107.072 84.9287 107.711C85.1899 108.059 85.4222 108.379 85.6544 108.756C85.8576 109.075 86.0318 109.482 86.3221 109.714C86.5834 109.917 86.9318 109.946 87.0479 109.598C87.164 109.278 87.0189 108.959 86.8447 108.669C86.4673 107.972 85.9738 107.304 85.4803 106.637C84.5223 105.33 83.4481 104.14 82.2579 103.037C80.3999 105.33 78.0195 107.188 75.3197 108.379C74.7391 112.152 74.1584 115.926 73.5778 119.7C73.4907 120.223 72.7649 120.049 72.7359 119.555C72.6779 119.526 72.6198 119.468 72.5908 119.41C71.894 118.336 71.1102 117.349 70.2103 116.42C70.0651 116.275 70.0651 116.101 70.1232 115.984C70.7328 112.356 71.3715 108.727 71.9812 105.069C72.0392 104.808 72.2424 104.721 72.4166 104.779C74.9713 104.343 77.3808 103.356 79.5 101.847C82.0256 100.047 84.1159 97.4631 85.2771 94.531C85.3351 94.2698 85.3641 94.0085 85.3932 93.7472C85.4222 93.6311 85.5093 93.515 85.6254 93.4569C85.8286 92.8473 85.9738 92.2376 86.0609 91.599C86.3802 89.6249 86.1189 87.5637 85.0738 85.8509C84.0577 84.2252 82.3159 83.1221 80.429 82.8318C80.3128 82.8608 80.1677 82.8608 80.0516 82.8028C79.9355 82.8028 79.8193 82.7737 79.7323 82.7737C79.3258 82.7737 79.2097 82.3092 79.3839 82.077C78.8033 81.4674 78.2227 80.8577 77.613 80.2481C77.3227 80.2771 77.0324 80.0739 77.1195 79.7256C78.2807 76.0387 79.0355 72.2357 79.3839 68.3747C79.2678 68.1134 79.413 67.765 79.7613 67.765C79.8194 67.736 79.9065 67.736 79.9645 67.765C81.0967 67.736 82.1998 67.5328 83.2739 67.1554C83.361 67.0683 83.5062 67.0103 83.6223 67.0393C83.7965 67.0103 83.9997 67.1554 84.0577 67.3006C85.1899 68.2586 86.3512 69.2166 87.4833 70.1455C87.4833 70.1455 87.4834 70.1746 87.5124 70.1746C87.5705 70.1746 87.6285 70.1746 87.6865 70.1746C87.9188 70.2036 88.122 70.3487 88.122 70.61C88.122 70.8132 87.9188 71.0745 87.6865 71.0455C86.3511 70.9003 85.0158 71.1326 83.8256 71.7712C83.6224 71.8874 83.4481 71.8293 83.332 71.6841C83.303 71.7132 83.274 71.7422 83.2159 71.7712C82.5192 75.2258 81.7063 78.6514 80.7774 82.048C82.9837 82.4544 84.9287 83.8479 86.0028 85.8509C87.4834 88.6088 87.164 91.8312 86.0318 94.6762C85.8286 95.8664 85.4803 97.0276 85.0158 98.1598C84.4061 99.6404 83.6224 101.034 82.6643 102.311C84.1739 103.559 85.3932 104.953 86.4963 106.462ZM86.3221 70.1746C85.4222 69.4198 84.5513 68.694 83.6514 67.9392C82.6643 68.2876 81.6483 68.4908 80.6322 68.5489C81.5612 69.3908 82.5192 70.2036 83.4482 71.0455C83.4772 71.0164 83.5062 71.0165 83.5353 70.9874C84.3771 70.5229 85.3351 70.2617 86.3221 70.1746ZM78.2807 79.5804C78.8904 80.2191 79.529 80.8577 80.1387 81.4964C81.0386 78.1579 81.8225 74.8194 82.5192 71.4229C82.5192 71.3939 82.5192 71.3938 82.5482 71.3648C81.7934 70.6971 81.0386 70.0294 80.2838 69.3617C79.9064 72.7873 79.2097 76.1839 78.2227 79.4933C78.2227 79.5223 78.2517 79.5514 78.2807 79.5804ZM84.0288 98.5082C81.358 102.195 77.2647 104.75 72.794 105.534C72.2134 108.988 71.6038 112.472 71.0232 115.926C71.7199 116.652 72.3586 117.436 72.9392 118.278C73.4327 115.085 73.9262 111.891 74.4197 108.698C73.8971 108.901 73.6649 108.059 74.1874 107.856C74.3326 107.798 74.4778 107.74 74.5939 107.682C74.681 107.508 74.8551 107.479 75.0003 107.508C75.9873 107.072 76.9453 106.521 77.8453 105.911C80.5451 104.053 82.6934 101.469 84.0288 98.5082ZM82.2579 112.53C82.1418 112.327 81.8515 112.24 81.6483 112.385C81.4451 112.501 81.358 112.762 81.5031 112.994C81.9967 113.778 82.4902 114.591 83.0127 115.375C83.1288 115.578 83.4191 115.665 83.6223 115.52C83.8255 115.404 83.9126 115.143 83.7674 114.91C83.2739 114.127 82.7804 113.314 82.2579 112.53ZM88.9929 78.274C88.3833 77.287 87.6866 76.3871 86.9027 75.5452C86.4963 75.1097 86.0609 74.7033 85.6254 74.2969C85.219 73.9485 84.7835 73.5131 84.29 73.3679C83.7965 73.2518 83.2739 73.484 83.1288 74.0066C82.9836 74.5001 83.1868 75.0807 83.332 75.5742C83.6513 76.7354 84.0578 77.8676 84.5803 78.9708C85.1609 80.19 85.8286 81.3803 86.6124 82.4834C86.9318 82.9479 87.6866 82.5125 87.3673 82.048C85.8577 79.9578 84.7545 77.6063 84.1159 75.1097C84.0578 74.9355 83.8836 74.5001 83.9707 74.2969C84.0868 74.0937 84.4352 74.413 84.5513 74.5291C85.0448 74.9065 85.4803 75.342 85.9157 75.7774C86.8157 76.6774 87.5705 77.6644 88.2382 78.7385C88.5285 79.203 89.2832 78.7676 88.9929 78.274Z" fill="black"/>
<path d="M100.982 98.1019C101.505 97.9277 101.737 98.7696 101.215 98.9438C98.4568 99.8727 95.4957 101.121 92.5346 100.686C92.0411 100.628 91.4604 100.482 91.1701 100.047C90.9379 99.6985 91.025 99.2631 91.1992 98.9147C91.7217 97.9277 92.8539 97.231 93.7829 96.6504C95.0021 95.8665 96.3085 95.1698 97.6439 94.5602C98.5729 94.1537 99.618 93.6022 100.663 93.5441C101.215 93.5151 101.215 94.386 100.663 94.415C100.634 94.415 100.518 94.444 100.576 94.415C100.634 94.415 100.489 94.415 100.489 94.4441C100.402 94.4731 100.286 94.4731 100.199 94.5021C99.9664 94.5602 99.7051 94.6473 99.4728 94.7344C98.8632 94.9376 98.2826 95.1988 97.731 95.4891C96.4827 96.0697 95.2925 96.7374 94.1313 97.4632C93.6668 97.7825 93.2023 98.1019 92.7668 98.4793C92.4184 98.7696 92.1572 99.0308 91.954 99.3792C91.896 99.4663 91.9249 99.4373 91.9249 99.4082C91.9249 99.4373 91.8959 99.4663 91.8959 99.4953C91.8378 99.6405 91.8959 99.5244 91.8959 99.4953C91.8959 99.5244 91.8959 99.5534 91.8959 99.5824C91.8959 99.5534 91.8959 99.5824 91.8959 99.5824C91.8378 99.5244 91.983 99.6405 91.8959 99.6115C91.9249 99.6405 91.954 99.6695 92.0121 99.6695C92.0701 99.6985 92.041 99.6985 92.041 99.6985C92.1281 99.7276 92.2152 99.7566 92.3314 99.7856C92.8249 99.9017 93.3184 99.9308 93.8119 99.9018C96.3085 99.8727 98.689 98.8857 100.982 98.1019ZM75.0002 36.2672C75.2905 36.9349 75.6099 37.6026 75.9002 38.2703C75.9873 38.4735 76.3066 38.5316 76.5098 38.4155C76.713 38.2703 76.7711 38.0381 76.655 37.8058C76.3647 37.1381 76.0454 36.4705 75.7551 35.8028C75.668 35.5995 75.3486 35.5415 75.1454 35.6576C74.9422 35.8028 74.9132 36.035 75.0002 36.2672ZM77.1485 35.6866C77.0324 35.4834 77.1195 35.2222 77.2937 35.077C77.4969 34.9609 77.7872 35.048 77.9033 35.2222C78.3678 36.006 78.6871 36.9059 78.8322 37.8058C78.8613 38.0381 78.7742 38.2703 78.5419 38.3284C78.3387 38.3865 78.0485 38.2413 78.0194 38.0381C77.9614 37.6026 77.8452 37.1962 77.7001 36.7898C77.671 36.6737 77.613 36.5866 77.584 36.4705C77.613 36.5285 77.5549 36.4124 77.5549 36.4124C77.5259 36.3543 77.4969 36.2963 77.4678 36.2382C77.3807 36.064 77.2647 35.8608 77.1485 35.6866ZM72.9972 34.5545C72.8811 34.7577 72.6198 34.8157 72.3875 34.6996C72.1843 34.5835 72.1262 34.2932 72.2424 34.09C72.5907 33.4803 73.0842 32.9868 73.6939 32.6094C73.8971 32.4933 74.1584 32.5804 74.3035 32.7546C74.4197 32.9578 74.3326 33.2191 74.1584 33.3642C74.0423 33.4223 73.9552 33.5093 73.839 33.5964C73.8681 33.5674 73.8971 33.5384 73.9261 33.5384C73.6649 33.7416 73.4326 33.9738 73.2294 34.2351C73.2585 34.2061 73.2875 34.1771 73.2875 34.148C73.1714 34.2932 73.0843 34.4383 72.9972 34.5545ZM76.8001 31.9417C76.8582 32.174 76.7421 32.4062 76.5098 32.4643C76.3066 32.5223 76.0163 32.3772 75.9873 32.174C75.9002 31.7966 76.1905 31.5353 76.5389 31.5353C76.713 31.5353 76.9163 31.5643 77.1195 31.5934C77.5259 31.6514 77.9614 31.7095 78.3678 31.7966C78.6 31.8546 78.7162 32.1159 78.6581 32.3191C78.6 32.5514 78.3387 32.6675 78.1355 32.6094C77.8452 32.5514 77.5549 32.4933 77.2356 32.4352C77.2065 32.4352 77.2066 32.4352 77.2646 32.4352C77.2356 32.4352 77.2066 32.4352 77.2066 32.4352C77.1775 32.4352 77.1485 32.4352 77.0904 32.4352C77.0324 32.4352 76.9453 32.4062 76.8872 32.4062C76.8001 32.4062 76.7421 32.4062 76.655 32.3772C76.6259 32.3772 76.597 32.3772 76.5679 32.3772C76.5389 32.3772 76.5679 32.3772 76.626 32.3772C76.7421 32.3482 76.8002 32.261 76.8582 32.1449C76.8002 32.0578 76.8001 31.9998 76.8001 31.9417C76.8001 31.9127 76.8001 31.9127 76.8001 31.9417ZM134.571 129.077C132.974 129.135 131.435 128.526 130.216 127.481C128.997 126.406 128.3 124.926 128.126 123.329C127.806 120.397 129.055 117.523 128.706 114.62C128.532 113.256 127.923 112.094 126.907 111.166C125.949 110.266 124.758 109.656 123.626 109.017C122.436 108.379 121.246 107.74 120.171 106.898C118.923 105.911 117.965 104.605 117.065 103.269C115.469 100.918 113.756 98.1019 110.853 97.3471C110.446 98.189 109.953 99.0018 109.372 99.7566C107.137 102.689 103.827 104.692 100.199 105.301C100.257 107.45 100.373 109.627 100.547 111.775C100.866 115.81 101.447 119.817 102.202 123.794C102.782 126.813 103.334 130.529 106.005 132.503C106.44 132.822 106.005 133.577 105.569 133.258C104.089 132.184 103.189 130.587 102.579 128.903C101.969 127.219 101.65 125.448 101.331 123.707C100.924 121.645 100.605 119.584 100.315 117.523C99.7631 113.517 99.4438 109.482 99.3568 105.447C99.2116 105.418 99.1535 105.301 99.1245 105.156C98.7471 104.721 98.4277 104.285 98.1665 103.763C97.5278 102.514 97.2665 101.121 97.4407 99.7566C97.731 99.6695 98.0504 99.5824 98.3407 99.4953C98.0214 101.266 98.5438 103.153 99.7341 104.547C99.7341 104.547 99.7341 104.547 99.7631 104.547C100.721 104.401 101.679 104.169 102.579 103.85C105.86 102.631 108.617 100.134 110.127 96.9697C110.127 96.9116 110.127 96.8826 110.127 96.8245C109.924 96.4762 109.691 96.1278 109.459 95.7794C108.269 94.0086 106.992 92.2958 105.772 90.554C105.221 89.7702 104.669 88.9863 104.147 88.1735C103.653 87.3897 103.218 86.5478 102.666 85.793C101.418 84.0512 99.618 82.4255 97.5568 81.7868C96.5698 81.4675 95.4377 81.6126 94.4216 81.7288C93.2894 81.8739 92.1863 82.1061 91.0831 82.3674C89.8348 82.6577 88.5284 82.9771 87.3381 83.5286C86.8446 83.7609 86.3511 84.0802 86.0608 84.5447C85.8286 84.9511 85.7124 85.5608 86.0318 85.9672C86.6995 86.8962 88.3252 86.2575 89.138 85.9382C90.2702 85.5027 91.3444 84.9801 92.5346 84.835C93.5217 84.7189 94.6248 84.864 95.4377 85.4737C95.6699 85.6479 95.8731 85.8511 96.0183 86.0833C96.9472 85.793 97.8762 85.5608 98.8342 85.4156C99.3858 85.3285 99.618 86.1704 99.0664 86.2575C97.2956 86.5188 95.5537 87.0704 93.928 87.8251C92.5055 88.5219 91.1411 89.3637 89.9509 90.4088C89.3412 90.9314 88.7607 91.483 88.2381 92.0636C87.7446 92.5861 87.1639 93.3699 87.9768 93.9215C88.3542 94.1828 88.7897 94.1828 89.2251 94.0957C91.9249 91.483 95.4086 89.6541 99.1245 88.9864C99.6761 88.8702 99.9083 89.7121 99.3568 89.8282C97.4408 90.1766 95.6118 90.8153 93.899 91.7442C92.3895 92.5571 90.996 93.5731 89.7477 94.7924C89.1961 95.315 88.2961 96.0697 88.4122 96.9407C88.5574 97.8987 89.8058 97.6664 90.4154 97.3761C91.2573 96.9987 92.0701 96.5633 92.912 96.1859C93.7829 95.8085 94.6247 95.4601 95.5247 95.1408C97.3246 94.4731 99.1535 93.9505 101.04 93.5441C101.592 93.428 101.824 94.2699 101.273 94.386C98.9793 94.8795 96.715 95.5762 94.5377 96.4471C93.5797 96.8245 92.6217 97.26 91.6927 97.7245C90.8508 98.1599 89.9509 98.6535 88.9639 98.4502C88.0639 98.2761 87.4833 97.4922 87.5704 96.5923C87.6285 95.9827 87.9768 95.4601 88.3833 94.9666C87.8027 94.8795 87.3091 94.6182 86.9317 94.0376C86.4092 93.2248 86.8446 92.3539 87.4252 91.6862C88.0059 91.0185 88.6445 90.3798 89.3122 89.7992C91.054 88.3186 93.0572 87.1284 95.2054 86.3446C94.5667 85.6769 93.4926 85.5608 92.5927 85.6769C91.3444 85.822 90.1831 86.4897 88.9929 86.8962C87.9478 87.2445 86.6124 87.5348 85.6544 86.78C84.7544 86.0543 84.8706 84.6898 85.5383 83.8189C86.2931 82.8319 87.5994 82.4255 88.7316 82.0771C90.0089 81.6707 91.3153 81.3804 92.6217 81.1191C93.7538 80.9159 94.886 80.7127 96.0472 80.6837C97.1504 80.6546 98.1375 80.9159 99.1245 81.4094C101.215 82.4545 102.898 84.2254 104.118 86.2285C105.134 87.9413 106.237 89.5379 107.398 91.1346C108.617 92.8474 109.895 94.5311 110.969 96.331C111.027 96.3601 111.085 96.4181 111.143 96.5052C114.482 97.318 116.369 100.569 118.197 103.211C119.068 104.489 120.055 105.679 121.304 106.579C122.407 107.363 123.626 107.943 124.816 108.611C125.949 109.25 127.11 109.917 128.01 110.875C128.968 111.891 129.519 113.14 129.693 114.504C130.071 117.407 128.881 120.223 129.113 123.097C129.229 124.519 129.81 125.826 130.884 126.784C131.929 127.713 133.293 128.235 134.687 128.177C135.122 128.206 135.122 129.077 134.571 129.077ZM99.5309 72.9035C100.837 74.0357 102.086 75.226 103.305 76.4452C103.711 76.8517 104.321 76.213 103.914 75.8356C99.6761 71.6262 95.0602 67.8523 89.6896 65.2105C88.2091 64.4847 86.6705 63.8461 85.1319 63.2655C84.8416 59.1141 84.6964 54.9628 84.5222 50.8405C84.5222 50.5211 84.4931 50.2018 84.4931 49.8825C87.222 49.1857 89.9799 48.46 92.7088 47.7633C92.97 47.7052 93.2603 47.6181 93.5216 47.56C93.87 47.473 93.899 47.0665 93.7248 46.8343C91.5766 44.1635 89.4864 41.4927 87.3672 38.7929C86.235 37.3704 85.1318 35.9479 83.9996 34.5254C82.9546 33.2191 81.9675 31.7966 80.7483 30.6354C79.9644 29.8806 79.1226 29.2419 78.1646 28.7193C78.8033 28.5742 79.5 28.3419 80.1967 27.9355C82.0547 26.8324 83.9706 22.2456 81.6192 19.0522C77.4678 24.8873 73.7229 20.6199 67.7427 23.4649C63.1268 25.6421 63.301 34.2351 65.3041 38.4445C63.9107 38.3574 62.4882 38.8219 61.5011 39.8089C59.8464 41.4637 59.6432 44.3087 61.0657 46.1666C61.8205 47.1827 63.0107 47.7923 64.259 47.9955C62.343 52.5533 60.2528 57.053 58.0755 61.4946C58.0755 61.4946 58.0756 61.4946 58.0465 61.4946C52.0082 64.1654 45.9118 66.7201 40.2219 70.0876C34.9674 73.1938 30.0322 76.9678 25.997 81.5836C23.7907 84.1093 21.8747 86.8671 20.3651 89.8573C20.1039 90.3508 20.8587 90.7862 21.12 90.2927C23.7908 84.9802 27.7679 80.4805 32.2966 76.6775C37.1737 72.6132 42.6895 69.478 48.4085 66.7491C51.6309 65.2105 54.9113 63.817 58.1917 62.3655C58.1917 62.3655 58.1917 62.3655 58.2207 62.3655C58.1626 62.5397 58.2207 62.7139 58.424 62.801C64.8397 65.5589 71.9811 66.4878 78.8904 65.4718C80.8354 65.1815 82.7514 64.746 84.6093 64.1654C84.6674 64.1364 84.7254 64.1073 84.7545 64.0783C87.4833 65.0944 90.1541 66.3136 92.6507 67.8232C95.0893 69.2747 97.3826 71.0166 99.5309 72.9035ZM64.3171 63.8751C62.4591 63.4106 60.6303 62.801 58.8594 62.0462C58.8304 62.0462 58.8013 62.0172 58.7723 62.0172C61.0367 57.4013 63.1849 52.7565 65.159 48.0245C65.9138 47.9955 66.6395 47.8213 67.3072 47.4439C67.5104 47.3278 67.5975 47.0665 67.4814 46.8633C67.3653 46.6601 67.104 46.573 66.9008 46.6891C65.2751 47.6181 62.9237 47.1246 61.7624 45.644C60.6303 44.1345 60.7754 41.754 62.1108 40.4186C63.4462 39.0832 65.8267 38.938 67.3363 40.0702C67.5395 40.2154 67.8007 40.1863 67.9459 39.9831C68.091 39.7799 68.062 39.5186 67.8588 39.3735C67.7427 39.2864 67.6265 39.2283 67.5395 39.1412L68.2652 39.1703C71.2844 37.3123 70.7908 34.3512 71.5746 32.1449C72.7068 28.9806 74.3906 29.0387 76.4228 28.8935C79.4419 29.8225 81.3288 32.4933 83.1868 34.8448C85.3641 37.5736 87.4833 40.3315 89.6606 43.0894C90.6476 44.3377 91.6346 45.586 92.6217 46.8343C90.5315 47.3859 88.4123 47.9374 86.3221 48.489C85.5092 48.6922 84.6964 48.8954 83.8836 49.0987C83.7094 49.1567 83.5642 49.3309 83.5642 49.5051C83.7093 53.0468 83.8545 56.5885 84.0287 60.1302C84.0868 61.1753 84.1448 62.2494 84.2029 63.2945C77.8162 65.3266 70.8489 65.5298 64.3171 63.8751ZM68.091 43.2345C68.2362 43.4087 68.2652 43.67 68.091 43.8442C67.9459 43.9893 67.6266 44.0183 67.4814 43.8442C66.5815 42.712 65.188 42.0443 63.7365 42.0733C63.1849 42.0733 63.1849 41.2024 63.7365 41.2024C65.3912 41.1734 67.0169 41.9282 68.091 43.2345ZM72.7649 55.4563C72.4746 55.8918 72.0102 56.1821 71.4876 56.2691C70.5006 56.4143 69.5135 55.9498 68.9619 55.1079C68.3232 54.1499 68.2652 52.9016 68.2362 51.7694C68.2362 51.2179 69.1071 51.2179 69.1071 51.7694C69.1361 52.8726 69.1361 54.208 69.978 54.9918C70.2393 55.2531 70.7328 55.3982 71.0811 55.4273C71.1392 55.4273 71.1682 55.4273 71.2263 55.4273C71.2553 55.4273 71.2844 55.4273 71.3134 55.4273C71.3715 55.4273 71.4296 55.3982 71.4876 55.3982L71.6037 55.3692C71.8069 55.2821 71.894 55.195 71.9811 55.0499C72.0972 54.8467 72.3585 54.7596 72.5907 54.9047C72.7939 54.9918 72.881 55.2531 72.7649 55.4563ZM60.1367 76.184C59.2368 75.4872 58.0175 75.1679 56.9434 74.8486C55.8112 74.5002 54.65 74.268 53.4888 74.0647C52.4727 73.8615 51.4276 73.6873 50.3825 73.6583C49.3955 73.6293 48.4956 73.7745 47.5956 74.1809C46.6667 74.5873 45.8248 75.1389 45.0409 75.8066C44.2281 76.5033 43.5023 77.3162 42.8637 78.1871C42.254 79.0289 41.7895 79.9579 41.2379 80.8288C39.9896 82.7738 38.6252 84.6608 37.3479 86.5768C37.0866 86.9832 36.8253 87.3897 36.5931 87.7961C35.8383 87.5639 34.9674 87.5639 34.2126 87.6509C32.4998 87.8542 30.8451 88.6089 29.6258 89.8282C28.1743 91.2507 27.6227 93.1957 27.1873 95.1408C26.7809 96.9987 26.2293 98.7405 25.3003 100.395C24.4294 101.934 23.3843 103.356 22.2812 104.75C20.0749 107.537 17.6073 110.178 16.0106 113.401C15.6332 114.185 15.2849 114.998 15.0236 115.81C14.8494 116.333 15.6913 116.565 15.8654 116.043C17.9847 109.308 24.4875 105.156 27.0712 98.6535C27.7969 96.8245 28.0001 94.8505 28.6388 92.9925C29.2484 91.3088 30.3806 89.9734 31.9773 89.1605C32.7321 88.7831 33.5449 88.5509 34.3868 88.4638C34.9094 88.4057 35.577 88.4057 36.0996 88.5219C35.4899 89.654 35.2287 90.9314 35.7222 92.1797C36.2157 93.399 37.2028 94.3279 38.3059 94.9666C39.4381 95.6343 40.6864 96.0407 41.9928 96.273C43.3862 96.5342 44.8087 96.6794 46.2312 96.4762C47.3344 96.331 48.5246 95.9536 49.0761 94.9956C49.2503 95.0827 49.3955 95.1988 49.5406 95.315C50.9051 96.4762 51.8631 98.189 51.8631 100.018C51.834 101.789 50.9631 103.56 49.8019 104.866C48.8149 105.998 47.5085 106.753 46.2312 107.508C44.3733 108.582 41.3831 110.004 41.7896 112.617C42.0799 114.359 43.7636 115.375 44.2861 117.03C44.9248 119.033 43.4442 120.949 42.1088 122.284C41.325 122.11 40.3961 122.226 39.7864 122.836C39.2058 123.416 39.0607 124.403 39.7574 124.955C39.9606 125.129 40.1638 125.129 40.367 124.955C41.0057 124.432 41.7024 123.881 42.3411 123.3C42.3701 123.329 42.4282 123.329 42.4573 123.358C43.9959 124.229 42.9508 126.116 42.3121 127.219C42.0218 127.713 42.7766 128.148 43.0669 127.655C43.6184 126.726 44.2281 125.71 44.141 124.578C44.0829 123.765 43.6475 123.097 43.0088 122.662C43.7055 121.965 44.3152 121.181 44.7506 120.31C45.1861 119.41 45.4473 118.394 45.3022 117.378C45.157 116.333 44.5474 115.52 43.9378 114.707C43.212 113.749 42.2831 112.53 42.8637 111.311C43.3862 110.237 44.5764 109.569 45.5344 108.959C46.7537 108.233 48.0021 107.595 49.1342 106.724C50.6148 105.592 51.7469 104.053 52.3566 102.311C52.9662 100.569 52.8792 98.7115 52.0373 97.0568C51.6018 96.1859 50.9631 95.4311 50.2373 94.7924C50.0341 94.6182 49.831 94.415 49.5697 94.2989C49.4536 94.2408 49.3665 94.1828 49.2503 94.1537C49.2794 93.8634 49.2504 93.5731 49.1923 93.3119C50.3535 93.6022 51.5147 93.8054 52.7049 93.7473C53.5468 93.7183 55.5209 93.5441 55.0855 92.1797C54.9403 91.7442 54.6209 91.3668 54.3016 91.0765C53.8371 90.6411 53.3436 90.2637 52.8211 89.9153C52.734 89.8572 52.6179 89.7992 52.5308 89.7121C53.0243 89.9153 53.5178 90.1476 54.0113 90.3798C54.8822 90.7862 55.7822 91.4249 56.7982 91.4539C57.6401 91.483 58.482 90.9894 58.6561 90.1185C58.8303 89.2766 58.3949 88.5219 57.8433 87.9122C58.2498 87.8542 58.6562 87.709 58.9755 87.3897C60.5431 85.9672 58.3949 84.1092 57.3498 83.1512C56.0724 81.99 54.621 80.974 53.0533 80.1901C52.3856 79.8708 51.7179 79.5805 51.0502 79.3192C51.3986 78.9418 51.8921 78.7386 52.4727 78.6515C53.5178 78.5064 54.5339 78.8257 55.4919 79.2031C56.566 79.6095 57.6401 80.1611 58.8304 80.2192C59.8174 80.2772 60.8625 79.8708 61.1528 78.8257C61.4721 77.8097 60.9205 76.7936 60.1367 76.184ZM40.2219 123.997C40.1928 123.736 40.3961 123.445 40.6573 123.3C40.8315 123.184 41.0638 123.126 41.267 123.097C40.9186 123.416 40.5702 123.707 40.2219 123.997ZM58.1626 79.2031C57.0595 78.9128 56.0144 78.3903 54.9403 78.0419C53.3727 77.5484 51.2244 77.5774 50.1793 78.9999C49.2794 78.7096 48.3214 78.4774 47.3924 78.3322C46.8408 78.2451 46.6086 79.087 47.1602 79.1741C50.3245 79.6676 53.3436 80.974 55.8402 82.948C56.4499 83.4415 57.0595 83.9641 57.6111 84.5447C58.0465 84.9801 59.0045 85.793 58.5981 86.4897C58.2788 87.0703 57.6111 87.0994 57.0014 87.0123C55.8402 85.8801 54.5048 84.8931 53.0823 84.0802C51.2244 83.0351 49.1923 82.2803 47.1021 81.9029C46.5505 81.7868 46.3183 82.6287 46.8699 82.7448C50.2664 83.3835 53.4597 84.9511 55.9854 87.2736C56.3047 87.5639 56.595 87.8542 56.8853 88.1445C57.2047 88.4928 57.582 88.8412 57.7272 89.3057C58.0465 90.1766 57.2917 90.6991 56.4789 90.554C56.0144 90.4669 55.608 90.2346 55.2016 90.0314C54.7951 89.8282 54.3597 89.625 53.9532 89.4218C53.0823 89.0154 52.2115 88.638 51.3115 88.3186C49.9181 87.7671 48.4665 87.3026 47.015 86.9252C46.986 86.9252 46.9569 86.8962 46.8989 86.8962C46.4344 86.722 45.9699 86.5768 45.4764 86.5188C45.4474 86.5188 45.3893 86.5188 45.3603 86.5188C45.3022 86.5188 45.2442 86.4897 45.1861 86.4607C44.6345 86.3446 44.4023 87.1865 44.9538 87.3026C45.5635 87.4187 46.1441 87.5639 46.7537 87.738C47.1601 87.8832 47.5956 88.0574 48.002 88.2606C49.2213 88.8122 50.4406 89.4508 51.5728 90.1766C52.0953 90.4959 52.5888 90.8443 53.0823 91.2217C53.2855 91.3668 53.4888 91.541 53.6629 91.7152C53.7791 91.8313 54.0113 92.0636 54.0403 92.1216C54.0984 92.1797 54.1274 92.2668 54.1855 92.3248C54.1855 92.3248 54.2146 92.3539 54.2146 92.3829C54.2146 92.4119 54.2435 92.441 54.2435 92.47C54.2435 92.47 54.2435 92.47 54.2435 92.499C54.2435 92.499 54.2435 92.5281 54.2435 92.5571L54.2146 92.5861C54.1855 92.6151 54.0984 92.6442 54.0984 92.6442C53.8081 92.7603 53.4888 92.7893 53.1694 92.8183C50.4116 93.0796 47.7117 91.9184 45.1861 91.0475C44.6635 90.8733 44.4313 91.7152 44.9538 91.8894C46.028 92.2668 47.1311 92.6442 48.2343 92.9925C48.2633 93.0506 48.2633 93.1087 48.2923 93.1667C48.4084 93.6022 48.4665 94.0667 48.2923 94.5021C48.2633 94.5892 48.2633 94.6473 48.2633 94.7053C47.8279 95.2859 46.9279 95.5182 46.2602 95.6053C45.0409 95.7794 43.7926 95.6924 42.5734 95.4891C40.4251 95.1408 37.9285 94.2989 36.7673 92.2958C36.0125 90.9894 36.3608 89.596 37.1737 88.4348C38.3639 86.4897 39.6994 84.6318 40.9767 82.7448C41.5283 81.932 42.0798 81.0901 42.5734 80.2192C43.0959 79.3192 43.6475 78.4483 44.3152 77.6645C44.9829 76.9097 45.7086 76.242 46.5505 75.6904C47.3343 75.1969 48.2053 74.6744 49.1342 74.5292C50.0922 74.3841 51.1083 74.5002 52.0373 74.6454C53.0533 74.7905 54.0403 74.9937 55.0564 75.226C56.2176 75.4872 57.3788 75.8066 58.482 76.242C59.3529 76.5904 60.3689 77.2 60.3399 78.2741C60.3689 79.4644 58.9755 79.4354 58.1626 79.2031Z" fill="black"/>
<path d="M32.819 47.2406C32.3836 46.9213 32.819 46.1665 33.2545 46.4858C36.3317 48.7792 39.409 51.1017 42.5152 53.3951C42.9507 53.7144 42.5152 54.4692 42.0798 54.1499C39.0025 51.8274 35.8963 49.534 32.819 47.2406ZM42.312 47.56C43.9668 49.0986 45.6215 50.6372 47.3052 52.1758C47.7117 52.5532 48.3212 51.9436 47.9148 51.5662C46.2601 50.0275 44.6054 48.4889 42.9216 46.9503C42.5152 46.5729 41.9056 47.1826 42.312 47.56ZM107.775 58.7657C110.562 56.7045 113.378 54.6434 116.165 52.5822C116.601 52.2629 116.165 51.5081 115.73 51.8274C112.943 53.8886 110.127 55.9497 107.34 58.0109C106.876 58.3593 107.311 59.114 107.775 58.7657ZM110.766 61.7848C112.101 61.1752 113.436 60.5946 114.772 59.985C114.975 59.8979 115.033 59.5785 114.917 59.3753C114.801 59.1431 114.54 59.1141 114.307 59.2302C112.972 59.8398 111.636 60.4204 110.301 61.03C110.098 61.1171 110.04 61.4365 110.156 61.6397C110.301 61.8429 110.562 61.8719 110.766 61.7848ZM36.2446 56.3852C36.9123 56.7045 37.5801 57.0529 38.2478 57.3722C38.451 57.4883 38.7412 57.4303 38.8574 57.2271C38.9735 57.0239 38.9154 56.7336 38.7122 56.6174C38.0445 56.2981 37.3769 55.9497 36.7092 55.6304C36.5059 55.5143 36.2156 55.5723 36.0995 55.7756C35.9834 55.9788 36.0124 56.2691 36.2446 56.3852Z" fill="black"/>
</svg>
