<svg width="100" height="136" viewBox="0 0 100 136" fill="none" xmlns="http://www.w3.org/2000/svg">
<path d="M41.4085 73.0564C42.704 68.5969 44.2486 64.86 46.0673 61.7956C47.8859 58.7313 50.2776 55.2185 53.2174 51.2573C55.3599 48.3175 57.054 45.876 58.2748 43.9826C59.4955 42.0892 60.517 39.9716 61.3391 37.6297C62.1363 35.2879 62.5349 32.7966 62.5349 30.1059V30.0312C62.5349 25.3724 61.3391 21.76 58.9474 19.169C56.5557 16.6029 53.2174 15.3075 48.9323 15.3075C44.5974 15.3075 41.2341 16.9019 38.8424 20.0908C36.4507 23.2797 35.23 27.789 35.1802 33.6436V33.7184H18.5381V33.6436C18.7623 26.5682 20.0827 20.5143 22.5491 15.5067C25.0155 10.4992 28.4785 6.66253 32.913 4.04663C37.3725 1.43074 42.6542 0.110352 48.7579 0.110352C55.1357 0.110352 60.6166 1.28126 65.1508 3.64803C69.71 6.01479 73.1729 9.42792 75.5646 13.9123C77.9563 18.3967 79.1521 23.778 79.1521 30.1059V30.1807C79.1521 33.9924 78.6538 37.4055 77.6573 40.4699C76.6608 43.5342 75.4649 46.175 74.0449 48.4421C72.6248 50.6843 70.6816 53.4248 68.2152 56.6386C65.5245 60.0766 63.3571 63.116 61.7128 65.7568C60.0436 68.4226 58.6485 71.6115 57.5274 75.3235C56.4063 79.0605 55.8333 83.3456 55.8333 88.2286H39.4403C39.4902 82.5733 40.113 77.5159 41.4085 73.0564ZM39.0666 101.059H56.2817V118.274H39.0666V101.059Z" fill="#F8285A"/>
<path d="M98.958 114.013C96.7158 107.885 97.9615 105.294 97.0895 98.916C96.1428 92.0648 94.0003 85.0393 91.1601 78.8608C90.1885 76.7432 88.5193 74.202 86.9249 72.3834C80.0737 64.6104 73.7707 57.6347 63.7555 53.1254V53.1752C63.631 52.4777 63.5064 51.7801 63.3569 51.1074C64.2538 50.2355 65.35 49.4632 66.4462 48.7158C68.2898 47.4452 70.1084 46.1746 71.952 44.9289C72.4004 44.63 72.8489 44.3061 73.098 43.9075C73.3471 43.5089 73.372 42.9857 72.9984 42.7117C72.7243 42.5124 72.3008 42.4874 71.9022 42.4376C71.3042 42.3878 70.6814 42.338 70.0835 42.4625C69.4856 42.5622 68.9126 42.8113 68.3894 43.0854C66.2219 44.1317 64.2787 45.3774 62.3853 46.6978C61.7874 44.1566 61.1147 41.4909 60.4171 38.302C60.4171 38.2522 60.4171 38.2273 60.4421 38.1774C61.7126 38.5013 63.1327 38.302 64.179 37.5048C65.8482 36.2591 66.3963 33.718 65.3749 31.8993C64.5528 30.4294 62.7839 29.5574 61.1147 29.7069C61.2891 21.5104 59.5203 16.6524 54.7618 16.8766C52.6193 16.8268 50.4767 17.7735 48.7079 19.0191C43.4014 22.7561 38.1945 26.6426 33.4859 29.9311C33.4859 29.9311 38.9917 33.2197 41.7073 34.8141C41.7073 34.8141 39.3903 43.4092 37.5218 49.2888C37.4471 49.2888 37.3973 49.2638 37.3225 49.2638C36.2264 49.214 35.0056 49.7621 34.7067 50.659C34.4824 51.3566 34.8312 52.1289 35.3544 52.7019C35.5039 52.8763 35.6783 53.0258 35.8527 53.1752C25.3642 60.9233 18.2888 64.9094 12.1601 75.1238C9.91794 78.8359 5.08477 86.0608 3.68962 90.0718C1.99552 94.9797 0.151937 99.7132 2.69309 105.02C1.84604 105.144 0.550531 105.593 0.401051 106.34C0.226658 107.162 0.475803 108.009 0.724936 108.807C0.998982 109.728 1.37268 110.75 2.3443 111.198C1.29794 111.771 0.700023 112.892 0.849503 113.964C0.998982 115.035 1.92077 115.982 3.0917 116.305C1.74638 117.103 2.02043 119.046 3.21626 119.993C4.43701 120.939 6.18095 121.139 7.80031 121.263C9.41968 121.388 11.1387 121.463 12.5089 122.26L12.6833 122.036C12.7082 123.256 13.7546 124.278 14.9006 125C20.4812 128.563 29.8486 127.516 35.5039 130.979L36.0769 131.602C37.8956 133.72 40.4865 135.688 43.526 135.663C45.6436 135.638 47.5868 134.667 49.3307 133.62C52.1958 131.876 54.8366 129.759 56.8546 127.292C62.4102 128.862 67.069 126.52 72.824 127.89C82.0419 130.083 95.1463 127.367 97.0148 124.029C98.8334 120.914 100.154 117.277 98.958 114.013Z" fill="#FFEEF3"/>
<path d="M20.4316 22.9551C20.6807 24.6741 20.7306 26.4429 20.8302 28.1869C20.8551 28.6602 20.1077 28.6602 20.0828 28.1869C19.9832 26.5675 19.9334 24.9232 19.7341 23.3288C19.5846 22.108 19.2607 20.7876 18.4635 19.816C17.7908 19.0188 16.7694 18.4209 15.6981 18.396C14.6517 18.396 13.6552 19.0686 13.5057 20.1399C13.431 20.6382 13.6054 21.1613 14.0289 21.4603C14.4026 21.7343 14.9258 21.8589 15.3493 21.6098C15.7728 21.3855 16.1465 22.0333 15.723 22.2575C14.3777 22.98 12.7334 21.834 12.7334 20.3641C12.7334 18.9939 13.8545 17.8479 15.1998 17.6486C16.4704 17.4742 17.7908 18.0472 18.6877 18.9191C19.7589 19.9904 20.2323 21.5101 20.4316 22.9551ZM24.8413 33.4685C24.8164 33.4685 24.8413 33.4685 24.8413 33.4685C24.8164 33.4685 24.8164 33.4685 24.8413 33.4685C24.8164 33.4436 24.8163 33.4436 24.8163 33.4436C24.8163 33.4685 24.8164 33.4685 24.8413 33.4685ZM24.7416 33.7924C24.7416 33.7674 24.7416 33.7674 24.7416 33.7924V33.7924ZM25.5887 33.5432C25.5638 34.0166 25.2648 34.3654 24.8911 34.6394C24.8164 34.6892 24.7416 34.7391 24.6669 34.7889C24.5672 34.8636 24.4426 34.8886 24.3181 34.8636C24.2682 34.8387 24.2184 34.8138 24.1686 34.7889C23.9942 34.6643 23.8696 34.4899 23.7949 34.2657C23.6952 33.9668 23.7451 33.5681 23.9693 33.319C23.9444 33.2443 23.9444 33.1695 23.9693 33.0948C24.0441 32.8706 24.2184 32.6962 24.4426 32.6214C24.6419 32.5716 24.8413 32.5965 25.0157 32.6713C25.3395 32.8457 25.6136 33.1695 25.5887 33.5432ZM24.4925 34.0913C24.4925 34.0664 24.4925 34.0913 24.4925 34.0913C24.4925 34.0664 24.4925 34.0664 24.4925 34.0913ZM24.5174 33.7924C24.5423 33.7674 24.5672 33.7425 24.5174 33.7924V33.7924ZM24.6669 33.2941C24.6669 33.319 24.6669 33.319 24.6669 33.2941C24.642 33.319 24.642 33.319 24.6669 33.2941C24.6669 33.319 24.6669 33.319 24.6669 33.2941ZM24.7914 33.7176C24.7914 33.6927 24.8163 33.6678 24.8163 33.6678C24.8163 33.6429 24.8413 33.618 24.8413 33.5681C24.8413 33.5432 24.8413 33.5183 24.8413 33.4934L24.8163 33.4685V33.4934C24.7914 33.4685 24.7914 33.4685 24.7665 33.4436C24.7665 33.4436 24.7665 33.4436 24.7416 33.4436C24.7167 33.4436 24.6918 33.4187 24.6918 33.4187H24.6669C24.6669 33.4187 24.6669 33.4187 24.642 33.4187C24.642 33.4685 24.6669 33.4934 24.6669 33.5432C24.6669 33.618 24.617 33.7425 24.5672 33.8173C24.5423 33.8422 24.5174 33.8671 24.4925 33.8671L24.4676 33.892V33.9169C24.4676 33.9418 24.4676 33.9419 24.4676 33.9668C24.4676 33.9917 24.4676 34.0415 24.4676 34.0664C24.4676 34.0664 24.4676 34.0664 24.4676 34.0913C24.4925 34.0664 24.5672 34.0166 24.4676 34.0913C24.4925 34.0664 24.4925 34.0664 24.5174 34.0415C24.5672 34.0166 24.5921 33.9667 24.642 33.9418C24.6669 33.9169 24.6669 33.9169 24.6918 33.892L24.7167 33.8671C24.7167 33.8671 24.7167 33.892 24.6918 33.892C24.7416 33.7924 24.7665 33.7425 24.7914 33.7176ZM97.9119 45.0532C97.4386 44.9286 97.2393 45.6511 97.7126 45.7756C98.9583 46.0995 99.4814 47.5445 99.1327 48.6905C98.734 50.0109 97.4635 50.9576 96.1929 51.3562C94.8226 51.7797 93.303 51.6552 92.0324 50.9576C90.8365 50.3099 89.6905 49.2884 88.2456 49.2386C87.0248 49.1888 85.6297 49.9112 85.5549 51.2566C85.53 51.7299 86.2774 51.7299 86.3023 51.2566C86.3771 50.0607 87.9964 49.8365 88.8933 50.1106C89.6407 50.3348 90.2884 50.8081 90.9362 51.2067C91.6088 51.6054 92.2815 51.9791 93.0538 52.1784C94.4988 52.5521 96.0683 52.3777 97.3887 51.6801C98.6095 51.0573 99.7057 49.9112 99.9548 48.4912C100.204 47.0462 99.4067 45.4269 97.9119 45.0532ZM81.7183 52.9258C81.7183 52.9009 81.7183 52.9258 81.7183 52.9258V52.9258ZM82.3909 52.4524C82.5155 52.7265 82.5404 53.0503 82.366 53.3244C82.2414 53.5237 82.0422 53.6482 81.793 53.6981C81.5688 53.7479 81.3197 53.723 81.1203 53.5984L81.0954 53.5735C80.7716 53.6981 80.3481 53.5984 80.1488 53.2746C80.1238 53.2247 80.074 53.15 80.074 53.1001C80.0491 53.0005 80.074 52.9009 80.1238 52.8012C80.1736 52.6766 80.2235 52.5521 80.3231 52.4524C80.4975 52.2033 80.7218 52.0289 81.0207 51.9043C81.4941 51.6801 82.1418 51.9292 82.3909 52.4524ZM81.3197 52.5521C81.2948 52.5521 81.2698 52.577 81.2449 52.577H81.22H81.1951C81.22 52.577 81.2449 52.6019 81.2948 52.6019C81.4442 52.6268 81.5439 52.7763 81.5688 52.9258H81.5937H81.6186H81.6435H81.6685C81.6685 52.9258 81.6934 52.9258 81.7183 52.9009C81.7183 52.9009 81.7183 52.9008 81.7183 52.8759V52.851C81.7183 52.851 81.7183 52.851 81.7183 52.8261V52.8012V52.8261V52.8012C81.7183 52.8012 81.7183 52.8012 81.7183 52.7763V52.7514C81.6934 52.7264 81.6934 52.7015 81.6685 52.6766C81.6685 52.6766 81.6685 52.6766 81.6435 52.6517C81.6186 52.6268 81.5937 52.6019 81.5688 52.6019C81.5688 52.6019 81.5688 52.6019 81.5439 52.6019C81.519 52.6019 81.494 52.577 81.4691 52.5521C81.494 52.5521 81.519 52.5521 81.4691 52.5521H81.4442H81.4193C81.3944 52.5521 81.2947 52.5272 81.3695 52.5272C81.3944 52.5272 81.4193 52.5521 81.3695 52.5272C81.3446 52.5272 81.3446 52.5272 81.3197 52.5272C81.3446 52.5521 81.3446 52.5521 81.3197 52.5521C81.3197 52.5521 81.2948 52.5521 81.3197 52.5521C81.3197 52.5521 81.2948 52.5521 81.3197 52.5521ZM81.7432 52.8759V52.851C81.7183 52.851 81.7183 52.8759 81.7432 52.8759ZM81.7183 52.8261C81.7183 52.8012 81.7183 52.8261 81.7183 52.8261V52.8012V52.8261ZM81.3446 52.5521H81.3197C81.3446 52.577 81.3446 52.5521 81.3446 52.5521ZM93.0289 16.6769C92.9293 15.7302 92.5805 14.7835 91.9078 14.086C91.3099 13.488 90.5127 13.0894 89.6905 12.94C88.7936 12.7656 87.7971 12.8652 86.9999 13.3635C86.3023 13.787 85.2061 15.1074 86.2027 15.7801C86.6013 16.0541 86.975 15.4064 86.5764 15.1323C86.3771 15.0077 86.9002 14.3849 87.0248 14.2603C87.2739 14.0361 87.5729 13.8617 87.8968 13.7372C88.5943 13.5129 89.3417 13.5379 90.0144 13.7621C90.712 13.9863 91.3348 14.4098 91.7334 15.0327C92.2317 15.8299 92.3812 16.8015 92.2566 17.6984C91.9826 19.7413 90.5874 21.3607 88.8933 22.3821C86.975 23.553 84.8075 23.9765 82.7148 24.7239C81.5937 25.1225 80.4726 25.6955 79.7501 26.6672C79.0775 27.564 78.7038 28.71 79.0526 29.8062C79.202 30.2547 79.9245 30.0554 79.7751 29.6069C79.4263 28.5357 79.9494 27.4395 80.7217 26.6921C81.5937 25.845 82.8145 25.4464 83.9356 25.1226C86.2027 24.425 88.5196 23.7523 90.3881 22.2326C92.0324 20.962 93.2282 18.8444 93.0289 16.6769ZM78.5045 33.7924C78.355 33.7924 78.2055 33.7924 78.056 33.7924C78.0062 33.7924 77.9564 33.7924 77.9066 33.8173C77.8567 33.8422 77.8318 33.8671 77.782 33.892C77.7571 33.9169 77.7322 33.9668 77.7072 34.0166C77.6823 34.0664 77.6823 34.1162 77.6823 34.1661C77.6823 34.2657 77.7073 34.3654 77.782 34.4401C77.8567 34.5148 77.9564 34.5398 78.056 34.5398C78.2055 34.5398 78.355 34.5398 78.5045 34.5398C78.5543 34.5398 78.6041 34.5398 78.654 34.5148C78.7038 34.4899 78.7287 34.465 78.7785 34.4401C78.8034 34.4152 78.8283 34.3654 78.8532 34.3155C78.8782 34.2657 78.8782 34.2159 78.8782 34.1661C78.8782 34.0664 78.8533 33.9668 78.7785 33.892C78.7038 33.8173 78.6041 33.7924 78.5045 33.7924Z" fill="#111318"/>
<path d="M42.1563 69.619C41.7328 69.3948 42.1065 68.7471 42.53 68.9713C45.8186 70.7152 49.7549 71.2135 53.3922 70.491C53.8656 70.3913 54.0649 71.1138 53.5915 71.2135C49.7549 71.9858 45.6442 71.4377 42.1563 69.619ZM99.7558 118.175C99.6562 119.769 99.2077 121.314 98.3856 122.684C97.5884 123.98 96.4922 125.051 95.2465 125.873C92.2569 127.866 88.5449 128.589 85.0321 128.863C82.9394 129.037 80.8217 129.012 78.729 128.888C77.6079 128.813 76.4868 128.713 75.3657 128.564C74.1699 128.414 73.0239 128.19 71.853 127.991C69.2869 127.567 66.7208 127.841 64.1547 128.041C61.8129 128.215 59.496 128.24 57.2039 127.667C56.1327 129.037 54.9119 130.258 53.5417 131.329C52.894 131.827 52.2462 132.301 51.5486 132.749C50.7763 133.248 49.9791 133.671 49.2317 134.169C47.8365 135.116 46.1923 135.714 44.4982 135.863C41.1847 136.137 38.0207 134.493 35.9778 131.927C35.8284 131.728 35.654 131.528 35.5045 131.304C35.4796 131.304 35.4297 131.279 35.3799 131.254C33.5862 130.158 31.5433 129.56 29.5004 129.137C25.6637 128.315 21.6776 128.041 17.9406 126.77C16.1967 126.172 14.2535 125.325 13.0825 123.805C12.7836 123.432 12.5843 123.008 12.4597 122.56C12.4348 122.56 12.4099 122.535 12.385 122.535C11.2888 121.912 10.0182 121.763 8.77255 121.663C6.8044 121.513 4.43762 121.513 2.86808 120.093C1.82173 119.147 1.52278 117.453 2.41966 116.406C1.49787 115.958 0.700622 115.136 0.52623 114.089C0.326923 112.968 0.85012 111.897 1.69717 111.199C1.27365 110.875 0.974675 110.427 0.750455 109.929C0.426582 109.206 0.177468 108.384 0.0529015 107.612C-0.0716649 106.815 0.00305673 105.992 0.501322 105.32C0.899935 104.797 1.44803 104.448 2.09578 104.348C-0.121504 97.771 2.44458 90.7206 5.53382 84.8161C6.48053 83.0224 7.50197 81.2535 8.54832 79.5096C9.54485 77.8653 10.5414 76.221 11.6126 74.6266C13.5808 71.7366 15.7981 68.9962 18.2147 66.5049C23.3468 61.1983 28.9025 57.1125 35.1059 53.1763C34.508 52.5285 34.0595 51.7064 34.3585 50.8095C34.7073 49.7382 35.928 49.1901 36.9744 49.1403C37.0491 49.1403 37.1239 49.1403 37.1737 49.1403C37.2235 48.9908 37.2733 48.8164 37.3232 48.667C38.2699 45.6275 39.1667 42.5632 40.0138 39.4989C40.4373 38.0041 40.8608 36.5093 41.2594 34.9896C40.6366 34.6159 40.0138 34.2671 39.3909 33.8934C37.3481 32.6975 35.3052 31.4768 33.2623 30.256C33.0131 30.1066 33.0381 29.7578 33.2623 29.6083C34.7571 28.5619 36.2519 27.4907 37.7467 26.4194C40.537 24.4263 43.3023 22.3834 46.0926 20.3904C47.4379 19.4188 48.7833 18.3724 50.2532 17.625C51.1251 17.1766 52.0469 16.8527 52.9936 16.6534C52.3957 16.3295 51.7729 15.906 51.1998 15.3081C49.73 13.7634 49.157 8.88043 52.296 6.51367C54.613 13.1904 59.3465 10.1759 64.2544 14.4859C68.0412 17.8492 65.5001 25.9959 62.4108 29.409C63.7312 29.683 64.9769 30.5052 65.6246 31.701C66.7208 33.6941 66.1478 36.4345 64.3042 37.7798C63.507 38.3778 62.5105 38.6767 61.5139 38.6767C61.2648 38.6767 61.0406 38.6518 60.7915 38.6269C61.0157 39.6982 61.2648 40.7445 61.5139 41.8158C61.8627 43.2857 62.2364 44.7805 62.5852 46.2503C62.9838 45.9763 63.3824 45.7023 63.806 45.4282C64.9769 44.6808 66.1478 43.9583 67.3935 43.3355C68.0163 43.0116 68.6392 42.6878 69.3118 42.4635C69.9845 42.2393 70.682 42.2144 71.3796 42.2393C71.9775 42.2642 72.7 42.2642 73.1983 42.6379C73.6467 43.0116 73.6965 43.6345 73.4474 44.1327C73.1734 44.7057 72.5754 45.0794 72.0772 45.4531C71.4294 45.9016 70.7817 46.35 70.1339 46.7985C68.8634 47.6953 67.5679 48.5673 66.2973 49.4642C65.226 50.2116 64.1548 50.959 63.2579 51.9306C63.4074 52.2046 63.507 52.4787 63.5568 52.7776C63.6565 52.7527 63.7561 52.7527 63.8558 52.8026C64.7278 53.2759 65.5748 53.7493 66.4468 54.2475C69.8599 56.2406 73.1733 58.4579 76.2626 60.9492C79.3518 63.4156 82.2169 66.1561 84.758 69.1955C87.3739 72.3097 89.6411 75.673 91.4846 79.2854C93.4777 83.1968 94.9974 87.3323 96.0437 91.5925C96.6168 93.9094 97.0652 96.2762 97.3891 98.6679C97.7129 101.01 97.7628 103.352 97.8126 105.718C97.8624 107.861 98.0617 109.979 98.6596 112.046C98.8589 112.694 99.133 113.342 99.3074 114.014C99.4319 114.488 99.5067 114.986 99.5565 115.484C99.7558 116.356 99.8057 117.253 99.7558 118.175ZM39.3162 44.8303C38.8927 46.3002 38.4442 47.7701 37.9958 49.215C40.1882 49.6136 41.7328 51.7811 43.5764 52.9022C45.5694 54.123 48.1355 55.0198 50.4774 54.5216C51.7978 54.2475 52.9189 53.4005 54.0151 52.6531C55.1362 51.8808 56.2323 51.0586 57.3285 50.2365C58.898 49.0655 60.4427 47.8697 62.0371 46.7486C61.3894 43.9832 60.6918 41.2428 60.0939 38.4774C59.3714 38.2532 58.7236 37.8795 58.2005 37.3314C58.051 37.1819 58.051 36.9577 58.2005 36.8082C58.3499 36.6588 58.5742 36.6588 58.7237 36.8082C60.0441 38.1536 62.4357 38.3529 63.9555 37.2068C65.4752 36.0857 65.9734 33.7439 65.0516 32.0747C64.1298 30.4304 61.8877 29.6083 60.1188 30.3058C59.9195 30.3806 59.7202 30.281 59.6455 30.0817C59.5707 29.8823 59.6704 29.683 59.8697 29.6083C60.0192 29.5585 60.1686 29.5086 60.343 29.4588L59.5458 29.2346C57.2039 26.6436 58.4745 23.9779 58.325 21.6859C58.1257 18.2977 56.4316 17.9489 54.4386 17.2264C52.7943 17.2762 51.2497 17.899 49.8545 18.7212C48.4345 19.5682 47.1141 20.6146 45.7438 21.5862C44.3736 22.5827 43.0034 23.5544 41.6331 24.5509C39.1667 26.3446 36.7003 28.1135 34.209 29.8823C34.2837 29.9322 34.3585 29.9571 34.4083 30.0069C36.8996 31.5017 39.4159 32.9965 41.9321 34.4664C42.0816 34.5411 42.1563 34.7404 42.1065 34.8899C41.957 35.4629 41.8075 36.011 41.6331 36.584C40.8857 39.3494 40.1134 42.0898 39.3162 44.8303ZM35.6789 52.7029C36.1273 53.1762 36.6754 53.5499 37.1986 53.9486C37.6719 54.2973 38.0955 54.696 38.519 55.1195C40.8359 57.5859 41.7079 60.9243 43.3273 63.8142C44.9217 63.2163 46.7653 63.7146 48.3597 64.0883C49.4808 64.3623 50.6269 64.6114 51.748 64.8855C52.7694 65.1346 53.8406 65.309 54.8372 65.6578C55.46 65.882 56.1327 66.2308 56.4067 66.8536C57.6026 65.8322 58.3749 64.3374 59.5956 63.3159C60.343 62.6682 61.3396 62.17 61.8876 61.3478C62.2364 60.8495 62.2613 60.1769 61.788 59.8779C61.7132 59.9278 61.6634 59.9776 61.5887 60.0274C61.4143 60.1769 61.2399 60.3264 61.0655 60.4758C60.7167 60.7997 60.4178 61.1236 60.0939 61.4724C59.9693 61.6219 59.6953 61.5969 59.5707 61.4724C59.4212 61.3229 59.4461 61.0987 59.5707 60.9492C60.069 60.3762 60.6171 59.853 61.1901 59.3797C61.1901 59.2551 61.2399 59.1056 61.3645 59.0558C61.9126 58.8316 62.3859 58.3831 62.5105 57.7852C62.635 57.262 62.4357 56.7638 62.1617 56.3153C61.5389 56.8883 60.9409 57.4613 60.3181 58.0343C60.1686 58.1838 59.9444 58.1838 59.7949 58.0343C59.6454 57.9098 59.6454 57.6357 59.7949 57.5112C60.4676 56.8883 61.1402 56.2655 61.8129 55.6178C61.8129 55.543 61.8627 55.4434 61.9126 55.3935C62.7347 54.6711 63.208 53.5749 62.8094 52.5783C62.2613 53.1513 61.6883 53.6994 61.1402 54.2724C60.9908 54.4219 60.7666 54.397 60.6171 54.2724C60.4676 54.123 60.4676 53.8738 60.6171 53.7493C61.2648 53.1015 61.8876 52.4538 62.5354 51.806C62.5603 51.7562 62.5852 51.7064 62.6101 51.6565C63.0337 51.1583 63.507 50.7347 64.0302 50.3112C65.1015 49.4393 66.2724 48.667 67.4184 47.8946C68.6391 47.0476 69.8599 46.2005 71.0807 45.3535C71.6287 44.9798 72.2516 44.631 72.7 44.1327C72.8495 43.9583 73.0239 43.6843 72.9492 43.4352C72.8744 43.2109 72.5754 43.1611 72.3512 43.1113C71.7035 43.0116 71.0059 42.9618 70.3582 43.0615C69.6606 43.1611 69.0377 43.4601 68.4149 43.759C63.7312 46.076 59.7451 49.4891 55.5099 52.5285C54.4386 53.3008 53.3424 54.1229 52.1715 54.7209C51.1251 55.244 49.9542 55.4434 48.7833 55.3935C46.5411 55.269 44.274 54.3721 42.4304 53.0517C41.384 52.3043 40.5121 51.2828 39.4159 50.6102C38.4193 49.9873 37.1737 49.6386 36.0526 50.1368C35.6291 50.3361 35.1806 50.66 35.081 51.1334C34.9564 51.7064 35.3052 52.3043 35.6789 52.7029ZM14.4279 118.474C14.4777 118.424 14.5275 118.399 14.5773 118.374C14.3282 118.05 14.104 117.727 13.8798 117.403C13.3566 116.655 12.8085 115.933 12.1358 115.285C11.4881 114.662 10.7407 114.139 9.99327 113.641C8.49848 112.644 6.90404 111.722 5.7082 110.377C4.41271 108.932 3.31653 107.288 2.56914 105.494C2.4944 105.345 2.44455 105.195 2.39473 105.046H2.36982C1.79681 105.071 1.29854 105.419 1.0245 105.918C0.700622 106.516 0.750473 107.213 0.924866 107.836C1.19891 108.932 1.52277 110.302 2.61895 110.85C2.86808 110.975 2.84317 111.374 2.61895 111.498C1.7719 111.972 1.12417 112.943 1.32347 113.965C1.52278 114.936 2.36984 115.659 3.29163 115.908C3.59059 116.008 3.6653 116.431 3.39126 116.581C2.69368 117.004 2.54423 117.776 2.79336 118.524C3.34145 120.243 5.55872 120.616 7.10334 120.766C8.8971 120.94 10.7905 120.891 12.4348 121.688C12.4597 121.464 12.4846 121.264 12.5594 121.04C12.8583 120.043 13.6555 119.221 14.4279 118.474ZM34.483 129.959C33.9599 129.236 33.4367 128.539 32.8388 127.866C32.0415 126.944 31.1945 126.072 30.2478 125.325C28.7281 124.129 26.9841 123.432 25.1406 122.933C22.6741 122.261 20.1828 121.663 17.7662 120.866C17.3427 120.716 16.8943 120.616 16.5206 120.342C16.1718 120.093 15.8479 119.819 15.5489 119.52C15.3746 119.346 15.2002 119.147 15.0258 118.947C15.0009 118.972 15.0008 118.997 14.9759 119.022C14.2036 119.794 13.1573 120.741 13.1573 121.912C13.1324 122.983 14.0292 123.855 14.8514 124.428C16.2963 125.45 17.9904 126.072 19.7095 126.521C21.553 127.019 23.4215 127.318 25.29 127.642C28.3295 128.14 31.618 128.589 34.483 129.959ZM56.4067 127.493C55.9583 127.343 56.1576 126.646 56.606 126.77C56.7057 126.795 56.7804 126.82 56.8801 126.845C56.8801 126.845 56.8801 126.845 56.8801 126.82C58.5742 124.503 59.6953 121.837 60.2434 119.022C61.3894 113.018 59.8946 106.715 57.5029 101.209C56.8552 99.7143 56.0081 98.2942 55.46 96.7496C54.9867 95.4043 54.7624 93.9842 54.7874 92.589C54.8123 89.9233 55.6842 87.3822 56.3071 84.8161C56.9299 82.2002 57.204 79.5594 56.2573 76.9933C55.9832 76.2459 55.6095 75.5235 55.186 74.8508C54.9368 74.4522 54.6877 74.0785 54.4137 73.7297C54.1396 73.356 53.7161 73.0072 53.5168 72.5837C53.3424 72.2349 53.1929 71.7865 53.1182 71.338H53.168C53.2427 70.0675 54.6379 69.2702 55.3853 68.3733C55.6593 68.0495 55.9583 67.601 55.759 67.1277C55.4849 66.4799 54.5631 66.2557 53.9652 66.1062C51.8974 65.5831 49.7798 65.1346 47.712 64.6364C46.9148 64.462 46.1175 64.2876 45.2954 64.2627C44.5978 64.2377 43.8504 64.2876 43.2276 64.6613C42.5051 65.0848 42.3058 65.8322 42.3058 66.6045C42.3058 67.4516 42.4553 68.2488 42.3307 69.0958C42.256 69.5692 41.5335 69.3699 41.6082 68.8965C41.7826 67.9 41.4588 66.8786 41.6082 65.8571C41.7079 65.1346 42.1065 64.5367 42.6795 64.1381C41.8075 62.6184 41.1598 60.9741 40.4124 59.3797C39.9391 58.3582 39.391 57.3866 38.7183 56.4648C37.9709 55.4683 37.0242 54.7209 36.0526 53.9735C35.9529 53.8987 35.8284 53.7991 35.7287 53.6994C34.1343 54.7209 33.0381 55.4932 31.4685 56.5894C25.589 60.6253 20.0583 65.1845 15.5489 70.6903C13.232 73.5055 11.3137 76.5449 9.42029 79.6341C7.3774 82.9725 5.40924 86.4106 3.98918 90.0728C2.69369 93.3614 1.82173 96.8741 2.09578 100.437C2.39474 104.074 4.03901 107.612 6.60508 110.203C7.87565 111.498 9.49501 112.37 10.9898 113.392C11.7123 113.89 12.4348 114.463 13.0576 115.111C13.6555 115.733 14.1538 116.456 14.677 117.178C15.2002 117.901 15.7233 118.623 16.396 119.221C16.7448 119.545 17.1185 119.819 17.5918 119.969C17.9655 120.093 18.3392 120.218 18.7129 120.342C20.0084 120.766 21.3288 121.14 22.6492 121.464C24.5925 121.962 26.5855 122.385 28.4042 123.257C30.3723 124.179 31.9917 125.674 33.4118 127.318C34.5079 128.564 35.4796 129.909 36.4512 131.254C37.4228 132.625 38.793 133.721 40.3377 134.418C41.7826 135.066 43.402 135.29 44.9715 135.066C45.7687 134.942 46.5411 134.717 47.2885 134.418C48.1106 134.045 48.8331 133.497 49.6054 133.073C52.1465 131.653 54.5382 129.809 56.4067 127.493ZM98.8341 115.061C98.6347 113.865 98.1365 112.744 97.8375 111.573C97.5635 110.527 97.3891 109.455 97.2894 108.384C97.0901 106.366 97.1648 104.323 97.0652 102.28C96.841 97.5468 95.8444 92.7884 94.4493 88.2791C93.2036 84.2929 91.5095 80.4314 89.3919 76.819C87.3739 73.4307 84.9823 70.2668 82.2916 67.4017C79.6508 64.5865 76.711 62.0454 73.5969 59.7534C70.4578 57.4364 67.1444 55.3935 63.7312 53.525C63.6565 54.3223 63.2828 55.0946 62.7098 55.6925C63.1582 56.3651 63.4821 57.1374 63.2828 57.9596C63.1582 58.5077 62.8094 58.981 62.361 59.3298C62.7347 59.6537 62.9589 60.152 62.9091 60.7C62.8343 61.5222 62.2863 62.145 61.6634 62.6433C60.9658 63.2163 60.1686 63.7146 59.5458 64.3872C58.5243 65.4834 57.752 66.8038 56.5562 67.7007C56.5064 68.0744 56.332 68.4232 56.1078 68.747C55.7092 69.2702 55.2109 69.6937 54.7375 70.1422C54.3888 70.491 53.9403 70.9145 53.9154 71.4377C53.9652 71.7366 54.04 72.0854 54.1894 72.3346C54.3887 72.6584 54.7126 72.9574 54.9617 73.2812C56.8302 75.7227 57.8517 78.6127 57.6026 81.7269C57.4033 84.3677 56.4815 86.8839 55.9334 89.45C55.3354 92.2652 55.4102 95.1053 56.6808 97.7461C57.4032 99.2658 58.1756 100.761 58.7984 102.33C59.3963 103.85 59.9195 105.394 60.343 106.964C61.8378 112.669 61.9624 118.897 59.3465 124.304C58.8731 125.275 58.325 126.197 57.7022 127.069C58.5991 127.293 59.5458 127.418 60.4676 127.443C62.934 127.567 65.3755 127.169 67.8419 127.069C69.1125 127.019 70.408 127.069 71.6536 127.243C72.8495 127.418 74.0204 127.667 75.2162 127.816C79.3269 128.34 83.5373 128.489 87.648 127.816C90.8369 127.293 94.2002 126.247 96.5171 123.905C98.8091 121.538 99.3572 118.25 98.8341 115.061ZM75.9138 103.551C76.5117 104.099 76.2377 104.871 75.7643 105.394C75.2162 106.017 74.3443 106.54 73.4972 106.391C72.8246 106.291 72.401 105.743 72.2516 105.12C72.2266 105.021 72.2017 104.896 72.1519 104.797C71.7035 105.17 71.3298 105.619 70.9062 106.042C70.3581 106.59 69.7602 107.039 69.0377 107.363C67.6426 108.01 66.0482 108.259 64.5035 108.035C64.0302 107.961 64.2295 107.238 64.7029 107.313C65.1015 107.363 65.4752 107.388 65.8738 107.363C67.518 107.288 69.1374 106.715 70.3333 105.544C70.8315 105.046 71.3049 104.523 71.853 104.074C71.0059 102.23 69.3367 100.86 68.3153 99.1163C67.7174 98.0949 67.3935 96.9738 67.6177 95.7779C67.7423 95.0555 68.116 94.4326 68.4398 93.8098C68.7637 93.2368 69.3118 92.3897 69.0377 91.6922C68.7637 90.9697 67.7174 90.8451 67.0945 90.5462C66.397 90.2223 65.7741 89.7489 65.226 89.2257C64.1548 88.1545 63.4073 86.7344 63.1831 85.2396C63.1084 84.7663 63.8309 84.567 63.9056 85.0403C64.1298 86.6597 64.9769 88.1296 66.2475 89.151C66.8703 89.6493 67.5679 89.9732 68.3153 90.2472C69.1125 90.5462 69.7852 91.0444 69.835 91.9662C69.9097 93.3863 68.6392 94.5074 68.3402 95.8527C68.0911 96.8991 68.4398 97.9205 68.9879 98.8423C70.0094 100.536 71.6038 101.882 72.4758 103.675C72.999 103.401 73.572 103.252 74.145 103.177C74.7429 103.102 75.4654 103.152 75.9138 103.551ZM74.419 103.9C73.8709 103.925 73.273 104.074 72.7747 104.348C72.7997 104.398 72.7997 104.423 72.8246 104.473C72.9741 104.921 73.0239 105.569 73.5969 105.669C74.0204 105.743 74.4689 105.494 74.7927 105.245C75.0668 105.046 75.3657 104.772 75.4654 104.448C75.6647 103.9 74.7429 103.875 74.419 103.9ZM52.6697 22.9315C52.0718 23.6042 51.6234 24.3765 51.3244 25.2236C51.2497 25.398 51.3992 25.6471 51.5735 25.672C51.7729 25.7218 51.9722 25.5972 52.022 25.4229C52.0469 25.3232 52.0967 25.2485 52.1217 25.1488C52.1217 25.1239 52.1466 25.099 52.1466 25.0741V25.0492C52.1715 24.9993 52.1964 24.9495 52.1964 24.9246C52.2711 24.7502 52.3708 24.5509 52.4704 24.3765C52.5701 24.2021 52.6697 24.0526 52.7943 23.8782C52.8192 23.8284 52.8441 23.8035 52.8691 23.7537C52.8691 23.7537 52.8691 23.7537 52.8691 23.7288C52.8691 23.7288 52.8691 23.7287 52.8691 23.7038C52.894 23.6789 52.894 23.654 52.9189 23.654C52.9936 23.5793 53.0434 23.5045 53.1182 23.4049C53.2428 23.2554 53.2677 23.0063 53.1182 22.8817C53.0434 22.807 52.7943 22.782 52.6697 22.9315ZM48.6587 25.3979C48.858 25.4976 49.0573 25.4229 49.1819 25.2734C49.6552 24.6007 50.1286 23.9281 50.6019 23.2554C50.7265 23.1059 50.6268 22.8319 50.4774 22.7322C50.278 22.6326 50.0787 22.7073 49.9542 22.8568C49.4808 23.5295 49.0075 24.2021 48.5341 24.8748C48.4096 25.0492 48.4843 25.3232 48.6587 25.3979ZM49.0573 20.9883C49.6801 21.1378 50.3279 21.2873 50.9507 21.4367C51.15 21.4866 51.3742 21.3869 51.3992 21.1876C51.449 20.9883 51.3493 20.7641 51.15 20.7392C50.5272 20.5897 49.8795 20.4402 49.2566 20.2907C49.0573 20.2409 48.8331 20.3406 48.8082 20.5399C48.7334 20.7143 48.858 20.9385 49.0573 20.9883ZM52.3957 20.4153C52.5701 20.5149 52.8192 20.4651 52.9189 20.2907C53.0933 19.9419 53.3424 19.6679 53.6912 19.4935C53.9901 19.344 54.314 19.2693 54.6379 19.3939C54.6379 19.3939 54.7126 19.4188 54.7126 19.4437C54.7375 19.4686 54.7624 19.4686 54.7874 19.4935C54.8123 19.4935 54.8123 19.5184 54.8372 19.5184C54.8372 19.5184 54.8372 19.5184 54.8621 19.5433C54.887 19.5682 54.9368 19.5932 54.9617 19.643C54.9617 19.643 55.0116 19.7177 55.0365 19.7177C55.0614 19.7426 55.0614 19.7675 55.0863 19.7925C55.1112 19.8423 55.1361 19.8672 55.1611 19.917C55.1611 19.9419 55.186 19.9668 55.186 19.9668C55.2109 20.0416 55.2358 20.1163 55.2607 20.1911C55.2607 20.1911 55.2607 20.1911 55.2607 20.216C55.2607 20.2409 55.2607 20.2409 55.2607 20.2658C55.2607 20.3156 55.2607 20.3406 55.2607 20.3904C55.2607 20.3904 55.2607 20.3904 55.2607 20.4153C55.2607 20.4651 55.2358 20.49 55.2358 20.5399C55.2358 20.5399 55.2358 20.5399 55.2358 20.5648C55.2358 20.5897 55.2109 20.5897 55.2109 20.6146C55.2109 20.6395 55.1361 20.7392 55.186 20.6644C55.0614 20.8139 55.0365 21.0381 55.186 21.1876C55.3105 21.3122 55.5846 21.3371 55.7091 21.1876C55.9583 20.8886 56.0579 20.515 56.0081 20.1163C55.9583 19.7426 55.7839 19.3939 55.5348 19.1447C54.9368 18.5219 54.015 18.5219 53.3175 18.9454C52.8939 19.1945 52.5452 19.5683 52.3458 19.9918C52.1465 20.0914 52.1964 20.3156 52.3957 20.4153ZM43.6013 47.8199C43.7259 47.9694 43.9999 47.9445 44.1245 47.8199C44.2739 47.6704 44.249 47.4462 44.1245 47.2967C43.6262 46.6739 43.2774 45.9514 43.0781 45.204C42.9286 44.6559 42.7791 43.8587 43.1279 43.3355C43.5016 42.7874 44.1992 43.2359 44.4733 43.6594C44.6975 43.9833 44.7722 44.3819 44.8719 44.7556C44.9715 45.1542 45.0961 45.5528 45.2705 45.9514C45.4947 46.3749 46.1175 46.0012 45.9182 45.5777C45.5695 44.8801 45.5694 44.0829 45.1957 43.4103C44.8719 42.8372 44.274 42.3141 43.5764 42.339C42.9037 42.3639 42.4304 42.8871 42.2809 43.5099C42.1065 44.1825 42.2311 44.905 42.4304 45.5777C42.6546 46.3749 43.0532 47.1472 43.6013 47.8199ZM40.7114 69.4197C36.0526 71.3131 32.7142 75.7975 31.917 80.7303C31.7177 81.9511 31.6678 83.2216 31.7924 84.4673C31.8671 85.0901 31.9668 85.713 32.1163 86.3109C32.3156 87.133 32.5896 87.9552 32.7142 88.7773C32.9384 90.1974 32.5647 91.4929 31.7426 92.6389C30.9703 93.7351 29.9239 94.6569 28.9025 95.5288C26.735 97.4471 24.0195 100.462 25.5143 103.576C25.7136 103.999 26.3613 103.626 26.162 103.202C24.9163 100.586 27.4077 97.8956 29.2014 96.2762C31.0699 94.607 33.2623 92.7884 33.5114 90.1227C33.6609 88.5531 33.0132 87.0334 32.6893 85.5137C32.4402 84.3428 32.3903 83.1469 32.49 81.9511C32.6893 79.5594 33.5114 77.2176 34.8318 75.2245C36.3017 72.9823 38.3944 71.1387 40.8857 70.1173C41.3342 69.9429 41.1598 69.2204 40.7114 69.4197ZM60.1935 34.2422C60.2184 34.2172 60.2434 34.1923 60.2683 34.1425C60.3181 34.0927 60.343 34.0429 60.3928 33.993C60.4925 33.8934 60.5672 33.7937 60.6669 33.719C60.8662 33.5446 61.0157 33.42 61.2399 33.2705C61.6883 32.9965 62.087 32.7972 62.5852 32.6726C62.7845 32.6228 62.9091 32.3986 62.8344 32.2242C62.7845 32.0249 62.5603 31.9252 62.3859 31.9751C61.2399 32.2491 60.2434 32.9467 59.5458 33.8685C59.4212 34.0179 59.5209 34.292 59.6704 34.3916C59.8697 34.4913 60.069 34.3916 60.1935 34.2422Z" fill="#111318"/>
</svg>
