<svg width="104" height="100" viewBox="0 0 104 100" fill="none" xmlns="http://www.w3.org/2000/svg">
<path d="M72.7297 58.0019C76.5279 62.3806 84.1725 54.6634 88.9383 51.3491C93.7041 48.0348 98.0344 42.5675 96.6555 36.9308C94.962 30.0119 85.5756 26.5041 85.2853 19.3916C85.1643 16.1741 87.0271 13.2711 88.019 10.2229C89.0108 7.17474 88.6963 3.03794 85.7691 1.73158C84.8982 1.34451 83.9064 1.27193 82.9387 1.19935C78.439 0.909051 73.9393 0.594553 69.4396 0.304251C63.5126 -0.0828191 57.3921 -0.445703 51.8038 1.53803C43.8688 4.36848 38.3047 11.4325 31.289 16.1499C30.3214 16.8031 29.2812 17.4321 28.1199 17.4805C24.6363 17.6256 23.1122 13.005 20.064 11.2874C17.0884 9.59394 13 11.239 11.2582 14.1904C9.51635 17.1418 9.68571 20.8915 10.7985 24.1332C11.9114 27.375 13.8467 30.2538 15.5402 33.2294C17.2336 36.205 18.7093 39.4467 18.7819 42.8578C18.8544 46.5591 17.2336 50.0911 15.4917 53.357C13.7499 56.6229 63.2949 47.1155 72.7297 58.0019Z" fill="#DBDFE9"/>
<path d="M98.4457 90.13C97.1877 86.8641 99.6553 82.9208 98.107 79.8C96.8248 77.2115 93.4864 76.5342 91.2607 74.6956C89.7608 73.4376 88.7931 71.6958 87.6561 70.0991C86.5191 68.5025 85.0192 67.0026 83.0839 66.6639L83.108 66.5187C81.6565 64.0995 79.5518 61.8497 78.4874 59.8901C77.6649 58.4144 84.2934 55.0518 84.2934 55.0518C79.3825 50.1892 68.0849 41.2866 61.5772 38.94C61.3353 35.5531 61.0209 27.2311 61.0209 27.2311C63.6094 26.5779 68.8348 25.199 68.8348 25.199C65.7866 21.4251 62.4723 17.0705 59.0371 12.7886C57.9001 11.3613 56.376 10.1033 54.6342 9.61944L49.0943 8.48242L46.6992 18.643C45.3445 18.014 43.5785 18.2801 42.5141 19.3446C41.2561 20.5784 41.1109 22.7798 42.1754 24.183C42.8527 25.0781 43.9414 25.5619 45.0542 25.6103L45.03 25.707C43.1673 30.11 41.4738 33.7629 39.5869 37.5852L39.5626 37.4885C33.3937 40.2222 27.6119 42.593 21.9752 46.3669C16.3626 50.1166 11.3066 54.955 8.25838 61.003C8.25838 61.003 12.1049 59.8418 15.6853 61.2933C15.4192 61.5836 15.2014 61.8981 15.0079 62.2368C14.1612 63.7125 14.0161 65.4785 13.5322 67.0993C11.7662 72.9538 5.66986 76.7035 3.85547 82.5579C3.85547 82.5579 6.71009 88.9446 26.5716 92.1379C27.2248 92.2347 27.2248 91.0009 27.37 90.3961C27.4909 89.7913 27.3941 89.1381 26.9345 88.6785C26.741 88.4849 26.499 88.364 26.2087 88.2672C26.6684 87.8317 27.1039 87.3721 27.4425 86.8641C28.2409 85.7755 28.6522 84.4691 28.2409 83.2837C27.9748 82.5337 27.4183 81.9047 26.9345 81.2516C24.2492 77.5986 29.4263 76.5342 32.039 74.3327C32.7648 73.7037 33.3937 72.9054 33.8292 72.0829C34.9904 73.486 36.4661 74.6472 38.1111 75.4455C39.5384 76.5583 41.0384 77.1148 42.248 77.3325C42.4415 77.4051 42.6592 77.4776 42.877 77.526L42.7802 77.4051C42.8527 77.4051 42.9495 77.4293 43.0221 77.4293L44.5704 68.3573C44.5704 68.3573 53.2069 68.7202 53.8358 59.4789C53.9326 57.979 53.7875 56.7452 53.473 55.6808C56.1583 55.3421 58.5049 55.4388 60.6096 55.6566C61.1418 56.0678 61.6982 56.6242 62.1579 57.3258C62.1821 57.5193 62.2788 57.7129 62.424 57.8822C62.4723 57.9306 62.4965 57.9548 62.5449 58.0032C63.3433 59.5998 63.7303 61.8497 62.9804 65.043C62.3272 67.8493 61.1418 69.9298 59.8113 71.5022C59.7629 71.4781 59.7387 71.4297 59.6903 71.4055L59.7387 71.599C56.7631 75.0585 53.1343 75.8568 53.1343 75.8568L51.7795 85.5093L73.2136 80.671L70.3831 69.4701C71.1089 69.3734 71.8346 69.1798 72.5604 68.9621C72.4878 69.4217 72.4878 69.9056 72.5362 70.3894C72.6813 71.5022 73.1651 72.5667 73.9151 73.3892H74.1086C74.2296 79.1711 74.8828 84.9529 76.0924 90.5896C76.5762 92.8637 77.2536 95.3071 79.1406 96.6618C79.1406 96.6618 82.721 89.7187 90.9462 93.1056C99.1714 96.4924 103.139 93.1056 103.139 93.1056C101.107 93.2749 99.1473 91.9928 98.4457 90.13ZM67.8188 59.4789L67.2382 57.1807C67.3349 57.1565 67.4559 57.1081 67.5527 57.0839C68.6897 56.8178 70.0686 56.9871 70.7218 57.9548C70.746 58.0032 70.7702 58.0516 70.7944 58.1C69.7541 58.4628 68.7622 58.9225 67.8188 59.4789ZM69.4638 66.0107C70.8186 65.4543 72.2459 64.9946 73.6248 64.6076C72.4878 65.0188 70.9154 65.793 69.609 66.6155L69.4638 66.0107Z" fill="#F1F1F4"/>
<path d="M47.3044 50.2377L48.0786 42.5205C48.0786 42.5205 42.0306 43.5124 37.5309 48.133C37.8454 48.2056 38.1841 48.3024 38.4986 48.3991C39.3937 48.6652 40.3856 48.9314 41.1597 49.512C41.8129 50.02 42.2484 50.8667 42.0307 51.7134C41.7887 52.5601 40.9178 52.923 40.0953 52.8746C39.1276 52.8262 38.2083 52.3666 37.3132 52.0279C36.5633 51.7376 35.7891 51.4957 34.9666 51.5683C34.7972 51.8828 34.6279 52.1731 34.4827 52.5117C34.7489 52.6327 35.015 52.7537 35.2811 52.8746C36.5633 53.5278 37.7729 54.3503 38.8615 55.3422C39.7324 56.1405 41.5226 57.6888 40.2163 58.8742C39.926 59.1161 39.6114 59.2613 39.2727 59.3097C39.7082 59.8177 40.0953 60.4467 39.9501 61.1483C39.805 61.874 39.1034 62.2853 38.4019 62.2611C37.5793 62.2369 36.8052 61.7289 36.0794 61.366C35.6682 61.1724 35.2569 60.9789 34.8456 60.8096C34.9182 60.8579 35.015 60.9063 35.0875 60.9789C35.523 61.2692 35.9343 61.5837 36.3213 61.9466C36.5875 62.2127 36.8778 62.503 36.9745 62.8659C37.3132 64.0029 35.6924 64.148 34.9908 64.1722C34.265 64.1964 33.5635 64.1239 32.8619 63.9787C32.9345 64.8012 32.6442 65.7689 33.1522 66.3253C33.5635 66.785 34.3376 67.0753 34.5312 67.7526C34.7489 68.5268 34.1441 70.0025 34.4344 70.6557C36.6842 75.7601 40.7001 77.4294 43.0951 77.5503L44.6433 68.4784C44.6433 68.4784 53.2798 68.8413 53.9088 59.6C54.4652 51.2054 47.3044 50.2377 47.3044 50.2377Z" fill="#CB730B"/>
<path d="M32.0874 63.9792C32.0874 63.9066 32.0874 63.8341 32.0632 63.7373H32.0391C32.0633 63.8099 32.0632 63.8825 32.0874 63.9792Z" fill="#1E2129"/>
<path d="M34.3862 47.5042C36.8296 44.7463 40.0229 42.69 43.5549 41.6014C43.6275 41.5772 43.6759 41.553 43.7001 41.5046C44.8613 41.6497 46.0225 41.9158 47.1353 42.2787C43.4098 43.5367 39.9504 45.4721 36.9264 47.9638C37.2167 48.0364 37.5312 48.109 37.8215 48.1815C40.8696 45.7382 44.3775 43.8754 48.1272 42.7384C48.224 42.7142 48.2724 42.6658 48.3208 42.6174C48.5869 42.5207 48.6594 42.0368 48.2966 41.9158C46.7725 41.3836 45.2242 40.9724 43.6034 40.803C43.4824 40.7788 43.3856 40.8514 43.313 40.9482C39.5875 42.1094 36.2248 44.3108 33.6847 47.2622C33.6363 47.3106 33.6121 47.3832 33.5879 47.4316C33.8298 47.4316 34.1201 47.4558 34.3862 47.5042Z" fill="#1E2129"/>
<path d="M44.2805 69.7124C43.2886 69.3012 42.6354 68.3819 42.0548 67.5351C41.7403 67.0997 41.45 66.64 41.1114 66.2288C40.7969 65.8175 40.4098 65.3579 39.9743 65.0918C39.4905 64.8015 38.8131 64.7531 38.4744 65.3095C38.1599 65.8175 38.3776 66.4949 38.4744 67.0271C38.7405 68.2851 39.1276 69.5189 39.6598 70.7043C40.2646 72.0832 41.063 73.3412 42.0064 74.5266C42.2967 74.8895 42.8048 74.3814 42.5145 74.0186C41.0146 72.1558 39.9502 69.9785 39.3695 67.6803C39.2244 67.1481 39.055 66.5433 39.055 65.9869C39.0309 65.2853 39.684 65.7207 39.9501 65.9869C40.6517 66.6642 41.1597 67.5351 41.7403 68.3093C42.3693 69.1802 43.0951 69.9785 44.1111 70.3898C44.3047 70.4624 44.4982 70.3172 44.5466 70.1479C44.595 69.9543 44.4498 69.785 44.2805 69.7124Z" fill="#1E2129"/>
<path d="M48.4412 56.6726C47.9816 56.0678 47.5703 55.4389 47.159 54.7857C45.3688 51.8585 44.1834 48.5926 43.6512 45.2057C43.5786 44.746 42.877 44.9396 42.9496 45.3992C43.3851 48.2781 44.3286 51.0601 45.6592 53.6245C46.3365 54.9066 47.1106 56.1404 47.9815 57.3016C48.3444 57.7613 48.9008 58.4387 48.5863 59.0676C48.4896 59.2612 48.296 59.4547 48.0541 59.4063C47.7638 59.3579 47.5945 58.9951 47.4735 58.7531C47.0623 58.0274 46.6752 57.3016 46.2881 56.6001C45.9494 55.9711 45.635 55.2695 45.1753 54.7131C44.8124 54.2535 44.256 53.8906 43.6512 54.0357C43.0464 54.1809 42.6835 54.7615 42.6352 55.3421C42.5626 56.0437 42.9255 56.6968 43.24 57.3016C43.6028 58.0032 43.9415 58.7048 44.256 59.4305C44.885 60.882 45.393 62.3819 45.7801 63.906C45.8527 64.1963 45.9495 64.4866 45.9011 64.8011C45.8527 65.1882 45.5623 65.043 45.3204 64.8495C44.7156 64.3173 44.1834 63.6883 43.6754 63.0593C42.6351 61.7771 41.7884 60.3498 41.1352 58.8499C40.9417 58.4145 40.3127 58.8015 40.5063 59.2128C41.1353 60.5917 41.9094 61.9223 42.8287 63.1319C43.2883 63.7367 43.7964 64.3415 44.3286 64.8979C44.7641 65.3575 45.393 66.0833 46.1188 65.6962C46.651 65.4059 46.6752 64.7527 46.5784 64.2205C46.4574 63.4464 46.1914 62.6722 45.9494 61.9465C45.4414 60.374 44.8124 58.8257 44.0625 57.35C43.7722 56.7452 43.1916 55.9953 43.3609 55.2937C43.4093 55.0518 43.5786 54.8099 43.8205 54.7615C44.135 54.7131 44.4012 54.9792 44.5705 55.1969C44.7641 55.4389 44.9092 55.705 45.0544 55.9711C45.2721 56.3823 45.514 56.7936 45.7317 57.2049C46.1187 57.9306 46.5058 58.6806 46.9413 59.3821C47.2558 59.9144 47.8122 60.3498 48.4654 60.1079C49.0218 59.8902 49.4088 59.2612 49.3605 58.6564C49.3847 57.858 48.8767 57.2532 48.4412 56.6726Z" fill="#1E2129"/>
<path d="M33.4905 65.8658C33.4179 65.261 33.3937 64.632 33.4179 64.0272C33.1759 64.003 32.934 63.9546 32.6921 63.9062C32.6679 64.4869 32.6921 65.0674 32.7405 65.6481" fill="#1E2129"/>
<path d="M34.2646 71.551C38.1353 76.8732 41.5222 77.3087 42.8044 77.6958C43.264 77.8167 43.4576 77.1152 42.9979 76.9942C39.2482 75.9056 36.1516 73.1719 34.5792 69.6641" fill="#1E2129"/>
<path d="M61.8434 56.8647C61.8918 56.5018 62.0369 56.1389 62.2547 55.8486C62.8837 55.0261 63.9723 54.6874 64.9158 54.3971C65.448 54.2278 65.9802 54.0826 66.5125 53.9617L64.19 44.793L60.3193 45.7606L58.1904 54.4455C58.1904 54.4455 60.2951 54.9052 61.8434 56.8647Z" fill="#006C8F"/>
<path d="M63.8034 62.4046C64.2873 61.8482 64.8195 61.3159 65.3759 60.8321C66.1258 60.2031 66.9242 59.6225 67.7951 59.1387L67.3838 57.542C66.6096 57.7597 65.8597 58.1468 65.1098 58.3887C64.4082 58.6306 63.5373 58.8242 62.8115 58.5581C63.2712 59.7193 63.5131 61.2192 63.3196 63.1061C63.4647 62.8884 63.6341 62.6223 63.8034 62.4046Z" fill="#006C8F"/>
<path d="M68.1576 69.9041C67.7464 69.8557 67.2625 69.7348 67.0206 69.3719C66.827 69.0816 66.8996 68.7187 67.0448 68.4284C67.456 67.6784 68.3028 67.122 69.0285 66.6624C68.4721 66.9043 67.9157 67.1462 67.3835 67.4365C66.6819 67.7994 65.932 68.2107 65.1094 68.0413C64.3595 67.8962 63.8756 67.243 63.9482 66.493C63.9966 65.985 64.2869 65.5496 64.6256 65.1383C64.1418 65.0657 63.7305 64.848 63.416 64.3642C63.3192 64.219 63.2709 64.0739 63.2467 63.9287C63.1983 64.2916 63.1257 64.6787 63.0289 65.0657C60.9 74.1377 53.1828 75.8795 53.1828 75.8795L51.8281 85.5321L73.2621 80.6937L70.5284 69.8557C69.7301 70.0009 68.956 70.0251 68.1576 69.9041Z" fill="#006C8F"/>
<path d="M51.1507 74.1623C51.0297 73.993 51.1265 73.7752 51.2716 73.6543C51.441 73.5333 51.6587 73.6301 51.7796 73.7752C52.2393 74.4768 52.7231 75.1542 53.1828 75.8557C53.3037 76.0251 53.207 76.2428 53.0618 76.3638C52.8925 76.4847 52.6748 76.388 52.5538 76.2428C52.0942 75.5413 51.6345 74.8639 51.1507 74.1623ZM63.1256 74.7187C63.7063 75.517 65.0368 77.0895 63.9481 78.0088C63.4643 78.4201 62.7628 78.2265 62.3515 77.7911C61.8919 77.3072 61.6016 76.6541 61.1903 76.1219C60.8032 75.6138 60.3436 75.0574 59.8114 74.6945C59.6178 74.5494 59.2307 74.3558 58.9888 74.5978C58.7953 74.8155 59.013 75.1784 59.134 75.3719C59.4969 76.0009 59.9323 76.6057 60.3436 77.2347C60.779 77.8879 61.2145 78.5652 61.6499 79.2184C61.916 79.6055 61.2871 79.9684 61.021 79.5813C60.5371 78.8555 60.0774 78.1298 59.5936 77.404C59.3517 77.0411 59.1098 76.6783 58.8679 76.3154C58.6501 76.0009 58.4324 75.6864 58.2873 75.3235C58.0937 74.7671 58.2147 74.1381 58.7953 73.8962C59.3759 73.6301 59.9565 73.8962 60.4162 74.2591C60.9484 74.6945 61.408 75.2268 61.8193 75.759C62.037 76.0493 62.2305 76.3154 62.424 76.6299C62.5934 76.896 62.7386 77.2347 62.9805 77.4282C63.1982 77.5975 63.4885 77.6217 63.5853 77.3314C63.682 77.0653 63.5611 76.7992 63.4159 76.5573C63.1014 75.9767 62.6902 75.4203 62.2789 74.8639C61.4806 73.7752 60.5855 72.7834 59.5936 71.8641C58.0453 73.7752 56.0616 75.3235 53.8118 76.3154C53.3279 79.4603 52.8441 82.6053 52.3603 85.7502C52.2877 86.1857 51.6829 86.0405 51.6587 85.6292C51.6103 85.6051 51.5619 85.5567 51.5377 85.5083C50.9571 84.6132 50.3039 83.7907 49.554 83.0165C49.433 82.8956 49.433 82.7504 49.4814 82.6537C49.9894 79.6297 50.5217 76.6057 51.0297 73.5575C51.0781 73.3398 51.2474 73.2672 51.3926 73.3156C53.5215 72.9527 55.5294 72.1302 57.2954 70.8722C59.4001 69.3723 61.1419 67.2192 62.1096 64.7759C62.158 64.5581 62.1822 64.3404 62.2063 64.1227C62.2305 64.0259 62.3031 63.9291 62.3999 63.8808C62.5692 63.3727 62.6902 62.8647 62.7628 62.3325C63.0289 60.6874 62.8111 58.9698 61.9402 57.5425C61.0935 56.1877 59.642 55.2685 58.0695 55.0265C57.9727 55.0507 57.8518 55.0507 57.7551 55.0023C57.6583 55.0023 57.5615 54.9782 57.4889 54.9782C57.1502 54.9782 57.0535 54.5911 57.1986 54.3975C56.7148 53.8895 56.2309 53.3815 55.7229 52.8735C55.481 52.8976 55.2391 52.7283 55.3117 52.438C56.2793 49.3656 56.9083 46.1965 57.1986 42.979C57.1019 42.7613 57.2228 42.471 57.5131 42.471C57.5615 42.4468 57.6341 42.4468 57.6825 42.471C58.626 42.4468 59.5452 42.2774 60.4403 41.9629C60.5129 41.8904 60.6338 41.842 60.7306 41.8662C60.8758 41.842 61.0451 41.9629 61.0935 42.0839C62.037 42.8822 63.0047 43.6805 63.9481 44.4547C63.9481 44.4547 63.9482 44.4789 63.9724 44.4789C64.0207 44.4789 64.0691 44.4789 64.1175 44.4789C64.311 44.5031 64.4804 44.624 64.4804 44.8418C64.4804 45.0111 64.311 45.2288 64.1175 45.2046C63.0047 45.0837 61.8919 45.2772 60.9 45.8094C60.7307 45.9062 60.5855 45.8578 60.4887 45.7369C60.4645 45.761 60.4403 45.7852 60.392 45.8094C59.8113 48.6883 59.134 51.5429 58.3599 54.3734C60.1984 54.712 61.8193 55.8732 62.7144 57.5425C63.9482 59.8407 63.682 62.526 62.7386 64.8968C62.5692 65.8887 62.2789 66.8564 61.8918 67.7998C61.3838 69.0336 60.7307 70.1948 59.9323 71.2593C61.1903 72.2995 62.2064 73.4607 63.1256 74.7187ZM62.9805 44.4789C62.2305 43.8499 61.5048 43.2451 60.7548 42.6161C59.9323 42.9064 59.0856 43.0758 58.2389 43.1241C59.013 43.8257 59.8114 44.5031 60.5855 45.2046C60.6097 45.1804 60.6339 45.1805 60.6581 45.1563C61.3597 44.7692 62.1579 44.5515 62.9805 44.4789ZM56.2793 52.317C56.7874 52.8493 57.3196 53.3815 57.8276 53.9137C58.5775 51.1316 59.2308 48.3496 59.8114 45.5191C59.8114 45.4949 59.8113 45.4949 59.8355 45.4708C59.2065 44.9143 58.5775 44.3579 57.9486 43.8015C57.6341 46.6561 57.0535 49.4866 56.231 52.2445C56.231 52.2687 56.2551 52.2929 56.2793 52.317ZM61.0693 68.0901C58.8437 71.1625 55.4326 73.2914 51.7071 73.9446C51.2233 76.8234 50.7152 79.7264 50.2314 82.6053C50.812 83.2101 51.3442 83.8633 51.8281 84.5648C52.2393 81.9037 52.6505 79.2426 53.0618 76.5815C52.6264 76.7508 52.4328 76.0493 52.8683 75.8799C52.9892 75.8316 53.1102 75.7832 53.207 75.7348C53.2796 75.5896 53.4247 75.5654 53.5456 75.5896C54.3682 75.2268 55.1665 74.7671 55.9165 74.2591C58.1663 72.7108 59.9565 70.5577 61.0693 68.0901ZM59.5936 79.7748C59.4968 79.6055 59.255 79.5329 59.0856 79.6539C58.9163 79.7506 58.8437 79.9684 58.9647 80.1619C59.3759 80.8151 59.7872 81.4924 60.2226 82.1456C60.3194 82.315 60.5613 82.3875 60.7306 82.2666C60.9 82.1698 60.9725 81.9521 60.8516 81.7586C60.4403 81.1054 60.0291 80.428 59.5936 79.7748ZM65.2061 51.2284C64.6981 50.4059 64.1175 49.6559 63.4643 48.9544C63.1256 48.5915 62.7628 48.2528 62.3999 47.9141C62.0612 47.6238 61.6983 47.2609 61.287 47.14C60.8758 47.0432 60.4403 47.2368 60.3194 47.6722C60.1984 48.0835 60.3677 48.5673 60.4887 48.9786C60.7548 49.9462 61.0935 50.8897 61.529 51.809C62.0128 52.8251 62.5692 53.8169 63.2224 54.7362C63.4885 55.1233 64.1175 54.7604 63.8514 54.3734C62.5934 52.6315 61.6741 50.672 61.1419 48.5915C61.0935 48.4463 60.9484 48.0835 61.021 47.9141C61.1177 47.7448 61.408 48.0109 61.5048 48.1077C61.9161 48.4221 62.2789 48.785 62.6418 49.1479C63.3918 49.8979 64.0207 50.7204 64.5772 51.6155C64.8191 52.0025 65.448 51.6397 65.2061 51.2284Z" fill="#1E2129"/>
<path d="M24.5392 77.714C32.1699 56.6706 -0.566681 54.951 19.3805 39.8402C22.6692 37.5187 26.4308 35.1113 27.484 31.2422C28.4728 27.5881 26.7532 23.7835 26.7317 19.979C29.5905 -0.634548 54.2451 3.96534 67.5718 12.1979C72.967 14.9062 79.0501 18.5603 79.6734 24.5574C79.9099 26.9003 79.2435 29.3292 80.0173 31.5647C84.1873 39.8187 96.8693 35.9926 98.9758 51.2324C100.158 68.1918 83.349 66.1498 79.2005 76.7682" fill="#DBDFE9"/>
<path d="M83.9935 73.9093C79.2861 67.5899 72.9452 61.6788 68.7537 58.7555C66.6472 57.2724 64.5192 56.1761 62.4127 55.3593C61.381 52.393 60.4137 49.4912 59.4465 46.2885C60.4137 46.224 61.3595 45.8371 62.0258 45.1493C64.6052 42.398 62.1118 38.3354 58.9306 38.5719C59.4035 34.8963 60.1773 31.1992 58.0493 27.9535C49.3224 18.3238 39.7358 35.3907 33.6312 39.9905C33.6312 39.9905 38.9619 42.0755 41.5843 43.0858C41.5843 43.0858 41.1114 52.8015 40.9609 57.1004C35.5657 60.0667 31.0948 64.6236 28.2145 69.4814H3.02259C1.43198 69.4814 0.314238 71.3085 0.808619 73.0925L6.65525 94.2434C6.97767 95.3827 7.85891 96.1565 8.86917 96.1565H9.81497C10.3953 97.962 12.0934 99.2947 14.0924 99.2947H49.8383C52.3962 99.3162 54.3522 97.1882 54.3522 94.6948C55.9643 96.3499 65.2071 99.2947 71.72 99.2947C76.019 99.2947 86.3365 98.3919 87.8411 97.5751C92.8494 94.8668 92.0326 83.1306 83.9935 73.9093ZM40.6815 93.2977C40.6815 93.0397 40.6385 92.8033 40.574 92.5453L39.1124 87.2791C39.6068 87.1287 40.0797 86.9997 40.5525 86.8922C40.789 87.0857 41.1329 87.2576 41.6273 87.3221C43.5403 87.5156 45.6468 86.7417 47.3664 87.9884C48.3766 88.7193 48.828 89.966 49.5159 90.9977C50.2252 92.008 51.214 92.8033 52.3317 93.2977C50.4187 93.2977 45.9907 93.2977 40.6815 93.2977ZM54.3522 93.921C54.3307 93.9425 54.3307 93.9425 54.3092 93.964C54.2877 93.921 54.2877 93.8995 54.2662 93.8565C54.3092 93.8565 54.3522 93.878 54.4167 93.878C54.3737 93.8995 54.3737 93.8995 54.3522 93.921Z" fill="#F1F1F4"/>
<path d="M20.1967 37.5194L10.3306 40.4857C8.69698 40.98 6.99888 40.0558 6.5045 38.4222C5.92414 35.8428 3.04386 30.8345 7.06339 29.5878L16.9295 26.6215C18.5631 26.1271 20.2612 27.0514 20.7556 28.685C21.3359 31.2644 24.2163 36.2727 20.1967 37.5194Z" fill="#1B84FF"/>
<path d="M5.77305 32.2105C7.98701 33.4787 10.2439 34.7039 12.5224 35.8432C12.8018 35.9936 13.0813 36.1226 13.3607 36.2516C13.5972 36.3805 13.8551 36.531 14.113 36.5955C14.5214 36.6815 14.9513 36.5955 15.2523 36.3161C15.4242 36.1441 15.5102 35.9506 15.5962 35.7357C15.7251 35.4348 15.8756 35.1338 16.0261 34.8329C16.3055 34.2311 16.585 33.6507 16.8644 33.0488C17.4877 31.6947 18.1325 30.362 18.7559 29.0078C18.9278 28.6424 18.369 28.2985 18.1971 28.6854C17.1438 30.9209 16.112 33.1348 15.0588 35.3703C14.8868 35.7142 14.7579 36.1011 14.285 35.9936C14.0701 35.9506 13.8766 35.8002 13.6831 35.7142C13.4037 35.5852 13.1242 35.4348 12.8448 35.3058C11.7701 34.7684 10.6953 34.2096 9.6206 33.6292C8.43838 32.9844 7.25619 32.3395 6.09547 31.6517C5.73006 31.4582 5.40764 32.0171 5.77305 32.2105Z" fill="#1E2129"/>
<path d="M76.2559 22.1928C76.6643 22.1283 76.8363 22.7516 76.4279 22.8161C75.5681 22.9666 74.6869 22.9451 73.8271 22.8591C72.9458 22.7731 72.043 22.6227 71.1832 22.3647C70.4309 22.1283 69.6786 21.8274 69.0767 21.3115C68.5823 20.8816 68.2599 20.3012 68.3459 19.6349C68.4749 18.7536 69.1627 18.0443 69.829 17.5069C69.8075 17.5929 69.7646 17.6574 69.7431 17.7434C69.7216 17.2705 69.5711 16.8836 69.3132 16.4967C69.1197 16.2172 68.9047 15.9378 68.8402 15.5939C68.7758 15.1855 68.9478 14.8201 69.2057 14.4976C69.3991 14.2612 69.6141 14.0463 69.8505 13.8313C69.8935 13.7883 69.9795 13.7453 70.0224 13.6808C70.0654 13.6378 70.0655 13.4874 70.0655 13.4229C70.1085 13.2724 70.1514 13.122 70.1944 12.9715C70.4739 12.0472 70.9897 11.1445 71.8495 10.6716C73.6336 9.7043 75.7831 10.865 77.2232 11.9398C77.0727 12.0687 76.9008 12.1762 76.7503 12.3052C76.5784 11.2519 76.7933 10.1127 77.2232 9.12394C77.5671 8.30714 78.1905 7.42585 79.1363 7.27539C79.3727 7.2324 79.6092 7.25389 79.8456 7.29688C80.1251 7.36137 80.2755 7.46884 80.4474 7.70528C80.6624 8.0277 80.7484 8.4576 80.7484 8.84451C80.7484 9.79028 80.4045 10.6931 80.4045 11.6388C80.383 13.0145 81.0923 14.1107 82.1026 15.0135C82.425 15.2929 81.9521 15.7443 81.6512 15.4649C80.5764 14.5191 79.8241 13.3369 79.7596 11.8968C79.7166 10.9725 79.996 10.0912 80.082 9.18842C80.1035 8.8875 80.125 8.54358 80.0175 8.24265C79.9745 8.15667 79.9101 8.07069 79.8671 7.98471C79.8456 7.94172 79.7811 7.92023 79.8886 7.98471C79.8456 7.96322 79.7811 7.96322 79.7166 7.94172C79.5662 7.89874 79.3942 7.89874 79.2438 7.94172C78.4699 8.09219 77.997 8.95198 77.7606 9.63981C77.4811 10.4136 77.2877 11.3379 77.4167 12.1547C77.4597 12.3911 77.2018 12.7136 76.9438 12.5201C75.5467 11.4669 73.0747 10.0912 71.5916 11.7678C71.2907 12.1117 71.0757 12.5631 70.9253 12.993C70.8178 13.2939 70.7533 13.5734 70.6888 13.8743C70.6243 14.1752 70.2589 14.3687 70.044 14.6051C69.8075 14.8416 69.5066 15.164 69.5281 15.4864C69.5281 15.5509 69.5926 15.6799 69.657 15.7658C69.7215 15.8948 69.8075 16.0023 69.8935 16.1312C70.1085 16.4537 70.2804 16.7976 70.3664 17.163C70.4094 17.3994 70.5168 17.7649 70.3449 17.9583C70.1944 18.1303 69.9795 18.2592 69.829 18.4312C69.5711 18.6891 69.3131 18.9901 69.1627 19.334C69.0552 19.5489 69.0122 19.8284 69.0337 20.0003C69.1197 20.4947 69.5281 20.8601 69.9795 21.1395C70.5813 21.5049 71.2907 21.7199 71.9785 21.8919C73.2897 22.2358 74.8803 22.4292 76.2559 22.1928ZM80.082 24.0628C80.3615 22.5367 80.6839 21.0106 81.2428 19.5489C81.5222 18.8181 81.8876 18.0873 82.4035 17.5069C82.6184 17.2705 82.8549 17.034 83.1558 16.8836C83.2848 16.8191 83.4137 16.7546 83.5427 16.7116C83.7147 16.6686 83.8866 16.7331 84.0371 16.8191C84.7249 17.206 84.8109 18.1733 84.7679 18.8611C84.7249 19.3125 84.6605 19.7209 84.5745 20.1938C84.3165 21.5049 83.9511 22.8376 83.3492 24.0198C83.0913 24.5357 82.7474 25.1161 82.2745 25.417C82.0595 25.546 81.9091 25.6105 81.6727 25.589C81.4792 25.5675 81.2213 25.46 81.0063 25.288C80.6839 25.0301 80.2325 25.4815 80.5549 25.7394C83.2418 27.8674 84.6819 22.5367 85.0688 20.8171C85.3482 19.5274 85.7567 17.8938 84.8969 16.7331C84.6175 16.3677 84.252 16.1098 83.8006 16.0238C83.4137 15.9593 83.0053 16.1527 82.6829 16.3677C81.9951 16.8191 81.5007 17.5069 81.1138 18.2377C80.211 19.9788 79.8026 21.9348 79.4372 23.8479C79.3942 24.2993 80.0175 24.4712 80.082 24.0628Z" fill="#1E2129"/>
<path d="M32.2341 24.7075C32.1266 24.557 32.2126 24.3635 32.3416 24.2561C32.492 24.1486 32.6855 24.2346 32.7929 24.3635C32.8144 24.4065 32.836 24.4495 32.8789 24.471C32.8145 24.4065 32.9004 24.4925 32.9219 24.514C32.9649 24.5785 33.0079 24.6215 33.0724 24.6645C33.0939 24.686 33.1368 24.7075 33.1583 24.729C33.1153 24.686 33.1368 24.7075 33.1583 24.729L33.1798 24.7504C33.2228 24.7934 33.2873 24.8149 33.3518 24.8364C33.3733 24.8364 33.3733 24.8579 33.3948 24.8579C33.4593 24.8794 33.3088 24.8364 33.3733 24.8579C33.3948 24.8579 33.4163 24.8794 33.4378 24.8794C33.4808 24.9009 33.5453 24.9009 33.6097 24.9224C33.5453 24.9009 33.5452 24.9224 33.5882 24.9224C33.6097 24.9224 33.6098 24.9224 33.6313 24.9224C33.6528 24.9224 33.6742 24.9224 33.7172 24.9224C33.7387 24.9224 33.7602 24.9224 33.7817 24.9224C33.8032 24.9224 33.8677 24.9224 33.8032 24.9224C33.7387 24.9224 33.7817 24.9224 33.8032 24.9224C33.8462 24.9224 33.8892 24.9009 33.9322 24.8794C33.9537 24.8794 33.9752 24.8579 33.9967 24.8579H34.0181C34.0611 24.8364 33.9751 24.8794 33.9751 24.8794C34.0181 24.8579 34.0611 24.8364 34.1041 24.8149C34.1471 24.7934 34.1901 24.7719 34.2116 24.7504C34.2546 24.729 34.1471 24.7934 34.1901 24.7719L34.2116 24.7504C34.2331 24.729 34.2546 24.729 34.2761 24.7075C34.2976 24.686 34.3406 24.643 34.3621 24.6215C34.3836 24.6 34.4051 24.5785 34.4266 24.557C34.3836 24.6215 34.4481 24.514 34.4266 24.557C34.4481 24.514 34.4696 24.471 34.4911 24.4495C34.5125 24.4065 34.534 24.3635 34.5555 24.3206C34.577 24.2776 34.534 24.3635 34.534 24.3635C34.534 24.342 34.5555 24.342 34.5555 24.3206C34.5555 24.2991 34.577 24.2776 34.577 24.2561C34.5985 24.2131 34.5985 24.1701 34.62 24.1056C34.62 23.9981 34.62 24.0626 34.62 24.1056C34.62 24.0841 34.62 24.0626 34.62 24.0411C34.62 23.9981 34.62 23.9551 34.62 23.8907C34.62 23.8692 34.62 23.8477 34.62 23.8262C34.62 23.7832 34.6415 23.9122 34.62 23.8692V23.8477C34.62 23.8047 34.5985 23.7402 34.577 23.6972C34.534 23.6112 34.577 23.6757 34.577 23.6972C34.5555 23.6757 34.5555 23.6542 34.534 23.6327C34.5125 23.5897 34.491 23.5467 34.448 23.5037L34.4266 23.4823C34.3836 23.4393 34.4695 23.5252 34.448 23.5037C34.4265 23.4823 34.405 23.4608 34.405 23.4393C34.362 23.3963 34.3191 23.3533 34.2761 23.3103C34.2546 23.3103 34.2546 23.2888 34.2331 23.2888C34.2331 23.2888 34.2976 23.3318 34.2546 23.3103C34.2331 23.2888 34.1901 23.2673 34.1686 23.2458C34.1041 23.2028 34.0396 23.1813 33.9751 23.1383C33.9536 23.1168 33.9107 23.1168 33.8892 23.0953C33.8677 23.0953 33.8462 23.0739 33.8462 23.0739C33.8677 23.0739 33.9107 23.0953 33.8462 23.0739C33.8247 23.0739 33.8247 23.0739 33.8032 23.0739C33.8247 23.0739 33.8247 23.0739 33.8462 23.0739C33.8247 23.0739 33.8032 23.0739 33.7817 23.0739C33.7387 23.0739 33.7172 23.0739 33.6742 23.0739C33.6527 23.0739 33.6312 23.0739 33.6097 23.0739C33.6097 23.0739 33.6957 23.0524 33.6313 23.0739C33.5883 23.0739 33.5453 23.0953 33.5238 23.0953C33.4808 23.0953 33.4378 23.1168 33.4163 23.1383C33.3518 23.1598 33.4593 23.1168 33.4163 23.1383C33.3948 23.1383 33.3733 23.1598 33.3518 23.1598C33.2873 23.2028 33.2228 23.2243 33.1583 23.2673C33.0938 23.3103 33.2014 23.2243 33.1369 23.2673C33.1154 23.2888 33.0939 23.2888 33.0724 23.3103C33.0509 23.3318 33.0294 23.3533 33.0079 23.3748C32.9864 23.3963 32.9434 23.4393 32.9219 23.4608C32.8789 23.5252 32.9434 23.4178 32.9219 23.4608C32.9004 23.4823 32.9004 23.5037 32.8789 23.5037C32.836 23.5682 32.7715 23.6542 32.7715 23.7187C32.793 23.6542 32.793 23.6972 32.7715 23.6972C32.7715 23.7187 32.75 23.7402 32.75 23.7617C32.7285 23.8047 32.7284 23.8262 32.7284 23.8692C32.7284 23.8907 32.7285 23.9121 32.707 23.9336C32.6855 24.0196 32.707 23.8692 32.707 23.9336C32.707 23.9551 32.707 23.9981 32.707 24.0196C32.707 24.0411 32.7285 24.1271 32.707 24.1486C32.707 24.1271 32.6855 24.0841 32.707 24.1271C32.707 24.1486 32.7069 24.1701 32.7284 24.1916C32.7714 24.3635 32.6854 24.5355 32.5135 24.5785C32.363 24.6215 32.1481 24.514 32.1266 24.3635C31.9117 23.4178 32.664 22.4935 33.5882 22.386C33.6742 22.386 33.7602 22.3645 33.8462 22.386C33.9752 22.4075 34.0826 22.429 34.2116 22.4935C34.3406 22.558 34.4696 22.6225 34.5985 22.7084C34.8565 22.9019 35.0499 23.1383 35.1789 23.4393C35.3723 23.8907 35.2648 24.4495 34.9854 24.8364C34.6845 25.2663 34.2331 25.5458 33.7172 25.5672C33.0939 25.6317 32.578 25.2018 32.2341 24.7075ZM100.609 81.0453C100.953 81.5182 101.447 81.8836 102.049 81.8406C102.565 81.7977 103.016 81.5182 103.317 81.1098C103.597 80.7229 103.704 80.1855 103.554 79.7342C103.468 79.4762 103.296 79.2183 103.081 79.0463C102.93 78.9174 102.78 78.8099 102.608 78.7454C102.458 78.6809 102.286 78.6594 102.114 78.6594C101.34 78.6594 100.545 79.2183 100.437 80.0136C100.416 80.1855 100.48 80.3575 100.652 80.4005C100.802 80.4435 101.017 80.3575 101.039 80.1856C101.039 80.1211 101.06 80.0566 101.082 79.9921C101.082 79.9706 101.082 79.9706 101.103 79.9491C101.103 79.9276 101.103 79.9276 101.103 79.9706C101.103 79.9491 101.146 79.9061 101.146 79.8631C101.168 79.8416 101.168 79.8201 101.189 79.7771C101.189 79.7557 101.211 79.7557 101.211 79.7342C101.254 79.6912 101.211 79.7342 101.211 79.7557C101.232 79.6912 101.318 79.6267 101.361 79.6052C101.361 79.6052 101.447 79.5407 101.404 79.5622C101.361 79.6052 101.426 79.5407 101.426 79.5407C101.447 79.5407 101.447 79.5192 101.469 79.5192C101.533 79.4762 101.598 79.4547 101.641 79.4117C101.662 79.4117 101.662 79.3902 101.684 79.3902C101.619 79.4117 101.641 79.4117 101.662 79.3902C101.705 79.3687 101.727 79.3687 101.77 79.3473C101.813 79.3473 101.834 79.3258 101.877 79.3258C101.899 79.3258 101.899 79.3258 101.92 79.3258C101.942 79.3258 102.006 79.3043 101.942 79.3258C101.899 79.3473 101.963 79.3258 101.963 79.3258C101.985 79.3258 101.985 79.3258 102.006 79.3258C102.028 79.3258 102.071 79.3258 102.092 79.3258C102.114 79.3258 102.157 79.3258 102.178 79.3258C102.135 79.3043 102.243 79.3258 102.178 79.3258C102.2 79.3258 102.221 79.3258 102.243 79.3258C102.286 79.3258 102.307 79.3473 102.35 79.3473C102.372 79.3473 102.458 79.3902 102.415 79.3687C102.372 79.3472 102.436 79.3902 102.436 79.3902C102.458 79.3902 102.458 79.4117 102.479 79.4117C102.501 79.4332 102.544 79.4547 102.565 79.4762C102.587 79.4977 102.608 79.4977 102.544 79.4762C102.565 79.4762 102.565 79.4977 102.587 79.4977C102.608 79.5192 102.63 79.5407 102.651 79.5622C102.694 79.6052 102.737 79.6482 102.78 79.6912L102.802 79.7127C102.823 79.7342 102.759 79.6482 102.78 79.6912C102.802 79.7127 102.802 79.7342 102.823 79.7557C102.845 79.7986 102.866 79.8416 102.909 79.8846C102.887 79.8416 102.952 79.9491 102.909 79.8846C102.909 79.9061 102.93 79.9276 102.93 79.9491C102.952 79.9921 102.952 80.0351 102.973 80.0996C102.973 80.0136 102.995 80.1641 102.973 80.0996C102.973 80.1211 102.973 80.1426 102.973 80.1641C102.973 80.207 102.973 80.25 102.973 80.3145C102.973 80.4005 102.995 80.25 102.973 80.3145C102.973 80.336 102.974 80.3575 102.952 80.379C102.952 80.422 102.93 80.465 102.909 80.5295C102.909 80.551 102.888 80.5725 102.888 80.5939C102.866 80.6369 102.931 80.5295 102.888 80.5939C102.866 80.6369 102.845 80.6799 102.823 80.7229C102.802 80.7659 102.78 80.8089 102.737 80.8519C102.716 80.8949 102.78 80.7874 102.737 80.8519C102.716 80.8734 102.694 80.8949 102.694 80.9164C102.673 80.9594 102.63 80.9809 102.608 81.0023C102.587 81.0238 102.587 81.0238 102.565 81.0453C102.501 81.1098 102.608 81.0238 102.565 81.0453C102.479 81.0883 102.415 81.1313 102.329 81.1743C102.286 81.1958 102.415 81.1528 102.329 81.1743C102.307 81.1743 102.286 81.1958 102.264 81.1958C102.221 81.2173 102.178 81.2173 102.114 81.2388H102.092C102.049 81.2603 102.157 81.2388 102.114 81.2388C102.092 81.2388 102.071 81.2388 102.028 81.2388C101.985 81.2388 101.92 81.2388 101.877 81.2388C101.813 81.2388 101.963 81.2603 101.877 81.2388C101.856 81.2388 101.834 81.2388 101.791 81.2173C101.77 81.2173 101.727 81.1958 101.705 81.1958C101.684 81.1958 101.684 81.1958 101.684 81.1743C101.619 81.1528 101.684 81.1958 101.705 81.1743C101.684 81.1743 101.576 81.1098 101.555 81.0883C101.533 81.0668 101.512 81.0453 101.469 81.0453C101.447 81.0238 101.447 81.0238 101.49 81.0668C101.49 81.0453 101.447 81.0453 101.447 81.0238C101.404 80.9809 101.34 80.9379 101.297 80.8734C101.275 80.8519 101.254 80.8304 101.232 80.7874C101.189 80.7229 101.211 80.7659 101.232 80.7874C101.211 80.7659 101.211 80.7444 101.189 80.7229C101.082 80.594 100.91 80.508 100.738 80.6154C100.588 80.7014 100.502 80.9164 100.609 81.0453ZM86.5085 42.935C86.5085 42.8921 86.487 42.8706 86.487 42.8276C86.5085 42.9136 86.487 42.8706 86.487 42.8491C86.487 42.8276 86.487 42.8276 86.487 42.8061C86.487 42.7846 86.487 42.7416 86.487 42.7201C86.487 42.6986 86.5085 42.6341 86.487 42.7416C86.487 42.7201 86.487 42.6986 86.487 42.6771C86.487 42.6556 86.5085 42.6126 86.5085 42.5911C86.5085 42.5696 86.573 42.4622 86.5085 42.5481C86.5515 42.4837 86.573 42.4192 86.616 42.3762L86.6374 42.3547C86.6589 42.3332 86.7019 42.3117 86.6374 42.3547C86.6589 42.3332 86.6804 42.3117 86.7019 42.2687C86.7234 42.2472 86.7449 42.2257 86.7664 42.2042C86.7879 42.1827 86.7879 42.1827 86.8094 42.1612C86.7664 42.1827 86.8739 42.0968 86.8094 42.1612C86.8524 42.1183 86.9169 42.0968 86.9598 42.0538C86.9813 42.0538 87.0028 42.0323 87.0028 42.0323C87.0028 42.0323 86.9169 42.0538 86.9814 42.0538C87.0243 42.0323 87.0458 42.0323 87.0888 42.0108C87.1103 42.0108 87.1533 41.9893 87.1748 41.9893C87.2393 41.9678 87.0888 41.9893 87.1533 41.9893C87.1748 41.9893 87.1963 41.9893 87.1963 41.9893C87.2178 41.9893 87.2608 41.9893 87.2823 41.9893C87.3038 41.9893 87.3252 41.9893 87.3252 41.9893C87.2608 41.9893 87.2608 41.9893 87.2823 41.9893C87.3038 41.9893 87.3037 41.9893 87.3252 41.9893C87.3037 41.9893 87.3038 41.9678 87.2823 41.9678C87.2823 41.9678 87.3038 41.9678 87.3038 41.9893C87.3253 41.9893 87.3253 42.0108 87.3468 42.0108C87.3683 42.0323 87.3897 42.0323 87.4327 42.0538C87.4757 42.0753 87.5402 42.1183 87.5832 42.1612C87.6047 42.1612 87.6047 42.1827 87.6262 42.1827C87.5402 42.1182 87.5832 42.1612 87.6047 42.1612C87.6262 42.1827 87.6477 42.1827 87.6477 42.2042C87.6907 42.2472 87.7122 42.2687 87.7551 42.3117L87.7767 42.3332C87.7122 42.2472 87.7336 42.2902 87.7551 42.3117C87.7766 42.3332 87.7767 42.3332 87.7982 42.3547C87.8197 42.3977 87.8411 42.4407 87.8626 42.4622C87.8841 42.5052 87.8197 42.3762 87.8411 42.4192C87.8411 42.4192 87.8411 42.4407 87.8626 42.4407C87.8626 42.4622 87.8841 42.4837 87.8841 42.4837C87.8841 42.5052 87.8842 42.5266 87.9056 42.5481C87.9056 42.5911 87.9056 42.6556 87.9056 42.5266C87.9056 42.5696 87.9056 42.5911 87.9056 42.6341C87.9056 42.6556 87.9056 42.6771 87.9056 42.6986V42.7201C87.9056 42.7846 87.9056 42.6771 87.9056 42.6771C87.8842 42.6986 87.8841 42.7631 87.8841 42.7846C87.8841 42.8276 87.8626 42.8706 87.8411 42.8921C87.8197 42.9351 87.8841 42.8061 87.8626 42.8491C87.8626 42.8491 87.8626 42.8706 87.8411 42.8706C87.8411 42.8921 87.8196 42.9136 87.8196 42.9136C87.7981 42.9565 87.7766 42.978 87.7551 43.021C87.7551 43.0425 87.7337 43.0425 87.7337 43.064C87.7552 43.021 87.7982 42.9565 87.7337 43.064C87.7122 43.0855 87.6692 43.1285 87.6477 43.15C87.6262 43.1715 87.5187 43.2575 87.6262 43.1715C87.5832 43.193 87.5617 43.2145 87.5187 43.236C87.4972 43.2575 87.4542 43.279 87.4113 43.279C87.3468 43.322 87.4757 43.2575 87.4327 43.279C87.4112 43.279 87.3898 43.3005 87.3683 43.3005C87.3253 43.322 87.3038 43.322 87.2608 43.322C87.2178 43.322 87.1533 43.322 87.2823 43.322C87.2608 43.322 87.2393 43.322 87.2178 43.322C87.1748 43.322 87.1318 43.322 87.0888 43.322C87.0673 43.322 87.0243 43.3005 87.1318 43.322H87.1103C87.0888 43.322 87.0674 43.322 87.0459 43.3005C87.0244 43.3005 87.0029 43.279 86.9814 43.279C86.9814 43.279 86.9598 43.279 86.9598 43.2575C86.8954 43.236 87.0243 43.3005 86.9814 43.279C86.9384 43.2575 86.8954 43.236 86.8524 43.2145C86.8309 43.193 86.8094 43.193 86.7879 43.1715C86.8953 43.236 86.8094 43.1715 86.7664 43.15C86.7234 43.107 86.6804 43.064 86.6374 43.021L86.616 42.9995C86.573 42.9351 86.659 43.0425 86.616 42.9995C86.5945 42.978 86.573 42.9351 86.5515 42.9136C86.5085 42.8491 86.487 42.7846 86.444 42.7201C86.358 42.5696 86.143 42.5052 85.9926 42.6126C85.8421 42.7201 85.7991 42.8921 85.8851 43.064C86.1215 43.5369 86.53 43.9238 87.0888 43.9453C87.4972 43.9668 87.9271 43.7519 88.185 43.4509C88.4645 43.107 88.6149 42.6556 88.4645 42.2257C88.3785 41.9893 88.2495 41.7743 88.0561 41.6239C87.9486 41.5379 87.8197 41.4519 87.6907 41.3659C87.6477 41.3444 87.6047 41.3229 87.5617 41.3014C87.4972 41.28 87.4327 41.2585 87.3468 41.2585C87.2823 41.2585 87.1963 41.2585 87.1318 41.2585C86.7879 41.3014 86.444 41.4734 86.2075 41.7313C85.9711 41.9893 85.8206 42.3332 85.8421 42.6986C85.8421 42.7846 85.8636 42.8921 85.8851 42.978C85.9281 43.15 86.1216 43.2575 86.272 43.193C86.444 43.279 86.5515 43.107 86.5085 42.935ZM0.89466 45.7724C1.30306 46.0088 1.79743 46.0733 2.22733 45.8583C2.54975 45.6864 2.78617 45.321 2.85066 44.9556C2.91514 44.5472 2.82918 44.1388 2.54975 43.8378C2.39929 43.6874 2.20581 43.5799 1.99086 43.5154C1.86189 43.4724 1.73297 43.4724 1.604 43.4509C1.43204 43.4509 1.28157 43.4939 1.10961 43.5584C0.464764 43.8593 0.163816 44.7836 0.550722 45.3855C0.636701 45.5359 0.851671 45.6004 1.00213 45.4929C1.1526 45.407 1.21708 45.2135 1.10961 45.0415C1.08811 45.02 1.08812 44.9986 1.06663 44.9771C1.04513 44.9341 1.06663 44.9986 1.06663 44.9986C1.06663 44.9986 1.04511 44.9771 1.04511 44.9556C1.04511 44.9341 1.0236 44.8911 1.0236 44.8696C1.0236 44.8481 1.0236 44.8481 1.0236 44.8266C1.0236 44.7836 1.0236 44.8911 1.0236 44.8481C1.0236 44.7836 1.0236 44.7406 1.0236 44.6761V44.6331C1.04509 44.6761 1.0021 44.6976 1.0236 44.6546C1.0236 44.6116 1.04511 44.5901 1.04511 44.5472C1.04511 44.5257 1.06663 44.5042 1.06663 44.4612L1.08809 44.4182C1.08809 44.4182 1.0666 44.4827 1.08809 44.4397C1.10959 44.3752 1.15261 44.3322 1.1741 44.2892L1.19557 44.2462C1.19557 44.2462 1.15261 44.3107 1.1741 44.2677C1.1956 44.2462 1.21705 44.2247 1.23855 44.2032C1.26004 44.1818 1.28155 44.1603 1.30304 44.1388C1.34603 44.0958 1.28158 44.1603 1.28158 44.1603C1.28158 44.1603 1.32456 44.1388 1.32456 44.1173C1.34605 44.0958 1.36756 44.0958 1.38905 44.0743C1.41055 44.0743 1.41054 44.0528 1.43203 44.0528C1.47502 44.0313 1.41051 44.0743 1.41051 44.0528C1.41051 44.0528 1.47503 44.0313 1.49653 44.0313C1.51802 44.0313 1.51801 44.0313 1.5395 44.0313C1.47502 44.0313 1.60399 44.0098 1.5395 44.0313C1.58249 44.0313 1.64697 44.0313 1.68996 44.0313C1.71145 44.0313 1.71144 44.0313 1.73294 44.0313C1.73294 44.0313 1.64697 44.0098 1.68996 44.0313C1.71145 44.0313 1.73296 44.0313 1.75445 44.0528C1.79744 44.0528 1.8404 44.0743 1.88339 44.0958C1.90488 44.0958 1.92639 44.1173 1.94788 44.1173C1.94788 44.1173 1.86192 44.0743 1.90491 44.0958C1.90491 44.0958 1.92642 44.0958 1.92642 44.1173C1.96941 44.1388 1.99091 44.1603 2.0339 44.1818C2.05539 44.1818 2.05538 44.2032 2.07687 44.2032C2.07687 44.2032 2.0124 44.1388 2.0339 44.1818L2.05536 44.2032C2.07685 44.2247 2.09836 44.2462 2.11985 44.2677C2.11985 44.2677 2.16284 44.3322 2.11985 44.2677C2.07686 44.2247 2.11987 44.2677 2.14137 44.2892C2.16286 44.3107 2.18435 44.3537 2.18435 44.3752C2.18435 44.3967 2.22734 44.4397 2.18435 44.3752C2.16285 44.3107 2.18435 44.3752 2.18435 44.3967C2.20584 44.4182 2.20581 44.4612 2.20581 44.5042C2.20581 44.5257 2.20581 44.5257 2.20581 44.5472C2.22731 44.6116 2.20581 44.4612 2.20581 44.5257C2.20581 44.5902 2.20581 44.6546 2.20581 44.7191C2.20581 44.7836 2.22731 44.6546 2.20581 44.6976C2.20581 44.7191 2.20581 44.7191 2.20581 44.7406C2.20581 44.7836 2.18435 44.8051 2.18435 44.8481C2.18435 44.8696 2.16286 44.9126 2.14137 44.9341C2.18436 44.8051 2.14135 44.9341 2.11985 44.9556C2.09836 44.9771 2.09837 45.02 2.07687 45.0415C2.07687 45.063 2.05536 45.063 2.05536 45.0845C2.07685 45.0415 2.11984 44.9986 2.05536 45.0845C2.03386 45.106 2.01236 45.1275 1.99086 45.149C1.96937 45.149 1.96938 45.1705 1.94788 45.1705C1.92639 45.192 1.99086 45.149 1.99086 45.149L1.9694 45.1705C1.94791 45.192 1.90488 45.2135 1.88339 45.235C1.8404 45.2565 1.79743 45.2565 1.90491 45.235C1.88341 45.235 1.86191 45.2565 1.84041 45.2565C1.79742 45.278 1.77593 45.278 1.73294 45.278C1.68995 45.2995 1.77592 45.278 1.77592 45.278C1.75442 45.278 1.75443 45.278 1.73294 45.278C1.71144 45.278 1.68994 45.278 1.66844 45.278C1.62545 45.278 1.58249 45.278 1.5395 45.278C1.561 45.278 1.64698 45.278 1.5395 45.278C1.51801 45.278 1.4965 45.278 1.47501 45.2565C1.43202 45.235 1.36755 45.2135 1.32456 45.2135C1.43203 45.235 1.32454 45.2135 1.30304 45.192C1.28155 45.1705 1.23858 45.1705 1.21708 45.149C1.06662 45.063 0.85165 45.106 0.76567 45.2565C0.701186 45.4929 0.744197 45.6864 0.89466 45.7724Z" fill="#1E2129"/>
<path d="M56.4801 42.2047C57.5118 41.1944 58.995 40.6786 60.4352 40.872C60.6071 40.8935 60.7576 41.001 60.7576 41.1944C60.7576 41.3449 60.6071 41.5383 60.4352 41.5168C59.167 41.3449 57.8558 41.7748 56.9315 42.6776C56.6521 42.957 56.2007 42.5056 56.4801 42.2047ZM50.1177 46.5251L50.0962 46.5036C50.0962 46.5036 50.0962 46.5251 50.1177 46.5251ZM48.0541 33.8002C48.1401 33.9507 48.3551 34.0152 48.5056 33.9077C48.656 33.8002 48.699 33.6283 48.613 33.4563C48.4626 33.1769 48.3121 32.8974 48.1616 32.618C48.0756 32.4675 47.8607 32.4031 47.7103 32.5105C47.5598 32.618 47.5168 32.79 47.6028 32.9619C47.7533 33.2413 47.9037 33.5208 48.0541 33.8002ZM47.7747 47.9223C47.7747 47.9438 47.7747 47.9438 47.7747 47.9223C47.7747 47.9438 47.7747 47.9438 47.7747 47.9223C47.7747 47.9438 47.7747 47.9223 47.7747 47.9223ZM47.7747 47.9223C47.7747 47.9438 47.7747 47.9438 47.7747 47.9223V47.9223ZM54.4596 94.2651C54.4811 94.2651 54.4811 94.2651 54.4596 94.2651C54.4596 94.2651 54.4811 94.2651 54.4596 94.2651ZM51.4719 63.6135C51.6438 64.3013 51.4073 65.0322 50.8485 65.4621C50.2036 65.935 49.2149 65.8705 48.6345 65.3116C48.0971 64.8172 47.9682 63.9789 48.2261 63.3126C48.5055 62.5388 49.1934 62.0659 50.0102 62.0874C50.2251 62.0874 50.3326 62.2808 50.3111 62.4528C50.4831 62.4958 50.655 62.5603 50.827 62.6677C51.1494 62.8827 51.3644 63.2266 51.4719 63.6135ZM50.2896 65.0322C50.2896 65.0322 50.3326 65.0107 50.2896 65.0322V65.0322ZM50.87 64.1079C50.87 64.0434 50.87 63.9789 50.87 63.9359C50.87 63.9144 50.87 63.9144 50.87 63.9144V63.8929C50.87 63.8714 50.8485 63.8285 50.8485 63.807C50.827 63.7425 50.8055 63.678 50.784 63.635C50.784 63.6135 50.7625 63.6135 50.7625 63.592C50.741 63.5705 50.741 63.5275 50.7195 63.506C50.698 63.4845 50.698 63.4631 50.6765 63.4416L50.655 63.4201C50.612 63.3771 50.5691 63.3126 50.5046 63.2696L50.4831 63.2481C50.4616 63.2266 50.4401 63.2266 50.4186 63.2051C50.3971 63.1836 50.3541 63.1621 50.3111 63.1621C50.2896 63.1621 50.2896 63.1621 50.2681 63.1406C50.2036 63.1191 50.1392 63.0976 50.0532 63.0976C50.0317 63.0976 50.0317 63.0976 50.0102 63.0976C49.9672 63.0976 49.9242 63.0976 49.8812 63.0976C49.8382 63.0976 49.7953 63.0976 49.7523 63.0976C49.7308 63.0976 49.6233 63.1191 49.6663 63.0976C49.5158 63.1191 49.3653 63.0546 49.3009 62.9257C49.2579 62.9472 49.2364 62.9687 49.1934 62.9902C49.1934 62.9902 49.1934 62.9902 49.1719 62.9902L49.1504 63.0117C49.0859 63.0546 49.0429 63.1191 48.9784 63.1836C48.9784 63.2051 48.9569 63.2051 48.9569 63.2266C48.9354 63.2696 48.914 63.2911 48.8925 63.3341C48.871 63.3556 48.8494 63.3986 48.8494 63.4201L48.828 63.463V63.4845C48.8065 63.549 48.785 63.635 48.7635 63.6995C48.7635 63.7425 48.742 63.764 48.742 63.807C48.742 63.8285 48.742 63.8285 48.742 63.85C48.742 63.9144 48.742 63.9789 48.742 64.0649C48.742 64.1079 48.742 64.1509 48.742 64.1724V64.1939C48.742 64.1939 48.742 64.1939 48.742 64.2154C48.7635 64.2798 48.7635 64.3443 48.785 64.4088C48.8065 64.4518 48.8065 64.4733 48.828 64.5163C48.828 64.5378 48.8494 64.5378 48.8494 64.5593C48.8709 64.6238 48.9139 64.6668 48.9569 64.7312L48.9784 64.7742C48.9999 64.7957 49.0214 64.8172 49.0429 64.8602C49.0644 64.8817 49.0859 64.9032 49.1289 64.9247L49.1504 64.9462C49.1504 64.9462 49.1504 64.9462 49.1719 64.9462C49.2364 64.9892 49.3009 65.0322 49.3653 65.0537C49.3868 65.0537 49.4083 65.0752 49.4083 65.0752C49.4513 65.0966 49.4943 65.0967 49.5158 65.1181C49.5588 65.1396 49.6018 65.1396 49.6448 65.1396H49.6663C49.6878 65.1396 49.7092 65.1396 49.7092 65.1396C49.7952 65.1396 49.8597 65.1396 49.9457 65.1396C49.9457 65.1396 49.9457 65.1396 49.9672 65.1396C49.9887 65.1396 50.0102 65.1396 50.0317 65.1181C50.0746 65.1181 50.0961 65.0966 50.1391 65.0966C50.1821 65.0966 50.2036 65.0752 50.2466 65.0537C50.2681 65.0537 50.2681 65.0322 50.2896 65.0322C50.3541 65.0107 50.3971 64.9677 50.4401 64.9462C50.4616 64.9462 50.4831 64.9247 50.4831 64.9032C50.5046 64.8817 50.5261 64.8602 50.5476 64.8387C50.5691 64.8172 50.5906 64.7957 50.6121 64.7742L50.6335 64.7527C50.6765 64.6882 50.698 64.6453 50.7195 64.5808C50.7195 64.5808 50.7195 64.5593 50.741 64.5593C50.741 64.5593 50.741 64.5593 50.741 64.5378C50.741 64.5163 50.7625 64.4733 50.7625 64.4518C50.784 64.3873 50.784 64.3443 50.8055 64.2799C50.8055 64.2584 50.8055 64.2584 50.8055 64.2584C50.8055 64.2584 50.8055 64.2584 50.8055 64.2369C50.87 64.1724 50.87 64.1294 50.87 64.1079ZM63.2725 69.761C63.4229 70.5778 62.7566 71.1367 62.0687 71.4376C62.3697 71.889 62.5846 72.3834 62.6061 72.9208C62.6276 73.2862 62.4987 73.6946 62.1977 73.931C61.9183 74.1675 61.5314 74.2319 61.1875 74.1245C60.4137 73.888 60.1128 73.0712 60.0698 72.2974C59.8548 72.4049 59.5969 72.4479 59.3389 72.4264C58.5436 72.3834 57.7483 71.7385 57.8343 70.8788C57.8988 70.3629 58.1997 69.933 58.7156 69.7825C59.038 69.6965 59.3604 69.718 59.6399 69.8685C59.5109 69.3956 59.4679 68.9012 59.6613 68.4498C59.9623 67.762 60.8436 67.6115 61.4024 68.1059C61.6604 68.3424 61.7678 68.6218 61.7678 68.9012C62.4342 68.7293 63.1435 69.0517 63.2725 69.761ZM62.3697 69.5246C62.3482 69.5246 62.3697 69.5246 62.3697 69.5246V69.5246ZM60.2632 68.7508C60.2847 68.7293 60.2847 68.7293 60.2632 68.7508V68.7508ZM61.5744 73.5441C61.6174 73.5441 61.6174 73.5441 61.5744 73.5441V73.5441ZM61.8538 73.3936C61.8323 73.4151 61.8323 73.4151 61.8538 73.3936V73.3936ZM62.6492 70.019C62.6492 69.9975 62.6492 69.9545 62.6492 69.933C62.6492 69.933 62.6492 69.933 62.6492 69.9115C62.6492 69.89 62.6276 69.8685 62.6276 69.8255L62.6061 69.7825C62.6061 69.761 62.5847 69.7395 62.5847 69.7395C62.5632 69.718 62.5632 69.6965 62.5417 69.675C62.5632 69.6965 62.5631 69.6965 62.5202 69.6536C62.4987 69.6321 62.4772 69.6106 62.4557 69.5891C62.4342 69.5676 62.4127 69.5676 62.3912 69.5461C62.3912 69.5461 62.3912 69.5461 62.3697 69.5461C62.3482 69.5461 62.3052 69.5246 62.2837 69.5246C62.2622 69.5246 62.2407 69.5246 62.2407 69.5246C62.2192 69.5246 62.1977 69.5246 62.1762 69.5246C62.1762 69.5246 62.1333 69.5246 62.1118 69.5246C62.0903 69.5246 62.0473 69.5246 62.0473 69.5461C62.0258 69.5461 61.9828 69.5676 61.9613 69.5676C61.9613 69.5676 61.9398 69.5676 61.9398 69.5891C61.9183 69.6106 61.8753 69.6321 61.8538 69.6321C61.8323 69.6321 61.7678 69.6965 61.7678 69.6965C61.7463 69.718 61.7034 69.7395 61.6819 69.761C61.6389 69.7825 61.6174 69.8255 61.5959 69.8685C61.4669 70.1479 61.2734 70.4059 61.1015 70.6208C60.994 70.7498 60.8006 70.7283 60.6716 70.6423C60.5426 70.5348 60.5211 70.3629 60.5856 70.2339C60.7146 69.976 60.8651 69.6965 61.08 69.4601C61.1015 69.4386 61.1015 69.3956 61.1015 69.3956C61.123 69.3526 61.123 69.2881 61.1445 69.2452C61.1445 69.2237 61.1445 69.2022 61.166 69.1807C61.166 69.1377 61.166 69.0947 61.166 69.0517C61.166 69.0087 61.1445 68.9012 61.166 68.9872C61.166 68.9657 61.1445 68.9227 61.1445 68.9012C61.1445 68.8797 61.123 68.8582 61.123 68.8153C61.123 68.8153 61.123 68.7938 61.1015 68.7938C61.08 68.7723 61.0585 68.7293 61.0585 68.7078L61.037 68.6863C61.0155 68.6648 60.994 68.6433 60.9725 68.6218C60.951 68.6003 60.908 68.5788 60.8865 68.5788H60.8651C60.8221 68.5788 60.7791 68.5573 60.7361 68.5358H60.7146C60.6931 68.5358 60.6716 68.5358 60.6286 68.5358C60.6071 68.5358 60.5856 68.5573 60.5426 68.5573H60.5211C60.4996 68.5788 60.4781 68.5788 60.4566 68.6003C60.4566 68.6003 60.4567 68.6003 60.4352 68.6218C60.4137 68.6433 60.3922 68.6648 60.3707 68.6863L60.3492 68.7078C60.3492 68.7078 60.3492 68.6863 60.3707 68.6863L60.3492 68.7078C60.3492 68.7078 60.3492 68.7078 60.3492 68.6863V68.7078C60.3277 68.7293 60.3277 68.7508 60.3062 68.7723C60.3062 68.7723 60.2847 68.7938 60.2847 68.8153C60.2632 68.8582 60.2632 68.8797 60.2417 68.9227C60.2417 68.9442 60.2202 68.9872 60.2202 69.0087C60.2202 69.0302 60.2202 69.0732 60.2202 69.0947C60.2202 69.2022 60.2202 69.2881 60.2202 69.3956C60.2202 69.4171 60.2202 69.4171 60.2202 69.4171C60.2202 69.4171 60.2202 69.4171 60.2202 69.4386C60.2202 69.4601 60.2202 69.5031 60.2417 69.5246C60.2632 69.5891 60.2632 69.6321 60.2847 69.6965C60.3277 69.8255 60.3707 69.9545 60.4137 70.0834C60.4781 70.2554 60.3492 70.4274 60.1987 70.4704C60.1772 70.4704 60.1557 70.4704 60.1342 70.4704C60.1127 70.5563 60.0482 70.6208 59.9838 70.6638C59.8118 70.7498 59.6399 70.6853 59.5324 70.5563C59.3819 70.3414 58.995 70.3629 58.7586 70.5133C58.6511 70.5778 58.5866 70.6638 58.5436 70.7928C58.5221 70.8358 58.5221 70.8788 58.5221 70.9217C58.5006 70.9862 58.5221 70.9217 58.5221 70.9647C58.5221 71.0077 58.5221 71.0292 58.5221 71.0722C58.5221 71.0937 58.5221 71.1152 58.5221 71.1152C58.5221 71.1582 58.5436 71.1797 58.5436 71.2227L58.5651 71.2657C58.5866 71.3301 58.6296 71.3731 58.6511 71.4376C58.6511 71.4591 58.6726 71.4591 58.6726 71.4806C58.6941 71.5021 58.7156 71.5236 58.7371 71.5451C58.78 71.5881 58.78 71.5881 58.8445 71.6311C59.0595 71.7815 59.2744 71.8245 59.5539 71.803C59.5969 71.803 59.5539 71.803 59.6184 71.803C59.6614 71.803 59.7043 71.7815 59.7258 71.7815C59.8118 71.76 59.8118 71.76 59.8763 71.7171C60.0053 71.6526 60.0912 71.5881 60.1987 71.4591C60.3707 71.2442 60.7791 71.4161 60.7576 71.6956C60.7361 71.975 60.7146 72.3404 60.7576 72.5554C60.7791 72.6843 60.8006 72.7918 60.8436 72.9208C60.8436 72.9423 60.865 72.9852 60.8865 73.0067C60.908 73.0497 60.9295 73.0927 60.951 73.1357C60.9725 73.1787 60.994 73.2217 61.037 73.2647C61.037 73.2862 61.0585 73.2862 61.0585 73.2862C61.0585 73.2862 61.0585 73.2862 61.08 73.3077C61.123 73.3507 61.166 73.3937 61.209 73.4366C61.2304 73.4581 61.252 73.4796 61.2734 73.4796C61.2949 73.5011 61.338 73.5011 61.3595 73.5226H61.3809C61.4024 73.5226 61.4454 73.5441 61.4669 73.5441H61.4884C61.4884 73.5441 61.4884 73.5441 61.5099 73.5441C61.5314 73.5441 61.5744 73.5441 61.5959 73.5441H61.6174C61.6389 73.5441 61.6819 73.5226 61.7033 73.5226H61.7249C61.7464 73.5011 61.7678 73.5011 61.8108 73.4796C61.8108 73.4796 61.8323 73.4796 61.8323 73.4581C61.8538 73.4366 61.8753 73.4151 61.8968 73.3936L61.9183 73.3722C61.9183 73.3722 61.9183 73.3722 61.9183 73.3507C61.9398 73.3292 61.9398 73.3077 61.9613 73.2647C61.9613 73.2647 61.9613 73.2647 61.9613 73.2432C61.9613 73.2432 61.9613 73.2432 61.9613 73.2217C61.9613 73.2002 61.9828 73.1572 61.9828 73.1357C61.9828 73.1142 62.0043 73.0282 62.0043 73.0497C62.0043 73.0282 62.0043 72.9852 62.0043 72.9637C62.0043 72.9208 62.0043 72.8778 62.0043 72.8348C62.0043 72.8133 62.0043 72.7918 62.0043 72.7703C61.9183 72.2544 61.6604 71.8245 61.3379 71.3946C61.209 71.2227 61.3594 70.9647 61.5314 70.9217C61.7893 70.8573 62.0043 70.7713 62.2193 70.6208C62.3267 70.5563 62.3267 70.5348 62.4127 70.4704C62.4342 70.4489 62.4771 70.4059 62.4986 70.3844L62.5202 70.3629L62.5417 70.3414C62.5632 70.2984 62.5846 70.2769 62.6061 70.2339L62.6276 70.1909C62.6491 70.1479 62.6491 70.0834 62.6706 70.0405C62.6491 70.0405 62.6492 70.019 62.6492 70.019ZM61.9613 72.8133C61.9613 72.8348 61.9613 72.8563 61.9613 72.8133V72.8133ZM91.2587 91.5782C91.1297 93.3408 90.6784 95.1679 89.5606 96.5865C89.1307 97.1239 88.5719 97.6398 87.927 97.9192C87.3681 98.1771 86.7448 98.2846 86.1429 98.3921C84.0364 98.779 81.887 98.994 79.7375 99.1874C77.4806 99.3809 75.2236 99.5528 72.9451 99.6173C70.6022 99.6818 68.2593 99.4669 65.9593 99.0584C63.4874 98.6285 61.037 97.9837 58.6511 97.1669C57.7268 96.8445 56.8026 96.4791 55.9213 96.0492C55.3839 95.7912 54.8465 95.5118 54.3736 95.1249C54.1802 97.4248 52.3101 99.3164 49.9027 99.3164H49.8812H14.1353C12.1363 99.3164 10.4383 98.0052 9.85789 96.1781H8.91214C7.90189 96.1781 6.99909 95.4043 6.69817 94.2651L0.851591 73.1142C0.357211 71.3301 1.4749 69.5031 3.06551 69.5031H27.8705C28.8163 67.891 29.9126 66.3648 31.0948 64.9247C32.9218 62.7107 35.0283 60.7332 37.3497 59.0566C38.403 58.2828 39.5207 57.5735 40.66 56.9501C40.6814 56.1548 40.7244 55.338 40.7459 54.5427C40.8534 52.0493 40.9609 49.5559 41.0899 47.0625C41.1543 45.8158 41.1973 44.5906 41.2618 43.3439C40.66 43.1075 40.0581 42.871 39.4562 42.6346C37.4787 41.8823 35.5227 41.1084 33.5452 40.3346C33.2657 40.2272 33.2442 39.9262 33.4592 39.7543C33.6526 39.6038 33.8461 39.4533 34.0395 39.2814C36.146 37.4758 37.9301 35.3049 39.7786 33.2628C41.3908 31.5003 43.0459 29.7162 44.9159 28.1901C45.3028 25.4172 50.0962 21.6342 53.1699 23.8696C61.4239 20.7314 67.8724 31.1564 64.8201 37.9917C64.3687 39.1309 63.8098 40.2272 63.165 41.2804C63.5734 42.4841 63.4659 43.8813 62.4557 45.128C64.0893 47.4924 67.5714 48.3522 70.0863 46.7616C70.4302 46.5466 70.9461 46.3532 71.1611 46.6756C70.1293 50.3512 65.7874 52.9091 62.1332 53.6614C62.3052 54.1558 62.4772 54.6502 62.6492 55.1446C62.7566 55.1875 62.8426 55.209 62.9501 55.252C65.9593 56.4772 68.6892 58.2183 71.2256 60.2388C73.7189 62.2378 76.0404 64.4303 78.2543 66.7303C80.3823 68.9442 82.4029 71.2872 84.2514 73.7591C85.1542 74.8123 86.014 75.93 86.7878 77.0908C88.3354 79.4337 89.5606 82.0131 90.3559 84.6999C91.0438 86.9139 91.4307 89.2568 91.2587 91.5782ZM46.5065 26.9434C47.1729 26.4705 47.8607 26.0406 48.613 25.6967C47.8392 25.9761 47.1084 26.406 46.5065 26.9434ZM41.6917 42.7635C41.8207 42.8065 41.9281 42.914 41.9281 43.0645C41.9066 43.5374 41.8851 44.0102 41.8636 44.4831C41.7562 46.7401 41.6487 48.9755 41.5627 51.2325C41.4767 53.382 41.3693 55.5315 41.3048 57.6809C42.702 58.1753 44.1421 58.5622 45.6038 58.8202C51.2999 59.8304 57.2969 58.9706 62.4772 56.3913C62.1763 55.553 61.8753 54.7147 61.5959 53.8764C60.7576 51.4689 59.9838 49.04 59.2314 46.6111H59.21C58.3287 46.6111 57.4689 46.3532 56.7595 45.8373C56.6091 45.7298 56.5876 45.5364 56.695 45.3859C56.8025 45.2355 56.996 45.214 57.1465 45.3214C58.5006 46.3317 60.6501 46.1382 61.8323 44.913C63.2725 43.3869 62.9501 41.4739 62.0043 40.2701C61.037 39.0664 59.2529 38.3141 57.4474 39.3674C57.2969 39.4533 57.1034 39.4104 57.0175 39.2599C56.9315 39.1094 56.9745 38.916 57.1249 38.8085C57.2969 38.701 57.4689 38.615 57.6409 38.5506C57.4474 37.4758 57.2754 36.4011 57.1035 35.3263C50.8055 35.4553 47.5383 31.5433 50.1822 25.7397C48.5486 26.277 47.0654 27.2873 45.7542 28.319C43.3898 30.2321 41.3478 32.489 39.3273 34.746C37.7367 36.5086 36.1675 38.3786 34.319 39.8832C34.362 39.9047 34.4265 39.9262 34.4694 39.9477C36.8554 40.8935 39.2843 41.8393 41.6917 42.7635ZM38.36 95.5118C38.8329 95.5118 39.2628 95.2754 39.5852 94.8455C40.0151 94.2651 40.1656 93.4483 39.9721 92.696L34.1255 71.5451C33.8891 70.6853 33.2442 70.1049 32.5349 70.1049H3.08703C2.61414 70.1049 2.18426 70.3414 1.86184 70.7713C1.43194 71.3516 1.28147 72.1684 1.47492 72.9208L7.3215 94.0716C7.55794 94.9314 8.20281 95.5118 8.91214 95.5118H38.36ZM37.9731 80.143C37.8656 80.143 37.7582 80.1645 37.6507 80.143C37.3498 80.1 37.1563 79.9711 37.0273 79.7991L39.0049 86.9784C39.3273 86.8924 39.6282 86.8064 39.9506 86.7204C39.8646 86.57 39.8216 86.3765 39.8216 86.1831C39.7786 85.1943 40.8319 84.6569 41.6917 84.5924C42.2936 84.5494 42.9169 84.6784 43.5188 84.4635C43.7767 84.3775 43.9916 84.2055 44.0346 83.9261C44.0776 83.7326 44.0776 83.5392 44.0346 83.3457C43.8842 82.6579 43.0029 82.5074 42.3795 82.443C41.5197 82.357 40.617 82.4215 39.7572 82.2495C38.7899 82.0561 37.8871 81.1533 37.9731 80.143ZM39.1983 87.5802L40.5739 92.5455C40.6384 92.8035 40.6814 93.0614 40.6814 93.2978C45.4103 93.2978 49.4298 93.2978 51.6223 93.2978C50.698 92.782 49.8597 92.0726 49.2579 91.1913C48.4411 90.0306 47.9682 88.526 46.5925 87.9026C45.2383 87.3008 43.6907 87.6877 42.2721 87.6662C41.7132 87.6662 41.0039 87.5587 40.488 87.2148C40.0581 87.3438 39.6282 87.4512 39.1983 87.5802ZM53.7288 94.3726V94.3511V94.3296C53.7288 94.2221 53.6858 94.1361 53.6213 94.0716C53.4709 94.0287 53.3204 94.0072 53.1699 93.9642C52.1597 93.9642 47.0224 93.9642 40.6384 93.9642C40.4235 95.1894 39.5207 96.1781 38.3385 96.1781H10.5243C11.0831 97.6398 12.4803 98.6715 14.1139 98.6715H49.8597H49.8812C50.9559 98.6715 51.9447 98.2416 52.6755 97.4463C53.4493 96.608 53.8148 95.4903 53.7288 94.3726ZM54.7605 92.9754C55.1689 92.438 55.5129 91.8577 55.8138 91.2773C56.4156 90.0951 56.8455 88.7839 56.9745 87.4727C57.0175 86.8924 57.039 86.312 56.91 85.7317C56.867 85.5382 56.824 85.3448 56.7595 85.1298C56.2007 84.3345 55.6203 83.5822 54.997 82.8729C53.5783 81.2178 52.0092 79.6486 50.2681 78.3374C48.6775 77.1337 46.8934 76.059 44.9589 75.5861C43.2608 75.1777 41.4982 75.3712 40.0581 76.3814C39.9076 76.4889 39.7357 76.6179 39.5852 76.7468C41.8207 76.102 44.2281 76.274 46.3561 77.2627C46.743 77.4347 46.3991 77.9935 46.0337 77.8216C43.7767 76.7683 41.0469 76.7253 38.7684 77.7356C38.6824 77.7786 38.6179 77.7786 38.5535 77.7571C38.489 77.7786 38.4245 77.8216 38.36 77.8431C38.1666 77.972 37.9731 78.1225 37.8441 78.316C37.6507 78.5954 37.4572 79.0038 37.5647 79.3262C37.5862 79.4122 37.6507 79.4982 37.7366 79.5197C37.9301 79.5841 38.1235 79.5197 38.317 79.4552C38.3385 79.4552 38.3385 79.4552 38.36 79.4552C40.2516 77.1552 43.5188 78.4019 45.5393 79.7991C45.8832 80.0355 45.5608 80.5944 45.2168 80.358C43.4328 79.1328 40.488 77.8431 38.8114 79.9066C38.7899 79.9496 38.7469 79.9711 38.7254 79.9711C38.7254 79.9711 38.7254 79.9711 38.7254 79.9925C38.446 80.6374 39.0693 81.3252 39.6282 81.5617C39.9936 81.7121 40.4235 81.7121 40.8319 81.7336C41.7562 81.7766 42.7664 81.7336 43.6477 82.056C44.443 82.357 44.8729 83.0018 44.7869 83.8616C44.744 84.1625 44.701 84.4205 44.4645 84.6569C44.2711 84.8719 44.0346 85.0008 43.7767 85.0868C43.1963 85.2803 42.573 85.2588 41.9711 85.2373C41.5412 85.2373 41.0684 85.3233 40.7674 85.6457C40.574 85.8606 40.488 86.1401 40.5955 86.3765C40.7674 86.7849 41.2833 86.9569 41.6917 86.9999C42.3796 87.1073 43.1103 87.0214 43.7982 86.9784C45.2168 86.8924 46.6785 86.9569 47.8177 87.9241C48.871 88.8269 49.2794 90.2241 50.1606 91.2558C50.9775 92.2446 52.0952 92.9324 53.3204 93.2978C53.3849 93.2978 53.4064 93.2978 53.4064 93.2978C53.5998 93.2978 53.7933 93.3623 53.9438 93.4483C54.0727 93.4698 54.2016 93.4913 54.3306 93.5128C54.4596 93.3623 54.6101 93.1689 54.7605 92.9754ZM90.5064 88.2895C90.184 85.8391 89.4317 83.4317 88.3784 81.1963C87.1532 78.5524 85.5411 76.1235 83.6066 73.931C83.5206 73.8235 83.4991 73.7161 83.5421 73.6086L83.3271 73.5441C82.8328 72.8778 82.3169 72.2329 81.7795 71.6096C79.5871 68.9442 77.1796 66.4078 74.6647 64.0434C72.5797 62.1089 70.4087 60.2388 68.0443 58.6482C66.4322 57.5735 64.7341 56.6492 62.9501 55.9184C63.0145 56.1118 63.079 56.3053 63.1435 56.4987C63.1865 56.6277 63.1435 56.7352 63.079 56.7997C63.1005 56.8641 63.122 56.9286 63.1005 56.9931C62.8641 58.1538 62.3267 59.2071 61.5744 60.1099C60.2632 61.636 58.3501 62.5818 56.3726 62.7967C54.3306 63.0117 52.2671 62.3883 50.741 61.0126C50.4401 60.7332 50.8915 60.2818 51.1924 60.5612C51.9877 61.2706 52.9335 61.765 53.9652 62.0229C57.5334 62.8827 61.4884 60.7117 62.4127 57.1436C61.1015 57.7884 59.7258 58.3043 58.3072 58.7342C52.568 60.4323 46.2701 60.2603 40.6384 58.1753C40.4665 58.1108 40.402 57.9604 40.4235 57.8099C38.403 58.9921 36.5114 60.3893 34.7919 61.9584C32.7499 63.8285 30.9443 65.9349 29.3966 68.2134C29.1172 68.6433 28.8378 69.0732 28.5799 69.5031H32.449C33.4592 69.5031 34.3619 70.2769 34.6629 71.4161L36.7909 79.1542C36.7909 78.7673 36.9413 78.3375 37.1348 78.0365C37.3067 77.8001 37.5002 77.6066 37.7152 77.4347C37.8227 77.3487 37.9516 77.2842 38.0806 77.2197C38.1021 77.1982 38.145 77.1982 38.1665 77.1767C38.188 77.1767 38.2311 77.1337 38.2525 77.1337C38.274 77.1122 38.317 77.0478 38.3385 77.0263C38.6824 76.6179 39.0908 76.2525 39.5207 75.93C41.0898 74.7693 43.0674 74.5329 44.9374 74.9628C47.0439 75.4356 48.9784 76.6179 50.6765 77.9076C52.5251 79.3262 54.2017 80.9813 55.6848 82.7869C56.0287 83.1953 56.3726 83.6252 56.695 84.0766C56.867 83.5607 57.3184 83.1953 57.7698 82.8944C58.4146 82.486 59.0595 82.1205 59.8333 81.9701C61.3379 81.6906 62.8426 82.1205 64.3257 82.4C64.4332 82.4215 64.5192 82.443 64.6267 82.4645C64.6697 82.4645 64.7126 82.4859 64.7556 82.4859C64.7986 82.4859 64.8631 82.4645 64.9061 82.4645C65.0566 82.4215 65.1855 82.4 65.3145 82.357C65.6369 82.2495 65.9808 82.142 66.3033 82.0131C67.1201 81.7121 67.9368 81.3682 68.7321 81.0243C70.5592 80.272 72.4078 79.4982 74.3423 79.0038C74.9657 78.8533 75.6535 78.7029 76.3413 78.6384C76.2768 78.5094 76.1909 78.4019 76.1264 78.2945C76.0619 78.2085 75.9974 78.1225 75.8899 78.0365C75.8684 78.015 75.8684 78.015 75.8899 78.0365C75.8684 78.015 75.8469 77.9935 75.804 77.972C75.761 77.929 75.718 77.8646 75.675 77.8001C75.6105 77.7141 75.546 77.6281 75.4815 77.5636C74.9227 76.9188 74.2348 76.4459 73.461 76.0805C72.2358 75.5216 70.7312 75.3497 69.7209 74.4039C68.2808 73.0712 68.8826 70.6423 69.3125 69.0302C69.42 68.6218 70.0433 68.7938 69.9359 69.2022C69.6564 70.2339 69.3985 71.3516 69.506 72.4264C69.5705 73.0712 69.7854 73.6086 70.2368 74.017C70.6452 74.3824 71.2471 74.5974 71.7844 74.7908C73.2676 75.3067 74.7292 75.8011 75.8254 77.0048C75.9114 77.0908 75.9759 77.1767 76.0619 77.2842C76.1264 77.3702 76.2553 77.4777 76.2768 77.5851C76.2983 77.5851 76.2983 77.6066 76.3198 77.6066C76.3413 77.6281 76.3628 77.6496 76.3843 77.6496C76.4273 77.6926 76.4703 77.7356 76.5133 77.7786C76.7282 78.0365 76.9002 78.3374 77.0721 78.6384V78.6599C77.76 78.6814 78.4478 78.8318 79.0282 79.1757C79.673 79.5627 80.1029 80.2075 80.3179 80.9168C80.3824 81.1103 80.4253 81.3252 80.4468 81.5402C80.4683 81.7121 80.4898 81.8196 80.4038 81.9701C80.3608 82.056 80.2963 82.1635 80.2319 82.2495C80.0169 82.5289 79.759 82.7869 79.3936 82.8299C78.6842 82.9158 78.1898 82.185 77.8674 81.6691C77.3945 80.9168 77.0507 80.1 76.6637 79.3047C76.5348 79.3047 76.4058 79.3047 76.2983 79.3262C74.4928 79.4767 72.7087 80.1215 71.0321 80.7879C69.3985 81.4327 67.8079 82.1635 66.1528 82.7654C65.8518 82.8729 65.5724 82.9803 65.25 83.0448C65.121 83.0878 64.9921 83.1093 64.8846 83.1308C64.5837 83.1953 64.2183 83.0663 63.9388 83.0018C62.5202 82.7224 61.0155 82.2925 59.5754 82.7009C58.9305 82.8943 58.2857 83.2598 57.7698 83.6897C57.4044 83.9906 57.211 84.3345 57.2754 84.8074C57.3184 85.0868 57.4259 85.3662 57.4689 85.6242C57.5334 85.9036 57.5549 86.1831 57.5764 86.4625C57.5979 87.0643 57.5548 87.6877 57.4474 88.2895C57.2109 89.5577 56.7596 90.8044 56.1362 91.9437C55.8353 92.5025 55.4914 93.0184 55.1045 93.5128C54.911 93.7492 54.7175 93.9857 54.5026 94.1791C54.3951 94.2651 54.5026 94.1791 54.4381 94.2436C54.4381 94.2436 54.4381 94.2436 54.4166 94.2436V94.2651C54.4381 94.2866 54.4381 94.3081 54.4596 94.3511C54.4596 94.3726 54.4811 94.3726 54.4811 94.3941C54.4811 94.3941 54.4811 94.3941 54.5026 94.4156C54.5241 94.4585 54.5671 94.48 54.6101 94.523C54.653 94.566 54.6961 94.609 54.7391 94.6305C54.782 94.6735 54.825 94.695 54.8465 94.7165C55.4054 95.1249 56.0502 95.4473 56.695 95.7267C58.6726 96.608 60.8006 97.2314 62.9071 97.7473C65.336 98.3491 67.8079 98.8005 70.3013 98.951C72.3003 99.0584 74.3423 98.9295 76.3413 98.8005C78.6198 98.65 80.8982 98.4566 83.1767 98.1772C84.0795 98.0697 85.0037 97.9407 85.9065 97.7688C86.2504 97.7043 86.5944 97.6398 86.9383 97.5538C87.0672 97.5108 87.1962 97.4893 87.3251 97.4463C87.3896 97.4248 87.4326 97.4033 87.4971 97.3818C87.5186 97.3818 87.5831 97.3389 87.6046 97.3389C88.8943 96.7585 89.7111 95.3828 90.1195 94.0931C90.7428 92.2446 90.7428 90.2241 90.5064 88.2895ZM64.7771 82.4645H64.7986C64.7556 82.4645 64.7341 82.4645 64.7771 82.4645ZM79.888 81.6262C79.888 81.6047 79.888 81.6047 79.888 81.5832C79.8665 81.4972 79.845 81.3897 79.8235 81.2822C79.7805 81.1103 79.7375 80.9168 79.6515 80.7449C79.2431 79.7776 78.4048 79.3907 77.459 79.2832C77.717 79.8206 77.9749 80.358 78.2543 80.8738C78.4263 81.1963 78.5983 81.4972 78.8347 81.7766C78.9207 81.8841 79.0282 81.9916 79.1141 82.0346C79.1356 82.0561 79.1786 82.0775 79.2001 82.0775C79.2431 82.099 79.2216 82.0775 79.2216 82.099C79.2431 82.099 79.2646 82.1205 79.3076 82.1205C79.3076 82.1205 79.3076 82.1205 79.3291 82.1205C79.3506 82.1205 79.3721 82.1205 79.3721 82.1205C79.3936 82.1205 79.4151 82.1205 79.4366 82.099C79.4366 82.099 79.4795 82.0775 79.544 82.0346C79.6085 81.9916 79.7375 81.8196 79.8235 81.7121C79.845 81.7121 79.8665 81.6691 79.888 81.6262ZM79.888 81.6262C79.888 81.6691 79.9095 81.6691 79.888 81.6262V81.6262ZM22.1959 81.1748C22.7333 82.0561 22.8407 83.2812 22.3034 84.2055C21.766 85.1728 20.5193 85.6457 19.509 85.1298C18.6278 84.6784 18.1979 83.6037 18.1979 82.6579C18.1979 81.9056 18.4558 81.1963 18.9717 80.7234C18.9932 80.6374 19.0362 80.5729 19.1222 80.5084C19.6595 80.143 20.3259 79.9496 20.9492 80.1215C21.4651 80.2935 21.9165 80.7019 22.1959 81.1748ZM21.5081 81.3037C21.2716 81.0028 20.9922 80.8094 20.6268 80.7234C20.4978 80.7019 20.2614 80.7019 20.0894 80.7449C20.0679 80.7449 20.0679 80.7449 20.0464 80.7664C20.0034 80.8093 19.9605 80.8308 19.9175 80.8523C19.0577 81.1748 18.7353 82.1205 18.8427 82.9803C18.8857 83.3242 19.0147 83.7112 19.2296 84.0336C19.4016 84.313 19.681 84.5494 19.982 84.6354C20.3259 84.7429 20.7343 84.6999 21.0997 84.528C21.4651 84.3345 21.7445 83.9691 21.8735 83.6037C22.1529 82.8514 22.0024 81.9271 21.5081 81.3037ZM49.4943 60.7332C49.6662 60.3678 49.1074 60.0239 48.9355 60.4108C48.2691 61.8079 46.9364 62.6892 45.4318 62.9257C44.0991 63.1406 42.5945 62.7752 41.7132 61.7005C41.1543 61.0341 40.9609 60.1743 40.9824 59.3145C40.9824 58.9061 40.3375 58.9061 40.3375 59.3145C40.316 60.1958 40.5095 61.0986 41.0254 61.8509C41.4767 62.5173 42.1216 62.9902 42.8739 63.2911C44.3786 63.8929 46.1626 63.6565 47.5383 62.8397C48.3981 62.3453 49.0859 61.6145 49.4943 60.7332ZM47.7747 47.8363V47.8578V47.8363ZM43.3253 38.3786C43.5187 38.4216 43.6477 38.3141 43.7122 38.1637C43.9701 37.5188 44.2496 36.8525 44.5075 36.2076C44.572 36.0572 44.443 35.8422 44.2926 35.8207C44.0991 35.7777 43.9701 35.8852 43.9056 36.0357C43.6477 36.6805 43.3683 37.3469 43.1103 37.9917C43.0459 38.1422 43.1748 38.3356 43.3253 38.3786ZM47.2373 48.2662C46.9364 47.7718 47.3018 47.127 47.7747 46.8906C47.9252 46.8046 48.0971 46.7616 48.2691 46.7401C48.3121 46.1167 48.9999 45.6868 49.5803 45.6439C49.9242 45.6224 50.2896 45.7513 50.5261 45.9878C50.6335 46.0952 50.7195 46.2457 50.784 46.3962C51.1924 45.9018 51.5148 45.3214 51.7083 44.6981C51.8372 44.3112 52.4606 44.4831 52.3316 44.87C52.1167 45.5579 51.7512 46.2027 51.3213 46.7616C51.3858 46.8046 51.4288 46.8691 51.4503 46.9335C51.6223 47.4494 51.6653 48.0083 51.5793 48.5456C51.4504 49.255 50.9774 50.0073 50.2036 50.1363C49.3223 50.2867 48.656 49.6204 48.2261 48.9326C47.5383 49.1475 46.8074 49.255 46.0551 49.212C45.6467 49.1905 45.6467 48.5457 46.0551 48.5671C46.528 48.5886 46.9794 48.5457 47.4308 48.4597C47.3448 48.4167 47.2803 48.3522 47.2373 48.2662ZM47.7747 47.9438C47.7962 47.9653 47.8177 47.9868 47.7747 47.9438V47.9438ZM50.5046 47.6214C50.0102 48.0728 49.4298 48.4382 48.8065 48.6961C48.8924 48.8251 48.9784 48.9326 49.0644 49.04C49.1504 49.126 49.2149 49.1905 49.3009 49.2765C49.3009 49.2765 49.3009 49.2765 49.3224 49.298C49.3439 49.3195 49.3653 49.3195 49.3653 49.341C49.4083 49.3625 49.4513 49.4054 49.4943 49.4269C49.5158 49.4484 49.5373 49.4484 49.5588 49.4699C49.5588 49.4699 49.5803 49.4699 49.5803 49.4914C49.6018 49.4914 49.6448 49.5129 49.6663 49.5129C49.7092 49.5129 49.7307 49.5344 49.7737 49.5344C49.7737 49.5344 49.8382 49.5344 49.8382 49.5559C49.8597 49.5559 49.9027 49.5559 49.9242 49.5559C49.9457 49.5559 49.9887 49.5559 50.0102 49.5559H50.0317C50.0532 49.5559 50.0962 49.5344 50.1177 49.5344C50.1392 49.5344 50.2036 49.5129 50.2036 49.5129C50.2251 49.5129 50.2466 49.4914 50.2681 49.4914C50.2896 49.4699 50.3326 49.4699 50.3541 49.4484C50.3541 49.4484 50.3971 49.4269 50.3971 49.4054L50.4186 49.3839C50.4401 49.3624 50.4401 49.3625 50.4616 49.341C50.483 49.3195 50.5046 49.298 50.5261 49.2765C50.5475 49.255 50.569 49.2335 50.569 49.212C50.569 49.212 50.6121 49.169 50.6121 49.1475C50.655 49.083 50.698 48.997 50.741 48.9326C50.741 48.9111 50.7625 48.8681 50.784 48.8681C50.8055 48.8466 50.8055 48.8036 50.827 48.7821C50.8485 48.6961 50.87 48.6101 50.8914 48.5242C50.9129 48.4382 50.913 48.3737 50.9345 48.3307C50.956 48.0298 50.9344 47.7718 50.8914 47.5139C50.8485 47.6214 50.7195 47.7074 50.5905 47.7074C50.569 47.6429 50.5476 47.6429 50.5046 47.6214ZM48.8925 46.8261C48.8925 46.8476 48.8925 46.8691 48.8925 46.8906C49.1719 47.041 49.4083 47.2775 49.5803 47.5354C49.8167 47.3634 50.0532 47.17 50.2681 46.9765C50.2466 46.8906 50.2251 46.7831 50.2036 46.6971V46.6756C50.2036 46.6541 50.1822 46.6541 50.1822 46.6326C50.1607 46.5896 50.1392 46.5681 50.1177 46.5251C50.0962 46.5036 50.0962 46.5036 50.0962 46.5036L50.0747 46.4821C50.0532 46.4607 50.0317 46.4392 49.9887 46.4177C49.9672 46.4177 49.9672 46.3962 49.9457 46.3962C49.9242 46.3747 49.9027 46.3747 49.8597 46.3532H49.8382C49.8167 46.3532 49.7738 46.3317 49.7523 46.3317H49.7308C49.7093 46.3317 49.6663 46.3317 49.6448 46.3317C49.6233 46.3317 49.5803 46.3317 49.5588 46.3317H49.5373C49.4728 46.3532 49.4083 46.3532 49.3653 46.3747C49.3439 46.3747 49.3439 46.3747 49.3224 46.3962C49.3009 46.4177 49.2794 46.4177 49.2579 46.4392C49.2149 46.4607 49.1504 46.5036 49.1074 46.5251L49.0859 46.5466C49.0644 46.5681 49.0429 46.5896 49.0214 46.6111C49.0214 46.6111 48.9999 46.6326 48.9784 46.6541C48.9784 46.6756 48.9569 46.6756 48.9569 46.6971C48.9354 46.7186 48.9354 46.7401 48.9139 46.7616V46.7831C48.9139 46.7616 48.8925 46.7831 48.8925 46.8261ZM48.2691 47.4064C48.2906 47.4064 48.2906 47.4064 48.2906 47.4064H48.2691ZM47.7532 47.8578V47.8793V47.9008C47.7317 47.8793 47.7532 47.8793 47.7532 47.9008V47.9223C47.7532 47.9223 47.7532 47.9223 47.7532 47.9008C47.7747 47.9223 47.7747 47.9223 47.7962 47.9438C47.8177 47.9653 47.8392 47.9653 47.8607 47.9868C47.9252 48.0083 47.9682 48.0083 48.0327 48.0298C48.0542 48.0298 48.0756 48.0298 48.0971 48.0298C48.1401 48.0298 48.1616 48.0298 48.2046 48.0298C48.2906 48.0298 48.3766 48.0728 48.4195 48.1158C48.613 48.0298 48.785 47.9438 48.9784 47.8578C48.7635 47.7288 48.5485 47.5784 48.4195 47.3634C48.4195 47.3634 48.4196 47.3634 48.3981 47.3634C48.3766 47.3634 48.3551 47.3634 48.3336 47.3634C48.3121 47.3634 48.2906 47.3634 48.2691 47.3634H48.2476C48.2261 47.3634 48.1186 47.3849 48.0971 47.4064C48.0971 47.4064 48.1616 47.3634 48.1186 47.3849C48.1186 47.3849 48.0971 47.3849 48.0971 47.4064C48.0756 47.4064 48.0542 47.4279 48.0327 47.4494C48.0112 47.4709 47.9897 47.4709 47.9682 47.4924C47.9252 47.5139 47.9037 47.5569 47.8822 47.5784C47.8822 47.5784 47.8822 47.5784 47.8607 47.5999C47.8607 47.6214 47.8392 47.6214 47.8392 47.6429C47.8177 47.6644 47.8177 47.6859 47.8177 47.7074C47.8177 47.7288 47.7962 47.7503 47.7962 47.7718C47.7747 47.8148 47.7532 47.8148 47.7532 47.8578ZM45.1094 38.6795C45.3028 38.7225 45.4318 38.615 45.4963 38.4646C45.7327 37.8627 45.9477 37.2609 46.1841 36.6805C46.2486 36.5301 46.1196 36.3151 45.9692 36.2936C45.7757 36.2506 45.6467 36.3581 45.5822 36.5086C45.3458 37.1104 45.1309 37.7123 44.8944 38.2926C44.8299 38.4216 44.9589 38.6365 45.1094 38.6795ZM45.5822 31.3713C45.7542 31.3713 45.9047 31.3713 46.0766 31.3713C46.1626 31.3713 46.2486 31.3283 46.3131 31.2853C46.3776 31.2208 46.4206 31.1349 46.3991 31.0489C46.3991 30.9629 46.3776 30.8769 46.3131 30.8124C46.2486 30.748 46.1626 30.7265 46.0766 30.7265C45.9047 30.7265 45.7542 30.7265 45.5822 30.7265C45.4963 30.7265 45.4103 30.7694 45.3458 30.8124C45.2813 30.8769 45.2383 30.9629 45.2598 31.0489C45.2598 31.1349 45.2813 31.2208 45.3458 31.2853C45.4103 31.3498 45.4963 31.3713 45.5822 31.3713Z" fill="#1E2129"/>
<path d="M18.3944 25.3681C18.0316 25.102 18.3944 24.473 18.7573 24.7391C21.3217 26.6503 23.886 28.5856 26.4746 30.4968C26.8374 30.7629 26.4746 31.3919 26.1117 31.1258C23.5474 29.1904 20.9588 27.2792 18.3944 25.3681ZM26.3052 25.6342C27.6842 26.9164 29.0631 28.1985 30.4662 29.4807C30.8049 29.7952 31.3129 29.2872 30.9742 28.9727C29.5953 27.6905 28.2164 26.4083 26.8132 25.1262C26.4745 24.8117 25.9666 25.3197 26.3052 25.6342ZM80.8579 34.9723C83.1803 33.2546 85.5269 31.537 87.8493 29.8194C88.2122 29.5533 87.8493 28.9243 87.4865 29.1904C85.164 30.908 82.8175 32.6257 80.495 34.3433C80.108 34.6336 80.4708 35.2626 80.8579 34.9723ZM83.3496 37.4882C84.4624 36.9802 85.5753 36.4963 86.6881 35.9883C86.8575 35.9157 86.9058 35.6496 86.8091 35.4803C86.7123 35.2868 86.4946 35.2626 86.3011 35.3593C85.1883 35.8674 84.0754 36.3512 82.9626 36.8592C82.7933 36.9318 82.7449 37.1979 82.8416 37.3673C82.9626 37.5366 83.1803 37.5608 83.3496 37.4882ZM21.2491 32.9885C21.8055 33.2546 22.362 33.5449 22.9184 33.8111C23.0877 33.9078 23.3296 33.8594 23.4264 33.6901C23.5231 33.5208 23.4748 33.2788 23.3054 33.1821C22.749 32.916 22.1926 32.6257 21.6362 32.3595C21.4669 32.2628 21.2249 32.3112 21.1281 32.4805C21.0314 32.6498 21.0556 32.8918 21.2491 32.9885Z" fill="#1E2129"/>
</svg>
