<svg xmlns="http://www.w3.org/2000/svg" width="150" height="150" viewBox="0 0 150 150" fill="none">
  <rect width="150" height="150" fill="white"/>
  <path d="M98.0212 86.4023C102.579 91.6568 111.753 82.3961 117.472 78.4189C123.191 74.4418 128.387 67.8809 126.732 61.1169C124.7 52.8142 113.436 48.6048 113.088 40.0699C112.943 36.2088 115.178 32.7252 116.368 29.0673C117.559 25.4095 117.181 20.4453 113.669 18.8777C112.623 18.4132 111.433 18.3261 110.272 18.239C104.872 17.8907 99.4727 17.5133 94.0731 17.1649C86.9607 16.7004 79.616 16.265 72.91 18.6454C63.388 22.042 56.7111 30.5189 48.2922 36.1798C47.131 36.9636 45.8828 37.7184 44.4893 37.7765C40.3089 37.9506 38.48 32.4058 34.8222 30.3447C31.2515 28.3126 26.3453 30.2866 24.2551 33.8283C22.1649 37.37 22.3682 41.8697 23.7036 45.7598C25.039 49.6499 27.3614 53.1045 29.3935 56.6752C31.4257 60.2459 33.1965 64.136 33.2836 68.2293C33.3707 72.6709 31.4256 76.9094 29.3354 80.8285C27.2452 84.7476 86.6994 73.3386 98.0212 86.4023Z" fill="#F4F6F9"/>
  <path d="M128.881 124.954C127.371 121.035 130.332 116.303 128.474 112.559C126.936 109.452 122.93 108.639 120.259 106.433C118.459 104.924 117.298 102.833 115.933 100.917C114.569 99.0013 112.769 97.2015 110.446 96.795L110.475 96.6209C108.734 93.7178 106.208 91.018 104.931 88.6665C103.944 86.8957 111.898 82.8605 111.898 82.8605C106.005 77.0254 92.4476 66.3422 84.6384 63.5263C84.3481 59.462 83.9708 49.4756 83.9708 49.4756C87.077 48.6917 93.3475 47.037 93.3475 47.037C89.6897 42.5083 85.7126 37.2828 81.5902 32.1444C80.2258 30.4317 78.3969 28.9221 76.3067 28.3415L69.6588 26.9771L66.7848 39.1698C65.1591 38.415 63.0399 38.7343 61.7626 40.0117C60.253 41.4922 60.0788 44.134 61.3561 45.8178C62.169 46.8919 63.4754 47.4725 64.8108 47.5305L64.7817 47.6467C62.5464 52.9302 60.5142 57.3138 58.2499 61.9006L58.2208 61.7844C50.8181 65.0649 43.8798 67.9099 37.1158 72.4386C30.3807 76.9383 24.3134 82.7444 20.6556 90.0019C20.6556 90.0019 25.2714 88.6085 29.5679 90.3503C29.2485 90.6987 28.9873 91.0761 28.755 91.4825C27.739 93.2533 27.5648 95.3725 26.9842 97.3176C24.865 104.343 17.5493 108.843 15.3721 115.868C15.3721 115.868 18.7976 123.532 42.6315 127.364C43.4154 127.48 43.4154 126 43.5896 125.274C43.7347 124.548 43.6186 123.764 43.067 123.213C42.8347 122.98 42.5444 122.835 42.1961 122.719C42.7477 122.197 43.2702 121.645 43.6767 121.035C44.6347 119.729 45.1282 118.161 44.6347 116.739C44.3153 115.839 43.6476 115.084 43.067 114.3C39.8446 109.917 46.0571 108.639 49.1924 105.998C50.0633 105.243 50.8181 104.285 51.3406 103.298C52.7341 104.982 54.5049 106.375 56.479 107.333C58.1918 108.668 59.9917 109.336 61.4432 109.597C61.6755 109.685 61.9368 109.772 62.198 109.83L62.0819 109.685C62.169 109.685 62.2851 109.714 62.3722 109.714L64.2302 98.8272C64.2302 98.8272 74.5939 99.2626 75.3487 88.173C75.4648 86.3731 75.2907 84.8926 74.9133 83.6153C78.1356 83.2088 80.9516 83.325 83.4772 83.5862C84.1159 84.0797 84.7836 84.7474 85.3352 85.5893C85.3642 85.8216 85.4803 86.0538 85.6545 86.257C85.7126 86.3151 85.7416 86.3441 85.7997 86.4022C86.7577 88.3182 87.2222 91.018 86.3222 94.85C85.5384 98.2175 84.1159 100.714 82.5193 102.601C82.4612 102.572 82.4322 102.514 82.3741 102.485L82.4322 102.717C78.8614 106.869 74.5069 107.827 74.5069 107.827L72.8811 119.41L98.6021 113.604L95.2055 100.163C96.0764 100.046 96.9473 99.8142 97.8183 99.5529C97.7312 100.104 97.7311 100.685 97.7892 101.266C97.9634 102.601 98.544 103.878 99.4439 104.865H99.6762C99.8213 111.804 100.605 118.742 102.057 125.506C102.637 128.235 103.45 131.167 105.714 132.793C105.714 132.793 110.011 124.461 119.881 128.525C129.752 132.589 134.513 128.525 134.513 128.525C132.074 128.728 129.723 127.19 128.881 124.954ZM92.1283 88.173L91.4316 85.4151C91.5477 85.3861 91.6929 85.3281 91.809 85.299C93.1734 84.9797 94.8281 85.1829 95.6119 86.3441C95.641 86.4022 95.67 86.4602 95.699 86.5183C94.4507 86.9538 93.2605 87.5053 92.1283 88.173ZM94.1024 96.0112C95.7281 95.3435 97.4408 94.7919 99.0956 94.3275C97.7311 94.821 95.8442 95.7499 94.2766 96.737L94.1024 96.0112Z" fill="white"/>
  <path d="M67.5106 77.0839L68.4396 67.8232C68.4396 67.8232 61.182 69.0135 55.7824 74.5583C56.1598 74.6454 56.5662 74.7615 56.9436 74.8776C58.0177 75.1969 59.2079 75.5163 60.1369 76.213C60.9207 76.8227 61.4433 77.8387 61.182 78.8548C60.8917 79.8708 59.8466 80.3063 58.8596 80.2482C57.6984 80.1902 56.5952 79.6386 55.5211 79.2322C54.6212 78.8838 53.6922 78.5935 52.7051 78.6806C52.5019 79.058 52.2987 79.4063 52.1245 79.8128C52.4438 79.9579 52.7632 80.1031 53.0825 80.2482C54.6211 81.032 56.0727 82.0191 57.379 83.2093C58.4241 84.1673 60.5724 86.0253 59.0048 87.4478C58.6564 87.7381 58.279 87.9122 57.8725 87.9703C58.3951 88.5799 58.8596 89.3347 58.6854 90.1766C58.5112 91.0475 57.6694 91.541 56.8275 91.512C55.8405 91.483 54.9115 90.8733 54.0405 90.4379C53.547 90.2056 53.0535 89.9734 52.56 89.7702C52.6471 89.8282 52.7632 89.8863 52.8503 89.9734C53.3728 90.3218 53.8664 90.6992 54.3308 91.1346C54.6502 91.4539 54.9985 91.8023 55.1147 92.2378C55.5211 93.6022 53.5761 93.7764 52.7342 93.8054C51.8633 93.8344 51.0214 93.7473 50.1795 93.5732C50.2666 94.5602 49.9182 95.7214 50.5278 96.3891C51.0214 96.9407 51.9504 97.289 52.1826 98.1019C52.4439 99.0309 51.7181 100.802 52.0665 101.586C54.7663 107.711 59.5853 109.714 62.4593 109.859L64.3173 98.9728C64.3173 98.9728 74.6811 99.4083 75.4359 88.3187C76.1036 78.2451 67.5106 77.0839 67.5106 77.0839Z" fill="#FFE945"/>
  <path d="M49.2504 93.573C49.2504 93.4859 49.2504 93.3988 49.2214 93.2827H49.1924C49.2214 93.3698 49.2214 93.4569 49.2504 93.573Z" fill="black"/>
  <path d="M52.0083 73.8034C54.9404 70.4939 58.7724 68.0263 63.0108 66.72C63.0979 66.6909 63.156 66.6619 63.185 66.6038C64.5784 66.778 65.9719 67.0974 67.3073 67.5328C62.8366 69.0424 58.6853 71.3648 55.0565 74.3549C55.4049 74.442 55.7822 74.5291 56.1306 74.6162C59.7884 71.6842 63.9979 69.4488 68.4976 68.0844C68.6137 68.0554 68.6718 67.9973 68.7298 67.9393C69.0492 67.8231 69.1362 67.2425 68.7008 67.0974C66.8718 66.4587 65.0139 65.9652 63.0689 65.762C62.9237 65.7329 62.8076 65.82 62.7205 65.9361C58.2498 67.3296 54.2146 69.9714 51.1665 73.5131C51.1084 73.5711 51.0793 73.6582 51.0503 73.7163C51.3406 73.7163 51.689 73.7453 52.0083 73.8034Z" fill="black"/>
  <path d="M63.8817 100.453C62.6914 99.9598 61.9076 98.8567 61.2109 97.8406C60.8335 97.3181 60.4852 96.7665 60.0788 96.273C59.7014 95.7795 59.2369 95.2279 58.7143 94.9085C58.1337 94.5602 57.3208 94.5021 56.9144 95.1698C56.537 95.7795 56.7983 96.5923 56.9144 97.231C57.2337 98.7406 57.6983 100.221 58.3369 101.644C59.0627 103.298 60.0207 104.808 61.1529 106.23C61.5012 106.666 62.1109 106.056 61.7625 105.621C59.9626 103.385 58.6853 100.773 57.9886 98.0148C57.8144 97.3761 57.6112 96.6504 57.6112 95.9827C57.5821 95.1408 58.3659 95.6633 58.6853 95.9827C59.5272 96.7955 60.1368 97.8406 60.8335 98.7696C61.5883 99.8147 62.4592 100.773 63.6785 101.266C63.9107 101.353 64.143 101.179 64.201 100.976C64.2591 100.744 64.0849 100.54 63.8817 100.453Z" fill="black"/>
  <path d="M68.8749 84.8058C68.3233 84.08 67.8298 83.3252 67.3363 82.5414C65.188 79.0287 63.7655 75.1096 63.1269 71.0454C63.0398 70.4938 62.1979 70.726 62.285 71.2776C62.8075 74.7322 63.9397 78.0707 65.5364 81.1479C66.3493 82.6865 67.2782 84.1671 68.3233 85.5605C68.7587 86.1121 69.4264 86.925 69.049 87.6798C68.9329 87.912 68.7007 88.1442 68.4104 88.0862C68.062 88.0281 67.8588 87.5927 67.7137 87.3024C67.2202 86.4314 66.7556 85.5605 66.2912 84.7187C65.8847 83.9639 65.5074 83.122 64.9558 82.4543C64.5203 81.9027 63.8526 81.4673 63.1269 81.6414C62.4011 81.8156 61.9657 82.5124 61.9076 83.2091C61.8205 84.051 62.256 84.8348 62.6334 85.5605C63.0688 86.4024 63.4752 87.2443 63.8526 88.1152C64.6074 89.857 65.2171 91.6569 65.6816 93.4858C65.7687 93.8342 65.8848 94.1825 65.8267 94.5599C65.7687 95.0244 65.4202 94.8503 65.1299 94.618C64.4042 93.9793 63.7655 93.2246 63.1559 92.4698C61.9076 90.9312 60.8915 89.2184 60.1077 87.4185C59.8754 86.8959 59.1207 87.3604 59.3529 87.8539C60.1077 89.5087 61.0367 91.1053 62.1398 92.5569C62.6914 93.2826 63.3011 94.0084 63.9397 94.6761C64.4623 95.2276 65.217 96.0986 66.088 95.6341C66.7266 95.2857 66.7556 94.5019 66.6395 93.8632C66.4944 92.9343 66.1751 92.0053 65.8848 91.1344C65.2751 89.2474 64.5203 87.3895 63.6204 85.6186C63.272 84.8928 62.5753 83.9929 62.7785 83.151C62.8366 82.8607 63.0398 82.5704 63.3301 82.5123C63.7075 82.4543 64.0268 82.7736 64.23 83.0349C64.4623 83.3252 64.6365 83.6445 64.8107 83.9639C65.0719 84.4574 65.3622 84.9509 65.6234 85.4444C66.0879 86.3153 66.5524 87.2153 67.075 88.0572C67.4524 88.6958 68.1201 89.2184 68.9039 88.9281C69.5716 88.6668 70.0361 87.912 69.978 87.1862C70.007 86.2282 69.3974 85.5025 68.8749 84.8058Z" fill="black"/>
  <path d="M50.9343 95.8373C50.8472 95.1115 50.8181 94.3568 50.8471 93.631C50.5568 93.602 50.2665 93.5439 49.9762 93.4858C49.9472 94.1826 49.9762 94.8793 50.0343 95.576" fill="black"/>
  <path d="M51.8633 102.659C56.5081 109.046 60.5724 109.569 62.111 110.033C62.6626 110.178 62.8948 109.336 62.3433 109.191C57.8436 107.885 54.1277 104.604 52.2407 100.395" fill="black"/>
  <path d="M84.9578 85.0374C85.0159 84.6019 85.1901 84.1665 85.4513 83.8181C86.2061 82.8311 87.5125 82.4247 88.6447 82.0763C89.2833 81.8731 89.922 81.6989 90.5607 81.5538L87.7738 70.5513L83.1289 71.7125L80.5742 82.1344C80.5742 82.1344 83.0999 82.6859 84.9578 85.0374Z" fill="#9ED5F0"/>
  <path d="M87.3094 91.6857C87.89 91.018 88.5287 90.3793 89.1964 89.7987C90.0963 89.0439 91.0543 88.3472 92.0994 87.7666L91.6058 85.8506C90.6769 86.1119 89.777 86.5763 88.877 86.8666C88.0351 87.157 86.9901 87.3892 86.1191 87.0699C86.6707 88.4633 86.961 90.2632 86.7288 92.5276C86.903 92.2663 87.1062 91.947 87.3094 91.6857Z" fill="#9ED5F0"/>
  <path d="M92.5349 100.685C92.0414 100.627 91.4608 100.481 91.1705 100.046C90.9382 99.6976 91.0253 99.2622 91.1995 98.9138C91.693 98.0139 92.7091 97.3462 93.58 96.7946C92.9123 97.0849 92.2446 97.3752 91.6059 97.7236C90.764 98.159 89.8641 98.6525 88.8771 98.4493C87.9771 98.2751 87.3965 97.4913 87.4836 96.5914C87.5417 95.9817 87.8901 95.4592 88.2965 94.9657C87.7159 94.8786 87.2224 94.6173 86.845 94.0367C86.7288 93.8625 86.6708 93.6883 86.6418 93.5142C86.5837 93.9496 86.4966 94.4141 86.3804 94.8786C83.8258 105.765 74.5651 107.855 74.5651 107.855L72.9395 119.438L98.6603 113.632L95.3799 100.627C94.4219 100.801 93.4929 100.83 92.5349 100.685Z" fill="#9ED5F0"/>
  <path d="M72.1263 105.794C71.9812 105.591 72.0973 105.33 72.2715 105.185C72.4747 105.04 72.7359 105.156 72.8811 105.33C73.4326 106.172 74.0133 106.985 74.5648 107.826C74.71 108.03 74.5939 108.291 74.4197 108.436C74.2165 108.581 73.9552 108.465 73.8101 108.291C73.2585 107.449 72.7069 106.636 72.1263 105.794ZM86.4963 106.462C87.1931 107.42 88.7897 109.307 87.4833 110.41C86.9027 110.904 86.0609 110.671 85.5674 110.149C85.0158 109.568 84.6674 108.784 84.1739 108.146C83.7094 107.536 83.1579 106.868 82.5192 106.433C82.287 106.259 81.8224 106.027 81.5321 106.317C81.2999 106.578 81.5612 107.014 81.7063 107.246C82.1418 108.001 82.6643 108.726 83.1579 109.481C83.6804 110.265 84.2029 111.078 84.7255 111.862C85.0448 112.326 84.29 112.762 83.9707 112.297C83.3901 111.426 82.8385 110.555 82.2579 109.684C81.9676 109.249 81.6773 108.813 81.387 108.378C81.1257 108.001 80.8645 107.623 80.6903 107.188C80.458 106.52 80.6031 105.765 81.2999 105.475C81.9966 105.156 82.6934 105.475 83.245 105.91C83.8836 106.433 84.4351 107.072 84.9287 107.71C85.1899 108.059 85.4222 108.378 85.6544 108.755C85.8576 109.075 86.0318 109.481 86.3221 109.713C86.5834 109.917 86.9318 109.946 87.0479 109.597C87.164 109.278 87.0189 108.959 86.8447 108.668C86.4673 107.972 85.9738 107.304 85.4803 106.636C84.5223 105.33 83.4481 104.14 82.2579 103.036C80.3999 105.33 78.0195 107.188 75.3197 108.378C74.7391 112.152 74.1584 115.926 73.5778 119.7C73.4907 120.222 72.7649 120.048 72.7359 119.555C72.6779 119.526 72.6198 119.468 72.5908 119.41C71.894 118.335 71.1102 117.348 70.2103 116.419C70.0651 116.274 70.0651 116.1 70.1232 115.984C70.7328 112.355 71.3715 108.726 71.9812 105.069C72.0392 104.807 72.2424 104.72 72.4166 104.778C74.9713 104.343 77.3808 103.356 79.5 101.846C82.0256 100.046 84.1159 97.4626 85.2771 94.5305C85.3351 94.2693 85.3641 94.008 85.3932 93.7467C85.4222 93.6306 85.5093 93.5145 85.6254 93.4564C85.8286 92.8468 85.9738 92.2372 86.0609 91.5985C86.3802 89.6244 86.1189 87.5632 85.0738 85.8505C84.0577 84.2248 82.3159 83.1216 80.429 82.8313C80.3128 82.8603 80.1677 82.8603 80.0516 82.8023C79.9355 82.8023 79.8193 82.7733 79.7323 82.7733C79.3258 82.7733 79.2097 82.3088 79.3839 82.0765C78.8033 81.4669 78.2227 80.8572 77.613 80.2476C77.3227 80.2766 77.0324 80.0734 77.1195 79.7251C78.2807 76.0382 79.0355 72.2352 79.3839 68.3742C79.2678 68.1129 79.413 67.7646 79.7613 67.7646C79.8194 67.7355 79.9065 67.7355 79.9645 67.7646C81.0967 67.7355 82.1998 67.5323 83.2739 67.1549C83.361 67.0678 83.5062 67.0098 83.6223 67.0388C83.7965 67.0098 83.9997 67.1549 84.0577 67.3001C85.1899 68.2581 86.3512 69.2161 87.4833 70.1451C87.4833 70.1451 87.4834 70.1741 87.5124 70.1741C87.5705 70.1741 87.6285 70.1741 87.6865 70.1741C87.9188 70.2031 88.122 70.3483 88.122 70.6095C88.122 70.8127 87.9188 71.074 87.6865 71.045C86.3511 70.8998 85.0158 71.1321 83.8256 71.7707C83.6224 71.8869 83.4481 71.8288 83.332 71.6837C83.303 71.7127 83.274 71.7417 83.2159 71.7707C82.5192 75.2254 81.7063 78.6509 80.7774 82.0475C82.9837 82.4539 84.9287 83.8474 86.0028 85.8505C87.4834 88.6083 87.164 91.8307 86.0318 94.6757C85.8286 95.8659 85.4803 97.0271 85.0158 98.1593C84.4061 99.6399 83.6224 101.033 82.6643 102.311C84.1739 103.559 85.3932 104.952 86.4963 106.462ZM86.3221 70.1741C85.4222 69.4193 84.5513 68.6935 83.6514 67.9388C82.6643 68.2871 81.6483 68.4903 80.6322 68.5484C81.5612 69.3903 82.5192 70.2031 83.4482 71.045C83.4772 71.016 83.5062 71.016 83.5353 70.9869C84.3771 70.5225 85.3351 70.2612 86.3221 70.1741ZM78.2807 79.5799C78.8904 80.2186 79.529 80.8572 80.1387 81.4959C81.0386 78.1574 81.8225 74.8189 82.5192 71.4224C82.5192 71.3934 82.5192 71.3934 82.5482 71.3643C81.7934 70.6966 81.0386 70.0289 80.2838 69.3612C79.9064 72.7868 79.2097 76.1834 78.2227 79.4928C78.2227 79.5219 78.2517 79.5509 78.2807 79.5799ZM84.0288 98.5077C81.358 102.195 77.2647 104.749 72.794 105.533C72.2134 108.988 71.6038 112.471 71.0232 115.926C71.7199 116.652 72.3586 117.435 72.9392 118.277C73.4327 115.084 73.9262 111.891 74.4197 108.697C73.8971 108.901 73.6649 108.059 74.1874 107.855C74.3326 107.797 74.4778 107.739 74.5939 107.681C74.681 107.507 74.8551 107.478 75.0003 107.507C75.9873 107.072 76.9453 106.52 77.8453 105.91C80.5451 104.052 82.6934 101.469 84.0288 98.5077ZM82.2579 112.529C82.1418 112.326 81.8515 112.239 81.6483 112.384C81.4451 112.5 81.358 112.762 81.5031 112.994C81.9967 113.778 82.4902 114.591 83.0127 115.374C83.1288 115.578 83.4191 115.665 83.6223 115.519C83.8255 115.403 83.9126 115.142 83.7674 114.91C83.2739 114.126 82.7804 113.313 82.2579 112.529ZM88.9929 78.2735C88.3833 77.2865 87.6866 76.3866 86.9027 75.5447C86.4963 75.1092 86.0609 74.7028 85.6254 74.2964C85.219 73.948 84.7835 73.5126 84.29 73.3674C83.7965 73.2513 83.2739 73.4835 83.1288 74.0061C82.9836 74.4996 83.1868 75.0802 83.332 75.5737C83.6513 76.7349 84.0578 77.8671 84.5803 78.9703C85.1609 80.1896 85.8286 81.3798 86.6124 82.4829C86.9318 82.9474 87.6866 82.512 87.3673 82.0475C85.8577 79.9573 84.7545 77.6058 84.1159 75.1092C84.0578 74.9351 83.8836 74.4996 83.9707 74.2964C84.0868 74.0932 84.4352 74.4125 84.5513 74.5286C85.0448 74.906 85.4803 75.3415 85.9157 75.7769C86.8157 76.6769 87.5705 77.6639 88.2382 78.738C88.5285 79.2025 89.2832 78.7671 88.9929 78.2735Z" fill="black"/>
  <path d="M100.982 98.1014C101.505 97.9272 101.737 98.7691 101.215 98.9433C98.4568 99.8722 95.4957 101.121 92.5346 100.685C92.0411 100.627 91.4604 100.482 91.1701 100.046C90.9379 99.6981 91.025 99.2626 91.1992 98.9142C91.7217 97.9272 92.8539 97.2305 93.7829 96.6499C95.0021 95.866 96.3085 95.1693 97.6439 94.5597C98.5729 94.1533 99.618 93.6017 100.663 93.5436C101.215 93.5146 101.215 94.3855 100.663 94.4145C100.634 94.4145 100.518 94.4436 100.576 94.4145C100.634 94.4145 100.489 94.4145 100.489 94.4436C100.402 94.4726 100.286 94.4726 100.199 94.5016C99.9664 94.5597 99.7051 94.6468 99.4728 94.7339C98.8632 94.9371 98.2826 95.1983 97.731 95.4886C96.4827 96.0693 95.2925 96.737 94.1313 97.4627C93.6668 97.782 93.2023 98.1014 92.7668 98.4788C92.4184 98.7691 92.1572 99.0304 91.954 99.3787C91.896 99.4658 91.9249 99.4368 91.9249 99.4077C91.9249 99.4368 91.8959 99.4658 91.8959 99.4948C91.8378 99.64 91.8959 99.5239 91.8959 99.4948C91.8959 99.5239 91.8959 99.5529 91.8959 99.5819C91.8959 99.5529 91.8959 99.5819 91.8959 99.5819C91.8378 99.5239 91.983 99.64 91.8959 99.611C91.9249 99.64 91.954 99.669 92.0121 99.669C92.0701 99.6981 92.041 99.6981 92.041 99.6981C92.1281 99.7271 92.2152 99.7561 92.3314 99.7851C92.8249 99.9013 93.3184 99.9303 93.8119 99.9013C96.3085 99.8722 98.689 98.8852 100.982 98.1014ZM75.0002 36.2667C75.2905 36.9344 75.6099 37.6022 75.9002 38.2698C75.9873 38.4731 76.3066 38.5311 76.5098 38.415C76.713 38.2698 76.7711 38.0376 76.655 37.8054C76.3647 37.1377 76.0454 36.47 75.7551 35.8023C75.668 35.5991 75.3486 35.541 75.1454 35.6571C74.9422 35.8023 74.9132 36.0345 75.0002 36.2667ZM77.1485 35.6861C77.0324 35.4829 77.1195 35.2217 77.2937 35.0765C77.4969 34.9604 77.7872 35.0475 77.9033 35.2217C78.3678 36.0055 78.6871 36.9054 78.8322 37.8054C78.8613 38.0376 78.7742 38.2699 78.5419 38.3279C78.3387 38.386 78.0485 38.2408 78.0194 38.0376C77.9614 37.6022 77.8452 37.1957 77.7001 36.7893C77.671 36.6732 77.613 36.5861 77.584 36.47C77.613 36.528 77.5549 36.4119 77.5549 36.4119C77.5259 36.3538 77.4969 36.2958 77.4678 36.2377C77.3807 36.0635 77.2647 35.8603 77.1485 35.6861ZM72.9972 34.554C72.8811 34.7572 72.6198 34.8152 72.3875 34.6991C72.1843 34.583 72.1262 34.2927 72.2424 34.0895C72.5907 33.4798 73.0842 32.9863 73.6939 32.6089C73.8971 32.4928 74.1584 32.5799 74.3035 32.7541C74.4197 32.9573 74.3326 33.2186 74.1584 33.3637C74.0423 33.4218 73.9552 33.5089 73.839 33.596C73.8681 33.5669 73.8971 33.5379 73.9261 33.5379C73.6649 33.7411 73.4326 33.9734 73.2294 34.2346C73.2585 34.2056 73.2875 34.1766 73.2875 34.1475C73.1714 34.2927 73.0843 34.4378 72.9972 34.554ZM76.8001 31.9412C76.8582 32.1735 76.7421 32.4057 76.5098 32.4638C76.3066 32.5218 76.0163 32.3767 75.9873 32.1735C75.9002 31.7961 76.1905 31.5348 76.5389 31.5348C76.713 31.5348 76.9163 31.5638 77.1195 31.5929C77.5259 31.6509 77.9614 31.709 78.3678 31.7961C78.6 31.8541 78.7162 32.1154 78.6581 32.3186C78.6 32.5509 78.3387 32.667 78.1355 32.6089C77.8452 32.5509 77.5549 32.4928 77.2356 32.4347C77.2065 32.4347 77.2066 32.4347 77.2646 32.4347C77.2356 32.4347 77.2066 32.4347 77.2066 32.4347C77.1775 32.4347 77.1485 32.4347 77.0904 32.4347C77.0324 32.4347 76.9453 32.4057 76.8872 32.4057C76.8001 32.4057 76.7421 32.4057 76.655 32.3767C76.6259 32.3767 76.597 32.3767 76.5679 32.3767C76.5389 32.3767 76.5679 32.3767 76.626 32.3767C76.7421 32.3477 76.8002 32.2606 76.8582 32.1444C76.8002 32.0573 76.8001 31.9993 76.8001 31.9412C76.8001 31.9122 76.8001 31.9122 76.8001 31.9412ZM134.571 129.077C132.974 129.135 131.435 128.525 130.216 127.48C128.997 126.406 128.3 124.925 128.126 123.329C127.806 120.397 129.055 117.523 128.706 114.62C128.532 113.255 127.923 112.094 126.907 111.165C125.949 110.265 124.758 109.655 123.626 109.017C122.436 108.378 121.246 107.739 120.171 106.898C118.923 105.911 117.965 104.604 117.065 103.269C115.469 100.917 113.756 98.1014 110.853 97.3466C110.446 98.1885 109.953 99.0013 109.372 99.7561C107.137 102.688 103.827 104.691 100.199 105.301C100.257 107.449 100.373 109.626 100.547 111.775C100.866 115.81 101.447 119.816 102.202 123.793C102.782 126.812 103.334 130.528 106.005 132.502C106.44 132.822 106.005 133.576 105.569 133.257C104.089 132.183 103.189 130.586 102.579 128.903C101.969 127.219 101.65 125.448 101.331 123.706C100.924 121.645 100.605 119.584 100.315 117.523C99.7631 113.516 99.4438 109.481 99.3568 105.446C99.2116 105.417 99.1535 105.301 99.1245 105.156C98.7471 104.72 98.4277 104.285 98.1665 103.762C97.5278 102.514 97.2665 101.121 97.4407 99.7561C97.731 99.669 98.0504 99.5819 98.3407 99.4948C98.0214 101.266 98.5438 103.153 99.7341 104.546C99.7341 104.546 99.7341 104.546 99.7631 104.546C100.721 104.401 101.679 104.169 102.579 103.849C105.86 102.63 108.617 100.134 110.127 96.9692C110.127 96.9111 110.127 96.8821 110.127 96.8241C109.924 96.4757 109.691 96.1273 109.459 95.779C108.269 94.0081 106.992 92.2953 105.772 90.5535C105.221 89.7697 104.669 88.9858 104.147 88.173C103.653 87.3892 103.218 86.5473 102.666 85.7925C101.418 84.0507 99.618 82.425 97.5568 81.7863C96.5698 81.467 95.4377 81.6122 94.4216 81.7283C93.2894 81.8734 92.1863 82.1057 91.0831 82.3669C89.8348 82.6572 88.5284 82.9766 87.3381 83.5281C86.8446 83.7604 86.3511 84.0797 86.0608 84.5442C85.8286 84.9506 85.7124 85.5603 86.0318 85.9667C86.6995 86.8957 88.3252 86.257 89.138 85.9377C90.2702 85.5022 91.3444 84.9797 92.5346 84.8345C93.5217 84.7184 94.6248 84.8635 95.4377 85.4732C95.6699 85.6474 95.8731 85.8506 96.0183 86.0828C96.9472 85.7925 97.8762 85.5603 98.8342 85.4151C99.3858 85.328 99.618 86.1699 99.0664 86.257C97.2956 86.5183 95.5537 87.0699 93.928 87.8246C92.5055 88.5214 91.1411 89.3633 89.9509 90.4083C89.3412 90.9309 88.7607 91.4825 88.2381 92.0631C87.7446 92.5856 87.1639 93.3694 87.9768 93.921C88.3542 94.1823 88.7897 94.1823 89.2251 94.0952C91.9249 91.4825 95.4086 89.6536 99.1245 88.9859C99.6761 88.8697 99.9083 89.7116 99.3568 89.8277C97.4408 90.1761 95.6118 90.8148 93.899 91.7437C92.3895 92.5566 90.996 93.5727 89.7477 94.7919C89.1961 95.3145 88.2961 96.0693 88.4122 96.9402C88.5574 97.8982 89.8058 97.6659 90.4154 97.3756C91.2573 96.9982 92.0701 96.5628 92.912 96.1854C93.7829 95.808 94.6247 95.4596 95.5247 95.1403C97.3246 94.4726 99.1535 93.95 101.04 93.5436C101.592 93.4275 101.824 94.2694 101.273 94.3855C98.9793 94.879 96.715 95.5757 94.5377 96.4466C93.5797 96.824 92.6217 97.2595 91.6927 97.724C90.8508 98.1594 89.9509 98.653 88.9639 98.4497C88.0639 98.2756 87.4833 97.4917 87.5704 96.5918C87.6285 95.9822 87.9768 95.4596 88.3833 94.9661C87.8027 94.879 87.3091 94.6177 86.9317 94.0371C86.4092 93.2243 86.8446 92.3534 87.4252 91.6857C88.0059 91.018 88.6445 90.3793 89.3122 89.7987C91.054 88.3182 93.0572 87.1279 95.2054 86.3441C94.5667 85.6764 93.4926 85.5603 92.5927 85.6764C91.3444 85.8215 90.1831 86.4893 88.9929 86.8957C87.9478 87.244 86.6124 87.5343 85.6544 86.7795C84.7544 86.0538 84.8706 84.6894 85.5383 83.8185C86.2931 82.8314 87.5994 82.425 88.7316 82.0766C90.0089 81.6702 91.3153 81.3799 92.6217 81.1186C93.7538 80.9154 94.886 80.7122 96.0472 80.6832C97.1504 80.6541 98.1375 80.9154 99.1245 81.4089C101.215 82.454 102.898 84.2249 104.118 86.228C105.134 87.9408 106.237 89.5374 107.398 91.1341C108.617 92.8469 109.895 94.5307 110.969 96.3305C111.027 96.3596 111.085 96.4176 111.143 96.5047C114.482 97.3176 116.369 100.569 118.197 103.211C119.068 104.488 120.055 105.678 121.304 106.578C122.407 107.362 123.626 107.943 124.816 108.61C125.949 109.249 127.11 109.917 128.01 110.875C128.968 111.891 129.519 113.139 129.693 114.504C130.071 117.407 128.881 120.223 129.113 123.097C129.229 124.519 129.81 125.825 130.884 126.783C131.929 127.712 133.293 128.235 134.687 128.177C135.122 128.206 135.122 129.077 134.571 129.077ZM99.5309 72.903C100.837 74.0352 102.086 75.2255 103.305 76.4448C103.711 76.8512 104.321 76.2125 103.914 75.8351C99.6761 71.6257 95.0602 67.8518 89.6896 65.21C88.2091 64.4842 86.6705 63.8456 85.1319 63.265C84.8416 59.1136 84.6964 54.9623 84.5222 50.84C84.5222 50.5207 84.4931 50.2013 84.4931 49.882C87.222 49.1853 89.9799 48.4595 92.7088 47.7628C92.97 47.7047 93.2603 47.6176 93.5216 47.5596C93.87 47.4725 93.899 47.066 93.7248 46.8338C91.5766 44.163 89.4864 41.4922 87.3672 38.7924C86.235 37.3699 85.1318 35.9474 83.9996 34.5249C82.9546 33.2186 81.9675 31.7961 80.7483 30.6349C79.9644 29.8801 79.1226 29.2414 78.1646 28.7189C78.8033 28.5737 79.5 28.3415 80.1967 27.935C82.0547 26.8319 83.9706 22.2451 81.6192 19.0518C77.4678 24.8869 73.7229 20.6194 67.7427 23.4644C63.1268 25.6416 63.301 34.2346 65.3041 38.444C63.9107 38.3569 62.4882 38.8214 61.5011 39.8085C59.8464 41.4632 59.6432 44.3082 61.0657 46.1661C61.8205 47.1822 63.0107 47.7918 64.259 47.995C62.343 52.5528 60.2528 57.0525 58.0755 61.4941C58.0755 61.4941 58.0756 61.4941 58.0465 61.4941C52.0082 64.1649 45.9118 66.7196 40.2219 70.0871C34.9674 73.1933 30.0322 76.9673 25.997 81.5831C23.7907 84.1088 21.8747 86.8666 20.3651 89.8568C20.1039 90.3503 20.8587 90.7857 21.12 90.2922C23.7908 84.9797 27.7679 80.48 32.2966 76.677C37.1737 72.6127 42.6895 69.4775 48.4085 66.7486C51.6309 65.21 54.9113 63.8166 58.1917 62.365C58.1917 62.365 58.1917 62.365 58.2207 62.365C58.1626 62.5392 58.2207 62.7134 58.424 62.8005C64.8397 65.5584 71.9811 66.4873 78.8904 65.4713C80.8354 65.181 82.7514 64.7455 84.6093 64.1649C84.6674 64.1359 84.7254 64.1068 84.7545 64.0778C87.4833 65.0939 90.1541 66.3132 92.6507 67.8227C95.0893 69.2743 97.3826 71.0161 99.5309 72.903ZM64.3171 63.8746C62.4591 63.4101 60.6303 62.8005 58.8594 62.0457C58.8304 62.0457 58.8013 62.0167 58.7723 62.0167C61.0367 57.4008 63.1849 52.756 65.159 48.024C65.9138 47.995 66.6395 47.8208 67.3072 47.4434C67.5104 47.3273 67.5975 47.066 67.4814 46.8628C67.3653 46.6596 67.104 46.5725 66.9008 46.6886C65.2751 47.6176 62.9237 47.1241 61.7624 45.6435C60.6303 44.134 60.7754 41.7535 62.1108 40.4181C63.4462 39.0827 65.8267 38.9375 67.3363 40.0697C67.5395 40.2149 67.8007 40.1858 67.9459 39.9826C68.091 39.7794 68.062 39.5182 67.8588 39.373C67.7427 39.2859 67.6265 39.2278 67.5395 39.1408L68.2652 39.1698C71.2844 37.3118 70.7908 34.3507 71.5746 32.1444C72.7068 28.9801 74.3906 29.0382 76.4228 28.8931C79.4419 29.822 81.3288 32.4928 83.1868 34.8443C85.3641 37.5731 87.4833 40.331 89.6606 43.0889C90.6476 44.3372 91.6346 45.5855 92.6217 46.8338C90.5315 47.3854 88.4123 47.937 86.3221 48.4885C85.5092 48.6917 84.6964 48.895 83.8836 49.0982C83.7094 49.1562 83.5642 49.3304 83.5642 49.5046C83.7093 53.0463 83.8545 56.588 84.0287 60.1297C84.0868 61.1748 84.1448 62.2489 84.2029 63.294C77.8162 65.3261 70.8489 65.5293 64.3171 63.8746ZM68.091 43.234C68.2362 43.4082 68.2652 43.6695 68.091 43.8437C67.9459 43.9888 67.6266 44.0179 67.4814 43.8437C66.5815 42.7115 65.188 42.0438 63.7365 42.0728C63.1849 42.0728 63.1849 41.2019 63.7365 41.2019C65.3912 41.1729 67.0169 41.9277 68.091 43.234ZM72.7649 55.4558C72.4746 55.8913 72.0102 56.1816 71.4876 56.2687C70.5006 56.4138 69.5135 55.9493 68.9619 55.1074C68.3232 54.1494 68.2652 52.9011 68.2362 51.769C68.2362 51.2174 69.1071 51.2174 69.1071 51.769C69.1361 52.8721 69.1361 54.2075 69.978 54.9913C70.2393 55.2526 70.7328 55.3977 71.0811 55.4268C71.1392 55.4268 71.1682 55.4268 71.2263 55.4268C71.2553 55.4268 71.2844 55.4268 71.3134 55.4268C71.3715 55.4268 71.4296 55.3978 71.4876 55.3978L71.6037 55.3687C71.8069 55.2816 71.894 55.1945 71.9811 55.0494C72.0972 54.8462 72.3585 54.7591 72.5907 54.9042C72.7939 54.9913 72.881 55.2526 72.7649 55.4558ZM60.1367 76.1835C59.2368 75.4867 58.0175 75.1674 56.9434 74.8481C55.8112 74.4997 54.65 74.2675 53.4888 74.0643C52.4727 73.861 51.4276 73.6869 50.3825 73.6578C49.3955 73.6288 48.4956 73.774 47.5956 74.1804C46.6667 74.5868 45.8248 75.1384 45.0409 75.8061C44.2281 76.5028 43.5023 77.3157 42.8637 78.1866C42.254 79.0285 41.7895 79.9574 41.2379 80.8283C39.9896 82.7734 38.6252 84.6603 37.3479 86.5763C37.0866 86.9828 36.8253 87.3892 36.5931 87.7956C35.8383 87.5634 34.9674 87.5634 34.2126 87.6505C32.4998 87.8537 30.8451 88.6085 29.6258 89.8277C28.1743 91.2502 27.6227 93.1953 27.1873 95.1403C26.7809 96.9982 26.2293 98.7401 25.3003 100.395C24.4294 101.933 23.3843 103.356 22.2812 104.749C20.0749 107.536 17.6073 110.178 16.0106 113.4C15.6332 114.184 15.2849 114.997 15.0236 115.81C14.8494 116.332 15.6913 116.565 15.8654 116.042C17.9847 109.307 24.4875 105.156 27.0712 98.653C27.7969 96.8241 28.0001 94.85 28.6388 92.9921C29.2484 91.3083 30.3806 89.9729 31.9773 89.16C32.7321 88.7826 33.5449 88.5504 34.3868 88.4633C34.9094 88.4052 35.577 88.4052 36.0996 88.5214C35.4899 89.6535 35.2287 90.9309 35.7222 92.1792C36.2157 93.3985 37.2028 94.3274 38.3059 94.9661C39.4381 95.6338 40.6864 96.0402 41.9928 96.2725C43.3862 96.5337 44.8087 96.6789 46.2312 96.4757C47.3344 96.3305 48.5246 95.9531 49.0761 94.9951C49.2503 95.0822 49.3955 95.1984 49.5406 95.3145C50.9051 96.4757 51.8631 98.1885 51.8631 100.017C51.834 101.788 50.9631 103.559 49.8019 104.865C48.8149 105.998 47.5085 106.752 46.2312 107.507C44.3733 108.581 41.3831 110.004 41.7896 112.617C42.0799 114.358 43.7636 115.374 44.2861 117.029C44.9248 119.032 43.4442 120.948 42.1088 122.284C41.325 122.109 40.3961 122.226 39.7864 122.835C39.2058 123.416 39.0607 124.403 39.7574 124.954C39.9606 125.129 40.1638 125.129 40.367 124.954C41.0057 124.432 41.7024 123.88 42.3411 123.3C42.3701 123.329 42.4282 123.329 42.4573 123.358C43.9959 124.229 42.9508 126.116 42.3121 127.219C42.0218 127.712 42.7766 128.148 43.0669 127.654C43.6184 126.725 44.2281 125.709 44.141 124.577C44.0829 123.764 43.6475 123.097 43.0088 122.661C43.7055 121.964 44.3152 121.181 44.7506 120.31C45.1861 119.41 45.4473 118.394 45.3022 117.378C45.157 116.332 44.5474 115.52 43.9378 114.707C43.212 113.749 42.2831 112.529 42.8637 111.31C43.3862 110.236 44.5764 109.568 45.5344 108.959C46.7537 108.233 48.0021 107.594 49.1342 106.723C50.6148 105.591 51.7469 104.053 52.3566 102.311C52.9662 100.569 52.8792 98.711 52.0373 97.0563C51.6018 96.1854 50.9631 95.4306 50.2373 94.7919C50.0341 94.6178 49.831 94.4145 49.5697 94.2984C49.4536 94.2403 49.3665 94.1823 49.2503 94.1533C49.2794 93.863 49.2504 93.5726 49.1923 93.3114C50.3535 93.6017 51.5147 93.8049 52.7049 93.7468C53.5468 93.7178 55.5209 93.5436 55.0855 92.1792C54.9403 91.7437 54.6209 91.3663 54.3016 91.076C53.8371 90.6406 53.3436 90.2632 52.8211 89.9148C52.734 89.8568 52.6179 89.7987 52.5308 89.7116C53.0243 89.9148 53.5178 90.1471 54.0113 90.3793C54.8822 90.7857 55.7822 91.4244 56.7982 91.4534C57.6401 91.4825 58.482 90.9889 58.6561 90.118C58.8303 89.2762 58.3949 88.5214 57.8433 87.9117C58.2498 87.8537 58.6562 87.7085 58.9755 87.3892C60.5431 85.9667 58.3949 84.1088 57.3498 83.1508C56.0724 81.9895 54.621 80.9735 53.0533 80.1897C52.3856 79.8703 51.7179 79.58 51.0502 79.3187C51.3986 78.9413 51.8921 78.7381 52.4727 78.6511C53.5178 78.5059 54.5339 78.8252 55.4919 79.2026C56.566 79.6091 57.6401 80.1606 58.8304 80.2187C59.8174 80.2768 60.8625 79.8703 61.1528 78.8252C61.4721 77.8092 60.9205 76.7931 60.1367 76.1835ZM40.2219 123.996C40.1928 123.735 40.3961 123.445 40.6573 123.3C40.8315 123.184 41.0638 123.126 41.267 123.097C40.9186 123.416 40.5702 123.706 40.2219 123.996ZM58.1626 79.2026C57.0595 78.9123 56.0144 78.3898 54.9403 78.0414C53.3727 77.5479 51.2244 77.5769 50.1793 78.9994C49.2794 78.7091 48.3214 78.4769 47.3924 78.3317C46.8408 78.2446 46.6086 79.0865 47.1602 79.1736C50.3245 79.6671 53.3436 80.9735 55.8402 82.9475C56.4499 83.4411 57.0595 83.9636 57.6111 84.5442C58.0465 84.9797 59.0045 85.7925 58.5981 86.4892C58.2788 87.0698 57.6111 87.0989 57.0014 87.0118C55.8402 85.8796 54.5048 84.8926 53.0823 84.0797C51.2244 83.0346 49.1923 82.2798 47.1021 81.9025C46.5505 81.7863 46.3183 82.6282 46.8699 82.7443C50.2664 83.383 53.4597 84.9506 55.9854 87.2731C56.3047 87.5634 56.595 87.8537 56.8853 88.144C57.2047 88.4923 57.582 88.8407 57.7272 89.3052C58.0465 90.1761 57.2917 90.6986 56.4789 90.5535C56.0144 90.4664 55.608 90.2342 55.2016 90.0309C54.7951 89.8277 54.3597 89.6245 53.9532 89.4213C53.0823 89.0149 52.2115 88.6375 51.3115 88.3182C49.9181 87.7666 48.4665 87.3021 47.015 86.9247C46.986 86.9247 46.9569 86.8957 46.8989 86.8957C46.4344 86.7215 45.9699 86.5763 45.4764 86.5183C45.4474 86.5183 45.3893 86.5183 45.3603 86.5183C45.3022 86.5183 45.2442 86.4893 45.1861 86.4602C44.6345 86.3441 44.4023 87.186 44.9538 87.3021C45.5635 87.4182 46.1441 87.5634 46.7537 87.7375C47.1601 87.8827 47.5956 88.0569 48.002 88.2601C49.2213 88.8117 50.4406 89.4503 51.5728 90.1761C52.0953 90.4954 52.5888 90.8438 53.0823 91.2212C53.2855 91.3663 53.4888 91.5405 53.6629 91.7147C53.7791 91.8308 54.0113 92.0631 54.0403 92.1211C54.0984 92.1792 54.1274 92.2663 54.1855 92.3244C54.1855 92.3244 54.2146 92.3534 54.2146 92.3824C54.2146 92.4114 54.2435 92.4405 54.2435 92.4695C54.2435 92.4695 54.2435 92.4695 54.2435 92.4985C54.2435 92.4985 54.2435 92.5276 54.2435 92.5566L54.2146 92.5856C54.1855 92.6146 54.0984 92.6437 54.0984 92.6437C53.8081 92.7598 53.4888 92.7888 53.1694 92.8179C50.4116 93.0791 47.7117 91.9179 45.1861 91.047C44.6635 90.8728 44.4313 91.7147 44.9538 91.8889C46.028 92.2663 47.1311 92.6437 48.2343 92.9921C48.2633 93.0501 48.2633 93.1082 48.2923 93.1662C48.4084 93.6017 48.4665 94.0662 48.2923 94.5016C48.2633 94.5887 48.2633 94.6468 48.2633 94.7048C47.8279 95.2854 46.9279 95.5177 46.2602 95.6048C45.0409 95.779 43.7926 95.6919 42.5734 95.4886C40.4251 95.1403 37.9285 94.2984 36.7673 92.2953C36.0125 90.9889 36.3608 89.5955 37.1737 88.4343C38.3639 86.4893 39.6994 84.6313 40.9767 82.7443C41.5283 81.9315 42.0798 81.0896 42.5734 80.2187C43.0959 79.3188 43.6475 78.4478 44.3152 77.664C44.9829 76.9092 45.7086 76.2415 46.5505 75.69C47.3343 75.1964 48.2053 74.6739 49.1342 74.5287C50.0922 74.3836 51.1083 74.4997 52.0373 74.6449C53.0533 74.79 54.0403 74.9932 55.0564 75.2255C56.2176 75.4867 57.3788 75.8061 58.482 76.2415C59.3529 76.5899 60.3689 77.1995 60.3399 78.2737C60.3689 79.4639 58.9755 79.4349 58.1626 79.2026Z" fill="black"/>
  <path d="M32.819 47.2406C32.3836 46.9213 32.819 46.1665 33.2545 46.4858C36.3317 48.7792 39.409 51.1017 42.5152 53.3951C42.9507 53.7144 42.5152 54.4692 42.0798 54.1499C39.0025 51.8274 35.8963 49.534 32.819 47.2406ZM42.312 47.56C43.9668 49.0986 45.6215 50.6372 47.3052 52.1758C47.7117 52.5532 48.3212 51.9436 47.9148 51.5662C46.2601 50.0275 44.6054 48.4889 42.9216 46.9503C42.5152 46.5729 41.9056 47.1826 42.312 47.56ZM107.775 58.7657C110.562 56.7045 113.378 54.6434 116.165 52.5822C116.601 52.2629 116.165 51.5081 115.73 51.8274C112.943 53.8886 110.127 55.9497 107.34 58.0109C106.876 58.3593 107.311 59.114 107.775 58.7657ZM110.766 61.7848C112.101 61.1752 113.436 60.5946 114.772 59.985C114.975 59.8979 115.033 59.5785 114.917 59.3753C114.801 59.1431 114.54 59.1141 114.307 59.2302C112.972 59.8398 111.636 60.4204 110.301 61.03C110.098 61.1171 110.04 61.4365 110.156 61.6397C110.301 61.8429 110.562 61.8719 110.766 61.7848ZM36.2446 56.3852C36.9123 56.7045 37.5801 57.0529 38.2478 57.3722C38.451 57.4883 38.7412 57.4303 38.8574 57.2271C38.9735 57.0239 38.9154 56.7336 38.7122 56.6174C38.0445 56.2981 37.3769 55.9497 36.7092 55.6304C36.5059 55.5143 36.2156 55.5723 36.0995 55.7756C35.9834 55.9788 36.0124 56.2691 36.2446 56.3852Z" fill="black"/>
</svg>