<svg width="80" height="80" viewBox="0 0 80 80" fill="none" xmlns="http://www.w3.org/2000/svg">
<g clip-path="url(#clip0_30990_34398)">
<path d="M14.6055 45.8534C14.6055 44.9529 14.6153 42.546 14.5931 42.2494C14.6124 38.6679 12.0116 36.1414 10.3685 36.3384C9.23155 36.4372 8.27869 36.9014 7.76707 38.2367C7.29288 39.4812 7.71683 41.1365 9.29339 41.5249C10.9792 41.9421 11.9636 42.2891 12.676 42.7788C13.5489 43.3782 14.2615 44.5235 14.2804 45.8548" fill="#0060AF"/>
<path d="M15.2819 51.2967C12.3094 51.2967 9.25454 50.5637 6.20373 49.1139L6.12887 49.077L6.09307 49.0006C4.724 46.1071 4 42.9423 4 39.846C4 36.7543 4.6943 33.725 6.06439 30.8353L6.10202 30.7586L6.17831 30.7203C9.00046 29.3817 12.0364 28.7036 15.2046 28.7036C18.1559 28.7036 21.3078 29.4585 24.3182 30.8903L24.3955 30.9248L24.4311 31.003C25.8264 33.9498 26.5622 37.1138 26.5622 40.1588C26.5622 43.1921 25.8557 46.2241 24.4587 49.1691L24.4219 49.2465L24.3442 49.2823C21.5652 50.5995 18.4312 51.2967 15.2819 51.2967ZM6.48609 48.7171C9.44983 50.1129 12.4056 50.8179 15.2819 50.8179C18.3317 50.8179 21.3648 50.1504 24.0647 48.8851C25.4059 46.0314 26.0858 43.0943 26.0858 40.1588C26.0858 37.2116 25.3762 34.1458 24.034 31.2857C21.1126 29.9106 18.0615 29.1814 15.2046 29.1814C12.1373 29.1814 9.19738 29.8328 6.46046 31.1178C5.14672 33.9187 4.47806 36.8535 4.47806 39.846C4.47806 42.8442 5.17297 45.9112 6.48609 48.7171Z" fill="#0060AF"/>
<path d="M13.9016 45.8552C13.9071 44.7009 13.2636 43.6803 12.4226 43.1318C11.6767 42.647 10.6752 42.3284 9.05958 41.9182C8.56016 41.7903 8.03776 41.5062 7.87603 41.144C7.44823 41.5756 7.37052 42.546 7.44579 43.113C7.53326 43.7693 8.29917 44.8508 9.4524 44.8932C10.1567 44.9215 11.0471 44.7414 11.4741 44.6506C12.2107 44.4913 13.3761 44.9533 13.5616 45.8538" fill="#0060AF"/>
<path d="M15.205 30.7563C13.2496 30.7563 11.5606 32.0475 11.5667 34.2817C11.5728 36.1604 13.0818 37.1662 13.6203 37.8846C14.434 38.9671 14.8744 40.2485 14.9202 42.2091C14.9558 43.7695 14.9539 45.3104 14.9619 45.8564H15.3935C15.386 45.2851 15.3665 43.6494 15.3889 42.1609C15.4182 40.1996 15.8744 38.9671 16.6886 37.8846C17.2317 37.1662 18.7395 36.1604 18.7428 34.2817C18.7501 32.0475 17.0621 30.7563 15.1083 30.7563" fill="#0060AF"/>
<path d="M15.7014 45.8534C15.7014 44.9529 15.6912 42.546 15.7129 42.2494C15.6938 38.6679 18.293 36.1414 19.9375 36.3384C21.0745 36.4372 22.0263 36.9014 22.5394 38.2367C23.0132 39.4812 22.5868 41.1365 21.012 41.5249C19.3254 41.9421 18.3422 42.2891 17.628 42.7788C16.7561 43.3782 16.0934 44.5235 16.073 45.8548" fill="#0060AF"/>
<path d="M16.4021 45.8552C16.396 44.7009 17.0393 43.6803 17.8778 43.1318C18.6268 42.647 19.6295 42.3284 21.2437 41.9182C21.7442 41.7903 22.2659 41.5062 22.4248 41.144C22.8547 41.5756 22.9322 42.546 22.8569 43.113C22.7676 43.7693 22.0037 44.8508 20.8525 44.8932C20.1485 44.9215 19.2534 44.7414 18.8282 44.6506C18.0945 44.4913 16.9258 44.9533 16.7394 45.8538" fill="#0060AF"/>
<path d="M17.0063 49.5809L16.7561 47.7529L17.3601 47.6612C17.5072 47.6411 17.6862 47.6667 17.7578 47.759C17.8369 47.8553 17.8611 47.935 17.8764 48.0613C17.8992 48.2175 17.854 48.3982 17.6782 48.4882V48.4937C17.8745 48.4937 17.9931 48.6348 18.0275 48.8731C18.0326 48.9234 18.0475 49.045 18.0326 49.1464C17.9927 49.3878 17.8489 49.4654 17.6062 49.4994L17.0063 49.5809ZM17.3951 49.2536C17.4667 49.2434 17.5393 49.2396 17.5961 49.2033C17.6829 49.1465 17.675 49.0249 17.663 48.9347C17.6327 48.7363 17.581 48.6609 17.3709 48.6921L17.2388 48.7124L17.3224 49.2638L17.3951 49.2536ZM17.2685 48.4089C17.3485 48.396 17.4569 48.3863 17.5021 48.3104C17.5257 48.2596 17.556 48.2193 17.536 48.1065C17.5114 47.9727 17.4671 47.8898 17.2974 47.9219L17.1394 47.9474L17.2016 48.4159" fill="#0060AF"/>
<path d="M19.6238 48.481C19.6285 48.515 19.634 48.5529 19.636 48.5869C19.6848 48.9204 19.6238 49.1964 19.2495 49.2723C18.6961 49.3791 18.5902 49.0348 18.4927 48.5529L18.4408 48.2922C18.3646 47.8311 18.3318 47.482 18.8713 47.3744C19.1754 47.3188 19.3764 47.44 19.46 47.7431C19.473 47.7883 19.4893 47.8331 19.4954 47.8785L19.1644 47.947C19.1262 47.8331 19.0755 47.6296 18.9266 47.6467C18.6593 47.6789 18.7476 48.0119 18.7751 48.1511L18.8746 48.6515C18.9045 48.8028 18.9639 49.0446 19.1952 48.998C19.3829 48.9603 19.3011 48.6674 19.2845 48.5474" fill="#0060AF"/>
<path d="M20.1595 49.035L20.0449 47.1432L20.4896 47.0073L21.4219 48.6527L21.0718 48.7576L20.8509 48.3394L20.4622 48.4563L20.5124 48.9317L20.1595 49.035ZM20.4296 48.1508L20.7105 48.0693L20.3375 47.3039" fill="#0060AF"/>
<path d="M9.17324 47.6045C9.31238 47.1585 9.43709 46.8301 9.96803 46.976C10.2522 47.0554 10.4284 47.1809 10.42 47.5115C10.4187 47.585 10.3944 47.6599 10.3785 47.7327L10.048 47.6412C10.0913 47.4587 10.1188 47.3139 9.89419 47.2446C9.63461 47.1734 9.57135 47.4884 9.53554 47.6245L9.40108 48.1205C9.35836 48.2677 9.30709 48.5111 9.53554 48.5739C9.72432 48.6248 9.83885 48.4392 9.90721 48.1683L9.67591 48.107L9.75586 47.82L10.2996 47.9952L10.0415 48.9511L9.79125 48.883L9.8476 48.681H9.84048C9.72534 48.8462 9.58477 48.8635 9.46169 48.8399C8.91793 48.6926 8.97469 48.3368 9.10448 47.8614" fill="#0060AF"/>
<path d="M11.1962 48.4129L11.0324 49.1906L10.6638 49.1107L11.0566 47.2949L11.685 47.4371C12.0528 47.5165 12.1639 47.6805 12.1118 48.018C12.0821 48.2117 11.9867 48.4205 11.7538 48.4036L11.7513 48.4004C11.9483 48.4694 11.9649 48.5688 11.9306 48.7408C11.9157 48.8139 11.8134 49.2577 11.884 49.3294L11.8864 49.3838L11.505 49.2842C11.4891 49.1611 11.543 48.9399 11.5644 48.8175C11.586 48.7092 11.6203 48.5564 11.5105 48.499C11.4244 48.4531 11.3925 48.4554 11.2953 48.433L11.1962 48.4129ZM11.259 48.1317L11.5072 48.1987C11.658 48.2205 11.7418 48.1422 11.7715 47.9599C11.7983 47.7927 11.7635 47.7273 11.6283 47.695L11.3622 47.641" fill="#0060AF"/>
<path d="M13.5615 47.699L13.926 47.7414L13.769 49.0178C13.6927 49.4226 13.5365 49.5996 13.0918 49.5441C12.6394 49.4869 12.532 49.2806 12.5594 48.8726L12.7175 47.5972L13.0849 47.6393L12.9272 48.8863C12.9105 49.0217 12.8792 49.2223 13.1199 49.2466C13.3333 49.2629 13.3817 49.1213 13.4057 48.9453" fill="#0060AF"/>
<path d="M14.3247 49.6149L14.4344 47.7896L15.1348 47.8199C15.4657 47.8362 15.5524 48.1069 15.542 48.3652C15.5325 48.5222 15.4834 48.6976 15.3467 48.7927C15.2346 48.8735 15.0906 48.8927 14.957 48.8862L14.7287 48.8735L14.6831 49.6385L14.3247 49.6149ZM14.7391 48.5951L14.9246 48.6055C15.0754 48.611 15.1752 48.5513 15.1883 48.3297C15.1956 48.1169 15.1152 48.0808 14.9199 48.0723L14.7729 48.0672" fill="#0060AF"/>
<path d="M63.727 32.5205L60.9433 37.5793C59.8926 36.7251 58.6096 36.0963 56.9726 36.0963C53.0987 36.0963 51.5252 38.9876 51.5252 41.0242C51.5252 42.5359 52.5139 44.7664 55.9607 44.7664C57.4075 44.7664 59.4644 43.7586 60.0563 43.3001L57.3032 49.1692C55.9908 49.4314 55.5598 49.5939 54.4489 49.6283C48.2795 49.8126 45.7865 46.0181 45.7883 42.1406C45.7924 37.0147 50.3441 30.7809 57.8896 30.7809C58.352 30.7809 58.9176 30.941 59.4011 31.1184L59.8897 30.4927" fill="#0060AF"/>
<path d="M75.2096 30.6509L75.9979 49.0376H70.1314L70.128 45.8842H66.1278L64.8112 49.0376H58.449L65.1004 35.9079L63.6006 35.8981L66.4504 30.6509H75.2096ZM70.0899 36.2757L67.8282 41.6238H70.1581" fill="#0060AF"/>
<path d="M42.0849 30.6518C44.99 30.6681 46.6317 32.247 46.6317 34.5278C46.6317 36.6304 44.9003 38.4917 42.9997 39.4541C44.9565 40.1743 45.1257 41.9422 45.1257 43.193C45.1257 46.2148 42.0973 49.0385 38.1607 49.0385H29.5757L32.9245 36.0917L31.5489 36.0837L34.3609 30.6518C34.3609 30.6518 39.7225 30.6355 42.0849 30.6518ZM39.2346 38.1065C39.8356 38.1065 40.8966 37.9541 41.1619 36.7897C41.4526 35.5257 40.4568 35.4916 39.9792 35.4916L38.2724 35.4842L37.6772 38.1066L39.2346 38.1065ZM36.8216 41.3556L36.0357 44.3774H38.0454C38.8361 44.3774 39.9137 43.9845 40.1777 43.0012C40.4385 42.0149 39.6852 41.3556 38.8974 41.3556" fill="#0060AF"/>
</g>
<defs>
<clipPath id="clip0_30990_34398">
<rect width="72" height="22.5931" fill="white" transform="translate(4 28.7036)"/>
</clipPath>
</defs>
</svg>
