<svg width="80" height="80" viewBox="0 0 80 80" fill="none" xmlns="http://www.w3.org/2000/svg">
<g clip-path="url(#clip0_30990_34452)">
<path d="M23.7389 49.3121H4V29.5723H23.7389V49.3121Z" fill="white"/>
<path d="M11.9377 42.8958L14.0418 41.1973C13.6889 40.7544 13.3539 40.3076 13.0384 39.8464C10.6046 36.325 9.1627 32.7427 10.2039 29.5723H4V32.9939L11.9377 42.8958Z" fill="#F15A22"/>
<path d="M15.2559 37.779C15.3876 36.6614 15.7264 34.5535 17.7763 32.9876C19.5513 31.6362 21.7725 31.3763 23.7396 32.2117V29.5723H12.7879C12.0652 32.7838 13.9636 36.3129 15.2559 37.779Z" fill="#F15A22"/>
<path d="M17.9118 34.5583L17.904 34.5638C15.843 36.2385 16.3498 38.8668 18.2685 41.2236C19.7463 43.0426 21.7235 44.3195 23.7386 43.3514V35.5914C21.9283 33.7371 19.7555 33.0583 17.9118 34.5583Z" fill="#F15A22"/>
<path d="M4 37.0415V49.3098H4.0029L9.97491 44.4792L4 37.0415Z" fill="#F15A22"/>
<path d="M14.8621 42.1705C14.2754 42.6526 13.5508 43.2426 12.7468 43.8994L13.5227 44.8656C14.6442 46.2683 16.2856 48.6986 18.318 48.0408L18.3936 48.1332L16.9492 49.3099H23.7397V44.6428C20.246 46.5412 17.242 44.8133 14.8621 42.1705Z" fill="#F15A22"/>
<path d="M11.5845 46.4849L10.7805 45.4849C9.13241 46.8077 7.40247 48.1945 5.99829 49.3102H13.5962C13.1029 48.2632 12.2065 47.2603 11.5845 46.4849Z" fill="#F15A22"/>
<path d="M40.1802 37.8178C41.9992 37.4998 43.1832 35.9291 43.1832 33.9247C43.1832 31.2538 40.8714 29.5728 36.9149 29.5728H29.0847V29.6638C30.6844 30.5409 30.6477 31.9566 30.6477 33.309V45.5454C30.6477 46.921 30.6845 48.3513 29.0847 49.2144V49.3035H32.8553C36.5388 49.3035 39.3641 49.3664 41.4726 48.3751C43.7127 47.3224 45.0699 45.4332 45.0699 43.1297C45.0699 40.1896 42.8826 38.386 40.1802 37.8178ZM33.7184 31.3928L36.1966 31.4335C38.0345 31.4335 39.9135 32.3333 39.9135 34.403C39.9135 36.8624 38.2504 37.5197 35.881 37.5197L33.7184 37.5224V37.5197V31.3928ZM36.1071 47.2759L33.7184 47.2786V39.4992V39.3889L36.2866 39.3766C39.2756 39.3766 41.7427 40.4865 41.7427 43.3965C41.7427 46.246 39.1526 47.2759 36.1071 47.2759Z" fill="#006885"/>
<path d="M51.0721 45.5463C51.0721 47.2297 51.0416 48.4248 52.6316 49.3595V49.4443H47.3237V49.3595C48.9118 48.4248 48.8843 47.2297 48.8843 45.5463V33.5563C48.8843 31.8854 48.9118 30.5606 47.3257 29.6651V29.5728H51.7318V29.6023C51.849 29.96 52.044 30.1609 52.18 30.3545C52.3214 30.5413 52.5992 30.9513 52.5992 30.9513L62.7068 44.5739V33.4397C62.7068 31.7611 62.7329 30.5607 61.1482 29.6652V29.5728H66.4242V29.6652C64.8661 30.5607 64.8661 31.7611 64.8661 33.4397V50.4273C63.9024 50.045 61.2155 47.8078 59.3021 45.2337C55.8674 40.6208 51.0721 34.2054 51.0721 34.2054V45.5463Z" fill="#006885"/>
<path d="M71.3462 33.1493C71.3462 31.7702 71.3225 30.5408 69.79 29.6652V29.5723H76.0002V29.6652C74.4614 30.5142 74.4479 31.7974 74.4479 33.1493V45.7607C74.4479 47.1083 74.4121 48.4742 76.0002 49.3528V49.4417H69.79V49.3528C71.3873 48.4616 71.3462 47.1199 71.3462 45.769V33.1493Z" fill="#006885"/>
</g>
<defs>
<clipPath id="clip0_30990_34452">
<rect width="72" height="20.8551" fill="white" transform="translate(4 29.5723)"/>
</clipPath>
</defs>
</svg>
