<svg width="80" height="80" viewBox="0 0 80 80" fill="none" xmlns="http://www.w3.org/2000/svg">
<g clip-path="url(#clip0_30990_34416)">
<path d="M23.4824 35.7794H27.3624C28.9338 35.7794 30.1053 36.468 30.1053 37.9187C30.1053 38.9823 29.5617 39.5744 28.6188 39.8887V39.913C29.7431 40.143 30.3231 40.7473 30.3231 41.7744C30.3231 43.793 28.546 44.2158 27.0353 44.2158H23.4824V35.7794ZM25.7303 39.1158H26.3588C27.096 39.1158 27.8581 38.9344 27.8581 38.2208C27.8581 37.448 27.1324 37.3751 26.3824 37.3751H25.7303V39.1158ZM25.7303 42.6208H26.3953C27.2174 42.6208 28.0753 42.4994 28.0753 41.6415C28.0753 40.723 27.1931 40.6387 26.4188 40.6387H25.7303V42.6208Z" fill="#00529C"/>
<path d="M33.2712 35.7794H36.0269L39.2783 44.2158H36.8126L36.1841 42.4151H33.0176L32.3526 44.2158H30.0684L33.2712 35.7794ZM34.6491 37.5201H34.6248L33.5369 40.8201H35.6526L34.6491 37.5201Z" fill="#00529C"/>
<path d="M39.5898 35.7794H42.4541L45.307 41.5087H45.3305L45.2948 35.7794H47.3498V44.2158H44.557L41.6084 38.4501H41.5848L41.6563 44.2158H39.5898V35.7794Z" fill="#00529C"/>
<path d="M48.1152 35.7794H50.3631V39.2244H50.3874L52.9252 35.7794H55.6324L52.5145 39.7073L55.8745 44.2158H53.0095L50.3874 40.3844H50.3631V44.2158H48.1152V35.7794Z" fill="#00529C"/>
<path d="M58.6621 35.7794H62.5421C64.1128 35.7794 65.2857 36.468 65.2857 37.9187C65.2857 38.9823 64.7421 39.5744 63.7992 39.8887V39.913C64.9235 40.143 65.5028 40.7473 65.5028 41.7744C65.5028 43.793 63.7264 44.2158 62.2157 44.2158H58.6621V35.7794ZM60.91 39.1158H61.5385C62.2764 39.1158 63.0371 38.9344 63.0371 38.2208C63.0371 37.448 62.3128 37.3751 61.5628 37.3751H60.91V39.1158ZM60.91 42.6208H61.575C62.3964 42.6208 63.255 42.4994 63.255 41.6415C63.255 40.723 62.3728 40.6387 61.5992 40.6387H60.91V42.6208Z" fill="#00529C"/>
<path d="M66.0039 35.7794H70.0168C71.5153 35.7794 72.736 36.4566 72.736 37.9073C72.736 39.0308 72.2046 39.7801 71.1167 40.0337V40.058C71.841 40.2515 71.8896 40.8923 72.3132 41.9194L73.1346 44.2158H70.7903L70.3068 42.6937C69.8475 41.243 69.5568 40.8794 68.7232 40.8794H68.2518V44.2158H66.0039V35.7794ZM68.2518 39.2844H68.8439C69.5696 39.2844 70.4882 39.2601 70.4882 38.3051C70.4882 37.5201 69.7025 37.3751 68.8439 37.3751H68.2518V39.2844Z" fill="#00529C"/>
<path d="M18.3514 31.5254H6.58642C5.15785 31.5254 4 32.7118 4 34.1754V34.2033V45.8268C4 47.2761 5.13642 48.4546 6.54642 48.4761H18.345C19.7735 48.4761 20.9321 47.2904 20.9321 45.8268L20.9371 34.1754C20.9371 32.7118 19.78 31.5254 18.3514 31.5254ZM7.98427 47.1182L7.34285 47.1254C6.56571 47.1254 5.93571 46.4868 5.93571 45.6989L5.93214 45.5868V34.8268L5.93642 34.2468C5.96571 33.4847 6.54499 32.8718 7.30285 32.8718H8.60784C9.7907 32.8718 10.7493 33.9004 10.7493 35.1125C10.7493 35.7125 10.5143 36.2568 10.1336 36.6525L6.80428 40.0311L9.92498 43.2089C10.3271 43.6239 10.57 44.1682 10.57 44.7647C10.57 46.0647 9.41284 47.1182 7.98427 47.1182ZM17.5778 47.1075L11.76 47.1054C11.76 47.1054 12.4321 45.6518 12.4321 44.7518C12.4321 43.6539 12.0657 42.6739 11.4914 42.0254L9.50141 39.9968L11.5321 37.8982C12.1371 37.3304 12.5385 36.3218 12.5385 35.1725C12.5385 34.2625 12.2871 33.4568 11.8821 32.8718H13.2914C14.4743 32.8718 15.4335 33.9004 15.4335 35.1125C15.4335 35.7125 15.1985 36.2568 14.8178 36.6525L11.5521 39.9961L18.335 46.9125C18.12 47.0475 17.8492 47.1075 17.5778 47.1075ZM18.9985 44.9482L14.1378 39.994L16.4528 37.6411C16.9235 37.0518 17.2228 36.1647 17.2228 35.1725C17.2228 34.2568 16.9678 33.4304 16.5592 32.8454L17.595 32.8768C18.3721 32.8768 19.0021 33.5154 19.0021 34.3033L18.9985 44.9482Z" fill="#00529C"/>
<path d="M73.75 35.7793H75.9978V44.2157H73.75V35.7793Z" fill="#00529C"/>
</g>
<defs>
<clipPath id="clip0_30990_34416">
<rect width="72" height="16.9507" fill="white" transform="translate(4 31.5249)"/>
</clipPath>
</defs>
</svg>
