<svg width="80" height="80" viewBox="0 0 80 80" fill="none" xmlns="http://www.w3.org/2000/svg">
<g clip-path="url(#clip0_30990_34582)">
<path d="M13.7085 30.2881C12.0235 30.2881 10.4453 30.7203 9.06131 31.473L10.8969 33.6242L12.1983 35.1101C12.7227 34.9304 13.286 34.8333 13.8688 34.8333C16.7241 34.8333 19.0404 37.1496 19.0404 40.005C19.0404 42.0202 17.8895 43.7635 16.2094 44.6133C16.1074 44.6716 14.2135 45.7399 10.9697 45.7399L5.86121 45.7253C7.62879 48.1436 10.4841 49.7121 13.7037 49.7121C19.0695 49.7121 23.4157 45.366 23.4157 40.0001C23.4157 34.6342 19.0744 30.2881 13.7085 30.2881Z" fill="#ED1C24"/>
<path d="M6.04138 34.0466L9.94561 36.6446C10.3487 36.1687 10.8391 35.7705 11.3878 35.4695L8.00321 32.1479C7.26024 32.687 6.59982 33.328 6.04138 34.0515V34.0466Z" fill="#ED1C24"/>
<path d="M9.62463 39.3979L14.4078 41.2432V40.1117L10.3336 37.7954C10.0131 38.2179 9.7606 38.7423 9.62463 39.3979Z" fill="#ED1C24"/>
<path d="M10.8481 37.2469L14.4076 39.6166V38.4366L12.3487 36.4165C11.8291 36.5913 11.3046 36.8535 10.8481 37.2469Z" fill="#ED1C24"/>
<path d="M14.4079 43.0252V41.7238L9.51786 40.1844C9.4693 40.9371 9.55185 41.8209 9.80437 42.8698C9.80437 42.8698 8.68748 41.7092 8.68263 39.9222L4.11798 38.48C4.04029 38.9753 3.99658 39.4803 3.99658 39.9999C3.99658 41.0537 4.16654 42.0734 4.47733 43.0252H14.4079Z" fill="#ED1C24"/>
<path d="M4.37598 37.3194L8.71725 39.0676C8.82408 38.4266 9.05717 37.8293 9.38737 37.3L5.41516 34.9448C4.96841 35.6781 4.61392 36.4745 4.37598 37.3194Z" fill="#ED1C24"/>
<path d="M8.62504 43.6177H4.69653C4.90534 44.1324 5.153 44.6277 5.44436 45.0988H12.4564L13.3548 44.1518H9.13492L8.6299 43.6177H8.62504Z" fill="#ED1C24"/>
<path d="M74.0546 41.9959C73.4087 42.9914 72.2918 43.6469 71.0147 43.6469C69.014 43.6469 67.3921 42.025 67.3921 40.0243C67.3921 38.0237 69.014 36.4018 71.0147 36.4018C72.2967 36.4018 73.4184 37.067 74.0594 38.0674L75.9921 35.3577C74.7538 34.032 72.9862 33.2017 71.0293 33.2017C67.2756 33.2017 64.2357 36.2464 64.2357 39.9952C64.2357 43.744 67.2804 46.7888 71.0293 46.7888C72.9717 46.7888 74.7198 45.973 75.9581 44.6667L74.0497 41.9862L74.0546 41.9959Z" fill="#ED1C24"/>
<path d="M50.1426 41.9959C49.4967 42.9914 48.3798 43.6469 47.1027 43.6469C45.102 43.6469 43.4801 42.025 43.4801 40.0243C43.4801 38.0237 45.102 36.4018 47.1027 36.4018C48.3847 36.4018 49.5064 37.067 50.1474 38.0674L52.0801 35.3577C50.8418 34.032 49.0743 33.2017 47.1173 33.2017C43.3636 33.2017 40.3237 36.2464 40.3237 39.9952C40.3237 43.744 43.3684 46.7888 47.1173 46.7888C49.0597 46.7888 50.8078 45.973 52.0461 44.6667L50.1377 41.9862L50.1426 41.9959Z" fill="#ED1C24"/>
<path d="M53.3772 33.4053H58.4808C61.2488 33.4053 62.9435 34.6873 62.9435 36.9841C62.9435 38.1884 62.453 39.0577 61.5304 39.6792C62.793 40.2425 63.3563 41.3157 63.3563 42.5977C63.3563 45.3656 61.2099 46.5893 58.5731 46.5893H53.3723V33.4053H53.3772ZM58.3789 38.7517C59.2675 38.7517 59.7434 38.1399 59.7434 37.3338C59.7434 36.5277 59.2724 35.9984 58.3254 35.9984H56.5336V38.7517H58.3789ZM58.5925 44.0156C59.5929 44.0156 60.1756 43.1804 60.1756 42.4326C60.1756 41.6848 59.6463 40.8738 58.6751 40.8738H56.5287V44.0156H58.5925Z" fill="#ED1C24"/>
<path d="M32.462 33.2065C28.7083 33.2065 25.6685 36.2513 25.6685 40.0001C25.6685 43.7489 28.7132 46.7936 32.462 46.7936C36.2108 46.7936 39.2556 43.7489 39.2556 40.0001C39.2556 36.2513 36.2108 33.2065 32.462 33.2065ZM32.4426 43.6518C30.4419 43.6518 28.82 42.0299 28.82 40.0292C28.82 38.0286 30.4419 36.4067 32.4426 36.4067C34.4433 36.4067 36.0652 38.0286 36.0652 40.0292C36.0652 42.0299 34.4433 43.6518 32.4426 43.6518Z" fill="#ED1C24"/>
</g>
<defs>
<clipPath id="clip0_30990_34582">
<rect width="72" height="19.424" fill="white" transform="translate(4 30.2881)"/>
</clipPath>
</defs>
</svg>
