<svg width="80" height="80" viewBox="0 0 80 80" fill="none" xmlns="http://www.w3.org/2000/svg">
<path d="M21.9775 52.2514C22.7019 52.2514 23.2912 52.1585 23.7454 51.9727C24.2103 51.7868 24.5725 51.5463 24.8321 51.2512C25.0916 50.956 25.27 50.6226 25.3673 50.251C25.4646 49.8793 25.5133 49.5022 25.5133 49.1196C25.5133 48.6823 25.4538 48.2888 25.3349 47.939C25.2267 47.5892 25.0321 47.294 24.751 47.0535C24.4806 46.813 24.1184 46.6272 23.6643 46.496C23.2101 46.3648 22.637 46.2993 21.945 46.2993H18.1173V52.2514H21.9775ZM18.1173 36.6905V42.5935H20.9719C21.5774 42.5935 22.1234 42.5498 22.61 42.4623C23.0966 42.3749 23.5075 42.2218 23.8427 42.0032C24.1887 41.7846 24.4482 41.484 24.6212 41.1013C24.805 40.7188 24.8969 40.2378 24.8969 39.6584C24.8969 39.09 24.8267 38.6199 24.6861 38.2482C24.5455 37.8657 24.3293 37.5596 24.0373 37.33C23.7454 37.1004 23.3723 36.9365 22.9182 36.8381C22.4748 36.7397 21.945 36.6905 21.3287 36.6905H18.1173ZM21.3287 32.5421C22.9614 32.5421 24.3509 32.6951 25.497 33.0012C26.6432 33.3072 27.5785 33.739 28.303 34.2966C29.0275 34.8541 29.5519 35.5318 29.8763 36.3298C30.2115 37.1278 30.3791 38.0187 30.3791 39.0025C30.3791 39.5382 30.3034 40.0574 30.152 40.5602C30.0006 41.0521 29.7627 41.5167 29.4383 41.954C29.114 42.3803 28.6977 42.7739 28.1895 43.1346C27.6812 43.4953 27.0703 43.8069 26.3567 44.0692C27.9137 44.4518 29.0653 45.0695 29.8114 45.9221C30.5575 46.7748 30.9305 47.8788 30.9305 49.2343C30.9305 50.251 30.7359 51.1965 30.3466 52.071C29.9574 52.9456 29.3843 53.7108 28.6274 54.3667C27.8813 55.0116 26.9568 55.5199 25.8539 55.8916C24.751 56.2523 23.4913 56.4327 22.0748 56.4327H12.6351V32.5421H21.3287Z" fill="#00A39D"/>
<path d="M47.7709 37.4148C47.6087 37.6769 47.4356 37.8734 47.2518 38.0044C47.0788 38.1355 46.8518 38.201 46.5706 38.201C46.3219 38.201 46.0516 38.1245 45.7597 37.9717C45.4785 37.8079 45.1541 37.6277 44.7865 37.4312C44.4297 37.2346 44.0188 37.0599 43.5538 36.9071C43.0889 36.7433 42.559 36.6614 41.9643 36.6614C40.9371 36.6614 40.1694 36.8852 39.6612 37.3329C39.1638 37.7697 38.9151 38.3648 38.9151 39.1182C38.9151 39.5986 39.0665 39.9971 39.3692 40.3138C39.672 40.6304 40.0667 40.9034 40.5533 41.1327C41.0506 41.362 41.6129 41.5749 42.2401 41.7715C42.878 41.9571 43.5268 42.17 44.1864 42.4102C44.846 42.6395 45.4893 42.9125 46.1165 43.2292C46.7544 43.5458 47.3167 43.9498 47.8033 44.4412C48.3007 44.9325 48.7008 45.5331 49.0035 46.2428C49.3063 46.9416 49.4577 47.7878 49.4577 48.7814C49.4577 49.8843 49.2684 50.9161 48.89 51.877C48.5115 52.8378 47.9601 53.6786 47.2356 54.3992C46.522 55.109 45.6353 55.6713 44.5756 56.0862C43.5268 56.4902 42.332 56.6922 40.9912 56.6922C40.2559 56.6922 39.5044 56.6158 38.7367 56.4629C37.9798 56.3101 37.2445 56.0971 36.5309 55.8242C35.8172 55.5403 35.1468 55.2072 34.5197 54.8251C33.8925 54.4429 33.3465 54.0171 32.8815 53.5476L34.5035 50.9598C34.6332 50.7741 34.8008 50.6213 35.0062 50.5012C35.2225 50.3701 35.455 50.3046 35.7037 50.3046C36.0281 50.3046 36.3525 50.4084 36.6768 50.6158C37.012 50.8233 37.3851 51.0526 37.796 51.3037C38.2177 51.5548 38.6988 51.7841 39.2395 51.9916C39.7801 52.1991 40.4181 52.3028 41.1534 52.3028C42.1482 52.3028 42.9213 52.0844 43.4727 51.6477C44.0242 51.2 44.2999 50.4957 44.2999 49.5348C44.2999 48.978 44.1485 48.5248 43.8458 48.1754C43.543 47.826 43.1429 47.5367 42.6455 47.3074C42.159 47.0781 41.6021 46.8761 40.975 46.7014C40.3478 46.5267 39.7044 46.3356 39.0449 46.1281C38.3853 45.9097 37.7419 45.6477 37.1148 45.342C36.4876 45.0253 35.9253 44.6159 35.4279 44.1136C34.9414 43.6004 34.5467 42.9671 34.2439 42.2137C33.9412 41.4494 33.7898 40.5103 33.7898 39.3966C33.7898 38.5013 33.9682 37.6277 34.325 36.776C34.6819 35.9244 35.2063 35.1655 35.8983 34.4995C36.5903 33.8334 37.4391 33.3038 38.4447 32.9107C39.4503 32.5067 40.6019 32.3047 41.8995 32.3047C42.6239 32.3047 43.3268 32.3648 44.008 32.4849C44.7 32.5941 45.3542 32.7633 45.9705 32.9927C46.5868 33.211 47.1599 33.4785 47.6898 33.7952C48.2304 34.1009 48.7116 34.4503 49.1333 34.8434L47.7709 37.4148Z" fill="#00A39D"/>
<path fill-rule="evenodd" clip-rule="evenodd" d="M67.3649 31.5539C63.1556 31.1439 61.6756 33.4616 60.8498 34.608C59.7967 30.0249 58.0159 30.3863 56.1106 29.2318C58.8643 27.6334 59.6345 25.1485 59.5587 23.3081C62.256 25.2857 64.1367 25.0735 66.4659 24.4322C65.3069 27.8907 66.0387 28.8669 67.3649 31.5539Z" fill="#F8AD3C"/>
<path d="M58.5614 56.4427H52.8605V32.0113C56.4279 32.4946 58.567 35.4451 58.5614 38.568V56.4427Z" fill="#00A39D"/>
</svg>
