<svg width="80" height="80" viewBox="0 0 80 80" fill="none" xmlns="http://www.w3.org/2000/svg">
<g clip-path="url(#clip0_30990_34490)">
<path d="M22.7284 34.6086C20.4932 34.6086 18.4271 35.3635 16.747 36.6453V27.4814H11.4629V55.5894H16.747V53.9645C18.4259 55.2463 20.4932 56.0012 22.7284 56.0012C28.3556 56.0012 32.9192 51.2134 32.9192 45.3043C32.9192 39.3952 28.3556 34.6086 22.7284 34.6086ZM22.2223 50.7796C19.1991 50.7796 16.747 48.3275 16.747 45.3043C16.747 42.2811 19.1991 39.8302 22.2223 39.8302C25.2455 39.8302 27.6963 42.2811 27.6963 45.3043C27.6963 48.3275 25.2455 50.7796 22.2223 50.7796Z" fill="#015BFD"/>
<path d="M68.5351 42.3433V55.5879H63.2498V42.9144C63.2498 42.3115 63.0684 41.7147 62.7302 41.2147C62.1359 40.3361 61.1053 39.8912 60.0734 39.8067C59.1642 39.7319 58.1385 39.8998 57.3395 40.3581C57.0723 40.5113 56.8248 40.6963 56.603 40.9096C55.8898 41.5958 55.4645 42.5566 55.4645 43.5492V55.5892H50.1792V35.1341H55.4645V36.2357C55.4645 35.9183 56.9081 35.3081 57.1679 35.1978C57.8407 34.9135 58.5563 34.7382 59.2818 34.6586C64.0218 34.1366 68.5327 37.3386 68.5327 42.3446L68.5351 42.3433Z" fill="#015BFD"/>
<path d="M47.7488 40.2714V35.1331H41.7784V29.5757H40.0322L36.4931 32.0437V35.6576L32.9172 38.4454V40.2714H36.4931V48.2367C36.4931 48.9806 36.574 49.7244 36.759 50.4438C37.906 54.9142 41.9169 55.9987 44.1656 55.9987C46.6557 55.9987 47.75 55.196 47.75 55.196V50.1729C47.75 50.1729 46.8272 50.9033 44.4658 50.9033C43.521 50.9033 42.9021 50.5798 42.5002 50.1901C42.0284 49.7342 41.7784 49.0945 41.7784 48.4389V40.2701H47.7488V40.2714Z" fill="#015BFD"/>
<path d="M67.4195 24.0549L50.9103 30.3464C50.4716 30.513 50.1824 30.9346 50.1824 31.4039V32.5068C50.1824 32.6992 50.3564 32.845 50.5451 32.8107L65.9967 30.0351C67.4672 29.7704 68.5358 28.4923 68.5358 26.9985V24.8233C68.5358 24.2473 67.9587 23.8491 67.4207 24.0549H67.4195Z" fill="#FF0000"/>
</g>
<defs>
<clipPath id="clip0_30990_34490">
<rect width="57.0713" height="32" fill="white" transform="translate(11.4644 24)"/>
</clipPath>
</defs>
</svg>
