<svg width="80" height="80" viewBox="0 0 80 80" fill="none" xmlns="http://www.w3.org/2000/svg">
<g clip-path="url(#clip0_30990_34381)">
<path d="M4 34.4868H14.976C14.976 38.1453 14.976 41.8037 14.9754 45.4622C11.3169 45.4628 7.65845 45.4622 4 45.4628V34.4868ZM5.46192 36.5472C6.31609 37.6909 7.18288 38.8248 8.04103 39.9652C7.19018 41.1103 6.31808 42.2394 5.4659 43.3839C7.41402 43.3918 9.36148 43.3839 11.3096 43.3878C12.1863 42.2534 13.0312 41.0943 13.9139 39.9639L13.8973 39.9645C13.0372 38.8241 12.1731 37.6863 11.3142 36.5459C9.36347 36.5472 7.41269 36.5439 5.46192 36.5472Z" fill="#790008"/>
<path d="M18.697 37.694C19.3506 36.8791 20.3555 36.3557 21.3996 36.2965C22.3886 36.2202 23.3949 36.5675 24.1382 37.2218C23.8027 37.5599 23.4667 37.896 23.1286 38.2314C22.5567 37.7678 21.7623 37.5851 21.0503 37.7884C20.2559 37.9969 19.6182 38.6757 19.4409 39.4754C19.2244 40.3436 19.5372 41.3299 20.2512 41.8799C21.0669 42.5474 22.3322 42.5135 23.1339 41.8393C23.47 42.1761 23.8134 42.5069 24.1408 42.8529C23.4773 43.4295 22.6145 43.7762 21.7337 43.7868C20.6238 43.8174 19.512 43.3292 18.7873 42.4876C18.2805 41.9104 17.9577 41.1732 17.8853 40.408C17.7837 39.4436 18.0806 38.4439 18.697 37.694Z" fill="#790008"/>
<path d="M25.47 36.4958C25.9515 36.4958 26.4324 36.4964 26.914 36.4951C26.9153 38.859 26.914 41.2223 26.9146 43.5862C26.4331 43.5862 25.9515 43.5869 25.47 43.5855C25.4706 41.2223 25.47 38.859 25.47 36.4958Z" fill="#790008"/>
<path d="M28.6414 36.4795C29.1096 36.4782 29.5779 36.4822 30.0468 36.4775C30.8817 37.9793 31.6954 39.4944 32.5409 40.9908C33.3605 39.4844 34.1921 37.9853 35.0118 36.4789C35.484 36.4802 35.9563 36.4789 36.4292 36.4795C36.4265 38.8441 36.4338 41.208 36.4252 43.5726C35.9443 43.5653 35.4641 43.5739 34.9832 43.5679C34.9865 42.1685 34.9832 40.7696 34.9852 39.3708C34.1569 40.7849 33.3679 42.2229 32.525 43.6277C31.72 42.2043 30.893 40.7936 30.0847 39.3722C30.0873 40.7716 30.0853 42.1705 30.086 43.5699C29.6045 43.5699 29.1236 43.5693 28.642 43.5706C28.64 41.2067 28.642 38.8434 28.6414 36.4795Z" fill="#790008"/>
<path d="M38.0744 36.4951C39.0495 36.4964 40.0238 36.4951 40.9989 36.4958C41.4499 36.5044 41.9128 36.5994 42.2981 36.8445C43.2286 37.4131 43.4425 38.8896 42.6654 39.672C42.5658 39.7783 42.4475 39.866 42.33 39.951C42.773 40.1841 43.1131 40.6165 43.1954 41.1147C43.3157 41.7869 43.1622 42.5587 42.6408 43.0329C42.225 43.4308 41.6339 43.5742 41.0733 43.5815C40.0737 43.5922 39.0734 43.5835 38.0737 43.5862C38.0744 41.2223 38.0724 38.859 38.0744 36.4951ZM39.5184 37.791C39.5177 38.3057 39.5184 38.8205 39.5184 39.3353C39.9435 39.3339 40.3692 39.3373 40.795 39.3346C41.0427 39.33 41.3104 39.2781 41.4917 39.0955C41.7495 38.8218 41.7561 38.3602 41.5269 38.0666C41.3509 37.8547 41.06 37.789 40.7963 37.7903C40.3699 37.791 39.9441 37.791 39.5184 37.791ZM39.5184 40.6311C39.5184 41.1784 39.5177 41.7264 39.5184 42.2744C39.988 42.275 40.4576 42.2737 40.9272 42.2757C41.147 42.2823 41.3782 42.2206 41.5429 42.0685C41.871 41.7523 41.877 41.1632 41.5422 40.8497C41.3616 40.6783 41.1025 40.6338 40.8627 40.6305C40.4144 40.6298 39.9661 40.6305 39.5184 40.6311Z" fill="#790008"/>
<path d="M46.1915 36.4798C46.4326 36.4825 46.6737 36.4712 46.9148 36.4831C47.0251 36.5688 47.0868 36.703 47.1752 36.8106C48.4983 38.6179 49.8107 40.4332 51.1412 42.2352C51.1398 40.3163 51.1412 38.3981 51.1405 36.4792C51.3896 36.4792 51.6386 36.4792 51.8877 36.4792C51.8877 38.8371 51.8877 41.195 51.8877 43.553C51.636 43.553 51.3843 43.5523 51.1332 43.5543C49.7357 41.6321 48.3389 39.7092 46.9394 37.7883C46.9394 39.7099 46.9394 41.6314 46.9394 43.5523C46.6883 43.5516 46.4372 43.5576 46.1875 43.547C46.1988 41.1917 46.1895 38.8358 46.1915 36.4798Z" fill="#790008"/>
<path d="M53.7463 36.4795C53.9954 36.4795 54.2438 36.4795 54.4936 36.4795C54.4936 38.8374 54.4929 41.1947 54.4936 43.552C54.2445 43.554 53.9954 43.5526 53.747 43.5533C53.745 41.1954 53.747 38.8374 53.7463 36.4795Z" fill="#790008"/>
<path d="M55.6445 43.601C56.506 41.2424 57.3681 38.8838 58.2356 36.5278C58.581 36.5312 58.9257 36.5285 59.2711 36.5292C60.0927 38.8705 60.913 41.2131 61.7373 43.5531C61.4437 43.5525 61.1501 43.5538 60.8572 43.5525C60.6387 42.9261 60.4169 42.3005 60.1917 41.6761C59.216 41.6768 58.2409 41.6768 57.2659 41.6768C57.048 42.3177 56.8388 42.9627 56.6203 43.6036C56.2948 43.601 55.9693 43.605 55.6445 43.601ZM57.5648 40.8286C58.3412 40.8319 59.1183 40.8292 59.8948 40.8299C59.5056 39.6954 59.1217 38.559 58.7391 37.4225C58.3492 38.5583 57.9513 39.6914 57.5648 40.8286Z" fill="#790008"/>
<path d="M63.3951 37.687C63.9849 37.0799 64.7739 36.6435 65.6248 36.5651C66.6736 36.4595 67.7177 36.8487 68.5659 37.4459C68.4005 37.6604 68.2265 37.8676 68.0624 38.0828C67.7801 37.681 67.28 37.5309 66.829 37.4093C66.0446 37.1935 65.1545 37.3104 64.4923 37.7972C63.8939 38.2489 63.494 38.935 63.3353 39.6623C63.2456 40.4142 63.32 41.2352 63.7663 41.8715C63.9198 42.1119 64.1642 42.2667 64.3734 42.4533C64.8171 42.8153 65.399 42.9794 65.9662 42.9741C66.6643 42.9807 67.3551 42.802 67.9934 42.5277C67.9927 41.8011 67.9947 41.0744 67.9927 40.3478C67.4394 40.3484 66.8861 40.3484 66.3328 40.3478C66.3328 40.1273 66.3328 39.9067 66.3322 39.6862C67.1179 39.6816 67.9037 39.6862 68.6901 39.6836C68.6914 40.8074 68.6901 41.9306 68.6908 43.0544C67.9409 43.4729 67.0814 43.6482 66.2352 43.7326C65.3392 43.7512 64.4033 43.5214 63.7059 42.9362C63.0244 42.3763 62.6266 41.5241 62.5097 40.6606C62.42 39.6098 62.687 38.4907 63.3951 37.687Z" fill="#790008"/>
<path d="M69.8899 43.594C70.7554 41.2407 71.6168 38.8861 72.4756 36.5302C72.821 36.5282 73.1664 36.5322 73.5125 36.5269C74.3062 38.7619 75.082 41.0036 75.8731 43.24C75.9103 43.3403 75.9309 43.4452 75.9395 43.5528C75.6612 43.5542 75.3842 43.5528 75.1072 43.5542C74.8821 42.9298 74.6629 42.3028 74.441 41.6778C73.462 41.6764 72.483 41.6758 71.5046 41.6784C71.2947 42.3207 71.0768 42.9604 70.8656 43.602C70.5402 43.6 70.2147 43.6126 69.8899 43.594ZM72.9811 37.4275C72.5959 38.564 72.194 39.6945 71.8121 40.8322C72.5859 40.8283 73.3604 40.8309 74.1342 40.8309C73.7576 39.6938 73.367 38.5613 72.9811 37.4275Z" fill="#790008"/>
<path d="M5.46411 36.5469C7.41489 36.5436 9.36566 36.5469 11.3164 36.5456C12.1753 37.6861 13.0394 38.8238 13.8995 39.9643C11.9474 39.9683 9.99533 39.9663 8.04323 39.9649C7.18507 38.8245 6.31828 37.6907 5.46411 36.5469Z" fill="white"/>
<path d="M8.04241 39.9657C9.99452 39.967 11.9466 39.969 13.8987 39.965L13.9153 39.9644C13.0326 41.0948 12.1877 42.2539 11.311 43.3883C9.36286 43.3844 7.4154 43.3923 5.46729 43.3844C6.31946 42.2399 7.19157 41.1108 8.04241 39.9657Z" fill="#ED3024"/>
</g>
<defs>
<clipPath id="clip0_30990_34381">
<rect width="72" height="11.0258" fill="white" transform="translate(4 34.4873)"/>
</clipPath>
</defs>
</svg>
