<svg width="80" height="80" viewBox="0 0 80 80" fill="none" xmlns="http://www.w3.org/2000/svg">
<g clip-path="url(#clip0_30990_34471)">
<path d="M7.04255 42.6912H8.36193C9.11501 42.6912 9.72329 42.7512 10.3941 43.5257C10.8688 44.0611 11.3905 45.2443 11.3905 47.1583C11.3905 47.8454 11.3955 48.5256 11.2654 49.2247C11.0564 50.3273 10.5475 52.0948 7.63714 52.0948C6.85836 52.0948 7.04255 52.0746 7.04255 52.0746V42.6925V42.6912ZM8.53928 53.7261C12.4563 53.7261 14.21 51.9783 14.21 47.2045C14.21 45.9426 13.8391 43.8273 12.6636 42.537C11.4479 41.2125 9.8758 41.0471 8.54784 41.0471H4.18188V53.7261H8.53928Z" fill="#0B4D43"/>
<path d="M20.9018 50.4418C20.9018 50.8616 20.8898 51.4254 20.4443 51.8289C20.0707 52.1578 19.5448 52.1827 19.3443 52.1827C18.8474 52.1827 18.4001 52.002 18.2116 51.3877C18.1645 51.194 18.1456 50.9988 18.1456 50.8119C18.1456 49.8858 18.7599 49.496 19.4427 49.3298C19.8006 49.2469 20.0416 49.2312 20.9018 49.1595L20.9018 50.4418ZM20.9018 48.0164L19.4745 48.1569C17.9366 48.3332 17.3481 48.4737 16.6901 48.9108C15.6277 49.6331 15.614 50.6894 15.614 51.0364C15.614 51.9025 15.8769 52.5545 16.2352 52.9298C16.7072 53.4798 17.4551 53.6812 18.1774 53.6812C19.9483 53.6812 20.793 52.8767 20.793 52.8767L20.8051 53.449H23.1929V47.4509C23.1929 46.7758 23.209 45.8265 22.4347 45.1548C22.0294 44.8078 21.6747 44.6477 21.1264 44.5697C20.5815 44.4719 20.3922 44.4324 19.861 44.4324C18.2503 44.4324 17.0354 44.7158 16.3432 45.948C16.0461 46.4818 16.0614 47.0172 16.0614 47.4267H18.2504C18.2705 47.0696 18.2866 46.5751 18.5656 46.2315C18.7069 46.0363 19.0377 45.7578 19.6502 45.7578C19.8499 45.7578 20.4299 45.7578 20.7254 46.241C20.8901 46.5264 20.9038 46.8973 20.9038 47.3179V48.0162L20.9018 48.0164Z" fill="#0B4D43"/>
<path d="M39.9105 50.4418C39.9105 50.8616 39.8985 51.4254 39.4496 51.8289C39.0856 52.1578 38.5577 52.1827 38.3444 52.1827C37.8509 52.1827 37.4105 52.002 37.2195 51.3877C37.1716 51.194 37.1579 50.9988 37.1579 50.8119C37.1579 49.8858 37.7687 49.496 38.455 49.3298C38.8129 49.2469 39.0513 49.2312 39.9106 49.1595L39.9105 50.4418ZM39.9105 48.0164L38.4892 48.1569C36.9419 48.3332 36.3619 48.4737 35.6996 48.9108C34.6433 49.6331 34.627 50.6894 34.627 51.0364C34.627 51.9025 34.8822 52.5545 35.2369 52.9298C35.7159 53.4798 36.4681 53.6812 37.1869 53.6812C38.9621 53.6812 39.8051 52.8767 39.8051 52.8767L39.8172 53.449H42.1964V47.4509C42.1964 46.7758 42.2165 45.8265 41.4467 45.1548C41.0415 44.8078 40.68 44.6477 40.1385 44.5697C39.591 44.4719 39.4043 44.4324 38.8697 44.4324C37.2598 44.4324 36.0475 44.7158 35.351 45.948C35.058 46.4818 35.0769 47.0172 35.0769 47.4267H37.2598C37.28 47.0696 37.296 46.5751 37.5759 46.2315C37.7156 46.0363 38.0462 45.7578 38.6597 45.7578C38.8593 45.7578 39.4384 45.7578 39.7417 46.241C39.8983 46.5264 39.912 46.8973 39.912 47.3179V48.0162L39.9105 48.0164Z" fill="#0B4D43"/>
<path d="M75.8826 53.449H73.3912V48.0807C73.3912 47.7373 73.3911 47.451 73.363 47.1588C73.3388 46.8778 73.2583 45.9662 72.1721 45.9662C71.8843 45.9662 71.6401 46.0375 71.4842 46.1035C70.7499 46.4401 70.7311 47.0365 70.7131 47.5103V53.4492H68.2166V44.6642H70.7131V45.6632C71.3402 45.102 71.9074 44.4877 73.3081 44.4877C74.4845 44.4877 75.0671 44.9435 75.3078 45.2254C75.8621 45.8482 75.8621 46.6561 75.8835 47.2858V53.4492L75.8826 53.449Z" fill="#0B4D43"/>
<path d="M32.7944 53.449H30.3047V48.0807C30.3047 47.7373 30.3047 47.451 30.2636 47.1588C30.2475 46.8778 30.1626 45.9662 29.0702 45.9662C28.7916 45.9662 28.5476 46.0375 28.3917 46.1035C27.6557 46.4401 27.6343 47.0365 27.6138 47.5103V53.4492H25.1189V44.6642H27.6138V45.6632C28.2529 45.102 28.8132 44.4877 30.2122 44.4877C31.3954 44.4877 31.9677 44.9435 32.2153 45.2254C32.7747 45.8482 32.7748 46.6561 32.7945 47.2858L32.7944 53.449Z" fill="#0B4D43"/>
<path d="M44.0273 44.66H46.5214V45.6821C47.0003 45.2546 47.845 44.4801 49.3426 44.4801C51.0561 44.4801 51.5324 45.503 51.6489 45.8406C52.6693 44.8536 53.3401 44.4801 54.3177 44.4801C54.7966 44.4801 55.1248 44.5582 55.4418 44.6737C56.7851 45.1895 56.8143 46.3838 56.8391 47.1583V53.4434H54.3014V47.7186C54.2893 47.0966 54.2692 46.7445 54.1078 46.4686C54.0756 46.3973 53.8276 45.9597 53.1971 45.9597C52.9837 45.9597 52.5768 46.0112 52.3858 46.1163C51.6875 46.4496 51.6609 47.0296 51.6489 47.5V53.4432H49.1764V47.7553C49.1764 47.0793 49.1844 45.9595 48.0583 45.9595C47.8039 45.9595 47.3609 46.0316 47.1425 46.1524C46.5213 46.5352 46.5042 47.0965 46.5213 47.8778V53.4433H44.0273V44.66Z" fill="#0B4D43"/>
<path d="M64.2042 48.8666C64.2042 49.3652 64.184 49.8441 64.1321 50.3273C64.0798 50.8123 63.9948 51.7872 63.248 52.1967C63.033 52.2994 62.8067 52.3533 62.5746 52.3533C61.1601 52.3533 61.0324 50.8695 61.0033 50.3271C60.9711 49.9228 60.9457 49.527 60.9457 49.1337C60.9457 48.7823 60.9699 48.2941 61.021 47.7184C61.0717 47.2532 61.1752 46.363 61.8949 45.9424C62.1409 45.818 62.3773 45.7668 62.6522 45.7668C63.9948 45.7668 64.1164 47.1753 64.1481 47.7185C64.1843 48.1034 64.2042 48.4905 64.2042 48.8666ZM66.7473 48.9112C66.7473 48.1315 66.7473 46.6725 65.8803 45.6821C64.8343 44.433 63.3367 44.433 62.8063 44.433C62.1912 44.433 60.7767 44.4571 59.6664 45.4645C58.4104 46.5843 58.4104 48.3723 58.4104 49.277C58.4104 50.9939 58.7977 52.8094 60.9695 53.4434C61.6018 53.6362 61.9376 53.6704 62.5742 53.6704C63.1696 53.6704 64.6586 53.6704 65.7647 52.441C66.7473 51.3529 66.7473 49.7217 66.7473 48.9112Z" fill="#0B4D43"/>
<path d="M15.4402 31.6357H29.04L16.9781 27.8775L15.4402 28.7168L10.2205 30.0851L15.4402 31.6357Z" fill="#EF9826"/>
<path d="M4.06958 26.2739V31.6357H15.4418V28.7168L4.06958 26.2739Z" fill="#EB712D"/>
<path d="M29.0456 31.6357L15.4402 26.2739L15.4423 28.7168L29.0456 31.6357Z" fill="#FEC02B"/>
<path d="M75.9293 41.7148V31.6322H57.6117L53.8044 34.4205L57.6117 37.7804L75.9293 41.7148Z" fill="#EF9826"/>
<path d="M57.6115 37.7806L52.6322 33.4196L29.0471 31.6396L57.6115 41.7212V37.7806Z" fill="#FEC02B"/>
<path d="M29.0413 31.632V31.6368L57.6117 37.7788V31.6332H29.0413V31.632Z" fill="#EB712D"/>
</g>
<defs>
<clipPath id="clip0_30990_34471">
<rect width="72" height="27.5926" fill="white" transform="translate(4 26.2036)"/>
</clipPath>
</defs>
</svg>
