<svg width="80" height="80" viewBox="0 0 80 80" fill="none" xmlns="http://www.w3.org/2000/svg">
<g clip-path="url(#clip0_30990_34539)">
<path d="M16.3308 28.3466C15.3339 28.1419 14.297 28.6218 13.7721 29.5302C13.6482 29.7454 13.5588 29.9768 13.5024 30.2149C13.2709 29.2884 12.5429 28.5371 11.618 28.3466C10.6211 28.1419 9.58317 28.6218 9.05831 29.5302C8.93438 29.7454 8.84508 29.9768 8.78858 30.2149C8.55622 29.2893 7.82906 28.5371 6.90416 28.3466C5.90728 28.1419 4.86939 28.6218 4.34452 29.5302C3.81783 30.4424 3.90167 31.6384 4.55046 32.4602C5.19834 33.281 6.29637 33.6 7.25589 33.2391C8.02041 32.9515 8.59085 32.2716 8.78949 31.468C8.87515 31.826 9.03279 32.1669 9.26424 32.4602C9.91212 33.281 11.0102 33.6 11.9697 33.2391C12.7342 32.9515 13.3046 32.2716 13.5033 31.468C13.5889 31.826 13.7466 32.1669 13.978 32.4602C14.6259 33.281 15.7239 33.6 16.6835 33.2391C17.6393 32.8791 18.2945 31.905 18.2945 30.8433C18.2936 29.6445 17.458 28.579 16.3308 28.3466Z" fill="#FDAF27"/>
<path d="M8.55251 40.7073C8.80036 41.8148 9.43184 42.8479 10.5371 43.164C11.5869 43.464 12.7569 42.9774 13.2973 41.9843C13.6217 41.3882 13.5806 40.714 13.5779 40.0541C13.5761 39.6095 13.5734 39.1657 13.5743 38.721C13.5743 38.2316 13.5743 37.7421 13.577 37.2537C13.5797 36.6271 13.5624 36.0186 13.8613 35.4502C14.2741 34.6637 15.0951 34.1799 15.9526 34.2152C16.8182 34.2514 17.6074 34.8189 17.9518 35.6502C18.1805 36.2024 18.1414 36.8014 18.1432 37.3889C18.145 37.8735 18.145 38.3592 18.145 38.8439C18.145 39.8913 18.2078 40.9835 18.0128 42.0147C17.5618 44.402 15.979 46.4796 13.834 47.4366C11.689 48.3936 9.14845 48.1374 7.21482 46.7758C6.26168 46.1045 5.4762 45.1761 4.95862 44.1029C4.44743 43.0412 4.13761 41.7148 4.33352 40.5264C4.48023 39.6409 5.14998 38.9172 5.99287 38.7363C6.86856 38.5487 7.78525 38.9715 8.24178 39.7742C8.40762 40.0646 8.47961 40.3808 8.55251 40.7073Z" fill="#FDAF27"/>
<path d="M75.9992 40.5428C75.9992 43.786 73.4558 46.3751 70.2446 46.3751C67.0556 46.3751 64.5554 43.8079 64.5554 40.5428C64.5554 37.2777 67.0556 34.7324 70.2656 34.7324C73.457 34.7324 75.9992 37.2996 75.9992 40.5428ZM67.5086 40.5647C67.5086 42.3215 68.672 43.5822 70.2668 43.5822C71.8406 43.5822 73.025 42.2987 73.025 40.5647C73.025 38.8079 71.8394 37.5024 70.2668 37.5024C68.672 37.5024 67.5086 38.786 67.5086 40.5647Z" fill="black"/>
<path d="M29.9701 42.7354C30.5113 43.0602 31.0316 43.3925 31.6804 43.3525C32.3019 43.3144 32.8696 42.9745 33.2232 42.4402C33.5521 41.9442 33.5448 41.3776 33.5448 40.8034C33.5448 39.8341 33.5448 33.1962 33.5448 32.7134C33.5448 32.3792 33.5275 32.0488 33.6505 31.7298C34.0159 30.7842 35.1996 30.4795 35.9432 31.1413C36.3414 31.4955 36.4544 31.9821 36.4544 32.5011C36.4544 33.5457 36.4836 40.7767 36.4471 41.4937C36.3815 42.7878 35.8183 44.0409 34.9335 44.9446C34.0168 45.8815 32.7602 46.3967 31.4818 46.3957C30.2543 46.3948 28.9577 45.9025 28.154 44.9008C27.8314 44.498 27.6437 44.0219 27.7703 43.4944C27.8924 42.9859 28.2852 42.5793 28.7746 42.4593C29.2192 42.3526 29.5929 42.5088 29.9701 42.7354Z" fill="black"/>
<path d="M50.1293 43.6689L50.1312 43.668C49.6847 43.3852 49.4085 42.8824 49.4004 42.3368V36.2531C49.4004 35.4133 48.7488 34.7334 47.9451 34.7334C47.2089 34.7334 46.6029 35.3047 46.5054 36.0465C45.7709 35.219 44.6592 34.7334 43.3252 34.7334C40.33 34.7334 38.1531 37.1882 38.1531 40.5656C38.1531 43.9441 40.33 46.3979 43.3252 46.3979C43.3389 46.3979 43.3526 46.397 43.3662 46.397C43.3799 46.397 43.3935 46.3979 43.4072 46.3979C44.8442 46.3979 46.0908 45.8324 47.0002 44.8716C47.4649 45.6267 48.2148 46.1799 49.1115 46.3494C49.199 46.3656 49.2864 46.3742 49.3721 46.3742C49.3776 46.3742 49.383 46.3732 49.3876 46.3723C49.394 46.3723 49.4013 46.3732 49.4076 46.3732C50.1785 46.3732 50.8027 45.721 50.8027 44.9154C50.8037 44.386 50.533 43.9241 50.1293 43.6689ZM43.8647 43.628C42.2481 43.628 41.1064 42.3444 41.1064 40.5656C41.1064 38.786 42.27 37.4805 43.8647 37.4805C45.4593 37.4805 46.5582 38.7412 46.5582 40.5656C46.5582 42.3892 45.4803 43.628 43.8647 43.628Z" fill="black"/>
<path d="M62.9686 36.2636C62.9686 35.3856 62.3654 34.7324 61.5462 34.7324C60.7917 34.7324 60.1885 35.318 60.1238 36.1283C59.3911 35.2504 58.2485 34.7324 56.8698 34.7324C53.8746 34.7324 51.6976 37.1872 51.6976 40.5647C51.6976 43.9422 53.8746 46.397 56.8698 46.397C58.2148 46.397 59.3265 45.9104 60.0591 45.0477V45.4095C60.049 47.2273 58.9693 48.4461 57.3655 48.4461C56.6784 48.4461 56.0606 48.2176 55.5794 47.7863C55.3999 47.6253 55.2414 47.4368 55.1074 47.2263C54.6628 46.5275 53.7598 46.338 53.0909 46.8026C52.4221 47.2673 52.2408 48.2109 52.6854 48.9099C52.967 49.3517 53.3032 49.7497 53.685 50.0925C54.7011 51.0047 55.974 51.4866 57.3664 51.4866C60.5767 51.4866 62.9149 48.9765 62.9668 45.5019L62.9695 44.8439V44.843V36.2636H62.9686ZM57.4092 43.628C55.7927 43.628 54.6509 42.3444 54.6509 40.5656C54.6509 38.7869 55.8146 37.4805 57.4092 37.4805C59.0039 37.4805 60.1028 38.7412 60.1028 40.5656C60.1028 42.3891 59.0248 43.628 57.4092 43.628Z" fill="black"/>
</g>
<defs>
<clipPath id="clip0_30990_34539">
<rect width="72" height="23.4" fill="white" transform="translate(4 28.2998)"/>
</clipPath>
</defs>
</svg>
