<svg width="80" height="80" viewBox="0 0 80 80" fill="none" xmlns="http://www.w3.org/2000/svg">
<path d="M16.157 46.3568C18.125 45.2248 19.3529 43.2828 19.3529 41.1667C19.3529 36.4643 14.5982 34.7749 14.5982 34.7749C13.7274 34.2785 12.6475 34.0172 11.4545 34.0172C11.3674 34.0172 11.2107 34.0172 11.1236 34.0172C12.3341 33.1377 13.9102 32.5978 15.5039 32.5978C19.2223 32.5978 22.0263 36.0027 22.0263 39.1899C22.0263 42.8997 19.3094 45.7821 16.157 46.3568ZM13.7709 46.3481C11.3587 45.8866 9.37324 44.1188 8.51983 42.0288C9.36453 42.83 10.5663 43.3786 12.1076 43.3786C14.5634 43.3786 16.8972 41.5586 16.8972 38.859C16.8972 37.5354 16.4182 36.6733 16.4182 36.6733C17.4371 37.6747 18.0902 39.0854 18.0902 40.801C18.0902 43.2219 16.2179 45.4773 13.7709 46.3481ZM11.6113 46.7313C8.72883 46.7313 5.68094 44.0317 5.68094 40.6791C5.68094 39.0332 6.21214 37.4048 7.56192 36.2988C7.31809 36.7865 7.15263 37.3612 7.09168 38.0579C7.05684 38.3104 7.03943 38.5629 7.03943 38.8416C7.03943 42.4643 9.09458 45.4686 12.3166 46.6791C12.0815 46.7139 11.8464 46.7313 11.6113 46.7313ZM11.8899 34.9926C13.9886 34.9926 15.6084 36.9868 15.6084 38.7632C15.6084 41.1667 14.0844 42.7777 11.9683 42.7777C10.0612 42.7777 8.36308 41.0709 8.36308 38.65C8.36308 36.6558 9.90445 34.9926 11.8899 34.9926ZM14.8769 31.8228C12.9175 31.8228 10.1396 32.6326 8.49371 34.6181C5.89865 35.7153 4.00024 38.1624 4.00024 40.8445C4.00024 44.9984 7.66642 47.4715 12.0728 47.4715C12.8043 47.4715 13.4922 47.3235 14.1367 47.158C14.6156 47.2364 15.112 47.2712 15.6171 47.2712C19.7796 47.2712 23.4545 44.0143 23.4545 39.7473C23.4545 35.3583 19.8319 31.8228 14.8769 31.8228Z" fill="#00ACE7"/>
<path d="M30.3253 43.9968C30.3253 45.3292 29.4458 46.0868 27.5735 46.1478V48.1768C29.6983 48.1768 32.3979 47.0621 32.3979 43.9968V34.0259H30.3253V43.9968Z" fill="#00ACE7"/>
<path d="M36.2645 38.1276C36.4039 36.8911 36.9525 35.7938 38.311 35.7938C39.6782 35.7938 40.2268 36.8911 40.3661 38.1276H36.2645ZM42.5258 38.3192C42.5258 36.7343 41.6288 33.8345 38.311 33.8345C35.176 33.8345 34.0962 36.3773 34.0962 39.0159C34.0962 41.6545 35.1934 44.1973 38.7987 44.1973C39.7827 44.1973 41.028 43.9709 42.4474 42.9956L41.3937 41.4107C40.4968 41.9593 39.6434 42.2379 38.7987 42.2379C37.205 42.2379 36.4561 41.1842 36.282 40.0957H40.6361C41.9249 40.0957 42.5258 39.5993 42.5258 38.3192Z" fill="#00ACE7"/>
<path d="M48.1511 33.8345C45.5734 33.8345 44.2498 35.8896 44.2498 35.8896V44.0841H46.3223V36.5515C46.3223 36.5515 46.958 35.7938 48.1511 35.7938C49.4573 35.7938 50.1801 36.8301 50.1801 37.7532V44.0841H52.2526V37.7532C52.2526 35.8548 50.8593 33.8345 48.1511 33.8345Z" fill="#00ACE7"/>
<path d="M54.543 44.0842H56.6068V33.9478H54.543V44.0842Z" fill="#00ACE7"/>
<path d="M72.2556 37.9448H72.2731C71.5677 37.7532 70.6533 37.4223 70.6533 36.7169C70.6533 36.2118 71.2019 35.7938 72.2295 35.7938C73.2658 35.7938 74.4414 36.2467 74.8855 36.4557L75.5474 34.6618C74.8681 34.3221 73.4835 33.8345 72.2295 33.8345C70.4356 33.8345 68.5633 34.7227 68.5633 36.7169C68.5633 38.5631 70.244 39.4861 71.8986 39.8867C72.8043 40.0696 73.9276 40.4353 73.9276 41.1494C73.9276 41.8983 73.0133 42.2379 72.1163 42.2379C71.2368 42.2379 70.0263 41.6893 69.112 41.2191L68.3108 43.0914C69.1903 43.5181 70.4791 44.1625 72.1163 44.1973C74.006 44.1973 76.0002 43.3352 76.0002 41.1494C76.0002 39.0333 73.8144 38.3192 72.2556 37.9448Z" fill="#00ACE7"/>
<path d="M64.897 40.2787C64.897 41.2017 64.1742 42.2293 62.8767 42.238C61.5791 42.2293 60.8563 41.2017 60.8563 40.2787V33.9478H58.7925V40.2787C58.7925 42.1771 60.1684 44.1887 62.8679 44.1974H62.8854C65.5849 44.1887 66.9608 42.1771 66.9608 40.2787V33.9478H64.897V40.2787Z" fill="#00ACE7"/>
</svg>
