<svg width="80" height="80" viewBox="0 0 80 80" fill="none" xmlns="http://www.w3.org/2000/svg">
<g clip-path="url(#clip0_30990_34427)">
<path d="M4.07596 43.9357C4.07596 42.8922 4.05606 42.0167 3.99976 41.2357H5.9742L6.06691 42.5764H6.12194C6.56856 41.8677 7.38856 41.0295 8.91511 41.0295C10.1068 41.0295 11.0373 41.7026 11.428 42.7067H11.4661C11.7841 42.2034 12.1558 41.8326 12.5829 41.5709C13.0854 41.2174 13.6633 41.0295 14.4092 41.0295C15.9154 41.0295 17.4407 42.054 17.4407 44.9602V50.3022H15.2072V45.2938C15.2072 43.7863 14.6865 42.8922 13.5896 42.8922C12.806 42.8922 12.2277 43.4514 11.9873 44.1033C11.9314 44.3264 11.8751 44.6054 11.8751 44.8649V50.3022H9.64029V45.052C9.64029 43.7863 9.13821 42.8922 8.07733 42.8922C7.2205 42.8922 6.64434 43.5623 6.43944 44.1943C6.34673 44.4196 6.30736 44.6795 6.30736 44.9403V50.3022H4.07596V43.9357Z" fill="#003A70"/>
<path d="M23.9081 45.872C22.2879 45.8339 20.7436 46.1866 20.7436 47.5654C20.7436 48.4578 21.321 48.8688 22.0471 48.8688C22.9577 48.8688 23.6295 48.2732 23.8323 47.6217C23.8886 47.4545 23.9081 47.2673 23.9081 47.1192V45.872ZM26.1416 48.1242C26.1416 48.9429 26.1793 49.7405 26.2732 50.3018H24.2061L24.0575 49.296H23.9995C23.442 50.0038 22.4928 50.5059 21.321 50.5059C19.4956 50.5059 18.4724 49.1867 18.4724 47.8062C18.4724 45.5164 20.5002 44.3632 23.8517 44.3815V44.2324C23.8517 43.6364 23.6092 42.6496 22.0098 42.6496C21.1153 42.6496 20.1831 42.9303 19.5701 43.321L19.1227 41.8321C19.7928 41.4211 20.9667 41.029 22.4001 41.029C25.3046 41.029 26.1416 42.874 26.1416 44.8467V48.1242Z" fill="#003A70"/>
<path d="M27.729 43.9357C27.729 42.8922 27.7082 42.0167 27.6541 41.2357H29.6628L29.775 42.5946H29.83C30.2207 41.8884 31.2088 41.0295 32.7155 41.0295C34.2996 41.0295 35.9375 42.054 35.9375 44.9212V50.3022H33.6468V45.1828C33.6468 43.8794 33.1625 42.8922 31.9158 42.8922C31.0035 42.8922 30.3719 43.5428 30.1285 44.2324C30.0556 44.4382 30.0357 44.718 30.0357 44.9758V50.3022H27.729V43.9357Z" fill="#003A70"/>
<path d="M43.576 45.0135C43.576 44.8285 43.5569 44.605 43.5205 44.4187C43.3152 43.525 42.59 42.7994 41.5469 42.7994C40.0762 42.7994 39.2575 44.1033 39.2575 45.7971C39.2575 47.454 40.0762 48.6656 41.5291 48.6656C42.4588 48.6656 43.2788 48.0319 43.5014 47.0451C43.5569 46.8398 43.576 46.6146 43.576 46.3728V45.0135ZM45.8654 37.5924V47.7508C45.8654 48.6813 45.9035 49.6876 45.9399 50.301H43.8922L43.8007 48.8688H43.7626C43.2229 49.8725 42.1218 50.5059 40.8018 50.5059C38.6428 50.5059 36.9296 48.6656 36.9296 45.872C36.9114 42.8363 38.8109 41.0291 40.9889 41.0291C42.2352 41.0291 43.1298 41.551 43.5387 42.2237H43.576V37.5924H45.8654Z" fill="#003A70"/>
<path d="M51.4126 44.1587C51.4126 42.9301 51.394 42.0538 51.3376 41.2359H53.3303L53.404 42.9657H53.4797C53.9259 41.6813 54.9877 41.2359 55.9558 41.2359C56.1789 41.2359 56.3093 41.1974 56.4956 41.2359V43.2472C56.3093 43.2091 56.1048 43.1719 55.8242 43.1719C54.7269 43.1719 53.9822 43.8788 53.7782 44.9025C53.7409 45.1069 53.7041 45.3508 53.7041 45.6124V50.3013H51.4126V44.1587Z" fill="#003A70"/>
<path fill-rule="evenodd" clip-rule="evenodd" d="M74.1082 31.6579C72.969 30.3604 71.76 30.9463 70.7948 31.4247C70.3905 31.6245 68.9228 32.6016 67.4682 33.2827C66.4319 33.7683 64.9443 33.6214 64.1285 32.6138C64.079 32.5529 62.7603 30.9552 62.6206 30.7583C61.7642 29.6843 59.598 28.7936 57.0097 30.2749C55.6228 31.0775 52.3547 32.9529 51.1329 33.6506C50.3904 34.0295 48.6666 34.195 47.6929 32.8797C47.6768 32.8581 46.3975 31.2617 46.3463 31.2003C46.3086 31.1571 45.4822 29.9316 43.6403 29.8939C43.3694 29.8871 42.0164 29.8791 40.6943 30.6297C38.9413 31.6325 34.8611 33.9651 34.8611 33.9651C34.8582 33.9651 34.8582 33.9672 34.8582 33.9672C33.1809 34.9274 31.8728 35.6729 31.8728 35.6729L33.4171 37.5711C34.1402 38.4673 35.7683 39.162 37.1814 38.3509C37.1814 38.3509 42.4012 35.3283 42.4194 35.3198C44.6775 34.0807 46.4199 34.0807 47.5744 34.5421C48.6128 34.9794 49.5154 36.0716 49.5154 36.0716C49.5154 36.0716 50.696 37.5347 50.9035 37.7904C51.5749 38.6167 52.6853 38.2925 52.6853 38.2925C52.6853 38.2925 53.0955 38.2451 53.7187 37.8768C53.7187 37.8768 58.7733 34.946 58.7763 34.9451C60.3824 34.0032 61.8556 33.8275 62.607 33.8961C64.9637 34.1107 65.6965 35.7571 66.7193 36.9052C67.3209 37.5821 67.8632 37.9648 68.6933 37.9453C69.2399 37.9331 69.8558 37.6033 69.9468 37.544L76.0005 34.0494C76.0005 34.0494 75.3804 33.1146 74.1082 31.6579Z" fill="#FFB700"/>
<path d="M47.4822 41.235H49.794V50.3008H47.4822V41.235Z" fill="#003A70"/>
<path d="M57.5544 41.235H59.8616V50.3008H57.5544V41.235Z" fill="#003A70"/>
</g>
<defs>
<clipPath id="clip0_30990_34427">
<rect width="72" height="21.0122" fill="white" transform="translate(4 29.4937)"/>
</clipPath>
</defs>
</svg>
