<svg width="80" height="80" viewBox="0 0 80 80" fill="none" xmlns="http://www.w3.org/2000/svg">
<g clip-path="url(#clip0_30990_34498)">
<path d="M26.4958 21.312H36.755C35.0472 25.1544 33.3357 28.9953 31.6251 32.8367C30.0212 36.4415 28.4158 40.0457 26.8113 43.65C23.3897 43.6514 19.968 43.651 16.5469 43.6505C19.8633 36.2043 23.177 28.7568 26.4958 21.312Z" fill="#FFCA08"/>
<path d="M36.7549 21.312H36.7577C37.8325 23.7326 38.9139 26.1503 39.9882 28.5713L39.9957 28.5882C39.2627 30.187 38.5626 31.8009 37.8433 33.4058C37.0155 35.2572 36.1942 37.112 35.3673 38.9639C35.1927 39.3358 35.0523 39.7236 34.8522 40.0828C33.7755 37.6679 32.7012 35.2516 31.625 32.8367C33.3356 28.9953 35.0471 25.1544 36.7549 21.312Z" fill="#FA9D1C"/>
<path d="M43.2269 21.312H43.2298C44.9394 25.1553 46.6509 28.9976 48.3624 32.84C47.2773 35.2563 46.2081 37.6801 45.1258 40.0979C43.411 36.264 41.7084 32.4249 39.9997 28.5882L39.9922 28.5713C41.0764 26.154 42.1512 23.7326 43.2269 21.312Z" fill="#9E9FA3"/>
<path d="M43.2266 21.312H53.4858C56.8065 28.7563 60.1187 36.2043 63.4361 43.65C60.0154 43.6533 56.5943 43.6505 53.1736 43.6514C51.5672 40.0481 49.9632 36.4438 48.3592 32.84C46.6477 28.9976 44.9362 25.1553 43.2266 21.312Z" fill="#636466"/>
<path d="M58.3668 49.9346C59.0279 49.5726 59.8093 49.5041 60.5479 49.582C61.2325 49.6543 61.911 49.9135 62.42 50.3859C63.0097 50.9235 63.3445 51.6931 63.4567 52.474C62.7313 52.4744 62.0058 52.4749 61.2804 52.4735C61.1869 52.1195 61.0038 51.7462 60.6465 51.5973C60.2013 51.4189 59.6257 51.4231 59.2594 51.7668C59.0101 51.9988 58.9453 52.3509 58.9063 52.6735C58.8335 53.3619 58.8439 54.0554 58.8542 54.7461C58.8748 55.2077 58.8767 55.682 59.0237 56.1252C59.135 56.4708 59.4674 56.707 59.8219 56.7478C60.2403 56.7976 60.7207 56.7168 61.0099 56.3835C61.2677 56.0815 61.3165 55.6641 61.3184 55.2814C60.885 55.2683 60.4511 55.28 60.0177 55.2758C60.0173 54.6719 60.0168 54.0681 60.0182 53.4643C61.1681 53.4643 62.3181 53.4638 63.4685 53.4647C63.4506 54.5043 63.5506 55.5725 63.2426 56.5816C63.021 57.3343 62.4542 57.9522 61.7706 58.319C61.3301 58.5551 60.831 58.6528 60.337 58.688H59.7651C59.2866 58.6542 58.8082 58.5439 58.3837 58.3152C57.739 57.9682 57.184 57.4099 56.9445 56.7075C56.6172 55.7773 56.6914 54.7748 56.6797 53.8061C56.6806 53.0435 56.6848 52.2594 56.9455 51.5325C57.1849 50.8376 57.7334 50.2863 58.3668 49.9346Z" fill="#636466"/>
<path d="M8 49.728C8.82923 49.7539 9.66034 49.7318 10.4905 49.7393C11.0366 49.7496 11.5925 49.6966 12.1283 49.8309C12.6974 49.9633 13.2369 50.2882 13.5543 50.7873C13.8755 51.286 13.9694 51.9105 13.875 52.4899C13.7605 53.1703 13.2745 53.777 12.6246 54.0169C13.0777 54.1916 13.4872 54.4992 13.7361 54.9213C14.0967 55.519 14.1169 56.2694 13.937 56.9296C13.7746 57.5282 13.3313 58.0368 12.7627 58.2833C12.3452 58.4725 11.8823 58.5443 11.4263 58.5434C10.2844 58.5425 9.14195 58.5434 8 58.5429V49.728ZM8.94427 50.584C8.94145 51.6001 8.9438 52.6158 8.94333 53.6319C9.72467 53.6333 10.5065 53.6324 11.2883 53.6324C11.77 53.6263 12.2847 53.4887 12.6166 53.1191C12.9373 52.7646 13.0139 52.2519 12.9425 51.7927C12.8927 51.464 12.7265 51.1484 12.4607 50.9442C12.1302 50.685 11.7005 50.5906 11.2883 50.5845C10.5069 50.5836 9.72561 50.585 8.94427 50.584ZM8.9438 54.4776C8.94239 55.5509 8.94286 56.6243 8.94333 57.6977C9.66175 57.6982 10.3797 57.6977 11.0981 57.6982C11.3982 57.7029 11.7034 57.701 11.9931 57.6109C12.4241 57.4902 12.8087 57.1812 12.9758 56.76C13.2125 56.1595 13.1341 55.3918 12.6509 54.9325C12.2772 54.5747 11.7381 54.4625 11.2362 54.4771C10.4717 54.478 9.70776 54.4776 8.9438 54.4776Z" fill="#636466"/>
<path d="M17.8718 49.7393C18.1371 49.7398 18.4024 49.737 18.6681 49.7408C19.7425 52.6736 20.8149 55.6073 21.894 58.5383C21.5573 58.5472 21.2202 58.5444 20.8835 58.5402C20.6515 57.8767 20.42 57.2132 20.1787 56.5535C18.9001 56.5582 17.6215 56.554 16.3429 56.5554C16.1072 57.2174 15.8734 57.88 15.6395 58.5425C15.3038 58.5444 14.9681 58.542 14.6328 58.5435C15.7104 55.6083 16.7918 52.674 17.8718 49.7393ZM18.2681 51.1358C17.7211 52.6679 17.1745 54.2001 16.6298 55.7332C17.7229 55.7337 18.8156 55.7346 19.9082 55.7327C19.3715 54.201 18.8339 52.6698 18.2953 51.1386C18.2887 51.1381 18.2751 51.1367 18.2681 51.1358Z" fill="#636466"/>
<path d="M22.8203 49.7401C23.118 49.7382 23.4157 49.7397 23.7139 49.7397C25.2695 52.0799 26.8232 54.4216 28.3793 56.7618C28.3831 54.4206 28.3784 52.0799 28.3822 49.7387C28.6954 49.7387 29.009 49.7415 29.3227 49.7373C29.3344 52.6725 29.3246 55.6081 29.3274 58.5433C29.0287 58.5433 28.7306 58.5433 28.4319 58.5433C26.8744 56.1955 25.3226 53.844 23.7646 51.4962C23.7618 53.8454 23.7636 56.1941 23.7636 58.5428C23.4495 58.5442 23.1349 58.5428 22.8208 58.5433C22.8198 55.6091 22.8208 52.6748 22.8203 49.7401Z" fill="#636466"/>
<path d="M31.3672 49.7444C31.6818 49.7331 31.9969 49.7425 32.3124 49.7397C32.3133 51.4216 32.3105 53.1036 32.3138 54.786C33.6844 53.1059 35.0443 51.4169 36.4163 49.7383C36.8004 49.7411 37.184 49.7383 37.5681 49.7397C36.6459 50.8751 35.7195 52.0062 34.7987 53.1425C35.8528 54.9433 36.9088 56.7426 37.9621 58.5433C37.5883 58.5424 37.215 58.5452 36.8417 58.5419C35.9514 56.9816 35.056 55.4241 34.1648 53.8642C33.5708 54.569 32.9853 55.2813 32.3922 55.9871C32.3575 56.0354 32.2988 56.081 32.3124 56.1491C32.3124 56.9473 32.3119 57.7451 32.3124 58.5433C31.9983 58.5438 31.6841 58.5433 31.3695 58.5433C31.3677 55.6105 31.3728 52.6772 31.3672 49.7444Z" fill="#636466"/>
<path d="M39.4306 58.5424C39.4353 55.6082 39.4221 52.673 39.4371 49.7393C40.1457 49.7496 40.8547 49.7378 41.5637 49.7454C42.2169 51.0371 42.8776 52.3256 43.5326 53.6168C44.1961 52.3279 44.8483 51.0333 45.5085 49.743C46.2189 49.7435 46.9293 49.7425 47.6402 49.7435C47.6398 52.6768 47.6402 55.6096 47.6398 58.5429C46.9176 58.5434 46.1949 58.5429 45.4728 58.5429C45.47 57.0802 45.4756 55.6176 45.47 54.1545C45.0619 54.8677 44.6548 55.5814 44.2449 56.2937C44.1031 56.5374 43.8303 56.7004 43.5467 56.6976C43.2598 56.7079 42.9766 56.5511 42.8311 56.3045C42.4165 55.5922 42.0155 54.8719 41.599 54.161C41.598 55.6218 41.599 57.0826 41.598 58.5429C40.8754 58.5424 40.1532 58.5438 39.4306 58.5424Z" fill="#636466"/>
<path d="M49.4456 49.7437C51.4412 49.7428 53.4368 49.7432 55.4319 49.7437C55.4343 50.3842 55.4282 51.0251 55.4352 51.6656C54.1618 51.6815 52.8874 51.6665 51.6135 51.6731C51.6131 52.1619 51.6126 52.6502 51.6135 53.139C52.7015 53.1404 53.789 53.139 54.8769 53.14C54.8765 53.7842 54.8765 54.428 54.8769 55.0722C53.789 55.0741 52.701 55.0708 51.6135 55.0736C51.6131 55.5868 51.6126 56.1005 51.6135 56.6137C52.8865 56.6151 54.159 56.6137 55.4319 56.6142C55.4324 57.2575 55.4324 57.9003 55.4319 58.5431C53.4363 58.5431 51.4412 58.5436 49.4461 58.5431C49.4452 55.6098 49.4452 52.677 49.4456 49.7437Z" fill="#636466"/>
<path d="M67.1141 49.7438C67.6728 49.7452 68.2321 49.7386 68.7913 49.7471C69.5398 51.8239 70.2995 53.8965 71.0522 55.9715C71.3724 56.8275 71.6626 57.6957 72.0012 58.5446C71.2532 58.5413 70.5052 58.5451 69.7576 58.5427C69.6135 58.1061 69.4712 57.6694 69.3252 57.2332C68.4072 57.2341 67.4888 57.2285 66.5708 57.236C66.4323 57.6731 66.2853 58.1075 66.1421 58.5432C65.3993 58.5437 64.6564 58.5432 63.9141 58.5432C64.979 55.6094 66.0468 52.6766 67.1141 49.7438ZM67.9466 52.9405C67.6813 53.7834 67.4118 54.6248 67.146 55.4672C67.6817 55.4686 68.218 55.4676 68.7547 55.4676C68.4847 54.6253 68.2269 53.7791 67.9466 52.9405Z" fill="#636466"/>
<path d="M39.995 28.5879C41.7037 32.4246 43.4063 36.2637 45.1211 40.0976C44.6619 41.1066 43.8909 41.9687 42.9457 42.5477C41.5455 43.4173 39.757 43.6145 38.1967 43.0891C36.7298 42.6064 35.4864 41.4907 34.8516 40.0825C35.0516 39.7233 35.192 39.3355 35.3667 38.9636C36.1935 37.1117 37.0148 35.2569 37.8426 33.4055C38.562 31.8006 39.2621 30.1867 39.995 28.5879Z" fill="#F37022"/>
</g>
<defs>
<clipPath id="clip0_30990_34498">
<rect width="64" height="37.3764" fill="white" transform="translate(8 21.312)"/>
</clipPath>
</defs>
</svg>
