<svg width="80" height="80" viewBox="0 0 80 80" fill="none" xmlns="http://www.w3.org/2000/svg">
<g clip-path="url(#clip0_30990_34438)">
<path d="M15.1273 36.886C15.1273 36.886 15.1012 36.8775 15.1186 36.9032C15.1665 36.9458 15.2283 36.9702 15.2929 36.9718C15.4706 36.9618 15.6386 36.8883 15.7653 36.7652C15.892 36.642 15.9688 36.4776 15.9812 36.3027C16.0509 35.7194 15.2754 35.0074 14.8398 34.6643C14.4041 34.3211 13.5589 33.7464 13.3672 33.206C13.3672 33.206 13.3585 33.1631 13.3411 33.2317C13.3237 33.3003 13.2278 33.5062 13.0535 33.8322C12.8793 34.1581 12.9316 34.5957 13.0187 34.8187C13.1058 35.0417 13.315 35.4706 13.3585 35.5564C13.4021 35.6422 13.4195 35.7708 13.6112 35.8223C13.7182 35.8375 13.8272 35.8317 13.9318 35.8052C14.0365 35.7786 14.1348 35.732 14.2211 35.6679C14.2845 35.6191 14.3355 35.5565 14.3702 35.4851C14.405 35.4137 14.4226 35.3354 14.4215 35.2562C14.439 34.7586 13.9597 34.8015 13.9859 34.9645C14.012 35.1275 14.073 34.9988 14.0207 35.076C14.0004 35.1129 13.9663 35.1405 13.9258 35.1533C13.8852 35.1661 13.8412 35.163 13.8029 35.1446C13.7158 35.1275 13.5154 34.8444 13.9336 34.6814C14.3518 34.5184 14.8311 34.8959 14.7352 35.4191C14.6394 35.9425 13.9423 36.1311 13.585 36.0625C13.585 36.0625 13.5415 36.0539 13.5415 36.0711C13.5518 36.1694 13.5305 36.2684 13.4805 36.3542C13.3934 36.4743 13.0361 37.4693 13.6548 38.5073C13.7162 38.5703 13.7911 38.6191 13.8739 38.6502C13.9568 38.6814 14.0456 38.6941 14.134 38.6875C14.4477 38.6789 14.7875 38.2414 14.5522 37.9412C14.5348 37.924 14.5087 37.8983 14.5087 37.9498C14.5087 38.0012 14.5174 38.1385 14.3257 38.0527C14.134 37.9669 14.1253 37.5981 14.439 37.5037C14.7526 37.4093 15.0837 37.538 14.9618 38.1556C14.8398 38.7732 14.2211 38.9877 14.0643 38.9792C13.9074 38.9706 13.9684 38.9449 13.9772 38.9963C13.9859 39.0478 14.1688 39.5282 14.0556 39.8112C14.0556 39.8112 14.0294 39.8799 14.1514 39.8112C14.2734 39.7426 14.6045 39.5796 14.9443 39.4424C15.2841 39.3051 16.1903 39.1078 16.8439 38.25C17.4973 37.3921 17.8372 36.114 16.8961 34.6986C16.748 34.4755 16.5912 34.0895 15.7895 33.7978C15.7895 33.7978 15.5978 33.7378 15.7111 33.6692C15.7482 33.6455 15.7904 33.6308 15.8343 33.6263C15.8782 33.6219 15.9226 33.6277 15.9638 33.6435C15.9638 33.6435 16.8525 33.8064 17.3579 34.9731C17.8633 36.1397 18.0724 36.663 18.7607 37.0233C19.4491 37.3836 20.7823 37.8039 21.0262 38.2757C21.0262 38.2757 21.1134 38.4215 21.1482 38.2414C21.1831 38.0613 21.2092 37.864 21.0349 37.5037C20.8607 37.1434 20.8868 37.0919 21.0349 37.0747C21.1831 37.0576 21.1831 37.0662 21.2005 36.9804C21.2179 36.8946 21.0524 35.8309 19.1529 35.8481C19.1529 35.8481 18.9525 35.8652 19.0047 35.7794C19.057 35.6937 19.1964 35.6679 19.3968 35.6679C19.5972 35.6679 20.5731 35.7794 20.8781 36.0282C20.8781 36.0282 21.0001 36.1225 20.9129 35.9253C20.8258 35.728 20.3379 34.8873 18.7433 34.527C17.1488 34.1667 17.1488 33.103 17.1488 33.103C17.1488 33.103 17.2011 32.9057 17.3143 33.1716C17.8023 34.2783 19.6669 34.4584 19.7192 34.4669C19.7715 34.4755 20.0416 34.6128 20.1375 34.5356C20.364 34.3297 20.3814 33.918 20.2769 33.7378C20.2769 33.7378 20.2594 33.6606 20.2159 33.7035C20.154 33.7535 20.0831 33.7913 20.0067 33.815C19.9893 33.815 19.9806 33.815 19.9806 33.7893C19.9317 33.6983 19.8992 33.5996 19.8848 33.4976C19.8848 33.4976 19.8848 33.4633 19.8674 33.5062C19.8076 33.6361 19.7346 33.7597 19.6495 33.8751C19.6447 33.8817 19.638 33.8869 19.6303 33.8899C19.6226 33.8929 19.6141 33.8937 19.6059 33.8922C19.6059 33.8922 18.8566 33.8493 18.7521 33.2746C18.6475 32.6998 18.9263 32.2881 19.5972 32.3824C19.6598 32.401 19.7209 32.424 19.7802 32.451C19.8262 32.5479 19.8641 32.6483 19.8935 32.7513C19.8935 32.7513 19.8935 32.7684 19.9022 32.7599L20.0678 32.5883C20.0678 32.5883 20.0852 32.5712 20.1026 32.5798L20.4424 32.7084H20.4947C20.5958 32.6136 20.6656 32.4911 20.6951 32.3567C20.7474 32.1079 20.7997 31.8163 20.7561 31.7991C20.7125 31.7819 20.4686 31.6276 20.4076 31.5761C20.3466 31.5246 20.3814 31.5332 20.4163 31.5418C20.4512 31.5504 20.486 31.5332 20.8171 31.619C20.8171 31.619 20.8781 31.6447 20.8607 31.619L20.8432 31.5847C20.7182 31.4181 20.5452 31.2925 20.3466 31.2244C19.8935 31.0528 19.7976 31.0356 19.5449 31.0614C19.5449 31.0614 19.4927 31.0699 19.484 31.0871C19.4752 31.1042 19.3445 31.6104 18.8305 31.6361C18.7159 31.6289 18.6063 31.5869 18.5168 31.516C18.3251 31.3873 18.3077 31.3959 18.0114 31.3445C17.7152 31.293 17.053 31.1815 16.7305 30.6753C16.4082 30.1692 16.2601 29.9376 15.5543 30.2893C14.8485 30.641 14.5522 30.6153 14.012 30.1435C14.012 30.1435 13.9946 30.1263 13.9946 30.1435C13.9946 30.1607 14.0381 30.2293 13.9597 30.5467C13.9335 30.647 13.9292 30.7516 13.9472 30.8537C13.9652 30.9558 14.0052 31.0529 14.0643 31.1386C14.1253 31.233 14.1165 31.4989 14.5087 31.6361C14.9007 31.7734 15.0489 31.5589 15.3887 31.7648L15.4497 31.7905C15.4584 31.7905 15.502 31.8163 15.4497 31.8163C15.4353 31.8206 15.4202 31.8221 15.4052 31.8206C15.3903 31.8191 15.3758 31.8147 15.3626 31.8077C15.2817 31.767 15.192 31.7464 15.1012 31.7476C14.9879 31.7562 14.8049 31.8163 14.7003 31.8248C14.5958 31.8334 14.2647 31.8248 14.1253 31.619C14.1253 31.619 14.1165 31.6018 14.1165 31.6276C14.1165 31.6533 14.0817 31.8849 13.7419 32.391C13.4021 32.8971 13.707 33.4118 14.4738 34.0209C15.2406 34.63 16.1381 35.3248 16.2601 35.9682C16.382 36.6116 15.9463 37.2034 15.4323 37.2463C14.9182 37.2892 14.6394 36.7573 15.0141 36.5772C15.3887 36.3971 15.4584 37.0747 15.1273 36.8946" fill="#E41F26"/>
<path d="M19.5619 30.7527C19.5619 30.7527 19.5707 30.7356 19.5358 30.6669C19.4806 30.575 19.4026 30.4983 19.3092 30.4439C19.1437 30.3495 18.7777 30.3581 18.5163 30.3838C18.255 30.4096 18.0632 30.3324 17.8803 30.2809C17.6973 30.2294 17.2006 30.0836 16.8782 30.4096C16.8782 30.4096 16.8434 30.4525 16.8608 30.4868C16.9317 30.6045 17.0232 30.7091 17.1309 30.7956C17.3139 30.9243 17.6973 31.1731 18.1068 31.0787C18.1802 31.0453 18.2503 31.0051 18.3159 30.9586C18.4409 30.8751 18.5843 30.8222 18.7342 30.8042C18.8512 30.8041 18.968 30.8156 19.0827 30.8385L19.2483 30.8728C19.2483 30.8728 19.5096 30.9157 19.5619 30.7527Z" fill="#E41F26"/>
<path d="M13.2456 52.0009H13.2369C13.2369 52.0009 13.7946 51.4348 14.4568 52.0267C14.4568 52.0267 14.4655 52.0438 14.4655 52.0267C14.4508 51.9083 14.4075 51.7952 14.3393 51.6967C14.2711 51.5981 14.1799 51.5172 14.0734 51.4605C14.0287 51.4448 13.9812 51.4389 13.934 51.4434H13.9166C13.7706 51.364 13.6013 51.3367 13.4373 51.3662C13.2444 51.401 13.0588 51.4677 12.8883 51.5634C12.6792 51.7007 12.5137 51.6578 12.4091 51.5806C12.3046 51.5034 11.3461 50.2681 11.32 48.9213C11.3332 48.8902 11.3534 48.8625 11.379 48.8402C11.4047 48.818 11.4351 48.8017 11.4681 48.7927C11.4681 48.7927 13.0539 48.0035 13.6726 47.3858C14.2912 46.7682 14.7879 45.0096 15.4152 44.3577C15.4152 44.3577 15.6941 44.006 15.9729 43.9202C16.2517 43.8344 17.5587 43.4398 17.9072 43.2167C18.2557 42.9937 18.8744 42.2903 19.2665 42.2302C19.2989 42.2163 19.335 42.213 19.3695 42.2207C19.404 42.2284 19.4351 42.2468 19.4582 42.2732L20.9307 43.6114C20.9307 43.6114 21.1398 43.843 21.3664 43.8601C21.5929 43.8773 21.9502 43.9888 21.9763 44.2118C22.0025 44.4349 21.8195 45.0525 22.1941 45.2841C22.1941 45.2841 22.2726 45.3957 22.0634 45.55C22.0634 45.55 22.0111 45.5758 22.0634 45.5758C22.1157 45.5758 23.2223 45.6187 22.9609 44.6751C22.9609 44.6751 22.9348 44.5979 22.9696 44.615C23.1648 44.7606 23.3107 44.961 23.3879 45.1898C23.5273 45.5929 23.7277 45.6187 23.7277 45.6187C23.7447 45.6263 23.7594 45.6383 23.7701 45.6534C23.7808 45.6685 23.7872 45.6861 23.7887 45.7045C23.7887 45.7045 23.8235 45.8331 23.6405 46.0476C23.6405 46.0476 23.6057 46.0734 23.6405 46.0648C23.6754 46.0562 24.1459 46.0562 24.1546 45.7645C24.1523 45.7645 24.1501 45.7636 24.1485 45.762C24.1469 45.7604 24.1459 45.7582 24.1459 45.756C24.1459 45.7537 24.1469 45.7515 24.1485 45.7499C24.1501 45.7483 24.1523 45.7474 24.1546 45.7474C24.1546 45.7474 24.416 45.6788 24.5032 45.5329C24.5903 45.3871 24.7733 44.6579 23.8845 44.1346C23.8845 44.1346 23.8584 44.1261 23.8758 44.1261C24.0157 44.1262 24.1531 44.1628 24.274 44.2321C24.3948 44.3014 24.495 44.401 24.5642 44.5207C24.8169 44.9496 24.9911 44.4435 25.0608 44.941C25.0608 44.941 25.0608 44.9667 25.0782 44.9582C25.0957 44.9496 25.3919 44.7952 25.1567 44.392C25.1541 44.3847 25.1535 44.3769 25.1551 44.3694C25.1566 44.3618 25.1601 44.3548 25.1654 44.3491C25.1828 44.332 25.4006 43.5856 24.2679 43.4484C24.2679 43.4484 24.2331 43.4484 24.2418 43.4398C24.2505 43.4312 24.3638 43.3111 24.6687 43.4055C24.9737 43.4998 25.1305 43.4398 25.1392 43.3026C25.1392 43.3026 25.2787 43.3026 25.4355 43.4827C25.4355 43.4827 25.4442 43.4913 25.4442 43.4827C25.4442 43.4741 25.4791 42.5305 23.8584 42.7879C23.7328 42.8313 23.5985 42.8446 23.4667 42.8268C23.3349 42.8088 23.2093 42.7602 23.1003 42.6849C22.7083 42.4276 20.7913 40.5832 20.7913 40.5832C20.7913 40.5832 20.6781 40.4203 20.6345 40.3431C20.5553 40.0954 20.4912 39.8433 20.4428 39.5881C20.4428 39.5881 20.4515 39.571 20.4166 39.5367C20.3818 39.5024 20.1378 39.2965 20.0159 39.2193C19.8938 39.1421 20.0071 39.2107 20.0071 39.2278C20.0071 39.245 19.8851 40.2315 18.4736 41.0551C18.4736 41.0551 18.3167 41.1237 18.3167 40.995C18.3167 40.8663 18.0118 39.3651 17.0969 39.8626C16.182 40.3602 15.5111 40.6604 15.363 40.5918C15.2148 40.5232 15.3019 40.5146 15.3717 40.4631C15.4414 40.4117 15.7637 39.9399 15.6592 39.408C15.6592 39.408 15.6592 39.3909 15.6418 39.3995L15.4326 39.4766C14.9623 39.6367 14.5097 39.8437 14.0821 40.0943L13.8991 40.2058C13.4814 40.5392 13.032 40.8322 12.5572 41.0808C11.8515 41.4325 10.6839 42.0416 10.3964 42.9251C10.1088 43.8087 9.07195 43.9545 8.50559 43.2854C7.93923 42.6163 8.50559 41.3896 11.0324 39.6139C11.0324 39.6139 11.7818 39.1335 12.0606 38.3958C12.3395 37.658 12.1739 37.4264 12.1129 37.109C12.0519 36.7916 12.2872 36.4314 12.3568 36.3456C12.4266 36.2598 12.383 35.9767 12.3568 36.0453C12.3342 36.104 12.2952 36.1553 12.2444 36.1932C12.1935 36.2312 12.1328 36.2542 12.0693 36.2598C11.8341 36.2941 11.7992 36.337 11.7905 36.3627C11.7818 36.3885 11.7818 36.3627 11.7818 36.337C11.7818 36.3113 11.7731 36.1654 11.9996 36.011C12.2261 35.8566 12.2436 35.5049 12.2175 35.299C12.1913 35.0931 12.261 34.9816 12.2959 34.9473H12.2784C12.177 34.975 12.0898 35.0393 12.0345 35.1274C12.0345 35.1274 12.017 35.136 12.017 35.1103C12.017 35.0846 11.8689 34.3125 12.2697 33.9179C12.3307 33.8578 12.4353 33.4804 12.1303 33.103C11.8253 32.7256 11.8166 32.5539 11.8166 32.5539C11.8166 32.5539 11.8166 32.5454 11.7992 32.5539C11.7818 32.5625 11.7644 32.5625 11.7731 32.6912C11.7818 32.8199 11.7034 32.9743 11.6946 33.0258C11.6859 33.0773 11.6598 33.2574 11.7121 33.3518C11.7644 33.4461 11.7121 33.3689 11.7034 33.3603C11.6946 33.3518 11.4768 33.0086 11.5291 32.6912C11.5814 32.3738 11.7992 31.8677 11.5465 31.6103C11.5465 31.6103 11.5117 31.576 11.5204 31.6361C11.5231 31.8118 11.4907 31.9863 11.4249 32.1497C11.3591 32.3131 11.2613 32.4621 11.137 32.5883C10.7013 33.0344 11.1631 33.6777 11.3548 33.9179C11.5465 34.1581 11.3635 34.5441 11.3984 34.6728C11.4333 34.8015 11.3984 34.7071 11.3897 34.6814C11.3704 34.6289 11.3587 34.5741 11.3548 34.5184C11.3548 34.4669 11.3112 34.1238 11.1283 34.0723C11.1283 34.0723 11.1196 34.0723 11.1283 34.0809C11.1338 34.2025 11.1191 34.3243 11.0847 34.4412C11.054 34.5588 11.0546 34.6822 11.0867 34.7995C11.1188 34.9167 11.1812 35.0238 11.2677 35.1103C11.4942 35.3505 11.3287 35.9939 11.198 36.0539C11.198 36.0539 11.1719 36.0625 11.1719 36.0368C11.1739 35.9744 11.1888 35.9132 11.2154 35.8566C11.2677 35.7794 11.2764 35.4792 11.2242 35.4277C11.2242 35.4254 11.2232 35.4232 11.2216 35.4216C11.2199 35.42 11.2177 35.4191 11.2154 35.4191C11.2131 35.4191 11.2109 35.42 11.2093 35.4216C11.2076 35.4232 11.2067 35.4254 11.2067 35.4277C11.2067 35.4277 11.198 35.625 10.8756 35.8394C10.7449 35.9252 10.5881 36.3971 11.015 36.8259L11.2242 37.0662C11.2242 37.0662 11.2416 37.0919 11.2242 37.0833C11.2067 37.0747 10.9192 37.0576 10.8582 36.8688H10.8408C10.8267 36.9894 10.8579 37.111 10.9285 37.2105C10.9991 37.3101 11.1042 37.3808 11.2242 37.4093C11.5465 37.4865 11.7992 38.4129 10.1959 39.2965C9.86822 39.4764 9.55639 39.683 9.26367 39.9141C9.15909 39.8712 8.94126 39.7426 8.66243 39.3222C8.66243 39.3222 8.61887 39.2364 8.58401 39.1507C8.54916 39.0649 8.38361 38.8933 8.09607 38.8504C8.09607 38.8504 8.08736 38.859 8.10478 38.859C8.12221 38.859 8.34875 38.9534 8.34875 39.3566C8.34875 39.7597 8.61015 40.12 8.86284 40.2229H8.85412C8.85412 40.2229 8.88898 40.2315 8.82798 40.2916H8.8367L8.55788 40.5746H8.54916C8.42382 40.4444 8.31818 40.2971 8.23548 40.1372C8.23548 40.1372 8.20063 40.06 8.16578 39.9656C8.13092 39.8712 7.9828 39.6997 7.70397 39.6396C7.70397 39.6396 7.69526 39.6396 7.71268 39.6482C7.73011 39.6568 7.94795 39.7512 7.9218 40.1543C7.91522 40.2994 7.93889 40.4443 7.99134 40.58C8.04379 40.7157 8.12391 40.8395 8.22677 40.9435C8.22677 40.9435 8.23548 40.9607 8.22677 40.9693C8.14835 41.0722 8.07864 41.1751 8.00894 41.2867H8.00022C7.89726 41.1459 7.81239 40.9932 7.74754 40.832C7.74754 40.832 7.7214 40.7462 7.70397 40.6604C7.68655 40.5746 7.54713 40.3688 7.26831 40.2744L7.28573 40.2916C7.30316 40.3002 7.50357 40.4203 7.43386 40.8149C7.36415 41.2094 7.54713 41.5783 7.75625 41.7413C7.75625 41.7413 7.76497 41.7413 7.75625 41.7585H7.76497C7.46871 42.4447 7.44258 43.1567 7.89566 43.8087C8.79313 45.104 10.2134 44.3491 10.2134 44.3491C10.2134 44.3491 10.3005 44.2633 10.2918 44.3405C10.2831 44.4177 10.4225 45.4214 10.6839 46.0305C10.9453 46.6395 10.6055 47.0856 9.99559 47.1628C9.38562 47.24 8.81056 47.5402 9.01966 48.2608C9.06326 48.4324 9.16778 48.7326 9.29848 49.0758C9.30722 49.0843 9.29848 49.0843 9.29848 49.0843C9.14181 49.0982 8.98406 49.0953 8.82798 49.0758C8.76539 49.0692 8.7039 49.0548 8.645 49.0329C8.55787 49.0071 8.3139 49.0329 8.09607 49.2215C8.09607 49.2215 8.09607 49.2301 8.1135 49.2215C8.13092 49.213 8.34004 49.0843 8.65372 49.3417C8.8837 49.5105 9.17017 49.5872 9.45534 49.5561C9.46423 49.5564 9.47287 49.5589 9.48051 49.5634C9.48816 49.5679 9.49447 49.5743 9.49888 49.5818C9.53374 49.6762 9.5686 49.7706 9.6122 49.8649C9.47729 49.8544 9.34332 49.8343 9.21138 49.8049C9.15413 49.7872 9.09871 49.7642 9.04583 49.7363C8.94686 49.7138 8.84412 49.713 8.74479 49.7337C8.64546 49.7544 8.55193 49.7963 8.47074 49.8563C8.47074 49.8563 8.47074 49.8735 8.49688 49.8563C8.52302 49.8392 8.73214 49.762 9.01097 50.0451C9.22111 50.2452 9.50276 50.3562 9.79518 50.3539H9.80387L9.87358 50.5255C9.70575 50.5235 9.53886 50.5004 9.37693 50.4569L9.20264 50.3882C9.10512 50.3653 9.00362 50.3642 8.90563 50.385C8.80762 50.4058 8.71558 50.4479 8.63629 50.5083C8.63629 50.5083 8.63629 50.5169 8.65372 50.5083C8.67114 50.4997 8.88898 50.4054 9.16778 50.6971C9.28209 50.809 9.42058 50.8942 9.57297 50.9462C9.72531 50.9982 9.88769 51.0156 10.0478 50.9973C10.0532 50.9979 10.0584 50.9998 10.063 51.0028C10.0675 51.0058 10.0713 51.0098 10.074 51.0144C10.257 51.4519 10.3789 51.7693 10.3789 51.7693C10.3789 51.7693 10.4748 52.2668 10.4312 52.4727C10.3877 52.6786 10.5097 53.0904 10.8233 53.2276C11.137 53.3649 11.3984 53.7595 11.3984 53.8367C11.3984 53.9139 11.3897 54.3686 11.9648 54.5487C11.9648 54.5487 12.0083 54.5315 12.017 54.5916C12.0159 54.689 11.9952 54.7852 11.9561 54.8746C11.9561 54.8746 11.9386 54.909 11.9735 54.8918C12.0638 54.8692 12.1477 54.8266 12.2187 54.7671C12.2897 54.7076 12.3459 54.6329 12.383 54.5487C12.383 54.5487 12.3743 54.5401 12.3917 54.5315C12.4091 54.5229 12.6095 54.2999 12.6444 54.0941C12.6792 53.8881 12.6095 53.6136 12.2261 53.3649C12.2261 53.3649 12.1826 53.3477 12.2175 53.3563C12.3069 53.3612 12.3925 53.3943 12.4614 53.4507L12.8797 53.811C12.9714 53.9066 13.0846 53.9796 13.2102 54.0243C13.3358 54.069 13.4703 54.0841 13.6028 54.0683C13.6102 54.0658 13.6182 54.0652 13.6258 54.0667C13.6335 54.0682 13.6406 54.0717 13.6464 54.0769C13.6551 54.0855 13.7423 54.1712 13.7074 54.5144C13.7074 54.5144 13.6987 54.5487 13.7161 54.5487C13.7336 54.5487 14.1343 54.4029 14.0211 53.8967C14.0211 53.8967 14.0124 53.8881 14.0298 53.871C14.0472 53.8538 14.1866 53.5707 14.1518 53.3735C14.117 53.1762 13.9862 52.8244 13.2717 52.6786C13.2717 52.6786 13.2282 52.6786 13.2543 52.67C13.2805 52.6615 13.446 52.5585 13.8555 52.7129C13.8804 52.7165 13.9042 52.7253 13.9252 52.7387C13.9704 52.8154 14.0406 52.875 14.1244 52.9076C14.2082 52.9403 14.3007 52.9443 14.387 52.9188C14.387 52.9188 14.387 52.9102 14.3958 52.9188C14.4045 52.9274 14.6397 52.9445 14.692 53.2791C14.692 53.2791 14.9883 52.9703 14.5874 52.5499C14.5874 52.5499 14.3086 51.6921 13.2456 52.0009Z" fill="#E41F26"/>
<path d="M18.3423 31.1558C18.3336 31.1558 18.3162 31.1644 18.3249 31.1729C18.6299 31.3358 19.0655 31.7129 19.231 31.2072C19.2398 31.1986 19.231 31.1986 19.231 31.1986C19.0219 30.9415 18.5863 31.0872 18.3423 31.1558Z" fill="#E41F26"/>
<path d="M16.4688 25.1081C13.9075 25.17 11.4242 25.9882 9.34111 27.4565C7.25798 28.9249 5.67112 30.9757 4.78636 33.3428C3.90162 35.71 3.75982 38.2843 4.37937 40.7317C4.99891 43.1792 6.35122 45.3869 8.26084 47.0685L8.33926 47.1371H8.34798L8.40026 47.0599C8.55982 46.8535 8.79374 46.7154 9.05375 46.6739L9.28028 46.6567L9.10604 46.5194L8.67037 46.1334C6.97716 44.5506 5.79869 42.509 5.28394 40.2669C4.76918 38.0247 4.94127 35.6826 5.77844 33.5368C6.61562 31.3909 8.08028 29.5376 9.98727 28.2111C11.8942 26.8847 14.1579 26.1447 16.492 26.0847C18.826 26.0248 21.1258 26.6475 23.1005 27.8742C25.0751 29.1009 26.636 30.8765 27.5857 32.9765C28.5354 35.0765 28.8313 37.4065 28.4361 39.672C28.0408 41.9376 26.9721 44.0369 25.365 45.7045C23.9622 47.1628 22.2805 48.2351 20.2678 48.827L20.1806 48.8527L20.2068 48.9385C20.3303 49.2129 20.5295 49.4477 20.7819 49.6162L20.8254 49.642H20.8428C20.8428 49.6334 20.8864 49.6162 20.8864 49.6162C26.1492 47.9778 29.7042 43.1568 29.5997 37.4608V37.3665C29.5556 35.7125 29.181 34.0834 28.4972 32.5721C27.8133 31.0608 26.8337 29.697 25.6143 28.5586C24.3948 27.4201 22.9595 26.5295 21.3902 25.9374C19.821 25.3454 18.1486 25.0636 16.4688 25.1081Z" fill="#E41F26"/>
<path d="M17.61 39.5367C17.61 39.5367 18.3854 39.5024 18.5772 40.7119C18.5772 40.7119 18.5859 40.7719 18.6033 40.7548C18.6207 40.7376 19.7273 39.9055 19.7621 39.0906C19.7621 39.0906 19.7621 39.0391 19.736 39.022C19.393 38.8054 19.0117 38.6541 18.612 38.5759C18.612 38.5759 18.5946 38.5588 18.5772 38.5845C18.5597 38.6102 18.2984 39.1078 17.5926 39.511C17.5926 39.511 17.5403 39.5367 17.61 39.5367Z" fill="#E41F26"/>
<path d="M15.894 40.2145C17.5757 39.4939 18.2204 38.8076 18.4383 38.3444C18.4919 38.2469 18.5329 38.1432 18.5603 38.0356C18.5763 37.9421 18.5821 37.8472 18.5777 37.7525C18.569 37.5381 18.5603 37.3922 18.4906 37.255C18.4041 37.1356 18.2981 37.0312 18.1769 36.9461C18.0288 36.8147 17.8891 36.6743 17.7586 36.5258C17.7499 36.5001 17.7499 36.543 17.7499 36.543C17.8458 38.5074 15.9288 39.2451 15.9288 39.2451L15.9114 39.288C16.0247 39.9485 15.7981 40.1888 15.8069 40.2231C15.8156 40.2574 15.894 40.2145 15.894 40.2145Z" fill="#E41F26"/>
<path d="M21.1482 36.0711C21.1482 36.0711 21.0175 36.0282 21.0785 36.1311C21.1395 36.234 21.5926 36.8688 21.5752 37.0576C21.5577 37.2463 21.5752 37.2291 21.488 37.2205C21.4009 37.212 21.1831 37.1862 21.3225 37.4779C21.4619 37.7696 21.6274 38.0355 21.488 38.4472C21.488 38.4472 21.4793 38.4815 21.4532 38.473C21.427 38.4644 21.3748 38.3872 21.2615 38.5159C21.1482 38.6446 21.1046 39.0392 21.1482 39.4595C21.1531 39.4867 21.149 39.5148 21.1364 39.5394C21.1238 39.5642 21.1035 39.5843 21.0785 39.5967C20.9827 39.6396 21.0524 39.7683 21.1831 39.7254L21.9499 39.4766C21.9499 39.4766 22.2984 39.4166 22.6121 38.5931C22.9257 37.7695 24.3547 35.9939 24.4593 35.9338C24.5638 35.8737 24.8427 35.7537 24.9211 35.6679C24.9995 35.5821 25.1127 35.1274 25.2261 34.9387H25.2522C25.2522 34.9387 25.6878 35.1532 25.9928 34.7929H26.0015C26.0959 34.8363 26.1705 34.9127 26.2106 35.0074C26.2396 34.9258 26.2476 34.8385 26.2339 34.7532C26.2202 34.6678 26.1852 34.5872 26.1322 34.5184C26.1322 34.5184 26.1235 34.5184 26.1235 34.5012C26.1235 34.4841 26.1148 33.8407 25.1563 34.1066H25.1476C25.2429 34.0335 25.3527 33.9809 25.47 33.9522C25.714 33.8664 25.7488 33.9093 25.9231 33.6606C25.9231 33.6606 26.0364 33.5405 26.2455 33.8922H26.2542C26.2909 33.7884 26.293 33.6759 26.26 33.5709C26.2271 33.466 26.161 33.3741 26.0712 33.3089C26.0712 33.3089 26.0625 33.3089 26.0625 33.2917C26.0625 33.2745 26.0276 32.7341 25.3567 32.8284C25.2 32.8487 25.0499 32.9031 24.9173 32.9877C24.7846 33.0723 24.6728 33.1849 24.59 33.3174C24.59 33.3174 24.5725 33.3517 24.5725 33.3174C24.6471 33.1125 24.7919 32.9395 24.982 32.8284C24.982 32.8284 25.1738 32.7598 25.1912 32.5883C25.2086 32.4167 25.0692 32.3738 25.1302 32.3052C25.168 32.2632 25.2153 32.2304 25.2682 32.2095C25.3211 32.1887 25.3783 32.1803 25.4352 32.1851C25.4352 32.1851 25.4439 32.1851 25.4352 32.1765C25.4265 32.1679 25.2783 31.9106 24.8514 32.0907H24.8339C24.8165 32.0821 23.9887 31.8076 24.0149 33.0601C24.0149 33.0601 24.0236 33.1115 24.0149 33.0858C24.0062 33.0601 23.8929 32.94 23.9365 32.5196C23.9365 32.5196 23.9975 32.3052 23.8145 32.2966H23.7883C23.7883 32.2966 23.8058 32.0736 23.9801 32.0307H23.9887C23.9887 32.0307 23.5444 31.7733 23.3527 32.8542C23.3527 32.8542 23.3527 33.266 23.4224 33.4289C23.4921 33.5919 23.5008 34.261 23.0913 34.8014C23.0913 34.8014 21.8888 36.0367 21.1482 36.0711Z" fill="#E41F26"/>
<path d="M22.8556 51.3319C22.8382 51.3233 22.8556 51.3061 22.8556 51.3061C22.9602 50.4826 21.7665 50.6027 21.7665 50.6027L21.7578 50.577C22.6204 50.4398 22.8905 50.8601 22.8905 50.8601L22.9079 50.8429C22.8818 50.3111 22.5158 50.2338 22.5158 50.2338C22.5071 50.2329 22.4987 50.2301 22.4912 50.2257C22.4836 50.2212 22.4772 50.2153 22.4722 50.2081C22.3067 49.925 21.7665 49.8821 21.5051 50.0452C21.3573 50.1403 21.1912 50.2045 21.0171 50.2338C19.9367 50.4569 19.3442 49.5819 19.3442 49.5819C18.316 47.9949 19.8408 48.1665 19.6143 46.4251C19.3877 44.6837 16.4165 44.3149 16.4165 44.3149C15.6149 44.212 14.9875 45.7818 14.8568 46.2278C14.7262 46.6739 14.6216 46.8197 14.6216 46.8197L14.6739 46.8626C17.0439 47.2143 16.9742 48.4496 16.9742 48.4496C16.9829 48.7069 16.6257 48.7327 16.6257 48.7327C16.3991 48.767 15.885 49.0329 16.765 49.6334L16.9393 49.7535C16.948 49.7621 16.9393 49.7621 16.9393 49.7707L16.6692 49.9422L16.5037 50.0108C16.4165 50.0366 16.2335 50.191 16.1726 50.4741H16.1813C16.19 50.4483 16.2858 50.2424 16.6953 50.2596C16.9317 50.264 17.1634 50.195 17.3576 50.0623H17.3837L17.619 50.2253L17.4272 50.3196L17.253 50.3625C17.1659 50.3797 16.9655 50.5169 16.8609 50.7829C16.8609 50.7829 16.8696 50.7915 16.8783 50.7743C16.887 50.7572 17.0091 50.5598 17.4098 50.6284C17.6267 50.6624 17.8489 50.6295 18.0459 50.5341H18.0546L18.2637 50.6799L17.9588 50.8086L17.7758 50.8429C17.6887 50.8515 17.4795 50.9716 17.3663 51.2461H17.3837C17.3924 51.2289 17.5231 51.0317 17.9239 51.126C18.1793 51.1761 18.4443 51.1366 18.6732 51.0145H18.6994C19.2396 51.4434 19.6665 51.8551 19.684 52.1125C19.7014 52.6615 20.1284 52.7816 20.1284 52.7816C20.1371 53.0304 19.989 53.0733 19.989 53.0733H20.0064C20.1183 53.099 20.2359 53.0836 20.337 53.0299C20.4381 52.9761 20.5158 52.8878 20.5553 52.7816C20.5553 52.773 20.5728 52.773 20.5728 52.773C20.6838 52.6861 20.7668 52.5693 20.8116 52.4368C20.8565 52.3043 20.8613 52.1619 20.8254 52.0267C20.8254 52.0096 20.8429 52.0439 20.8429 52.0439C21.2785 52.7559 21.7142 52.5843 21.7142 52.5843L21.7316 52.5929C21.7553 52.8079 21.6996 53.024 21.5748 53.2019C21.5574 53.2105 21.5748 53.2105 21.5748 53.2105C22.1499 52.8931 22.1411 52.4985 22.1411 52.4985V52.4642C22.6988 51.7522 21.5835 51.2461 21.5835 51.2461V51.2375C22.0104 51.289 22.1934 51.3919 22.2196 51.4434C22.2457 51.4949 22.3154 51.6407 22.4374 51.6664C22.5213 51.6807 22.6073 51.6778 22.6901 51.6579C22.8034 51.6664 22.8208 51.9581 22.8208 51.9581H22.8295C23.1257 51.5635 22.8469 51.3319 22.8469 51.3319" fill="#E41F26"/>
<path d="M22.2186 33.2918C22.0095 33.369 21.2428 33.2575 21.0424 33.1202C20.9379 33.048 20.8192 32.9983 20.6938 32.9744C19.9445 32.8543 19.6831 33.2489 19.6569 33.266C19.6308 33.2832 19.6657 33.3003 19.6657 33.3003C19.6657 33.3003 20.11 33.1031 20.9029 33.472C21.6959 33.8408 22.1838 33.3432 22.1838 33.3432L22.2186 33.2918Z" fill="#E41F26"/>
<path d="M20.8432 38.5929C20.608 37.9752 19.4926 37.6407 19.2748 37.5634C19.057 37.4862 18.8479 37.3833 18.8479 37.3833C18.9698 37.9323 18.6736 38.4213 18.6736 38.4213H18.691C18.7388 38.4061 18.7898 38.4031 18.8391 38.4127C19.9719 38.6786 20.7561 39.4678 20.7561 39.4678L20.7909 39.4592C20.8379 39.3482 20.8559 39.2272 20.8432 39.1075C20.8345 39.0304 20.8432 38.6786 20.8519 38.5929H20.8432Z" fill="#E41F26"/>
<path d="M37.4143 35.9246H37.4425L41.2163 42.5466H44.1279V31.9376H41.4707V38.463H41.4283L37.6546 31.9376H34.7571V42.5466H37.4143V35.9246ZM65.8375 39.2494C65.8375 38.0354 65.1166 37.0559 63.9576 36.7248C64.8201 36.3109 65.3996 35.5383 65.3996 34.5864C65.3996 32.3791 63.3359 31.8962 61.4704 31.9376H56.3822V42.5466H61.6114C63.9293 42.5466 65.8375 41.774 65.8375 39.2494ZM59.2086 34.076H61.3994C61.9932 34.076 62.5583 34.3243 62.5583 35.0969C62.5583 35.8694 61.8944 36.104 61.3994 36.104H59.2086V34.076ZM61.4843 40.3254H59.2086V37.8836H61.4843C62.3324 37.8836 63.0107 38.2009 63.0107 39.139C63.0107 40.0771 62.3746 40.3254 61.4843 40.3254ZM50.2479 42.7673C53.6681 42.7673 55.6046 40.3116 55.6046 37.2352C55.6046 34.1588 53.6681 31.7031 50.2479 31.7031C46.8275 31.7031 44.8911 34.1588 44.8911 37.2352C44.8911 40.3116 46.8275 42.7673 50.2479 42.7673ZM50.2479 34.0898C52.0711 34.0898 52.7778 35.6625 52.7778 37.2352C52.7778 38.8079 52.0711 40.3806 50.2479 40.3806C48.4246 40.3806 47.7179 38.8079 47.7179 37.2352C47.7179 35.6625 48.4246 34.0898 50.2479 34.0898ZM73.1731 31.9376V38.3251C73.1731 39.6909 72.6502 40.3806 71.2649 40.3806C69.88 40.3806 69.371 39.6909 69.371 38.3251V31.9376H66.5302V38.1595C66.5302 41.236 67.9861 42.7673 71.2649 42.7673C74.5441 42.7673 76 41.236 76 38.1595V31.9376H73.1731ZM37.2305 47.0439H37.2164L35.7465 43.8847H34.7571V48.12H35.5203V44.878H35.5344L37.0044 48.12H37.9938V43.8847H37.2305V47.0439ZM41.3294 44.4642H42.5307V48.12H43.3364V44.4642H44.5237V43.8847H41.3294V44.4642ZM39.5768 43.8847L38.1351 48.12H38.9831L39.3082 47.0854H40.7923L41.1032 48.12H41.9513L40.6226 43.8847H39.5768ZM39.4637 46.5473L40.0573 44.4642H40.0714L40.6651 46.5473H39.4637ZM63.9859 45.8851C64.481 45.761 64.7208 45.4437 64.7208 44.9332C64.7208 44.1883 64.1135 43.8985 63.3642 43.8985H61.7246V48.1338H63.322C64.2828 48.1338 64.8906 47.6786 64.8906 46.975C64.8906 46.2714 64.5371 45.9817 63.9859 45.8989V45.8851ZM62.5305 44.409H63.0956C63.5479 44.409 63.9154 44.5194 63.9154 45.016C63.9154 45.5126 63.6612 45.692 63.1661 45.692H62.5305V44.409ZM63.3359 47.6234H62.5305V46.1473H63.2793C63.76 46.1473 64.0852 46.4093 64.0852 46.8646C64.0852 47.3199 63.8166 47.6096 63.3359 47.6096V47.6234ZM71.2649 47.0439H71.251L69.7812 43.8847H68.7915V48.12H69.5547V44.878H69.5691L71.0389 48.12H72.0281V43.8847H71.2649V47.0439ZM66.276 43.8847L64.834 48.12H65.6821L66.0074 47.0854H67.4911L67.8024 48.12H68.6505L67.3217 43.8847H66.276ZM66.1628 46.5473L66.7562 44.4642H66.7845L67.3639 46.5473H66.1628ZM58.0213 43.8847H57.2159V48.12H59.9723V47.5544H58.0213V43.8847ZM44.7498 48.12H45.5554V43.8847H44.7498V48.12ZM75.8446 43.8847H74.9542L73.4273 45.7334H73.4134V43.8847H72.6075V48.12H73.4134V46.7543L73.8658 46.2162L75.0814 48.12H76L74.3887 45.6782L75.8446 43.8847ZM47.6896 43.802C46.5307 43.802 46.0219 44.4918 46.0219 46.0093C46.0219 47.5268 46.5307 48.2028 47.6896 48.2028C48.8486 48.2028 49.3716 47.513 49.3716 46.0093C49.3716 44.5056 48.8628 43.802 47.6896 43.802ZM47.6896 47.6924C47.2091 47.6924 46.8275 47.4441 46.8275 45.9817C46.8275 44.5194 47.2091 44.3124 47.6896 44.3124C48.1702 44.3124 48.5659 44.5607 48.5659 45.9817C48.5659 47.4027 48.1843 47.6924 47.6896 47.6924ZM52.3538 47.0439H52.3256L50.8556 43.8847H49.8804V48.12H50.6436V44.878H50.6578L52.1277 48.12H53.1171V43.8847H52.3538V47.0439ZM54.6999 43.8847L53.2584 48.12H54.1065L54.4318 47.0854H55.9154L56.2263 48.12H57.0744L55.7317 43.8847H54.6999ZM54.5728 46.5473L55.1806 44.4642H55.195L55.7744 46.5473H54.5728Z" fill="#E41F26"/>
</g>
<defs>
<clipPath id="clip0_30990_34438">
<rect width="72" height="29.7931" fill="white" transform="translate(4 25.1035)"/>
</clipPath>
</defs>
</svg>
