<svg width="80" height="80" viewBox="0 0 80 80" fill="none" xmlns="http://www.w3.org/2000/svg">
<g clip-path="url(#clip0_30990_34519)">
<path d="M5.74531 43.1913V43.1983C5.74311 43.3613 5.62999 43.4175 5.4816 43.4168H5.35562V43.6875H5.17969V42.9728H5.48674C5.61897 42.9728 5.73246 43.0135 5.74458 43.1656L5.74531 43.1784V43.1913ZM5.56461 43.1961L5.56424 43.1906C5.56571 43.1237 5.50584 43.1277 5.45589 43.1252H5.35562V43.2644H5.45405C5.49813 43.2622 5.56277 43.2684 5.56387 43.2071L5.56424 43.2019L5.56461 43.1961ZM6.45639 43.6875H6.2654L6.21692 43.5439H5.98148L5.93263 43.6875H5.74642L6.01013 42.9728H6.19561L6.45639 43.6875ZM6.16807 43.3984L6.10048 43.1928L6.03217 43.3984H6.16807ZM7.1906 43.6875H7.02863L6.75683 43.2482V43.6875H6.58861V42.9728H6.7572L7.02202 43.4106V42.9728H7.1906V43.6875ZM7.54981 43.6875H7.37388V42.9724H7.54981V43.6875ZM8.33508 43.6875H8.17347L7.90168 43.2482V43.6875H7.73346V42.9728H7.90204L8.16649 43.4106V42.9728H8.33508V43.6875ZM10.454 43.6875H10.2634L10.2149 43.5439H9.97944L9.93096 43.6875H9.74474L10.0081 42.9728H10.1939L10.454 43.6875ZM10.1664 43.3984L10.0984 43.1928L10.0301 43.3984H10.1664ZM11.1886 43.6875H11.0266L10.7552 43.2482V43.6875H10.5869V42.9728H10.7552L11.02 43.4106V42.9728H11.1886V43.6875ZM12.0557 43.6875H11.8321L11.6043 43.3691L11.5511 43.4205V43.6875H11.3751V42.9728H11.5511V43.2199L11.8185 42.9728H12.0473L11.738 43.2453" fill="#007DC5"/>
<path fill-rule="evenodd" clip-rule="evenodd" d="M9.00781 42.9763H9.36408C9.4313 42.9767 9.48088 42.9899 9.51357 43.0156C9.54626 43.0413 9.5683 43.0696 9.57895 43.1005C9.58225 43.1104 9.58483 43.1203 9.5863 43.1302C9.58813 43.1398 9.58887 43.1497 9.58887 43.1589C9.58887 43.1923 9.58336 43.2184 9.57197 43.2378C9.56095 43.2577 9.54846 43.272 9.53561 43.2819C9.529 43.287 9.52239 43.2914 9.51651 43.2944C9.51027 43.2977 9.50439 43.301 9.49961 43.3036C9.54406 43.3201 9.57417 43.344 9.5896 43.3756C9.60466 43.4071 9.61274 43.4402 9.61274 43.4747C9.61274 43.5034 9.60686 43.5302 9.59511 43.5555C9.58336 43.5805 9.5683 43.6025 9.5492 43.6209C9.54846 43.6216 9.54736 43.6224 9.54736 43.6224C9.54699 43.6231 9.54663 43.6238 9.54663 43.6238C9.52606 43.6422 9.50108 43.6569 9.47133 43.6679C9.44232 43.6786 9.3909 43.6841 9.31854 43.6841H9.00781V42.9763ZM9.18228 43.5618H9.33654C9.36702 43.5625 9.3909 43.5544 9.40779 43.5379C9.42505 43.5217 9.43313 43.4949 9.43313 43.4589C9.43313 43.4284 9.42395 43.4068 9.40559 43.3936C9.38722 43.3803 9.36739 43.373 9.34572 43.3726H9.18228V43.5618ZM9.18228 43.2533H9.32478C9.34829 43.254 9.36849 43.2481 9.38539 43.236C9.40192 43.2239 9.41 43.2037 9.41 43.1754C9.41 43.146 9.40228 43.1258 9.38612 43.1151C9.37033 43.1038 9.34829 43.0983 9.32074 43.0983H9.18228" fill="#007DC5"/>
<path fill-rule="evenodd" clip-rule="evenodd" d="M4.81171 35.5321H12.422L12.4616 35.5332L12.5031 35.5361C12.9017 35.5776 13.2124 35.9064 13.2333 36.3063L13.234 36.346V43.6543C13.234 44.054 12.9384 44.3981 12.5435 44.4587L12.5031 44.4642L12.4616 44.4672L12.422 44.4683H4.81171C4.41063 44.4675 4.07089 44.1715 4.00918 43.7763L4.00404 43.7355L4.00073 43.694L4 43.6543V36.346L4.00073 36.3063L4.00404 36.2648L4.00918 36.2241L4.01616 36.184L4.02571 36.1447L4.03673 36.1058C4.05693 36.0408 4.08301 35.9835 4.11827 35.9255L4.1392 35.892L4.16198 35.8604L4.18622 35.8296C4.2942 35.6977 4.44552 35.6004 4.6108 35.5578L4.6501 35.5486L4.69014 35.5416L4.73091 35.5361L4.77241 35.5332L4.81171 35.5321ZM4.81465 35.7554H12.4194L12.4503 35.7565L12.4804 35.7587C12.7691 35.7885 12.996 36.0283 13.0104 36.3177L13.0115 36.3489V43.6514C13.0118 43.9423 12.7973 44.1939 12.5098 44.238L12.4804 44.242L12.4503 44.2442L12.4194 44.2449H4.81465C4.52339 44.2457 4.274 44.0293 4.22956 43.7425L4.22588 43.7127L4.22331 43.6826L4.22258 43.6514V36.3489L4.22331 36.3177L4.22588 36.2876L4.22956 36.2582L4.2347 36.2288L4.24131 36.2006L4.24939 36.1723C4.26335 36.1271 4.28428 36.0819 4.30852 36.0415L4.32395 36.0176L4.34048 35.9941L4.35811 35.9717C4.43597 35.8766 4.54726 35.8046 4.66663 35.7745L4.69491 35.7675L4.7243 35.7624L4.75368 35.7587L4.78343 35.7565" fill="#007DC5"/>
<path fill-rule="evenodd" clip-rule="evenodd" d="M8.42478 36.1342C7.63474 36.2304 7.01953 36.9077 7.01953 37.7249C7.01953 38.6071 7.73758 39.3267 8.61798 39.3267C9.49801 39.3267 10.2161 38.6071 10.2161 37.7249C10.2161 36.9077 9.60085 36.2304 8.81081 36.1342C8.92063 36.2003 8.99482 36.3211 8.99482 36.4585C8.99482 36.6667 8.82513 36.8364 8.61798 36.8364C8.41009 36.8364 8.24077 36.6667 8.24077 36.4585C8.24077 36.3211 8.31496 36.2003 8.42478 36.1342Z" fill="#007DC5"/>
<path fill-rule="evenodd" clip-rule="evenodd" d="M8.29258 39.8937C8.39653 40.0737 8.62792 40.1362 8.80753 40.0322C8.98713 39.9279 9.0492 39.6961 8.94526 39.5158C8.84132 39.3358 8.61029 39.2734 8.43069 39.3773C8.25071 39.4816 8.18864 39.7134 8.29258 39.8937Z" fill="#007DC5"/>
<path fill-rule="evenodd" clip-rule="evenodd" d="M5.62867 41.6578C6.10651 42.2954 6.99939 42.4908 7.70533 42.0827C8.46745 41.6413 8.73043 40.658 8.29042 39.8937C7.85004 39.1294 6.86937 38.866 6.10688 39.3075C5.40131 39.7159 5.12364 40.589 5.43547 41.3225C5.43804 41.1939 5.50526 41.0694 5.62389 41.0007C5.8035 40.8968 6.03489 40.9588 6.13883 41.1392C6.24241 41.3191 6.18034 41.5509 6.00073 41.6552C5.8821 41.7239 5.74106 41.7202 5.62867 41.6578Z" fill="#007DC5"/>
<path fill-rule="evenodd" clip-rule="evenodd" d="M11.6055 41.6578C11.1277 42.2954 10.2348 42.4908 9.52884 42.0827C8.76671 41.6413 8.50373 40.658 8.94374 39.8937C9.38413 39.1294 10.3648 38.866 11.1273 39.3075C11.8329 39.7159 12.1105 40.589 11.7983 41.3225C11.7961 41.1939 11.7289 41.0694 11.6103 41.0007C11.4307 40.8968 11.1996 40.9588 11.0957 41.1392C10.9918 41.3191 11.0538 41.5509 11.2331 41.6552C11.3521 41.7239 11.4931 41.7202 11.6055 41.6578Z" fill="#007DC5"/>
<path fill-rule="evenodd" clip-rule="evenodd" d="M40.0773 36.9415C40.0773 37.2306 39.9282 37.4759 39.6296 37.6776C39.3677 37.8524 39.0728 37.9395 38.7452 37.9395C38.4032 37.9395 38.1013 37.8557 37.8391 37.6879C37.5482 37.4994 37.4023 37.2541 37.4023 36.9522C37.4023 36.6426 37.5445 36.3906 37.8284 36.1956C38.0903 36.0277 38.3959 35.9436 38.7452 35.9436C39.0801 35.9436 39.3787 36.031 39.6406 36.2058C39.9315 36.4009 40.0773 36.6459 40.0773 36.9415Z" fill="#007DC5"/>
<path fill-rule="evenodd" clip-rule="evenodd" d="M69.2305 35.9435H71.4967V40.0608L73.1528 38.1443H75.8814L73.8051 40.1702L76.0004 43.9272H73.5002L72.3293 41.6074L71.4967 42.4236V43.9272H69.2305" fill="#007DC5"/>
<path fill-rule="evenodd" clip-rule="evenodd" d="M62.3281 38.2666H64.3471V39.1932C64.6487 38.8171 64.9543 38.5497 65.2628 38.3881C65.572 38.2265 65.9481 38.1446 66.3915 38.1446C66.9912 38.1446 67.4599 38.3246 67.8 38.6809C68.1379 39.0371 68.3069 39.5873 68.3069 40.3326V43.9272H66.1299V40.8178C66.1299 40.4637 66.0646 40.2125 65.9338 40.0656C65.8009 39.9164 65.6176 39.8437 65.3792 39.8437C65.1177 39.8437 64.9032 39.9436 64.7412 40.142C64.5778 40.3399 64.4962 40.6977 64.4962 41.2122V43.9272H62.3281" fill="#007DC5"/>
<path fill-rule="evenodd" clip-rule="evenodd" d="M49.8551 43.9272H47.4141V35.9435H49.8551V36.2307C50.2176 36.0331 50.6745 35.9438 51.3408 35.9438C52.8371 35.9438 54.1663 36.5539 54.1707 37.8365C54.1751 38.942 53.5405 39.3413 52.6836 39.3993C53.7671 39.5253 54.7569 40.1923 54.7569 41.318C54.7569 43.2037 53.5052 43.9272 51.3731 43.9272C50.7054 43.9272 50.3381 43.8369 49.8551 43.6646V43.9272ZM49.8551 37.5085V38.8737C50.5639 38.902 51.9563 38.9927 51.9563 38.0932C51.9563 37.1981 50.4949 37.2429 49.8551 37.5085ZM49.8551 40.4075V42.4023C50.1236 42.4845 50.4042 42.5297 50.7454 42.5297C51.4939 42.5297 52.3806 42.1911 52.3567 41.4113C52.3189 40.1779 50.7942 40.3623 49.8551 40.4075Z" fill="#007DC5"/>
<path fill-rule="evenodd" clip-rule="evenodd" d="M57.4708 40.1232L55.4155 39.9032C55.493 39.5377 55.605 39.2498 55.7512 39.0404C55.8973 38.8311 56.1067 38.6496 56.3825 38.4954C56.5794 38.3834 56.8519 38.297 57.1964 38.2364C57.5413 38.1762 57.9145 38.1446 58.317 38.1446C58.9613 38.1446 59.481 38.1813 59.8707 38.2552C60.2622 38.3286 60.5869 38.484 60.8488 38.7158C61.2495 39.0706 61.478 39.7192 61.478 40.2448V43.9272H59.4593V43.2852C59.0164 43.6727 58.1444 43.9291 57.3085 43.9272C56.2444 43.925 55.2388 43.5096 55.2461 42.4739C55.2491 42.0394 55.3706 41.6831 55.6215 41.4043C55.872 41.1233 56.3322 40.9162 57.0051 40.7803C57.8135 40.615 58.3369 40.4993 58.5767 40.4336C58.8151 40.3671 59.0693 40.2789 59.3363 40.1728C59.3363 39.9032 59.2823 39.7159 59.1743 39.6075C59.0641 39.501 58.8728 39.4459 58.5966 39.4459C58.2451 39.4459 57.9813 39.5047 57.8047 39.6186C57.6673 39.7085 57.5557 39.8775 57.4708 40.1232ZM59.3363 41.2739C59.0402 41.3753 58.7321 41.4642 58.4125 41.5413C57.9758 41.6511 57.6978 41.7613 57.5825 41.8675C57.4616 41.9788 57.4025 42.104 57.4025 42.2443C57.4025 42.4056 57.4616 42.5359 57.5792 42.6388C57.6978 42.7402 57.8712 42.7916 58.1003 42.7916C58.3402 42.7916 58.5624 42.7365 58.7699 42.6267C58.9756 42.5154 59.1218 42.3798 59.2085 42.2223C59.2951 42.0629 59.3363 41.8554 59.3363 41.6012" fill="#007DC5"/>
<path fill-rule="evenodd" clip-rule="evenodd" d="M30.8164 38.2667H32.8354V39.1934C33.1369 38.8173 33.4422 38.5502 33.7511 38.3886C34.0599 38.227 34.4364 38.1451 34.8797 38.1451C35.4795 38.1451 35.9482 38.3251 36.2883 38.681C36.6258 39.0369 36.7952 39.5875 36.7952 40.3327V43.9263H34.6179V40.8179C34.6179 40.4631 34.5525 40.2126 34.4217 40.0653C34.2891 39.9162 34.1055 39.8435 33.8675 39.8435C33.6056 39.8435 33.3915 39.9437 33.2295 40.1417C33.0661 40.3397 32.9842 40.6978 32.9842 41.212V43.9263H30.8164" fill="#D71920"/>
<path fill-rule="evenodd" clip-rule="evenodd" d="M40.6758 38.2667H42.6948V39.1934C42.9963 38.8173 43.3015 38.5502 43.6104 38.3886C43.9193 38.227 44.2958 38.1451 44.7391 38.1451C45.3389 38.1451 45.8076 38.3251 46.1477 38.681C46.4856 39.0369 46.6545 39.5875 46.6545 40.3327V43.9263H44.4776V40.8179C44.4776 40.4631 44.4119 40.2126 44.2811 40.0653C44.1485 39.9162 43.9649 39.8435 43.7269 39.8435C43.4654 39.8435 43.2509 39.9437 43.0889 40.1417C42.9254 40.3397 42.8439 40.6978 42.8439 41.212V43.9263H40.6758" fill="#D71920"/>
<path d="M37.5547 43.9262H39.9127V38.2666H37.5547V43.9262Z" fill="#D71920"/>
<path fill-rule="evenodd" clip-rule="evenodd" d="M23.5737 38.6891C23.5854 41.2278 21.2315 42.0634 19.175 41.2506V43.9263H16.7344V35.945H19.175V36.2315C19.6294 36.0402 20.0139 35.9381 20.624 35.945C22.3168 35.9634 23.5645 36.7355 23.5737 38.6891ZM19.175 37.6724V39.7729C20.2009 40.1748 21.3391 39.9672 21.3692 38.5671C21.389 37.6324 20.2894 37.0219 19.175 37.6724Z" fill="#D71920"/>
<path fill-rule="evenodd" clip-rule="evenodd" d="M26.0489 40.1228L23.9939 39.9025C24.0714 39.5374 24.1831 39.2494 24.3297 39.0401C24.4755 38.8311 24.6848 38.6496 24.9607 38.4954C25.1575 38.3834 25.4304 38.297 25.7746 38.2364C26.1195 38.1758 26.4926 38.1446 26.8952 38.1446C27.5394 38.1446 28.0591 38.1813 28.4488 38.2548C28.8407 38.3283 29.1654 38.484 29.4269 38.7154C29.8276 39.0706 30.0564 39.7188 30.0564 40.2444V43.9258H28.0374V43.2841C27.5945 43.6712 26.7225 43.928 25.8866 43.9258C24.8229 43.9236 23.8169 43.5085 23.8243 42.4731C23.8272 42.0386 23.9488 41.6824 24.1996 41.4036C24.4501 41.1226 24.9103 40.9155 25.5832 40.7796C26.3916 40.6143 26.915 40.4986 27.1552 40.4328C27.3932 40.3667 27.6478 40.2786 27.9148 40.1724C27.9148 39.9025 27.8608 39.7155 27.7524 39.6072C27.6422 39.501 27.4509 39.4456 27.1751 39.4456C26.8232 39.4456 26.5598 39.5043 26.3828 39.6182C26.2454 39.7082 26.1338 39.8771 26.0489 40.1228ZM27.9148 41.2732C27.6187 41.3746 27.3102 41.4635 26.991 41.5406C26.554 41.65 26.2763 41.7602 26.161 41.8664C26.0398 41.978 25.9806 42.1029 25.9806 42.2432C25.9806 42.4048 26.0398 42.5348 26.1573 42.6377C26.2763 42.7391 26.4497 42.7905 26.6788 42.7905C26.9187 42.7905 27.1405 42.7357 27.348 42.6259C27.5537 42.5143 27.6999 42.3791 27.7866 42.2212C27.8733 42.0618 27.9148 41.8542 27.9148 41.6005" fill="#D71920"/>
</g>
<defs>
<clipPath id="clip0_30990_34519">
<rect width="72" height="8.93618" fill="white" transform="translate(4 35.5317)"/>
</clipPath>
</defs>
</svg>
