<svg width="80" height="80" viewBox="0 0 80 80" fill="none" xmlns="http://www.w3.org/2000/svg">
<g clip-path="url(#clip0_30990_34596)">
<path d="M21.1211 37.271H23.5591C24.9026 37.271 25.7644 38.0951 25.7644 39.2093C25.7644 40.3236 24.9135 41.1655 23.5591 41.1655H22.3228V43.4118H21.1211V37.271ZM23.4155 40.2453C24.0609 40.2453 24.5627 39.9213 24.5627 39.2182C24.5627 38.5081 24.0609 38.1912 23.4155 38.1912H22.3228V40.2435H23.4155V40.2453Z" fill="#030303"/>
<path d="M25.9165 41.1921C25.9165 39.8928 26.7674 38.8408 28.1472 38.8408C29.7508 38.8408 30.5216 40.1224 30.3435 41.5001H27.0183C27.0982 42.237 27.4837 42.6927 28.2109 42.6927C28.7218 42.6927 29.0436 42.4559 29.2145 42.0875H30.298C30.038 43.0344 29.2763 43.5435 28.1836 43.5435C26.6873 43.5435 25.9165 42.5093 25.9165 41.1921ZM29.2763 40.6831C29.1781 40.0779 28.8108 39.6916 28.1381 39.6916C27.5109 39.6916 27.1619 40.0868 27.0455 40.6831H29.2763Z" fill="#030303"/>
<path d="M30.9473 38.9723H32.049V39.7804C32.2545 39.3247 32.749 38.9385 33.4743 38.9385H33.538V39.9477H33.4743C32.3545 39.9477 32.0763 40.7113 32.0763 41.5532V43.4133H30.9473V38.9723Z" fill="#030303"/>
<path d="M33.9849 38.9723H35.0866V39.6665C35.3375 39.1485 35.8574 38.8584 36.4301 38.8584C37.1283 38.8584 37.6137 39.1574 37.8555 39.6825C38.1609 39.1735 38.7154 38.8584 39.3172 38.8584C40.3662 38.8584 40.9116 39.4903 40.9116 40.569V43.4115H39.7826V40.763C39.7826 40.1311 39.5226 39.7626 38.9663 39.7626C38.3663 39.7626 38.0173 40.2361 38.0173 41.0442V43.4133H36.8792V40.763C36.8792 40.1311 36.6283 39.7626 36.072 39.7626C35.4629 39.7626 35.1139 40.2361 35.1139 41.0442V43.4133H33.9849V38.9723Z" fill="#030303"/>
<path d="M41.4941 41.192C41.4941 39.8321 42.2377 38.8496 43.5012 38.8496C44.1467 38.8496 44.6304 39.1398 44.9358 39.6399V38.9724H46.0373V43.4116H44.9358V42.7459C44.6304 43.2372 44.1467 43.5362 43.5012 43.5362C42.2377 43.5362 41.4941 42.5519 41.4941 41.192ZM43.7703 42.632C44.5139 42.632 44.9176 42.0446 44.9176 41.1938C44.9176 40.343 44.5139 39.7556 43.7703 39.7556C43.0267 39.7556 42.6231 40.343 42.6231 41.1938C42.6231 42.0446 43.0358 42.632 43.7703 42.632Z" fill="#030303"/>
<path d="M47.2019 39.8499H46.511V38.9724H47.2019V37.7798H48.3397V38.9724H49.2454V39.8499H48.3397V43.4116H47.2019V39.8499Z" fill="#030303"/>
<path d="M49.4395 41.192C49.4395 39.8321 50.1829 38.8496 51.4466 38.8496C52.0921 38.8496 52.5755 39.1398 52.8809 39.6399V38.9724H53.9827V43.4116H52.8809V42.7459C52.5755 43.2372 52.0921 43.5362 51.4466 43.5362C50.1829 43.5362 49.4395 42.5519 49.4395 41.192ZM51.7155 42.632C52.459 42.632 52.8627 42.0446 52.8627 41.1938C52.8627 40.343 52.459 39.7556 51.7155 39.7556C50.9721 39.7556 50.5684 40.343 50.5684 41.1938C50.5684 42.0446 50.981 42.632 51.7155 42.632Z" fill="#030303"/>
<path d="M56.2228 37.271H58.7501C59.8972 37.271 60.6407 37.9296 60.6407 38.8249C60.6407 39.4568 60.2916 39.9124 59.7443 40.1403C60.4607 40.3414 60.9716 40.9128 60.9716 41.6585C60.9716 42.6856 60.2281 43.4136 58.9374 43.4136H56.2212V37.271H56.2228ZM58.5535 39.8145C59.0919 39.8145 59.4863 39.5333 59.4863 38.9726C59.4863 38.4119 59.0644 38.1574 58.5446 38.1574H57.3975V39.8163H58.5535V39.8145ZM58.7501 42.5272C59.3152 42.5272 59.79 42.246 59.79 41.5963C59.79 40.9555 59.3152 40.6582 58.7064 40.6582H57.3975V42.5272H58.7501Z" fill="#030303"/>
<path d="M61.3469 41.192C61.3469 39.8321 62.0904 38.8496 63.354 38.8496C63.9992 38.8496 64.483 39.1398 64.7884 39.6399V38.9724H65.8902V43.4116H64.7884V42.7459C64.483 43.2372 63.9992 43.5362 63.354 43.5362C62.0904 43.5362 61.3469 42.5519 61.3469 41.192ZM63.623 42.632C64.3665 42.632 64.7702 42.0446 64.7702 41.1938C64.7702 40.343 64.3665 39.7556 63.623 39.7556C62.8796 39.7556 62.4759 40.343 62.4759 41.1938C62.4759 42.0446 62.8885 42.632 63.623 42.632Z" fill="#030303"/>
<path d="M66.7188 38.9723H67.8202V39.6736C68.0803 39.1468 68.6365 38.8584 69.2185 38.8584C70.2856 38.8584 70.8401 39.4903 70.8401 40.569V43.4115H69.7112V40.763C69.7112 40.1311 69.4422 39.7626 68.8512 39.7626C68.215 39.7626 67.8477 40.2361 67.8477 41.0442V43.4133H66.7188V38.9723Z" fill="#030303"/>
<path d="M72.7841 41.2545V43.4136H71.6548V37.271H72.7841V40.7988L74.4058 38.9744H75.7584L73.9131 40.984L76.0019 43.4136H74.6129L72.7841 41.2545Z" fill="#030303"/>
<path d="M16.3409 38.1978L10.8177 31.1011L5.29627 38.1978C4.36361 39.3992 4 40.444 4 41.5797C4 43.3151 4.88721 44.8726 6.47618 45.9619L10.8159 48.8988L15.1573 45.9619C16.7481 44.8726 17.6335 43.3133 17.6335 41.5797C17.6353 40.4458 17.2717 39.3992 16.3409 38.1978ZM9.93227 45.6736V46.7202L7.2743 44.9402C6.0253 44.1179 5.3199 42.8933 5.3199 41.6473C5.3199 41.0029 5.50171 40.38 5.81986 39.7997C5.95622 40.177 6.18347 40.5562 6.68343 41.1133L9.50141 44.1837C9.95408 44.6946 9.93227 45.0061 9.93227 45.6736ZM7.84153 40.4458C7.13613 39.6893 7.00159 39.2675 7.00159 38.8225C7.00159 38.3989 7.09249 38.0215 7.63791 37.3309L10.8195 33.2815L14.001 37.3309C14.5247 38.0215 14.6374 38.3989 14.6374 38.8225C14.6374 39.2675 14.501 39.6911 13.7975 40.4458L10.8177 43.6942L7.84153 40.4458ZM14.3629 44.9402L11.7049 46.7202V45.6736C11.7049 45.0061 11.683 44.6946 12.1376 44.1819L14.9555 41.1115C15.4555 40.5562 15.6828 40.177 15.8191 39.7979C16.1373 40.3764 16.3191 40.9994 16.3191 41.6455C16.3173 42.8933 15.6137 44.1161 14.3629 44.9402Z" fill="#0064FF"/>
</g>
<defs>
<clipPath id="clip0_30990_34596">
<rect width="72" height="17.7978" fill="white" transform="translate(4 31.1011)"/>
</clipPath>
</defs>
</svg>
