<svg width="80" height="80" viewBox="0 0 80 80" fill="none" xmlns="http://www.w3.org/2000/svg">
<g clip-path="url(#clip0_30990_34547)">
<path fill-rule="evenodd" clip-rule="evenodd" d="M14.5842 28.4287C8.7536 28.4287 4.02675 33.1556 4.02675 38.9744C4.02309 41.1988 4.72669 43.3667 6.03589 45.165C6.4901 44.9482 6.95989 44.7657 7.44132 44.619C6.21018 43.0744 5.47846 41.1116 5.47846 38.9861C5.47846 33.9804 9.55503 29.9039 14.5607 29.9039C19.5665 29.9039 23.643 33.9801 23.643 38.9859C23.643 42.1916 21.9707 45.0253 19.4387 46.6396C19.6827 46.6396 19.9267 46.6396 20.1822 46.6281C21.0067 46.5816 21.785 46.2099 22.447 45.9081C24.1193 44.0379 25.1413 41.6919 25.1413 38.9741C25.1413 33.1559 20.4145 28.4287 14.5842 28.4287Z" fill="#EA5F00"/>
<path fill-rule="evenodd" clip-rule="evenodd" d="M21.274 49.4744C20.6817 49.6718 20.1011 49.7878 19.5437 49.7996C17.186 49.8924 15.4902 49.1841 13.8642 48.4873C12.4122 47.8716 11.0534 47.291 9.38109 47.3838C7.80138 47.5116 6.69823 48.3944 6.65166 48.429C6.32652 48.6847 6.28023 49.1607 6.53566 49.4861C6.79109 49.8113 7.27881 49.8693 7.60423 49.6138C7.61566 49.6138 8.40538 48.9867 9.49709 48.9053C10.7748 48.8473 11.9479 49.3233 13.2834 49.9041C14.8048 50.5544 16.5005 51.2747 18.7654 51.3441C19.0442 51.3558 19.3228 51.3441 19.6134 51.3327C20.3219 51.3096 21.0534 51.1698 21.7851 50.9261C21.9743 50.859 22.1299 50.7208 22.2189 50.5408C22.3078 50.3608 22.323 50.1532 22.2614 49.9621C22.1102 49.5441 21.6691 49.335 21.274 49.4744Z" fill="#2673DD"/>
<path fill-rule="evenodd" clip-rule="evenodd" d="M23.7007 46.0701C22.9807 46.5695 21.529 47.4172 19.8681 47.4755C17.7544 47.5684 16.3721 46.9526 14.8973 46.3255C13.3524 45.6521 11.7499 44.9552 9.34557 45.0598C7.11557 45.1409 5.22271 46.4186 4.29329 47.1618C4.21255 47.2261 4.14541 47.3059 4.09579 47.3965C4.04617 47.487 4.01506 47.5865 4.00427 47.6892C3.99347 47.7919 4.00321 47.8957 4.03291 47.9946C4.06262 48.0935 4.11169 48.1855 4.17729 48.2652C4.24164 48.346 4.32142 48.4131 4.41197 48.4627C4.50251 48.5123 4.60203 48.5434 4.70471 48.5542C4.8074 48.565 4.91121 48.5553 5.0101 48.5256C5.10898 48.4959 5.20097 48.4468 5.28071 48.3812C6.05871 47.7541 7.62643 46.6858 9.40357 46.6161C11.4593 46.5346 12.8181 47.1269 14.2584 47.7541C15.6756 48.3698 17.127 49.0084 19.2179 49.0432C19.4501 49.0432 19.6824 49.0432 19.9264 49.0318C21.9819 48.9504 23.7241 47.9401 24.595 47.3475C24.955 47.1038 25.0364 46.6161 24.7924 46.2561C24.5487 45.9075 24.0493 45.8146 23.701 46.0704L23.7007 46.0701Z" fill="#2673DD"/>
<path fill-rule="evenodd" clip-rule="evenodd" d="M15.1761 45.5483L15.1993 45.5597C16.117 45.9315 16.9995 46.2915 18.0333 46.4889C20.9018 45.1766 22.8995 42.2846 22.8995 38.928C22.911 34.352 19.1715 30.624 14.5955 30.624C10.0193 30.624 6.26783 34.352 6.26783 38.928C6.26521 40.9374 6.99632 42.8785 8.32383 44.3869C8.57926 44.3403 8.83469 44.3172 9.10183 44.294C11.7498 44.1429 13.5733 44.8863 15.1761 45.5483ZM15.7684 39.9503C15.6177 39.7992 15.4404 39.6772 15.2455 39.5903C15.037 39.4855 14.8044 39.4043 14.5607 39.3229C14.3236 39.2468 14.0908 39.1576 13.8635 39.0557C13.3758 38.87 12.9693 38.5912 12.6327 38.1963C12.2955 37.8132 12.1447 37.3255 12.1447 36.7332C12.1564 36.3497 12.2378 36.0132 12.377 35.7226C12.5281 35.4323 12.7255 35.1883 12.981 35.0026C13.2367 34.8169 13.5153 34.6655 13.829 34.5729C14.1534 34.4787 14.4897 34.4317 14.8275 34.4335H14.851C15.3853 34.4449 15.8613 34.5495 16.2561 34.7355C16.6492 34.9317 17.0226 35.165 17.3713 35.4323L16.5467 36.6169C16.3144 36.4426 16.0587 36.3032 15.8033 36.1872C15.5361 36.0709 15.211 36.0015 14.8278 35.978C14.5373 35.9549 14.2701 36.0129 14.0495 36.1523C13.8173 36.28 13.701 36.4775 13.701 36.7329C13.701 36.884 13.7358 37.0235 13.8173 37.1395C13.8987 37.2557 14.0147 37.3603 14.1541 37.4415C14.2935 37.5343 14.4444 37.5926 14.5953 37.6623C14.7464 37.7203 14.909 37.7783 15.0484 37.8366C15.3504 37.9409 15.6524 38.0686 15.9541 38.2195C16.2466 38.3673 16.5197 38.5507 16.7673 38.7655C17.0113 38.9746 17.197 39.23 17.3478 39.5203C17.4873 39.8109 17.557 40.1477 17.5455 40.5426C17.5338 40.9257 17.4524 41.274 17.3133 41.5646C17.1621 41.8666 16.9533 42.1103 16.6975 42.3195C16.4304 42.5286 16.1284 42.6795 15.7801 42.784C15.4315 42.8886 15.0484 42.9352 14.6418 42.9235C14.2587 42.912 13.9104 42.8655 13.5967 42.7606C13.283 42.6563 12.9927 42.54 12.737 42.4006C12.5074 42.2779 12.2897 42.1341 12.0867 41.9712C11.901 41.8432 11.7733 41.7272 11.6918 41.634L12.5398 40.438C12.8288 40.7133 13.1626 40.9372 13.527 41.1C13.9101 41.2857 14.305 41.3786 14.7115 41.3786C15.0601 41.3903 15.3504 41.3089 15.6058 41.158C15.8613 41.0072 15.9773 40.7749 15.9893 40.4843C15.9893 40.2637 15.9195 40.0897 15.7684 39.9503ZM33.2478 38.8923C33.0038 38.6717 32.7367 38.4975 32.4347 38.3349C32.133 38.184 31.831 38.0446 31.5175 37.94C31.3661 37.882 31.2153 37.8237 31.0527 37.7657C30.8932 37.7111 30.7411 37.637 30.5998 37.5452C30.4604 37.4637 30.3558 37.3595 30.2627 37.2432C30.1792 37.1241 30.1347 36.982 30.1353 36.8366C30.1467 36.5812 30.263 36.3837 30.4838 36.256C30.7158 36.1283 30.9715 36.0703 31.2733 36.0932C31.6567 36.1166 31.9933 36.1863 32.2607 36.3023C32.5278 36.4303 32.7833 36.5695 33.0155 36.7437L33.8518 35.5592C33.5033 35.2803 33.1201 35.048 32.7253 34.8506C32.3304 34.6532 31.8538 34.5603 31.3198 34.5486H31.2967C30.9481 34.5372 30.6113 34.5835 30.2861 34.688C29.961 34.7926 29.6821 34.932 29.4267 35.1177C29.1713 35.3035 28.9738 35.5475 28.8227 35.8377C28.6718 36.1283 28.5904 36.4766 28.579 36.86C28.5673 37.4523 28.7298 37.94 29.0667 38.3232C29.3997 38.707 29.8227 39.0023 30.2978 39.1826C30.5184 39.2757 30.7507 39.3683 31.0064 39.4383C31.2501 39.5195 31.4824 39.6126 31.6915 39.7169C31.9004 39.8215 32.0747 39.9377 32.2144 40.0886C32.3535 40.2397 32.4347 40.4137 32.423 40.6343C32.4115 40.9249 32.2838 41.1572 32.0401 41.308C31.7961 41.4592 31.4941 41.5403 31.1458 41.5289C30.7324 41.5166 30.3256 41.4218 29.9493 41.25C29.5661 41.0643 29.2293 40.8435 28.9504 40.588L28.091 41.7843C28.1724 41.8657 28.3118 41.9935 28.4861 42.1443C28.6891 42.3074 28.9068 42.4512 29.1364 42.574C29.3918 42.7135 29.6821 42.8297 29.9958 42.934C30.321 43.0386 30.6695 43.0852 31.053 43.0969C31.4593 43.1083 31.8424 43.062 32.191 42.9575C32.5395 42.8529 32.853 42.7017 33.1201 42.4929C33.384 42.2876 33.5984 42.0257 33.7473 41.7263C33.8981 41.4243 33.9795 41.0757 33.9913 40.6926C34.0027 40.2977 33.933 39.9492 33.7821 39.6589C33.6775 39.3569 33.4918 39.1015 33.2478 38.8923ZM54.3044 38.5797C54.3741 38.51 54.4555 38.4169 54.5253 38.3357C54.6064 38.2429 54.6761 38.1386 54.7341 37.9989C54.8038 37.8597 54.8504 37.7086 54.897 37.5229C54.9318 37.3372 54.955 37.1163 54.955 36.8492C54.9548 36.5912 54.9076 36.3353 54.8155 36.0943C54.7253 35.8515 54.5915 35.6271 54.4207 35.4323C54.2464 35.2349 54.049 35.0606 53.805 34.9212C53.5518 34.7755 53.2709 34.6845 52.9804 34.654C52.783 34.6309 52.5624 34.6077 52.3301 34.6077C52.0861 34.596 51.8424 34.596 51.5635 34.596L49.3104 34.6075V43.1092H52.423C52.7133 43.1092 52.9341 43.1092 53.1198 43.0977C53.4335 43.0629 53.7238 42.9932 54.0027 42.8769C54.2695 42.7609 54.5253 42.5983 54.7227 42.3892C54.9318 42.18 55.0944 41.9246 55.2221 41.6457C55.3459 41.3355 55.4089 41.0043 55.4078 40.6703C55.4078 40.1012 55.2918 39.6483 55.071 39.3115C54.8504 38.9629 54.595 38.7192 54.3044 38.5797ZM50.7273 36.0595H51.459C51.703 36.0595 51.9235 36.0595 52.1095 36.0709C52.2953 36.0826 52.4695 36.0943 52.5973 36.1057C52.8875 36.1406 53.1198 36.2337 53.2941 36.3846C53.4798 36.524 53.5727 36.7332 53.5613 36.9886C53.5727 37.3137 53.4684 37.5577 53.2941 37.6972C53.1081 37.8363 52.8758 37.9295 52.5855 37.964C52.4461 37.9875 52.2835 37.9989 52.0978 37.9989H50.7158V36.0595H50.7273ZM53.6541 41.2395C53.445 41.4366 53.1081 41.5529 52.6435 41.5763C52.5044 41.5877 52.3301 41.5992 52.0978 41.5877H50.7158V39.3926H51.4241C51.645 39.3926 51.8538 39.3926 52.0513 39.3812C52.2487 39.3697 52.423 39.3697 52.5624 39.3812C53.0153 39.4043 53.3521 39.5089 53.5961 39.6946C53.8398 39.8803 53.9678 40.136 53.9678 40.4729C53.9793 40.7863 53.8747 41.042 53.6541 41.2395ZM40.9715 38.5332C40.809 38.092 40.5767 37.7086 40.2747 37.4066C39.9844 37.0932 39.6358 36.8609 39.241 36.698C38.847 36.5349 38.4245 36.452 37.9981 36.4543C37.4641 36.4543 36.9878 36.5472 36.5813 36.7097C36.1633 36.884 35.8147 37.1277 35.5361 37.4297C35.2573 37.7317 35.0481 38.0803 34.8973 38.4752C34.7578 38.87 34.6881 39.2997 34.6881 39.7526C34.6881 40.252 34.781 40.7052 34.9553 41.1232C35.1252 41.5185 35.3696 41.8774 35.6753 42.1803C35.9774 42.4726 36.3321 42.7051 36.7207 42.8655C37.1155 43.0163 37.5335 43.0977 37.975 43.0977C38.3815 43.0977 38.7415 43.0629 39.0435 42.9932C39.3212 42.9413 39.5933 42.8635 39.8564 42.7609C40.0795 42.6599 40.2933 42.5394 40.4953 42.4009C40.6813 42.2732 40.8553 42.1452 41.0295 42.0175L40.2747 40.9606C40.1701 41.042 40.0655 41.1235 39.9378 41.216C39.7984 41.3089 39.6241 41.3903 39.4384 41.4717C39.2527 41.5412 39.0435 41.5995 38.7995 41.646C38.5673 41.6806 38.3001 41.704 38.0098 41.6923C37.846 41.6788 37.6832 41.6556 37.5221 41.6226C37.3501 41.5771 37.1857 41.5066 37.0341 41.4135C36.8815 41.3055 36.7413 41.1809 36.6161 41.042C36.4884 40.8909 36.3955 40.7049 36.3373 40.4843L36.3258 40.4263H41.169L41.1807 40.0549C41.2038 39.474 41.1341 38.9746 40.9715 38.5332ZM36.2793 39.1489L36.291 39.1023C36.3141 38.9166 36.3721 38.8235 36.4304 38.6957L36.4653 38.626C36.5644 38.4597 36.6945 38.3138 36.8484 38.1963C37.0002 38.0808 37.1742 37.9978 37.3595 37.9526C37.557 37.8943 37.7544 37.8595 37.9518 37.8595C38.4164 37.8712 38.7995 37.9989 39.0784 38.2546C39.2178 38.3706 39.3338 38.4869 39.4267 38.6146C39.5198 38.7423 39.5778 38.8932 39.601 39.0906L39.6127 39.1489H36.2793ZM46.6973 37.1046L46.6044 37.0235C46.407 36.8492 46.1513 36.7097 45.861 36.6169C45.5821 36.5123 45.2455 36.454 44.8621 36.454C44.4324 36.454 44.0258 36.5355 43.6544 36.6983C43.2872 36.8486 42.9579 37.0787 42.6904 37.3717C42.4115 37.662 42.2024 38.0223 42.0398 38.4403C41.889 38.8469 41.8075 39.3115 41.8075 39.8223C41.8075 40.2755 41.889 40.7052 42.0398 41.1C42.2024 41.4949 42.4115 41.8315 42.6904 42.1337C42.968 42.4243 43.2942 42.6641 43.6544 42.8423C44.0258 43.0046 44.4207 43.086 44.8621 43.086C45.2455 43.086 45.5821 43.0395 45.861 42.9349C46.1513 42.8306 46.407 42.6795 46.6044 42.4937L46.6973 42.4009V43.0743H48.1955V36.64H46.6973V37.1046ZM46.5578 40.5889C46.465 40.8097 46.3373 41.0072 46.1861 41.158C46.0353 41.3092 45.861 41.4135 45.6635 41.4949C45.4658 41.5643 45.2577 41.5997 45.0481 41.5995C44.5718 41.5995 44.177 41.4366 43.8518 41.1232C43.5264 40.7863 43.3755 40.3452 43.3755 39.7992C43.3755 39.2649 43.5381 38.8235 43.8518 38.4752C44.177 38.1266 44.5718 37.9523 45.0481 37.9523C45.2687 37.9523 45.4778 37.9989 45.6635 38.0803C45.8727 38.1615 46.0467 38.2775 46.1861 38.4403C46.3373 38.5912 46.465 38.7889 46.5578 39.0326C46.6507 39.2649 46.6973 39.5203 46.6973 39.8223C46.6973 40.1012 46.6507 40.3566 46.5578 40.5889ZM60.739 37.1046L60.6461 37.0235C60.4487 36.8492 60.1933 36.7097 59.9027 36.6169C59.6241 36.5123 59.2873 36.454 58.9041 36.454C58.4744 36.454 58.0678 36.5355 57.6961 36.6983C57.3289 36.8486 56.9996 37.0787 56.7321 37.3717C56.4533 37.662 56.2444 38.0223 56.0818 38.4403C55.9307 38.8469 55.8495 39.3115 55.8495 39.8223C55.8495 40.2755 55.9307 40.7052 56.0818 41.1C56.2444 41.4949 56.4533 41.8315 56.7321 42.1337C57.0098 42.4242 57.336 42.664 57.6961 42.8423C58.0678 43.0046 58.4627 43.086 58.9041 43.086C59.2873 43.086 59.6241 43.0395 59.9027 42.9349C60.1933 42.8306 60.4487 42.6795 60.6461 42.4937L60.739 42.4009V43.0743H62.2373V36.6749H60.739V37.1046ZM60.5995 40.5889C60.5067 40.8097 60.379 41.0072 60.2281 41.158C60.077 41.3092 59.9027 41.4135 59.7053 41.4949C59.5075 41.5643 59.2994 41.5997 59.0898 41.5995C58.6135 41.5995 58.2187 41.4366 57.8935 41.1232C57.5684 40.7863 57.4173 40.3452 57.4173 39.7992C57.4173 39.2649 57.5798 38.8235 57.8935 38.4752C58.2187 38.1266 58.6135 37.9523 59.0898 37.9523C59.3104 37.9523 59.5078 37.9989 59.7053 38.0803C59.9144 38.1615 60.0887 38.2775 60.2281 38.4403C60.379 38.5912 60.5067 38.7889 60.5995 39.0326C60.6927 39.2649 60.739 39.5203 60.739 39.8223C60.739 40.1012 60.6927 40.3566 60.5995 40.5889ZM73.1778 39.4512L75.9073 36.4663H73.9327L71.6796 38.9169V34.5035H70.1698V43.0977H71.6796V41.1469L72.179 40.5892L74.1301 43.0977H76.0001L73.1778 39.4512ZM68.8224 37.9526C68.683 37.5577 68.4161 37.2095 68.0327 36.9192C67.6495 36.6286 67.1615 36.4777 66.581 36.4777C66.279 36.4777 65.9653 36.524 65.6518 36.6172C65.3773 36.6994 65.1211 36.8334 64.897 37.012V36.6749H63.3753V43.0977H64.897V39.66C64.9084 39.4277 64.9318 39.2072 64.955 38.998C64.9898 38.7775 65.0478 38.5915 65.1407 38.4289C65.2335 38.2663 65.373 38.1386 65.5473 38.034C65.7215 37.9295 65.9421 37.8712 66.2093 37.8597C66.5461 37.8483 66.8133 37.9412 67.0224 38.1155C67.2313 38.3012 67.3707 38.5335 67.4404 38.8355C67.4753 38.9749 67.4984 39.1606 67.5218 39.3929C67.5333 39.6135 67.545 39.9386 67.545 40.3686V43.0977H69.0433V39.9972C69.0451 39.633 69.0335 39.2688 69.0084 38.9055C68.9868 38.5814 68.9243 38.261 68.8224 37.9526Z" fill="#EA5F00"/>
</g>
<defs>
<clipPath id="clip0_30990_34547">
<rect width="72" height="23.1429" fill="white" transform="translate(4 28.4287)"/>
</clipPath>
</defs>
</svg>
