<svg width="80" height="80" viewBox="0 0 80 80" fill="none" xmlns="http://www.w3.org/2000/svg">
<g clip-path="url(#clip0_30990_34567)">
<path d="M41.7514 34.6209C41.5563 35.062 41.2863 35.4128 40.9413 35.6733C40.5956 35.9346 40.1953 36.0649 39.739 36.0649C39.2485 36.0649 38.8169 35.9084 38.4442 35.5954C38.0709 35.2817 37.8009 34.8647 37.6342 34.3422V31.9069C37.8009 31.3734 38.0709 30.9557 38.4442 30.6536C38.8169 30.3523 39.2485 30.2017 39.739 30.2017C40.1953 30.2017 40.5956 30.329 40.9413 30.5845C41.2863 30.84 41.5563 31.1878 41.7514 31.6282C41.9457 32.0692 42.044 32.5678 42.044 33.1245C42.044 33.6813 41.9457 34.1806 41.7514 34.6209ZM42.5032 28.7577C41.8853 28.3166 41.1691 28.0961 40.3569 28.0961C39.7994 28.0961 39.2878 28.2038 38.8198 28.4185C38.3525 28.6332 37.9566 28.92 37.6342 29.2795V25.1034H35.1953V37.9615H37.5505L37.6007 36.9346C37.9231 37.3065 38.3212 37.6049 38.795 37.8313C39.2681 38.0569 39.7885 38.1704 40.3569 38.1704C41.1691 38.1704 41.8853 37.947 42.5032 37.5001C43.1211 37.054 43.608 36.4477 43.9646 35.682C44.3205 34.9164 44.4989 34.0641 44.4989 33.1245C44.4989 32.1849 44.3205 31.3327 43.9646 30.567C43.608 29.8014 43.1211 29.1987 42.5032 28.7577Z" fill="#1751EC"/>
<path d="M51.1962 35.682C50.8512 35.9375 50.4553 36.0649 50.0106 36.0649C49.5644 36.0649 49.1671 35.9346 48.8162 35.6733C48.4654 35.412 48.1925 35.062 47.9975 34.6209C47.8024 34.1799 47.7056 33.6813 47.7056 33.1245C47.7056 32.5678 47.8024 32.0692 47.9975 31.6282C48.1925 31.1871 48.4654 30.8363 48.8162 30.5758C49.1671 30.3145 49.5644 30.1842 50.0106 30.1842C50.4553 30.1842 50.8512 30.3116 51.1962 30.567C51.5412 30.8218 51.8112 31.1696 52.0062 31.6107C52.0397 31.6871 52.0703 31.765 52.0979 31.8443V34.404C52.0703 34.4841 52.0397 34.5619 52.0062 34.6384C51.8112 35.0794 51.5412 35.4273 51.1962 35.682ZM52.135 29.2941C51.8294 28.9477 51.4662 28.6675 51.0462 28.4527C50.5557 28.2038 50.0048 28.0787 49.3919 28.0787C48.5906 28.0787 47.8781 28.3021 47.2544 28.749C46.6306 29.1951 46.1408 29.8014 45.7842 30.567C45.4283 31.3327 45.25 32.1849 45.25 33.1245C45.25 34.0641 45.4283 34.9164 45.7842 35.682C46.1408 36.4477 46.6306 37.054 47.2544 37.5001C47.8781 37.947 48.5906 38.1704 49.3919 38.1704C50.0048 38.1704 50.5557 38.0452 51.0462 37.7963C51.4662 37.5823 51.8294 37.2992 52.135 36.9484L52.1816 37.9615H54.5535V28.2875H52.1816L52.135 29.2941Z" fill="#1751EC"/>
<path d="M63.5457 28.5662C63.018 28.2532 62.3827 28.096 61.6403 28.096C60.9678 28.096 60.315 28.2678 59.6832 28.6098C59.3026 28.8158 58.9591 29.1011 58.6519 29.465L58.5959 28.3049H56.125V37.9614H58.6825V32.1055C59.0268 31.4934 59.3747 31.0436 59.7269 30.7583C60.1556 30.4104 60.625 30.2365 61.1359 30.2365C61.5886 30.2365 61.9504 30.3959 62.2233 30.7147C62.4955 31.0342 62.6323 31.4541 62.6323 31.976V37.9614H65.1898V31.8195C65.1898 31.0778 65.0479 30.4279 64.7633 29.8711C64.4795 29.3144 64.0734 28.8791 63.5457 28.5662Z" fill="#1751EC"/>
<path d="M69.1786 34.8297L70.5447 33.4883L73.0236 37.9614H75.9989L72.3955 31.6717L75.8249 28.3049H72.5716L70.8664 30.0276L69.0221 32.2023L69.1786 29.3493V25.104H66.6211V37.9614H69.1786V34.8297Z" fill="#1751EC"/>
<path d="M43.0482 46.7363C42.6763 46.5274 42.2687 46.3622 41.824 46.2407C41.3793 46.1184 40.9353 46.0231 40.4907 45.9532C40.046 45.8841 39.6377 45.8055 39.2665 45.7181C38.8953 45.6315 38.5969 45.5187 38.3713 45.379C38.1457 45.2399 38.0336 45.0427 38.0336 44.788C38.0336 44.4634 38.1733 44.2167 38.4535 44.0485C38.7337 43.8804 39.1231 43.796 39.6231 43.796C40.1952 43.796 40.661 43.9153 41.0205 44.1526C41.3793 44.3906 41.5714 44.7298 41.5955 45.1701H44.0802C43.995 44.1497 43.5503 43.3549 42.7468 42.7865C41.9426 42.2188 40.8953 41.9343 39.6042 41.9343C38.7519 41.9343 38.0059 42.0587 37.3669 42.3083C36.7272 42.558 36.2279 42.9059 35.8684 43.352C35.5095 43.7989 35.3298 44.3236 35.3298 44.927C35.3298 45.4605 35.4419 45.9015 35.6675 46.2494C35.8931 46.5973 36.1915 46.8753 36.5627 47.0842C36.9339 47.2931 37.3422 47.4612 37.7869 47.5886C38.2315 47.7167 38.6755 47.8237 39.1202 47.911C39.5649 47.9976 39.9725 48.0879 40.3444 48.1803C40.7155 48.2734 41.0139 48.3979 41.2396 48.5544C41.4645 48.7109 41.5773 48.9175 41.5773 49.1723C41.5773 49.4736 41.4193 49.7116 41.1027 49.8855C40.7854 50.0595 40.3655 50.1468 39.8422 50.1468C39.1478 50.1468 38.5998 49.9874 38.1981 49.6679C37.7963 49.3491 37.6071 48.9052 37.6318 48.3368H35.1289C35.1406 49.0908 35.3414 49.7436 35.7315 50.2946C36.1216 50.8455 36.6726 51.2684 37.3851 51.5646C38.0976 51.8601 38.9222 52.0078 39.8604 52.0078C41.2119 52.0078 42.2869 51.7327 43.0846 51.1818C43.8822 50.6308 44.2811 49.8739 44.2811 48.911C44.2811 48.3542 44.1683 47.9052 43.9434 47.5631C43.7177 47.221 43.4193 46.9452 43.0482 46.7363Z" fill="#1751EC"/>
<path d="M51.1298 49.5199C50.7848 49.7754 50.3889 49.9028 49.9442 49.9028C49.4988 49.9028 49.1006 49.7725 48.7498 49.5112C48.399 49.2499 48.1261 48.8998 47.9311 48.4588C47.736 48.0177 47.6392 47.5192 47.6392 46.9624C47.6392 46.4057 47.736 45.9071 47.9311 45.4661C48.1261 45.025 48.399 44.6742 48.7498 44.4136C49.1006 44.1524 49.4988 44.0221 49.9442 44.0221C50.3889 44.0221 50.7848 44.1495 51.1298 44.4049C51.4747 44.6596 51.7448 45.0075 51.9398 45.4486C51.9733 45.525 52.0039 45.6029 52.0315 45.6829V48.2419C52.0039 48.322 51.9733 48.3998 51.9398 48.4763C51.7448 48.9173 51.4747 49.2652 51.1298 49.5199ZM52.0686 43.132C51.763 42.7855 51.3998 42.5053 50.9798 42.2906C50.4893 42.0417 49.9383 41.9165 49.3263 41.9165C48.5242 41.9165 47.8117 42.14 47.188 42.5869C46.5642 43.033 46.0744 43.6393 45.7185 44.4049C45.3619 45.1706 45.1836 46.0228 45.1836 46.9624C45.1836 47.902 45.3619 48.7543 45.7185 49.5199C46.0744 50.2856 46.5642 50.8918 47.188 51.338C47.8117 51.7849 48.5242 52.0083 49.3263 52.0083C49.9383 52.0083 50.4893 51.8831 50.9798 51.6342C51.3998 51.4202 51.763 51.1371 52.0686 50.7863L52.1152 51.7994H54.4871V42.1254H52.1152L52.0686 43.132Z" fill="#1751EC"/>
<path d="M62.6459 48.2327C62.4785 48.7429 62.2056 49.149 61.8271 49.4503C61.4487 49.7524 61.02 49.903 60.5411 49.903C60.0957 49.903 59.7005 49.7727 59.3555 49.5115C59.0098 49.2502 58.7376 48.9001 58.5367 48.459C58.3366 48.018 58.2361 47.5194 58.2361 46.9627C58.2361 46.4059 58.3366 45.9074 58.5367 45.4663C58.7376 45.0253 59.0098 44.6774 59.3555 44.4226C59.7005 44.1672 60.0957 44.0398 60.5411 44.0398C61.02 44.0398 61.4487 44.1876 61.8271 44.483C62.2056 44.7793 62.4785 45.1825 62.6459 45.6927V48.2327ZM62.6794 43.1351C62.3562 42.764 61.961 42.4707 61.4938 42.256C61.0258 42.042 60.5018 41.9343 59.9232 41.9343C59.1219 41.9343 58.4086 42.1548 57.7856 42.5951C57.1619 43.0362 56.6721 43.6395 56.3155 44.4052C55.9588 45.1708 55.7812 46.0231 55.7812 46.9627C55.7812 47.9023 55.9588 48.7545 56.3155 49.5202C56.6721 50.2858 57.1619 50.8921 57.7856 51.3382C58.4086 51.7851 59.1219 52.0078 59.9232 52.0078C60.48 52.0078 60.9923 51.9008 61.4596 51.6861C61.9276 51.4722 62.3228 51.1847 62.6459 50.8251V54.8965H65.1008V42.1431H62.7296L62.6794 43.1351Z" fill="#1751EC"/>
<path d="M73.0737 47.9988C72.7295 48.6116 72.3816 49.0607 72.03 49.346C71.6006 49.6946 71.1312 49.8678 70.6203 49.8678C70.1683 49.8678 69.8059 49.7092 69.5329 49.3897C69.26 49.0709 69.1239 48.6502 69.1239 48.1284V42.1429H66.5664V48.2848C66.5664 49.0272 66.7083 49.6771 66.9929 50.2332C67.2767 50.79 67.6829 51.2252 68.2105 51.5381C68.7382 51.8518 69.3736 52.0083 70.1159 52.0083C70.7884 52.0083 71.4412 51.8365 72.073 51.4952C72.4536 51.2892 72.7972 51.0039 73.1043 50.64L73.1603 51.7994H75.6312V42.1429H73.0737V47.9988Z" fill="#1751EC"/>
<path d="M18.0307 25.1046C15.5241 25.1046 13.492 27.1367 13.492 29.6432C13.492 32.2422 15.5983 34.3492 18.1973 34.3492H25.8618C26.2104 34.3492 26.4936 34.0668 26.4936 33.7175V25.7364C26.4936 25.3878 26.2104 25.1046 25.8618 25.1046H18.0307ZM4 32.8485V32.8492C4 37.1091 7.48546 40.5945 11.7446 40.5945C11.9251 40.5945 12.0706 40.4482 12.0706 40.2685V25.4299C12.0706 25.2502 11.9251 25.1046 11.7446 25.1046C7.48546 25.1046 4 28.5893 4 32.8485ZM20.1776 36.6374V51.4752C20.1776 51.655 20.3239 51.8013 20.5037 51.8013C24.7635 51.8013 28.249 48.3158 28.249 44.056C28.249 39.7969 24.7635 36.3114 20.5037 36.3114C20.3239 36.3114 20.1776 36.4577 20.1776 36.6374ZM6.38647 42.556C6.03785 42.556 5.75475 42.8391 5.75475 43.1884V51.1695C5.75475 51.5182 6.03785 51.8013 6.38647 51.8013H14.2184C16.7249 51.8013 18.757 49.7685 18.757 47.2627C18.757 44.6637 16.65 42.556 14.051 42.556H6.38647Z" fill="url(#paint0_linear_30990_34567)"/>
</g>
<defs>
<linearGradient id="paint0_linear_30990_34567" x1="5.43323" y1="51.1939" x2="26.8154" y2="25.7116" gradientUnits="userSpaceOnUse">
<stop stop-color="#FF5564"/>
<stop offset="0.128864" stop-color="#FF5564"/>
<stop offset="0.382729" stop-color="#FF5564"/>
<stop offset="1" stop-color="#FFC700"/>
</linearGradient>
<clipPath id="clip0_30990_34567">
<rect width="72" height="29.7931" fill="white" transform="translate(4 25.1035)"/>
</clipPath>
</defs>
</svg>
