<svg width="80" height="80" viewBox="0 0 80 80" fill="none" xmlns="http://www.w3.org/2000/svg">
<g clip-path="url(#clip0_30990_34553)">
<path d="M4.00134 39.1008C4.24846 38.2301 4.51155 37.3704 5.07018 36.6296C6.05756 35.3185 7.36197 34.5711 8.99605 34.3895C8.90743 34.428 8.82047 34.4704 8.72966 34.5034C8.61959 34.5425 8.50456 34.5689 8.39503 34.6086C5.34262 35.7253 5.31895 39.3325 7.10219 40.8213C7.89528 41.4834 8.82488 41.7294 9.83427 41.7475C10.2443 41.7547 10.6642 41.7145 11.0627 41.7883C11.8586 41.9363 12.344 42.4801 12.4486 43.2374C12.5636 44.0707 12.1971 44.8522 11.486 45.2551C10.5756 45.7714 9.5745 45.7499 8.61188 45.5672C6.20727 45.1104 4.50274 43.3024 4.08115 40.8884C4.06904 40.8191 4.02886 40.7547 4.00134 40.6875V39.1008Z" fill="#AFEE00"/>
<path d="M35.2339 41.8553V44.7129H33.7314V44.1234C33.7314 43.1982 33.7275 42.2731 33.7363 41.3484C33.7374 41.2097 33.7507 41.0259 33.8354 40.9406C34.279 40.497 34.7468 40.0781 35.2042 39.6521C35.2207 39.7611 35.2449 39.9136 35.2675 40.0666C35.3809 40.8239 35.8548 41.2818 36.5647 41.3198C37.2852 41.3583 37.7849 40.9604 37.9688 40.2014C38.1587 39.4204 37.8785 38.6609 37.2758 38.3186C36.7365 38.0131 35.9962 38.1667 35.4414 38.7292C34.4408 39.743 33.4672 40.7832 32.4556 41.7854C31.537 42.6946 30.4209 42.9021 29.2029 42.5416C28.2529 42.2604 27.7179 41.5614 27.6596 40.6076C27.5875 39.4254 27.6425 38.236 27.6425 37.0213H29.1236V38.2294C29.1236 38.8018 29.1308 39.3748 29.1214 39.9471C29.1126 40.4766 29.2034 40.9659 29.7466 41.1943C30.3135 41.4332 30.8149 41.2361 31.2327 40.8333C32.1733 39.9268 33.0979 39.0032 34.0363 38.0935C34.2884 37.8485 34.5498 37.6091 34.8322 37.4011C35.8597 36.6427 37.25 36.5766 38.2616 37.2206C39.2049 37.8216 39.7173 39.1353 39.4856 40.361C39.2308 41.7084 38.5351 42.4613 37.2935 42.6633C36.524 42.7888 35.8404 42.5829 35.2339 41.8553Z" fill="#AFEE00"/>
<path d="M14.5106 36.8334V34.3149C15.3351 35.1377 16.0742 35.8763 16.8145 36.6138C17.5624 37.3596 18.3115 38.1043 19.0336 38.8231C17.7204 40.1302 16.4265 41.4186 15.2244 42.6157C14.9597 41.996 14.7544 41.2348 14.3427 40.6107C13.5898 39.4703 12.3955 39.0707 11.0735 39.0184C10.6777 39.003 10.2804 39.0184 9.88464 39.0091C9.26381 38.9942 8.82131 38.5737 8.78498 37.9755C8.74976 37.3893 9.10585 36.9551 9.74429 36.8797C10.1796 36.8279 10.6227 36.8373 11.0625 36.8351C12.1902 36.8296 13.3185 36.8334 14.5106 36.8334Z" fill="#AFEE00"/>
<path d="M51.0211 34.6364H52.446V37.4847C52.5253 37.4698 52.5731 37.4759 52.5974 37.4544C53.9623 36.2799 55.8644 36.7328 56.5133 38.3983C56.8045 39.1452 56.8226 39.9217 56.6129 40.689C56.2513 42.0121 54.9816 42.8377 53.5759 42.6913C52.1092 42.5388 51.0607 41.5608 51.0101 40.148C50.9451 38.3598 50.9803 36.5677 50.9743 34.7768C50.9743 34.7372 51.0002 34.697 51.0211 34.6364ZM55.2298 39.7076C55.2337 38.6515 54.4973 37.9602 53.5781 38.1572C52.9281 38.2965 52.5269 38.7715 52.4774 39.46C52.4141 40.3362 52.7614 40.9928 53.4086 41.2223C54.3575 41.5591 55.2254 40.8376 55.2298 39.7076Z" fill="#AFEE00"/>
<path d="M63.2397 42.5138H61.8351C61.8186 42.2788 61.8026 42.0564 61.7806 41.7422C61.129 42.6019 60.3139 42.7956 59.3931 42.5677C58.3352 42.3063 57.6098 41.4031 57.5333 40.2204C57.502 39.7311 57.5256 39.2132 57.6528 38.7431C58.0336 37.3364 59.3633 36.5917 60.9732 36.8207C62.3249 37.0127 63.2336 38.0953 63.2391 39.5252C63.2424 40.5066 63.2397 41.4879 63.2397 42.5138ZM61.8235 39.7223C61.8235 39.2913 61.626 38.7503 61.3387 38.4646C60.9369 38.0656 60.3865 38.0364 59.851 38.2549C59.3265 38.469 59.0012 39.0315 59.0023 39.7239C59.004 40.4499 59.3265 41.0069 59.8719 41.2237C60.845 41.6106 61.8235 40.8786 61.8235 39.7223Z" fill="#AFEE00"/>
<path d="M69.5351 42.5088H68.0265C68.0265 42.1263 68.0271 41.7636 68.0265 41.402C68.026 40.6683 68.0392 39.9341 68.0205 39.201C68.0051 38.578 67.5923 38.1911 66.9852 38.1844C66.3319 38.1778 65.9004 38.5367 65.88 39.174C65.8503 40.0976 65.8646 41.0222 65.8608 41.9463C65.8602 42.1197 65.8608 42.293 65.8608 42.4983H64.427C64.4111 42.4664 64.3759 42.429 64.3759 42.3916C64.3737 41.2473 64.3368 40.102 64.3869 38.9599C64.4391 37.7601 65.3214 36.9235 66.5444 36.8113C68.0788 36.6709 69.113 37.2675 69.4432 38.4965C69.4993 38.7062 69.5296 38.9297 69.5313 39.1471C69.5395 40.2572 69.5351 41.3679 69.5351 42.5088Z" fill="#AFEE00"/>
<path d="M31.3412 40.1034V37.0246H32.8162C32.8162 37.575 32.808 38.722 32.808 38.722C32.808 38.722 31.3913 40.137 31.3412 40.1034Z" fill="#AFEE00"/>
<path d="M74.0414 39.5689C74.4894 39.2585 75.2588 37.904 75.878 36.9799C75.578 36.9799 75.3155 36.9849 75.0794 36.9843L74.2555 36.9838C74.2555 36.9838 74.0909 37.1918 74.0199 37.2782C73.715 37.6525 73.4591 38.0664 73.1833 38.4643C73.076 38.6184 72.9494 38.7846 72.7425 38.7846H72.1552V34.6507H70.7006V42.5162H72.169V40.2173C72.1701 40.2151 72.1717 40.2134 72.1728 40.2118H72.5339C72.9191 40.2118 73.1101 40.5266 73.2108 40.6912C73.5328 41.2162 74.3243 42.5173 74.3243 42.5173C74.3243 42.5173 75.3975 42.5283 76.0029 42.5283C75.332 41.4589 74.431 39.7362 74.0414 39.5689Z" fill="#AFEE00"/>
<path d="M50.1089 36.9808C50.1089 36.9808 49.5745 36.7183 48.7286 36.7942C48.6851 36.7981 48.6411 36.8041 48.5976 36.8085C47.5144 36.9175 46.7758 37.5103 46.6845 38.5846C46.576 39.8642 46.63 41.1582 46.6162 42.4455C46.6157 42.4664 46.6531 42.4873 46.6647 42.5H48.0945C48.0945 42.1489 48.0945 41.828 48.0951 41.5077C48.0962 40.7889 48.0758 40.0695 48.105 39.3524C48.1408 38.4646 48.6141 38.0573 49.514 38.1636C49.7 38.1856 50.1089 38.272 50.1089 38.272V36.9808Z" fill="#AFEE00"/>
<path d="M26.7165 40.2128C26.4463 39.5149 25.8177 39.2942 25.171 39.1126C24.8193 39.014 24.4583 38.9408 24.1181 38.8121C23.9982 38.7664 23.8501 38.5836 23.8578 38.473C23.8655 38.3563 24.0251 38.1923 24.1512 38.1538C24.3686 38.0872 24.625 38.0602 24.8529 38.0641C25.6499 38.0789 25.9586 38.2149 26.4897 38.3602C26.4897 38.0938 26.5068 37.817 26.4914 37.5429V37.1422C26.4914 37.1422 26.2608 37.0283 26.2046 37.0112C25.3191 36.747 24.4187 36.6749 23.521 36.9534C22.7829 37.1829 22.3663 37.7184 22.3426 38.424C22.3162 39.2303 22.6552 39.7747 23.4109 40.0592C23.8061 40.2078 24.2293 40.2821 24.6289 40.4208C24.9217 40.5215 25.4044 40.4885 25.3268 40.9723C25.2547 41.4236 24.794 41.3933 24.4687 41.3785C23.6404 41.3411 23.0499 41.1715 22.8545 41.084C22.68 41.0059 22.5105 40.9244 22.4758 40.9074V42.2228C22.5105 42.2492 22.6938 42.3367 22.8159 42.3796C23.7312 42.7038 24.6471 42.7985 25.5684 42.5145C26.6015 42.1958 27.0941 41.1875 26.7165 40.2128Z" fill="#AFEE00"/>
<path d="M45.6983 40.2449C45.6983 39.9477 45.6994 39.7149 45.6983 39.482C45.6884 37.5535 44.2046 36.4346 42.3129 36.8589C39.9182 37.3955 39.8555 40.5608 41.003 41.7936C42.0498 42.9197 44.1396 42.8878 45.3114 42.2659C45.356 42.2422 45.5029 42.1382 45.5029 42.1382C45.5029 42.1382 45.498 41.1123 45.498 40.9229C45.3147 40.9961 45.2096 41.0396 45.1033 41.0798C44.4055 41.3434 43.6938 41.4689 42.9492 41.3099C42.3305 41.1778 41.9607 40.8338 41.8495 40.2449H43.7406H45.6983ZM41.8396 39.143C41.828 38.4853 42.3658 38.0263 43.089 38.0566C43.783 38.0857 44.2315 38.5222 44.1815 39.143H41.8396Z" fill="#AFEE00"/>
</g>
<defs>
<clipPath id="clip0_30990_34553">
<rect width="72" height="11.3698" fill="white" transform="translate(4 34.3149)"/>
</clipPath>
</defs>
</svg>
