<svg width="80" height="80" viewBox="0 0 80 80" fill="none" xmlns="http://www.w3.org/2000/svg">
<g clip-path="url(#clip0_30990_34465)">
<path d="M23.9479 38.8832C23.8402 38.8832 23.7393 38.8798 23.635 38.8798H21.5187V30.4686C21.5254 29.9673 20.8895 29.9067 20.506 29.9067H20.3008C19.9172 29.9067 19.2847 29.9673 19.2914 30.4686C19.2914 30.5763 19.2914 30.6772 19.2914 30.7849V38.8798H17.5587V30.4686C17.5654 29.9673 16.9295 29.9067 16.546 29.9067H16.3408C15.9572 29.9067 15.3247 29.9673 15.3314 30.4686C15.3314 30.5763 15.328 30.6772 15.328 30.7849V38.8798H13.5953V30.4686C13.6021 29.9673 12.9662 29.9067 12.5826 29.9067H12.3774C11.9938 29.9067 11.3613 29.9673 11.3647 30.4686C11.3647 30.5763 11.3647 30.6772 11.3647 30.7849V38.8798H9.63198V30.4686C9.6387 29.9673 9.00282 29.9067 8.61927 29.9067H8.41403C8.03048 29.9067 7.39796 29.9673 7.40469 30.4686C7.40469 30.5763 7.40132 30.6772 7.40132 30.7849V38.8798H5.2716C5.2716 38.8798 5.24805 38.8798 5.22113 38.8832H4.9587C4.4574 38.8765 4.40356 39.5123 4.40356 39.8993V40.1079C4.40356 40.1449 4.40356 40.1751 4.40693 40.2189C4.45403 41.1273 4.79384 41.1206 4.95534 41.1206C5.03945 41.1206 5.12693 41.1206 5.22786 41.1206H7.38786V49.2189C7.38786 49.2189 7.38786 49.2424 7.39123 49.2694V49.5351C7.3845 50.0398 8.01702 50.0937 8.40057 50.0937H8.60581C8.64282 50.0937 8.67646 50.0937 8.7202 50.0869C9.62525 50.0398 9.61852 49.6966 9.61852 49.5351C9.61852 49.451 9.61852 49.3602 9.61852 49.2626V41.1239H11.3512V49.2223C11.3512 49.2223 11.3512 49.2458 11.3512 49.2727V49.5385C11.3479 50.0432 11.9804 50.097 12.3639 50.097H12.5692C12.6062 50.097 12.6365 50.097 12.6836 50.0903C13.5886 50.0432 13.5819 49.7 13.5819 49.5385C13.5819 49.4544 13.5819 49.3636 13.5819 49.266V41.1273H15.3146V49.2256C15.3146 49.2256 15.3146 49.2492 15.318 49.2761V49.5419C15.3112 50.0466 15.9438 50.1004 16.3273 50.1004H16.5325C16.5695 50.1004 16.5998 50.1004 16.6436 50.0937C17.552 50.0466 17.5419 49.7034 17.5419 49.5419C17.5419 49.4578 17.5419 49.3669 17.5419 49.2694V41.1307H19.2746V49.229C19.2746 49.229 19.2746 49.2525 19.2746 49.2794V49.5452C19.2679 50.0499 19.9038 50.1037 20.2839 50.1037H20.4892C20.5262 50.1037 20.5565 50.1037 20.6036 50.097C21.5086 50.0499 21.5019 49.7067 21.5019 49.5452C21.5019 49.4611 21.5019 49.3703 21.5019 49.2727V41.134H23.9344C24.4357 41.1408 24.4929 40.5015 24.4929 40.118V39.9094C24.4929 39.5224 24.4357 38.8866 23.9344 38.8933L23.9479 38.8832Z" fill="#F5333F"/>
<path d="M52.2091 31.3872C46.863 31.3872 44.4775 34.0317 44.4775 39.9566C44.4775 45.8814 46.9605 48.5797 52.0712 48.6167H52.3202C57.4409 48.5898 59.9306 45.7569 59.9306 39.9566C59.9306 34.1562 57.5486 31.3872 52.2091 31.3872ZM52.2226 46.0766H52.1822C49.1138 46.0766 47.916 44.3539 47.916 39.9296C47.916 35.5053 49.0633 33.9274 52.1486 33.9274H52.2495C55.3381 33.9274 56.4854 35.5524 56.4854 39.9296C56.4854 44.3068 55.291 46.0766 52.2226 46.0766Z" fill="#005CB9"/>
<path d="M30.7415 47.3044C31.8249 48.1455 33.3019 48.5022 35.6739 48.5022H35.8253C38.2174 48.5022 39.6978 48.1455 40.771 47.3044C42.3322 46.1134 42.5946 44.7104 42.5946 42.0154V32.3526C42.598 32.2113 42.6013 32.0364 42.4466 31.8782C42.201 31.6293 41.6525 31.5014 40.8148 31.5014C39.977 31.5014 39.4421 31.6293 39.1965 31.8782C39.0383 32.0364 39.0417 32.2147 39.0451 32.356V42.4562C39.0451 44.1384 39.0451 44.4883 38.3015 45.104C37.6152 45.6659 36.5789 45.7366 35.7546 45.7366C34.9303 45.7366 33.894 45.6659 33.2077 45.104C32.4675 44.4917 32.4675 44.1485 32.4675 42.4932V32.3526C32.4675 32.2113 32.4709 32.0364 32.3161 31.8749C32.0705 31.6259 31.5254 31.498 30.6944 31.498C29.8634 31.498 29.315 31.6259 29.0694 31.8749C28.9112 32.033 28.9146 32.2113 28.918 32.3526V42.0188C28.918 44.7104 29.1804 46.1134 30.7415 47.3044Z" fill="#005CB9"/>
<path d="M73.2855 32.5044C72.4006 31.8449 71.3476 31.6128 69.2582 31.6128H62.3846C62.0717 31.6128 61.8193 31.8685 61.8193 32.178V47.8195C61.8193 48.1358 62.075 48.3915 62.3846 48.3915H69.5947C71.5528 48.3915 72.9188 48.3276 74.0593 47.4662C75.3345 46.4737 75.6003 44.8487 75.6003 43.6577C75.6003 42.0864 75.0754 40.8449 74.1233 40.1586C73.7094 39.8491 73.2216 39.664 72.7539 39.4991L72.441 39.3881L72.7405 39.2434C74.1434 38.5705 74.6582 37.6352 74.638 35.7915C74.6246 34.9268 74.4328 33.3522 73.2855 32.4977V32.5044ZM65.3184 33.9578H69.1573C71.1457 33.9578 71.3038 34.9705 71.3038 36.2928C71.3038 37.8741 70.5805 38.547 68.8915 38.547H65.3184V33.9578ZM69.0799 45.9892H65.315V40.9257H69.3524C71.5898 40.9257 72.0406 41.9048 72.0406 43.4827C72.0406 45.6091 71.2634 45.9892 69.0799 45.9892Z" fill="#005CB9"/>
</g>
<defs>
<clipPath id="clip0_30990_34465">
<rect width="72" height="20.1869" fill="white" transform="translate(4 29.9067)"/>
</clipPath>
</defs>
</svg>
