<svg width="28" height="37" viewBox="0 0 28 37" fill="none" xmlns="http://www.w3.org/2000/svg">
<path fill-rule="evenodd" clip-rule="evenodd" d="M5.04718 0.166748H17.3185L27.7029 11.0062V32.056C27.7029 34.6923 25.5752 36.8334 22.9389 36.8334H5.04718C2.42431 36.8334 0.283203 34.6923 0.283203 32.056V4.93073C0.283157 2.30785 2.42431 0.166748 5.04718 0.166748Z" fill="#17C653"/>
<path opacity="0.302" fill-rule="evenodd" clip-rule="evenodd" d="M17.3057 0.166748V10.9125H27.7035L17.3057 0.166748Z" fill="white"/>
<path d="M18.4484 20.2878L20.0305 25.2609H20.0912L21.6764 20.2878H23.2105L20.9541 26.8333H19.1707L16.9111 20.2878H18.4484Z" fill="white"/>
<path d="M15.1885 22.1704C15.1629 21.9126 15.0532 21.7123 14.8593 21.5696C14.6654 21.4268 14.4023 21.3554 14.0699 21.3554C13.844 21.3554 13.6533 21.3874 13.4978 21.4513C13.3422 21.5131 13.2229 21.5994 13.1398 21.7102C13.0589 21.821 13.0184 21.9467 13.0184 22.0873C13.0141 22.2045 13.0386 22.3068 13.0919 22.3942C13.1473 22.4815 13.2229 22.5572 13.3188 22.6211C13.4147 22.6829 13.5255 22.7372 13.6512 22.7841C13.7769 22.8288 13.9111 22.8672 14.0539 22.8991L14.642 23.0398C14.9275 23.1037 15.1895 23.1889 15.4282 23.2954C15.6668 23.402 15.8735 23.533 16.0482 23.6885C16.2229 23.8441 16.3582 24.0273 16.4541 24.2383C16.5521 24.4492 16.6022 24.691 16.6043 24.9638C16.6022 25.3643 16.4999 25.7116 16.2975 26.0057C16.0972 26.2976 15.8074 26.5245 15.4282 26.6864C15.051 26.8462 14.5961 26.9261 14.0635 26.9261C13.5351 26.9261 13.0748 26.8451 12.6828 26.6832C12.2929 26.5213 11.9882 26.2816 11.7687 25.9641C11.5514 25.6445 11.4374 25.2493 11.4268 24.7784H12.7659C12.7808 24.9978 12.8437 25.1811 12.9545 25.3281C13.0674 25.473 13.2176 25.5827 13.4051 25.6573C13.5947 25.7297 13.8089 25.766 14.0475 25.766C14.2819 25.766 14.4854 25.7319 14.6579 25.6637C14.8327 25.5955 14.968 25.5007 15.0638 25.3792C15.1597 25.2578 15.2077 25.1182 15.2077 24.9606C15.2077 24.8135 15.164 24.69 15.0766 24.5898C14.9914 24.4897 14.8657 24.4045 14.6995 24.3341C14.5354 24.2638 14.3341 24.1999 14.0954 24.1424L13.3827 23.9634C12.8309 23.8292 12.3952 23.6193 12.0756 23.3338C11.7559 23.0483 11.5972 22.6637 11.5993 22.18C11.5972 21.7837 11.7027 21.4375 11.9157 21.1413C12.1309 20.8451 12.426 20.614 12.801 20.4478C13.176 20.2816 13.6022 20.1985 14.0795 20.1985C14.5653 20.1985 14.9893 20.2816 15.3515 20.4478C15.7158 20.614 15.9992 20.8451 16.2016 21.1413C16.404 21.4375 16.5084 21.7805 16.5148 22.1704H15.1885Z" fill="white"/>
<path d="M10.9157 22.5795H9.5158C9.49023 22.3984 9.43803 22.2375 9.3592 22.0969C9.28036 21.9542 9.17915 21.8327 9.05558 21.7326C8.932 21.6324 8.78924 21.5557 8.62731 21.5025C8.46751 21.4492 8.29386 21.4226 8.10636 21.4226C7.76758 21.4226 7.47248 21.5067 7.22106 21.675C6.96964 21.8412 6.77468 22.0841 6.63619 22.4037C6.49769 22.7212 6.42844 23.1069 6.42844 23.5607C6.42844 24.0273 6.49769 24.4194 6.63619 24.7368C6.77681 25.0543 6.97283 25.294 7.22425 25.4559C7.47568 25.6179 7.76651 25.6988 8.09677 25.6988C8.28214 25.6988 8.45366 25.6743 8.61133 25.6253C8.77113 25.5763 8.91282 25.5049 9.0364 25.4112C9.15998 25.3153 9.26225 25.1992 9.34322 25.0628C9.42631 24.9265 9.48384 24.7709 9.5158 24.5962L10.9157 24.6026C10.8794 24.903 10.7889 25.1928 10.644 25.4719C10.5012 25.7489 10.3084 25.9971 10.0655 26.2166C9.82475 26.4339 9.53711 26.6065 9.20259 26.7344C8.87021 26.8601 8.49414 26.9229 8.0744 26.9229C7.49059 26.9229 6.96857 26.7908 6.50835 26.5266C6.05025 26.2624 5.68803 25.8799 5.4217 25.3792C5.15749 24.8785 5.02539 24.2724 5.02539 23.5607C5.02539 22.8469 5.15962 22.2397 5.42809 21.739C5.69656 21.2383 6.0609 20.8569 6.52113 20.5948C6.98136 20.3306 7.49911 20.1985 8.0744 20.1985C8.45366 20.1985 8.80522 20.2518 9.12908 20.3583C9.45508 20.4648 9.74379 20.6204 9.99521 20.8249C10.2466 21.0273 10.4512 21.2755 10.6088 21.5696C10.7686 21.8636 10.8709 22.2003 10.9157 22.5795Z" fill="white"/>
</svg>
