<svg width="100" height="101" viewBox="0 0 100 101" fill="none" xmlns="http://www.w3.org/2000/svg">
<path d="M27.3493 56.9326C24.8744 54.9761 22.5165 52.8189 20.8275 50.16C19.1385 47.5011 18.1352 44.3071 18.5867 41.18C19.0382 38.0696 21.0951 35.0929 24.055 34.0561C26.0617 33.3538 28.3694 33.521 30.2423 32.4842C32.1821 31.414 33.2524 29.2567 33.9547 27.1664C34.6571 25.0594 35.1086 22.8353 36.3126 20.9791C37.5167 19.1228 39.7575 17.6847 41.898 18.27C43.4364 18.6881 44.5569 20.0091 45.995 20.6948C48.6539 21.9657 51.781 20.862 54.7242 21.0125C57.5001 21.1463 60.5604 23.0192 60.5102 25.7952C60.4935 27.5678 59.2393 29.0393 58.5369 30.6614C57.8346 32.2835 58.0353 34.6916 59.7243 35.1765C61.0453 35.5612 62.2995 34.4909 63.3865 33.638C66.5471 31.1297 70.6107 29.8086 74.6408 29.9758C78.671 30.143 82.6175 31.8153 85.5439 34.5912C87.1493 36.113 88.5206 38.1197 88.5206 40.3271C88.5206 42.5177 87.2162 44.491 85.962 46.2803C83.2362 50.1934 80.0924 54.3908 75.4602 55.5112C73.0354 56.0965 70.41 55.7453 68.0688 56.6149C63.2527 58.3875 61.0788 64.6418 56.1289 66.013C53.9382 66.615 51.6305 66.1301 49.4064 65.6284C44.6906 64.5749 39.9581 63.5213 35.2424 62.4845C33.3694 62.0665 31.4798 61.6484 29.8243 60.6618C28.1854 59.6751 26.8142 58.0363 26.6804 56.1299" fill="#F4F6F9"/>
<path d="M81.4464 39.0538L81.3628 38.6191C82.4498 36.395 82.6337 33.6859 81.8477 31.3447C81.7641 31.0772 81.4297 30.609 80.9949 30.1407C81.0116 30.124 81.0116 30.124 81.0284 30.1073C81.1956 30.3915 81.4464 30.6257 81.7474 30.7427C82.1655 30.8932 82.6839 30.7762 82.9347 30.4083C83.0518 30.2243 83.102 29.9902 83.1354 29.7728C83.2525 28.7527 82.9514 27.7159 82.4498 26.8129C81.9481 25.9099 81.2792 25.1239 80.6103 24.338C80.4431 24.1373 80.2591 23.9366 80.0083 23.8697C79.841 23.8196 79.6571 23.8697 79.5066 23.9534C79.3895 23.8363 79.2558 23.736 79.1052 23.6691C78.7541 23.4851 78.2691 23.5018 78.0015 23.8029C77.851 23.9701 77.8343 24.2209 77.9012 24.4216C77.7507 24.2711 77.5835 24.1206 77.4163 24.0035C77.2323 23.8697 77.0317 23.7527 76.8143 23.7192C76.3795 23.6523 75.928 23.9701 75.7607 24.3714C75.627 24.7226 75.6604 25.1072 75.7775 25.4584C73.7039 24.0704 71.7306 25.5754 71.0115 27.8664C70.56 29.3046 70.6604 30.8598 70.8443 32.3648C71.0283 33.8698 71.2791 35.3749 71.1118 36.8799L70.6938 36.696C68.57 36.9803 65.9446 44.7897 64.1385 45.9603C62.3325 47.1476 61.0448 49.4553 61.6636 51.646C61.8475 52.3316 62.2154 53.0005 62.1486 53.7028C62.0649 54.5222 61.4127 55.0908 60.9111 55.7095C60.309 56.4621 59.9077 57.3818 59.7238 58.3517C59.105 57.3149 58.6702 56.1109 58.1518 54.9905C56.3792 51.2781 53.1183 48.3683 49.3892 47.1309L49.3223 47.0473C48.3189 44.2044 45.3758 35.9936 45.3758 35.9936C47.2654 34.9735 51.0782 32.8498 51.0782 32.8498C47.9343 30.5086 44.4727 27.7661 40.9276 25.1072C39.757 24.2209 38.3188 23.5353 36.8473 23.5186L32.7669 25.2912L32.6499 32.1976C31.4124 31.8799 29.9743 32.4317 29.3221 33.5354C28.603 34.7561 28.9207 36.4953 30.0244 37.3816C30.7268 37.9334 31.6967 38.1007 32.5663 37.9167V38.0003C31.9977 41.8131 31.4124 45.0071 30.6933 48.3683L30.1749 48.0506C18.7534 54.9236 11.0276 68.0843 11.4122 81.4623C11.4791 83.8871 12.2985 86.3955 14.1212 87.9842C16.3955 89.9741 19.7735 90.1915 22.6999 89.4892C24.021 89.1715 25.3254 88.6865 26.6799 88.72C27.9508 88.7534 29.1716 89.2216 30.4258 89.3721C31.6967 89.5226 33.1516 89.2049 33.787 88.1012L34.1215 87.9173C37.3322 86.9975 40.5764 86.0778 43.4359 84.3721C46.2955 82.6664 48.7872 80.0577 49.6066 76.8302C49.6735 76.5961 49.5564 76.2449 49.3892 76.1947C49.8742 76.0442 50.2086 75.5258 50.125 75.0241C50.125 75.0241 55.9779 71.9639 59.4896 74.4723C63.0014 76.9807 71.3627 79.9908 76.3126 74.4389C78.4531 72.0308 80.1421 69.1044 80.4431 65.8936C80.7608 62.4989 79.6237 59.0541 80.1253 55.6761C80.4096 53.7196 81.229 51.8801 81.9983 50.0406C82.7675 48.2011 83.4866 46.3282 83.5702 44.3382C83.6872 42.3816 83.0183 40.2746 81.4464 39.0538Z" fill="white"/>
<path d="M66.297 10.6938C66.1632 10.4096 66.5981 10.142 66.7318 10.443C67.7686 12.734 68.7887 15.0083 69.8255 17.2993C69.9593 17.5836 69.5245 17.8511 69.3907 17.5501C68.3539 15.2591 67.3171 12.9848 66.297 10.6938ZM65.879 17.4331C66.8322 18.2525 67.7686 19.0719 68.7218 19.8913C68.9726 20.1087 69.3238 19.7408 69.073 19.5401C68.1198 18.7207 67.1833 17.9013 66.2302 17.0819C65.996 16.8812 65.6448 17.2324 65.879 17.4331ZM73.9393 11.4798C73.9393 13.1186 73.9393 14.7574 73.9393 16.3962C73.9393 16.714 74.441 16.714 74.441 16.3962C74.441 14.7574 74.441 13.1186 74.441 11.4798C74.441 11.1621 73.9393 11.1621 73.9393 11.4798Z" fill="black"/>
<path d="M37.0002 75.2445C40.4618 74.8766 43.7729 73.2545 46.1809 70.7461C46.4485 70.4786 46.6993 70.1776 47.0003 69.9434C45.8632 67.2177 44.7428 64.4752 43.6056 61.7494C43.2879 60.9634 42.8531 60.0938 42.017 59.9099C41.4986 59.7928 40.9635 60.0102 40.4785 60.2109C38.522 61.0136 36.5821 61.833 34.6256 62.6357C33.8731 62.9534 33.037 63.3547 32.8363 64.1407C32.7025 64.6758 32.9032 65.2277 33.1038 65.7461C34.358 68.9401 35.6457 72.1006 37.0002 75.2445Z" fill="#1B84FF"/>
<path d="M42.5345 62.0998C42.5345 61.966 42.501 61.8322 42.4342 61.6984C42.4007 61.481 42.2837 61.2637 42.0663 61.1633C41.6984 60.9794 41.2803 61.1299 41.0629 61.4643C41.0127 61.5312 40.9793 61.6148 40.9459 61.6984C40.8455 61.8991 40.8288 62.15 40.9124 62.3506C40.9793 62.5179 41.0963 62.6851 41.2636 62.7687C41.3806 62.8189 41.4977 62.8523 41.6148 62.8356C41.7151 62.8523 41.8321 62.8523 41.9325 62.8356C42.2502 62.7687 42.5011 62.451 42.5345 62.0998ZM41.6649 61.8657C41.6817 61.8657 41.6817 61.8657 41.6649 61.8657C41.6649 61.8657 41.6817 61.8824 41.6649 61.8657ZM43.3539 64.6918C43.3372 64.8088 43.2703 64.9259 43.1867 65.0095C43.0863 65.1099 42.9525 65.16 42.802 65.1768C42.685 65.1768 42.5512 65.1433 42.4509 65.0931C42.4007 65.0597 42.3506 65.0262 42.3171 64.9761C42.2669 64.9092 42.2335 64.859 42.2001 64.7754C42.1499 64.6583 42.1499 64.5246 42.2001 64.4075C42.2502 64.2737 42.3338 64.1567 42.4676 64.073C42.5847 63.9894 42.7519 63.9727 42.8857 64.0062C42.9024 64.0062 42.9191 64.0229 42.9358 64.0229C42.9526 64.0229 42.9693 64.0229 42.986 64.0229C43.1198 64.0563 43.2369 64.14 43.3205 64.257C43.3539 64.4075 43.3706 64.558 43.3539 64.6918Z" fill="black"/>
<path d="M30.7613 78.4047C30.7948 78.087 31.2965 78.087 31.263 78.4047C31.1961 79.1238 31.1962 79.8596 31.2463 80.5787C31.447 83.1205 32.4336 85.6122 34.039 87.5854C34.2397 87.8363 33.8885 88.1875 33.6878 87.9366C33.2028 87.3513 32.7848 86.7159 32.4002 86.0637C31.1125 83.7392 30.5272 81.0469 30.7613 78.4047ZM38.5875 30.0095C38.6879 29.8925 38.6711 29.7587 38.5875 29.6584C38.2865 29.2738 37.9688 28.8891 37.6678 28.5045C37.5842 28.4042 37.4002 28.4042 37.3166 28.5045C37.2163 28.6216 37.233 28.7553 37.3166 28.8557C37.6176 29.2403 37.9354 29.6249 38.2364 30.0095C38.32 30.1099 38.5039 30.1099 38.5875 30.0095ZM38.9722 27.7687C39.4069 28.2035 39.7581 28.7219 40.0089 29.2737C40.0591 29.4075 40.0424 29.5413 39.9253 29.6249C39.825 29.6918 39.6411 29.6584 39.5742 29.5413C39.4571 29.2737 39.3233 29.0229 39.1561 28.7721C39.0725 28.6383 39.0056 28.5547 38.922 28.4543C38.8216 28.3373 38.7213 28.237 38.621 28.1366C38.5206 28.0363 38.5373 27.8858 38.621 27.7854C38.7046 27.6684 38.8885 27.6684 38.9722 27.7687ZM36.0457 27.3339C36.0457 27.3339 36.0624 27.3172 36.0457 27.3339V27.3339ZM36.2129 26.7821C36.3133 26.8824 36.2965 27.0497 36.2129 27.1333C36.1795 27.1667 36.146 27.2169 36.1126 27.2503C36.0958 27.267 36.0792 27.2838 36.0624 27.3005C36.0624 27.3172 36.0457 27.3172 36.0457 27.3339C35.9788 27.4175 35.9286 27.5012 35.8785 27.5848C35.845 27.6349 35.8283 27.6684 35.8116 27.7186C35.7949 27.7353 35.7948 27.7687 35.7781 27.7854C35.7781 27.8022 35.7614 27.8189 35.7614 27.8356C35.7614 27.8189 35.7614 27.8356 35.7614 27.8356C35.7614 27.8523 35.7447 27.8523 35.7447 27.869C35.728 27.8858 35.728 27.9192 35.728 27.9359C35.7113 27.9861 35.6945 28.0363 35.6778 28.0864C35.6444 28.2202 35.5106 28.2871 35.3768 28.2537C35.243 28.2202 35.1594 28.0697 35.2096 27.9527C35.3433 27.5011 35.5775 27.0998 35.8952 26.7654C35.9454 26.6817 36.1126 26.6985 36.2129 26.7821ZM37.6009 26.1299C37.6344 26.1132 37.6511 26.0797 37.6678 26.063H37.6845C37.7347 26.0463 37.7848 26.0463 37.835 26.0296C37.8685 26.0296 37.9186 26.0128 37.9521 26.0128C37.9688 26.0128 37.9855 26.0128 37.9855 26.0128C38.019 26.0128 38.0357 26.0128 38.0691 25.9961C38.2698 25.9794 38.4705 25.9627 38.6711 25.9627C38.8049 25.9627 38.922 25.8456 38.922 25.7118C38.922 25.5781 38.8049 25.461 38.6711 25.461C38.4036 25.461 38.1193 25.4944 37.8517 25.5279C37.7347 25.5446 37.6009 25.5613 37.4839 25.5948C37.4002 25.6115 37.3166 25.6617 37.2665 25.7286C37.1828 25.8289 37.1828 25.946 37.233 26.0463C37.3166 26.1634 37.4838 26.1968 37.6009 26.1299ZM37.718 25.9125C37.718 25.8958 37.718 25.9125 37.718 25.9125C37.718 25.8958 37.718 25.8958 37.718 25.9125ZM41.9655 39.6752C41.7983 40.1936 41.6143 40.7287 41.2631 41.1635C40.9287 41.5983 40.4103 41.9327 39.8585 41.916C39.0223 41.8993 38.4036 41.1301 38.136 40.3441C37.9019 39.6585 37.8517 38.906 37.6343 38.2036C37.5006 37.9528 37.4169 37.6518 37.6176 37.4511C37.7514 37.3173 37.9855 37.3173 38.1695 37.3842C38.3534 37.4511 38.4872 37.6016 38.621 37.7521C39.1394 38.2872 39.7748 38.8558 40.5106 38.722C40.9621 38.6384 41.4638 38.2872 41.8484 38.5548C42.1662 38.7889 42.0825 39.2906 41.9655 39.6752ZM42.8518 53.672C42.7682 54.2071 42.8016 54.7757 43.3033 55.0934C43.6879 55.3443 44.1561 55.4446 44.5575 55.6954C44.9755 55.9463 45.2431 56.3309 45.2766 56.8159C45.31 57.3008 45.1261 57.7858 45.009 58.254C44.892 58.739 44.9087 59.1737 45.3435 59.4747C45.795 59.7925 46.2298 60.0266 46.5141 60.5116C47.0492 61.4313 46.9488 62.6019 46.815 63.622C46.7983 63.7557 46.7147 63.8728 46.5642 63.8728C46.4471 63.8728 46.2966 63.7557 46.3134 63.622C46.4471 62.6019 46.6144 61.2473 45.8284 60.4447C45.4772 60.0768 44.9421 59.9263 44.6578 59.4915C44.3903 59.1069 44.407 58.6219 44.5073 58.1871C44.6077 57.7523 44.7916 57.3175 44.7749 56.866C44.7582 56.4312 44.4404 56.1804 44.0725 56.0132C43.6712 55.8292 43.2531 55.7122 42.902 55.4279C42.4839 55.0934 42.3167 54.5918 42.3167 54.0734C42.3334 53.4713 42.5842 52.8693 42.4839 52.2673C42.417 51.8827 41.9989 51.3308 41.5642 51.5984C41.2966 51.7656 41.0458 51.3308 41.3133 51.1636C41.8317 50.8459 42.4839 51.1469 42.7849 51.6151C43.1863 52.2171 42.9521 53.0031 42.8518 53.672ZM43.7047 53.8392C43.7715 54.0065 43.9053 54.1403 44.0558 54.2239C44.2063 54.3075 44.3903 54.3409 44.5575 54.3075C44.7247 54.274 44.8585 54.1737 44.9588 54.0232C45.1428 53.7723 45.126 53.4212 44.9755 53.1536C44.9087 53.0198 44.7916 52.9028 44.6746 52.8359C44.5073 52.7523 44.3234 52.7355 44.1394 52.769C43.9555 52.8024 43.7883 52.9028 43.6712 53.0365C43.6043 53.1034 43.5542 53.1703 43.504 53.2539C43.4538 53.3543 43.4204 53.4546 43.4204 53.5717C43.4204 53.6386 43.4538 53.7055 43.4873 53.7556C43.5374 53.8058 43.6043 53.8392 43.6712 53.8225C43.6879 53.8392 43.6879 53.8392 43.7047 53.8392ZM44.1729 53.672L44.1896 53.6887L44.1729 53.672ZM44.4237 53.2707C44.407 53.2707 44.4237 53.2707 44.4237 53.2707C44.407 53.2707 44.4237 53.2707 44.4237 53.2707ZM44.1562 53.3041C44.1729 53.3041 44.1729 53.2874 44.1896 53.2874C44.2063 53.2707 44.2398 53.2707 44.2732 53.2707H44.2899C44.2899 53.2707 44.2899 53.2707 44.3066 53.2707C44.3234 53.2707 44.3568 53.2707 44.3736 53.2707C44.3903 53.2707 44.3903 53.2707 44.407 53.2707C44.4237 53.2707 44.4237 53.2707 44.4404 53.2874C44.4572 53.3041 44.4739 53.3041 44.4906 53.3208L44.5073 53.3376L44.524 53.3543C44.5408 53.371 44.5408 53.3877 44.5575 53.4045C44.5575 53.4045 44.5742 53.4212 44.5742 53.4379C44.5742 53.4546 44.591 53.4713 44.591 53.5048V53.5215C44.591 53.5382 44.591 53.5717 44.591 53.5884C44.591 53.6051 44.591 53.6051 44.591 53.6218V53.6386C44.591 53.6553 44.591 53.6553 44.591 53.672C44.591 53.6887 44.5909 53.6887 44.5742 53.7055C44.5742 53.7222 44.5575 53.7222 44.5575 53.7389C44.5575 53.7389 44.5575 53.7389 44.5408 53.7556C44.5408 53.7556 44.5408 53.7723 44.524 53.7723V53.7556C44.524 53.7724 44.5073 53.7723 44.5073 53.7723C44.5073 53.7723 44.4906 53.7723 44.4906 53.7891C44.4906 53.7891 44.4739 53.7891 44.4739 53.8058C44.4571 53.8058 44.4572 53.8058 44.4404 53.8225H44.4237H44.407C44.3903 53.8225 44.3568 53.8058 44.3401 53.8058C44.3234 53.8058 44.3234 53.7891 44.3066 53.7891C44.2899 53.7891 44.2899 53.7723 44.2732 53.7723C44.2732 53.7723 44.2732 53.7723 44.2565 53.7723L44.2398 53.7556C44.223 53.7389 44.2231 53.7389 44.2063 53.7222C44.2063 53.7222 44.2063 53.7222 44.1896 53.7055L44.1729 53.6887C44.1729 53.672 44.1562 53.672 44.1562 53.6553C44.1562 53.6386 44.1394 53.6051 44.1394 53.6051V53.5884C44.1394 53.5717 44.1394 53.5549 44.1562 53.5382C44.1729 53.4713 44.1562 53.4045 44.1227 53.3376C44.1394 53.3208 44.1562 53.3041 44.1562 53.3041ZM44.5408 53.7556C44.5408 53.7389 44.5575 53.7389 44.5575 53.7389C44.5575 53.7389 44.5575 53.7389 44.5408 53.7556C44.5575 53.7389 44.5408 53.7389 44.5408 53.7556ZM46.1796 58.8393C46.1796 58.8393 46.1796 58.8393 46.1963 58.856C46.1963 58.8393 46.1963 58.8393 46.1796 58.8393C46.1963 58.8393 46.1963 58.8393 46.1796 58.8393ZM46.1963 58.4881C46.1963 58.4881 46.1796 58.4881 46.1796 58.5048C46.1796 58.5048 46.1963 58.5049 46.1963 58.4881ZM46.1127 58.6052C46.1127 58.5885 46.1127 58.5885 46.1294 58.5885C46.1127 58.5717 46.1127 58.5885 46.1127 58.6052ZM46.0625 59.341C46.213 59.4079 46.397 59.4413 46.5642 59.3911C46.7147 59.3577 46.8485 59.2574 46.9488 59.1236C47.116 58.8895 47.1328 58.5717 47.0157 58.3209C46.8987 58.0533 46.5977 57.9028 46.3301 57.9363C46.1461 57.953 45.9956 58.0199 45.8619 58.1369C45.7448 58.2373 45.6612 58.3878 45.6445 58.5383C45.6445 58.555 45.6445 58.5717 45.6445 58.5885V58.6052C45.5776 58.9229 45.7782 59.2239 46.0625 59.341ZM46.4973 58.4714C46.4639 58.4547 46.4806 58.4547 46.4973 58.4714V58.4714ZM46.4639 58.4547C46.4304 58.438 46.4472 58.438 46.4639 58.4547V58.4547ZM46.1127 58.6052C46.1127 58.5885 46.1294 58.5717 46.1294 58.5885L46.1461 58.5717C46.1628 58.555 46.1796 58.5383 46.1963 58.5216C46.1963 58.5216 46.1796 58.5216 46.1796 58.5383C46.1796 58.5383 46.1963 58.5383 46.1963 58.5216C46.213 58.5048 46.2298 58.5048 46.213 58.5048C46.2298 58.4881 46.2465 58.4881 46.2799 58.4714C46.2966 58.4714 46.2966 58.4714 46.3134 58.4547C46.3301 58.4547 46.3301 58.4547 46.3468 58.4547C46.3803 58.4547 46.4137 58.4547 46.4304 58.4547H46.4471H46.4639C46.4806 58.4547 46.4806 58.4714 46.4973 58.4714L46.5141 58.4881C46.4973 58.4714 46.5141 58.4881 46.5141 58.4881L46.5308 58.5048C46.514 58.4881 46.5141 58.4881 46.5141 58.4881C46.5141 58.5049 46.5308 58.5048 46.5308 58.5216C46.5308 58.5383 46.5475 58.555 46.5475 58.5717C46.5475 58.5885 46.5475 58.5885 46.5475 58.6052C46.5475 58.6386 46.5475 58.6721 46.5475 58.6888C46.5475 58.7222 46.5308 58.739 46.5308 58.7724C46.5308 58.7891 46.5141 58.8058 46.5141 58.8058C46.5141 58.8226 46.4973 58.8226 46.4973 58.8226C46.4806 58.8393 46.4806 58.856 46.4639 58.856C46.4639 58.856 46.4806 58.856 46.4806 58.8393C46.4806 58.8393 46.4639 58.8393 46.4639 58.856C46.4472 58.8727 46.4304 58.8727 46.4471 58.856C46.4471 58.856 46.4304 58.856 46.4304 58.8727C46.4137 58.8727 46.397 58.8727 46.397 58.8895C46.3802 58.8895 46.3635 58.8895 46.3301 58.8895C46.3134 58.8895 46.2966 58.8895 46.2799 58.8727H46.2632C46.2465 58.856 46.213 58.8393 46.1963 58.8393C46.1963 58.8393 46.1963 58.8393 46.213 58.856L46.1963 58.8393C46.1796 58.8393 46.1796 58.8226 46.1796 58.8226C46.1629 58.8059 46.1462 58.7891 46.1294 58.7724C46.1294 58.7557 46.1127 58.7557 46.1127 58.739C46.1127 58.739 46.1127 58.7222 46.096 58.7222C46.096 58.7055 46.096 58.6888 46.0793 58.6721C46.0793 58.6553 46.0793 58.6386 46.0793 58.6219C46.096 58.6219 46.096 58.6219 46.1127 58.6052C46.1127 58.6052 46.096 58.6052 46.1127 58.6052C46.1127 58.6052 46.096 58.6052 46.1127 58.6052ZM46.4639 58.8895C46.4639 58.8895 46.4806 58.8895 46.4639 58.8895C46.4806 58.8727 46.4806 58.8727 46.4639 58.8895C46.4806 58.8895 46.4639 58.8895 46.4639 58.8895ZM46.5308 58.5048C46.514 58.4881 46.5308 58.5048 46.5308 58.5048C46.514 58.4881 46.514 58.4881 46.5308 58.5048ZM50.0425 74.2241C50.0091 74.2074 49.9923 74.1739 49.9589 74.1572C50.3101 73.7559 50.494 73.1873 50.3937 72.6522C50.2766 72.0501 49.7582 71.5819 49.1562 71.4649C49.3569 71.0635 49.5074 70.6287 49.407 70.1939C49.3067 69.7257 48.9221 69.3913 48.4706 69.2909C47.3335 69.0401 46.5809 69.9766 45.8619 70.6956C44.3067 72.2675 42.4003 73.4716 40.3267 74.2074C39.2063 74.6087 38.0524 74.8595 36.8818 74.9766C36.447 73.8562 36.029 72.719 35.5942 71.5986C35.5273 71.4481 35.3099 71.3311 35.1761 71.4816C34.4069 72.4515 34.758 73.689 34.9922 74.7927C35.1092 75.3445 35.243 75.9465 35.1427 76.5318C35.0256 77.184 34.5741 77.6689 33.9721 77.9365C33.1025 78.3211 32.1159 78.1873 31.2129 78.0703C31.1125 78.0536 31.0289 78.1037 30.9955 78.1873C29.8751 76.4816 28.3366 75.0268 26.4302 74.2408C25.6108 73.9064 24.7078 73.7057 23.8215 73.6722C23.9051 72.9364 23.8549 72.1839 23.7546 71.4649C23.5706 70.1103 23.2195 68.7391 23.3365 67.3511C23.4369 66.2809 23.8717 65.1604 24.7747 64.525C25.0422 64.341 24.7914 63.9062 24.5238 64.0902C22.8349 65.2441 22.6676 67.4514 22.9017 69.3076C23.0857 70.6622 23.487 72.2341 23.3198 73.6722C22.2997 73.7057 21.2796 73.9398 20.3599 74.4248C19.8917 74.6589 19.4401 74.9599 19.1391 75.3947C18.8716 75.7793 18.7713 76.2977 19.089 76.699C19.39 77.0836 19.9586 77.2174 20.4101 77.2509C20.8616 77.2676 21.3131 77.1505 21.7144 76.9666C22.6175 76.5485 23.2529 75.7291 23.5706 74.7927C23.6375 74.592 23.6877 74.3913 23.7212 74.1906C24.3733 74.2074 25.0422 74.3244 25.661 74.5084C27.7346 75.1605 29.4236 76.699 30.5774 78.4883C30.6945 78.6723 30.9286 78.6221 31.0122 78.4883C31.0456 78.5385 31.1125 78.572 31.1794 78.5887C32.0323 78.689 32.9353 78.7893 33.7714 78.5385C34.457 78.3378 35.0925 77.9031 35.4102 77.2342C35.9454 76.0803 35.427 74.8094 35.2096 73.6555C35.126 73.204 35.0925 72.7023 35.2597 72.2508C35.6444 73.2709 36.029 74.291 36.4303 75.3111C36.4638 75.4114 36.5641 75.5117 36.6644 75.495C38.738 75.3111 40.7447 74.709 42.5675 73.7224C43.4705 73.2375 44.3401 72.6522 45.1261 71.9833C45.5274 71.6488 45.8953 71.2976 46.2632 70.9297C46.6144 70.5618 46.9655 70.1438 47.4171 69.8929C47.8017 69.6923 48.3535 69.6254 48.688 69.9598C48.9723 70.2441 48.9054 70.6454 48.7549 71.0133C48.7047 71.0468 48.6712 71.0802 48.6545 71.1471C48.6043 71.2642 48.5709 71.3812 48.5208 71.4816C48.504 71.4983 48.4873 71.5317 48.4706 71.5485C48.4539 71.5652 48.4539 71.5986 48.4372 71.6321C47.2666 74.0401 44.5073 75.1605 42.1494 76.097C41.8484 76.2141 41.9822 76.699 42.2832 76.582C44.7916 75.5953 47.5843 74.4247 48.8552 71.9331C49.3235 71.9498 49.775 72.2843 49.8586 72.7692C49.892 72.9532 49.8753 73.1538 49.8084 73.3378C49.7248 73.3211 49.6244 73.3545 49.5743 73.4549C49.407 73.7057 49.2231 73.9398 49.0391 74.1906C49.0224 74.2074 49.0057 74.2241 49.0057 74.2408C47.8351 75.7124 46.3803 76.9499 44.7414 77.8696C44.4572 78.0201 44.708 78.4549 44.9923 78.3044C46.6813 77.3679 48.1529 76.097 49.3569 74.592C49.474 74.5585 49.591 74.5251 49.6913 74.6254C49.8084 74.7425 49.8753 74.9766 49.8753 75.1271C49.9087 75.5117 49.6579 75.8462 49.3067 75.9632C49.2398 75.9632 49.173 75.9799 49.1061 76.0301C48.9723 76.1137 48.9555 76.2475 49.0057 76.3479C48.1863 77.6689 47.0325 78.7559 45.6779 79.5084C45.3936 79.6589 45.6445 80.0937 45.9288 79.9432C47.3167 79.174 48.4873 78.0703 49.3402 76.7492C49.3234 76.8328 49.3067 76.9164 49.2733 77C49.1897 77.301 49.0893 77.5853 48.9723 77.8863C48.7549 78.4549 48.4706 78.99 48.1528 79.5084C47.5174 80.562 46.698 81.4817 45.795 82.3178C43.7548 84.1573 41.2464 85.3613 38.6879 86.2644C37.1494 86.8162 35.5775 87.251 34.0055 87.7025C33.8885 87.7359 33.8383 87.8195 33.8383 87.9032C33.738 87.853 33.6042 87.8697 33.5206 88.0035C33.0189 88.8564 31.9821 89.1574 31.0457 89.1908C29.7915 89.2243 28.5874 88.7393 27.3499 88.5721C26.0289 88.3881 24.7579 88.7058 23.487 89.057C22.3666 89.358 21.2629 89.5921 20.1091 89.6423C17.9686 89.7259 15.711 89.2242 14.1057 87.7359C12.4836 86.2309 11.7478 83.9734 11.6307 81.8162C11.5137 79.6924 11.6809 77.5351 11.9986 75.4448C12.3163 73.3378 12.8347 71.2475 13.5204 69.224C14.206 67.2006 15.0589 65.2441 16.0789 63.3544C17.099 61.4647 18.2696 59.642 19.5739 57.9363C20.8783 56.2306 22.3332 54.6252 23.9051 53.1536C25.4603 51.6988 27.1325 50.3609 28.9219 49.1736C29.3566 48.8893 29.8082 48.6051 30.2597 48.3208C30.5439 48.1536 30.2764 47.7188 30.0088 47.886C28.1192 49.0231 26.3466 50.3275 24.6911 51.7656C23.0188 53.2038 21.4803 54.7924 20.0756 56.4981C18.6709 58.2038 17.4 60.0099 16.2963 61.9163C15.1926 63.8226 14.2394 65.8126 13.4702 67.8695C12.701 69.9264 12.0989 72.0669 11.6976 74.2241C11.2962 76.3813 11.0956 78.572 11.1123 80.7793C11.129 83.0202 11.5471 85.3112 12.9351 87.1506C14.3063 88.9734 16.4134 89.9099 18.6375 90.1106C19.7579 90.2109 20.895 90.144 21.9987 89.9266C23.2864 89.6925 24.5238 89.1908 25.8282 89.057C26.5138 88.9734 27.1827 89.0236 27.8516 89.1574C28.5205 89.2911 29.1727 89.4751 29.8416 89.5754C30.8784 89.7594 31.9988 89.7426 32.952 89.241C33.3868 89.0069 33.738 88.6724 33.9888 88.2543C34.0055 88.2209 34.0055 88.2042 34.0222 88.1707C34.0724 88.1875 34.1226 88.1875 34.1728 88.1707C37.1996 87.3012 40.2598 86.4316 43.019 84.8931C45.3769 83.5887 47.5174 81.7325 48.8385 79.3579C49.2064 78.7057 49.5074 78.0201 49.7248 77.301C49.8251 76.9833 49.9255 76.6656 49.8084 76.3311C49.8084 76.3144 49.7917 76.2977 49.7917 76.281C50.2097 75.9967 50.4606 75.495 50.377 74.9933C50.377 74.7258 50.2766 74.4248 50.0425 74.2241ZM22.6676 75.5786C22.1827 76.2642 21.3465 76.7994 20.4937 76.7826C20.1425 76.7826 19.5071 76.6656 19.4067 76.2475C19.3231 75.8127 19.8081 75.4114 20.1258 75.194C21.0623 74.5752 22.1492 74.2575 23.2529 74.2074C23.1526 74.6923 22.9686 75.1438 22.6676 75.5786ZM34.0055 34.9594C33.9387 35.0598 33.7714 35.1267 33.6544 35.043C32.8684 34.4577 31.8483 34.2571 30.8951 34.5079C30.5774 34.5915 30.4436 34.1066 30.7613 34.023C31.8316 33.7387 33.0189 33.9561 33.9052 34.6083C34.0223 34.6919 34.0724 34.8256 34.0055 34.9594ZM30.4269 49.5081C30.2764 49.2238 30.7112 48.973 30.8617 49.2572C31.1627 49.8258 31.5473 50.3275 32.0155 50.7623C33.8216 52.4178 36.5307 52.6352 38.6043 51.3308C38.8718 51.1636 39.1227 51.5984 38.8551 51.7656C38.2196 52.167 37.5006 52.4513 36.748 52.585C35.4771 52.8192 34.156 52.6352 32.9855 52.0332C31.8985 51.4813 30.9955 50.5951 30.4269 49.5081ZM50.7114 48.3208C50.4104 48.8392 50.0258 49.3241 49.591 49.7255C48.0358 51.1469 45.7615 51.7322 43.7214 51.1302C43.4036 51.0466 43.5374 50.5616 43.8551 50.6452C44.3903 50.7957 44.9254 50.8793 45.4772 50.8626C47.417 50.8124 49.3067 49.7589 50.2766 48.0699C50.4271 47.7857 50.8619 48.0365 50.7114 48.3208ZM83.8221 43.2706C83.6884 41.9328 83.2368 40.6117 82.3505 39.5749C82.1331 39.324 81.8991 39.0899 81.6315 38.8892C81.6315 38.8892 81.6315 38.8892 81.6148 38.8892C81.6817 38.8056 81.6649 38.722 81.6315 38.6384C82.6349 36.4812 82.8523 33.9895 82.2168 31.6985C82.1499 31.4811 82.083 31.2637 81.9827 31.0631C82.1499 31.0798 82.3171 31.0798 82.4843 31.0296C83.4208 30.7955 83.4877 29.7085 83.4041 28.9226C83.3037 27.9359 82.9024 27.0162 82.3673 26.1968C82.0997 25.7954 81.8154 25.3941 81.4977 25.0262C81.1967 24.6583 80.9124 24.257 80.578 23.9392C80.2937 23.6717 79.9258 23.5546 79.5579 23.6717C79.4575 23.5881 79.3739 23.5212 79.2569 23.471C78.7719 23.2202 78.0194 23.2369 77.7184 23.772C77.7017 23.8054 77.6849 23.8389 77.6682 23.8891C77.3338 23.6215 76.9492 23.4208 76.5144 23.4877C76.0796 23.5546 75.7117 23.8891 75.5445 24.2904C75.4441 24.5245 75.4274 24.7586 75.4441 25.0095C74.8756 24.7419 74.2568 24.6081 73.5879 24.7586C72.4675 25.0095 71.6314 25.9627 71.1464 26.9493C70.4775 28.3206 70.4106 29.859 70.5277 31.3473C70.6615 33.0531 71.0294 34.7588 70.929 36.4645C70.9123 36.4812 70.8956 36.4979 70.8789 36.5146C70.8287 36.4645 70.7451 36.431 70.6615 36.4477C70.1932 36.5146 69.7919 36.8491 69.4909 37.1835C69.0394 37.6518 68.6715 38.1869 68.337 38.722C67.5009 40.0598 66.7985 41.4812 66.046 42.8692C65.7116 43.488 65.3771 44.09 64.9925 44.6752C64.7417 45.0599 64.4072 45.5114 64.0728 45.7455C62.4172 46.8826 61.1463 48.8225 61.3302 50.9128C61.3804 51.4981 61.5811 52.0165 61.7651 52.5683C61.949 53.1202 62.066 53.6887 61.7818 54.2406C61.5476 54.6921 61.1797 55.06 60.862 55.4446C60.5276 55.8459 60.2433 56.2807 60.0259 56.749C59.8921 57.05 59.7751 57.3677 59.6747 57.6854C59.5075 57.3677 59.357 57.05 59.2232 56.7323C58.7717 55.7122 58.3537 54.6921 57.8018 53.7389C57.2667 52.8359 56.6312 51.9663 55.9288 51.1803C54.5241 49.6251 52.8017 48.3208 50.8954 47.4512C50.5107 47.2673 50.1094 47.1168 49.6913 46.9663C49.6746 46.8659 49.6077 46.7823 49.5074 46.7489C48.9555 45.1769 48.387 43.605 47.8184 42.0331C47.2164 40.3608 46.6144 38.6719 46.0124 36.9996C45.912 36.7153 45.8117 36.4143 45.6946 36.13C47.3669 35.2103 49.0391 34.2905 50.7114 33.3541C50.8786 33.2537 51.0459 33.1701 51.2131 33.0698C51.397 32.9694 51.3636 32.7353 51.2131 32.635C49.407 31.2804 47.601 29.8925 45.8117 28.5212C44.8585 27.7854 43.922 27.0664 42.9688 26.3473C42.0658 25.6617 41.1795 24.9091 40.1929 24.3239C39.524 23.9225 38.7882 23.6048 38.019 23.4376C38.437 23.2369 38.8718 22.9526 39.2732 22.5513C40.2932 21.5312 40.7949 18.2201 38.7046 16.5479C36.9821 21.0462 33.8383 18.889 30.4102 21.7486C27.7513 23.956 29.3399 29.558 31.3634 31.9494C30.4436 32.1166 29.6075 32.6517 29.1226 33.4544C28.3366 34.7922 28.671 36.6651 29.8918 37.6183C30.4603 38.0698 31.1627 38.2872 31.8818 38.2872C32.0156 38.2872 32.1661 38.2705 32.2999 38.2538C31.9152 40.8792 31.447 43.5047 30.9286 46.1134C30.7781 46.8492 30.6276 47.585 30.4771 48.3375C30.4269 48.5382 30.6276 48.672 30.7781 48.6385C33.0858 49.6084 35.5608 50.1436 38.0691 50.2104C40.6277 50.2941 43.203 49.9094 45.6278 49.0733C46.8987 48.6385 48.1361 48.0532 49.29 47.3676C49.3067 47.3676 49.3067 47.3843 49.3234 47.3843C53.1696 48.672 56.3302 51.6486 58.0359 55.3108C58.4874 56.2807 58.8553 57.3008 59.3737 58.2373C59.4072 58.2875 59.4406 58.3543 59.4741 58.4045C59.2065 59.9095 59.4072 61.5149 60.1597 62.836C60.6446 63.6889 61.5978 64.525 62.6346 64.1236C63.6714 63.739 63.6714 62.5015 63.2367 61.6487C62.735 60.6453 61.6312 60.1938 60.862 59.4246C60.5108 59.0901 60.2266 58.7055 59.9757 58.2874C60.0426 57.9864 60.1262 57.6687 60.2266 57.3844C60.3938 56.9329 60.6112 56.5148 60.8955 56.1302C61.1798 55.7122 61.5477 55.361 61.8487 54.9596C62.1497 54.575 62.3671 54.1235 62.4005 53.6386C62.434 53.0533 62.1998 52.4847 62.0159 51.9329C61.6814 50.9629 61.6981 49.9763 62.0326 49.0064C62.367 48.0699 62.9691 47.2338 63.7049 46.5983C63.9724 46.381 64.2734 46.197 64.5243 45.9796C64.6915 45.8291 64.842 45.6452 64.9925 45.4612C65.3771 44.9763 65.6949 44.4411 65.9959 43.9227C66.7484 42.6184 67.4006 41.2806 68.1531 39.9762C68.5043 39.3742 68.8554 38.7555 69.2735 38.1869C69.5578 37.7856 69.9089 37.3675 70.3103 37.1166C70.4775 37.0163 70.5778 36.9661 70.7785 36.9327C70.812 36.9327 70.8454 36.916 70.8789 36.8992C70.8789 36.9996 70.929 37.0665 71.0127 37.0999C71.6481 38.4712 72.7685 39.625 74.1398 40.2772C75.6783 41.013 77.4843 41.0799 79.0896 40.4946C79.8756 40.2103 80.5947 39.7755 81.2301 39.2237L81.2469 39.2404C82.3004 40.0598 82.9191 41.2638 83.1867 42.5515C83.4877 44.0231 83.287 45.5448 82.869 46.983C81.9659 50.0934 80.1432 52.9195 79.8255 56.1971C79.491 59.5082 80.5612 62.8026 80.1933 66.1136C79.8756 69.0066 78.4542 71.7157 76.5311 73.8729C74.5244 76.1305 71.9825 77.8529 69.3069 79.2241C68.9725 79.3914 68.638 79.5586 68.3036 79.7091C68.0193 79.8429 68.2701 80.2777 68.5544 80.1439C71.3304 78.8228 73.9892 77.184 76.1632 74.9933C78.2535 72.8863 79.8756 70.2441 80.4944 67.3344C80.8288 65.729 80.8121 64.1069 80.6616 62.4848C80.5111 60.7958 80.2435 59.1069 80.2602 57.4179C80.2769 55.7289 80.6616 54.1235 81.2636 52.5349C81.8489 50.9797 82.5679 49.4746 83.1031 47.886C83.6382 46.4144 83.9726 44.8258 83.8221 43.2706ZM42.3501 49.4078C39.8919 49.8425 37.3501 49.8258 34.9086 49.3576C33.5707 49.1067 32.2664 48.7054 31.0122 48.187C31.5473 45.6452 32.0323 43.1033 32.4503 40.5448C32.5841 39.7421 32.7012 38.9394 32.8182 38.1534C33.3032 38.0197 33.7547 37.7688 34.1226 37.4177C34.2229 37.3173 34.2229 37.1668 34.1226 37.0665C34.0223 36.9661 33.8717 36.9661 33.7714 37.0665C32.8517 37.9528 31.2129 38.0364 30.1928 37.2337C29.1894 36.431 28.8884 34.8256 29.5406 33.7219C30.1928 32.6183 31.748 32.0999 32.9353 32.6015C33.0691 32.6517 33.2028 32.6015 33.2697 32.4678C33.3199 32.334 33.2698 32.2002 33.136 32.1333C33.0356 32.0831 32.9186 32.0497 32.8182 32.0163L33.3868 31.8825C35.0424 30.1768 34.2229 28.3206 34.3567 26.7654C34.5574 24.4576 35.728 24.257 37.0825 23.8055C39.2063 23.9392 40.8785 25.3941 42.5006 26.6316C44.3401 28.0363 46.1628 29.441 47.9856 30.8457C48.8552 31.5146 49.7248 32.1668 50.6111 32.8357C49.3235 33.5547 48.0191 34.2738 46.7314 34.9929C46.2297 35.2604 45.7448 35.5447 45.2431 35.8123C45.1595 35.8624 45.0926 35.9962 45.1261 36.0966C45.4772 37.0832 45.8284 38.0531 46.1796 39.0397C46.8485 40.896 47.5174 42.7689 48.1863 44.6418C48.4706 45.4278 48.7382 46.197 49.0224 46.983C46.9823 48.1703 44.708 48.9897 42.3501 49.4078ZM60.2433 59.4747C60.5945 59.8928 61.0125 60.2273 61.4473 60.545C62.2165 61.1136 63.1196 61.7992 63.0527 62.8694C63.0192 63.321 62.7182 63.6721 62.2667 63.7223C61.7818 63.7725 61.347 63.5216 61.0292 63.1872C60.3603 62.4681 60.0259 61.3644 59.9088 60.4112C59.8587 59.9597 59.8587 59.5082 59.8921 59.0567C60.0092 59.1905 60.1262 59.341 60.2433 59.4747ZM80.4609 24.5413C80.9626 25.1266 81.4643 25.7118 81.8823 26.364C82.3004 26.9827 82.6349 27.6517 82.8021 28.3875C82.8857 28.7386 82.9359 29.1065 82.9191 29.4744C82.9024 29.7922 82.8857 30.2102 82.6181 30.4276C82.1666 30.7955 81.6482 30.5279 81.3305 30.1266C81.4308 29.9259 81.481 29.7085 81.5312 29.5079C81.598 29.1901 81.6482 28.839 81.6482 28.5212C81.6649 27.8523 81.5311 27.1834 81.3138 26.548C81.0964 25.946 80.7954 25.3607 80.4609 24.8255C80.3271 24.6081 80.1766 24.3907 80.0261 24.1901C80.2101 24.2235 80.3439 24.3908 80.4609 24.5413ZM78.3539 23.8724C78.7552 23.655 79.19 23.956 79.4576 24.257C79.792 24.6249 80.0596 25.0597 80.2937 25.4944C80.5445 25.946 80.7619 26.4142 80.9124 26.8991C81.0629 27.4008 81.1632 27.9192 81.1465 28.4543C81.1465 28.7219 81.1298 28.9895 81.0629 29.2403C81.0295 29.3741 80.996 29.5079 80.9626 29.6417C80.9292 29.742 80.8957 29.9427 80.7954 29.9928C80.6449 30.043 80.4609 29.7754 80.4107 29.6751C80.2602 29.441 80.1432 29.1901 80.0261 28.9393C79.976 28.8557 79.9425 28.7721 79.9091 28.6885C79.8422 28.2369 79.7753 27.7687 79.6582 27.3172C79.4576 26.4309 79.1231 25.5613 78.588 24.8255C78.4207 24.5914 78.2368 24.3907 78.0361 24.1901C78.1365 24.1065 78.3204 23.8891 78.3539 23.8724ZM76.6649 23.9727C76.9826 23.9392 77.3003 24.1901 77.5177 24.3908C77.7518 24.5914 77.9692 24.8255 78.1532 25.0931C79.0228 26.2971 79.2736 27.7854 79.4576 29.2236C79.5077 29.558 79.6749 30.1266 79.3238 30.344C79.1064 30.4778 78.8722 30.4276 78.6716 30.2771C78.6883 30.2771 78.6883 30.2604 78.705 30.2604C79.0395 29.9761 79.3405 29.4911 79.2402 29.0396C79.1566 28.6717 78.8221 28.4209 78.4876 28.2704C78.0863 28.0864 77.685 28.0028 77.2669 27.9527C77.1666 27.0664 76.7652 26.2637 76.1297 25.6617C76.1297 25.6282 76.113 25.5948 76.0963 25.5613C75.8622 25.0095 75.8956 24.0563 76.6649 23.9727ZM71.2802 28.0195C71.5812 27.0162 72.1665 25.9961 73.1197 25.4777C73.5377 25.2436 74.0227 25.1433 74.4909 25.2102C74.8254 25.2603 75.1264 25.3774 75.4107 25.5279C75.4107 25.6115 75.4609 25.7118 75.5278 25.762C76.1967 26.2804 76.6482 27.0831 76.7652 27.9192C76.5478 27.9192 76.3304 27.9192 76.1131 27.9359C75.511 27.9694 74.9257 28.0196 74.3572 28.1533C74.006 27.8022 73.705 27.4008 73.5043 26.9326C73.4541 26.8155 73.2702 26.7821 73.1531 26.849C73.0193 26.9159 73.0026 27.0664 73.0695 27.2001C73.2535 27.6015 73.5043 27.9861 73.8053 28.3038C73.705 28.3373 73.6046 28.3707 73.5043 28.4042C72.4173 28.8222 71.6147 29.6751 70.9625 30.6283C70.9625 29.742 71.0294 28.8724 71.2802 28.0195ZM81.1465 38.5046C81.1131 38.5548 81.1131 38.6217 81.1298 38.6719C80.0261 39.7588 78.5044 40.3775 76.9492 40.3943C75.394 40.411 73.9056 39.7755 72.7852 38.7053C72.1999 38.1534 71.7317 37.4678 71.4307 36.732C71.5979 34.8591 71.1297 32.9694 71.0127 31.0798C71.113 31.13 71.2635 31.13 71.3471 30.9962C71.8488 30.2269 72.4508 29.5079 73.2702 29.0731C73.9726 28.6885 74.8254 28.5212 75.6281 28.4543C76.2468 28.4042 76.9157 28.354 77.5345 28.4711C77.9024 28.538 78.3204 28.6383 78.6047 28.8891C78.8723 29.1065 78.7886 29.4243 78.588 29.6751C78.5043 29.7754 78.4207 29.8423 78.3371 29.9259C78.2033 29.8925 78.0529 29.9761 78.0194 30.0932C77.7686 30.1935 77.4843 30.2437 77.2 30.2604C76.598 30.3105 75.9792 30.2938 75.3772 30.3106C75.1097 30.3106 75.0595 30.645 75.2434 30.7788C75.7618 31.1467 75.9625 31.7989 75.9625 32.4009C75.9625 33.1868 75.6114 33.9226 75.3104 34.6083C75.1766 34.8925 75.6113 35.1601 75.7451 34.8591C76.113 34.0397 76.4976 33.1868 76.4642 32.2671C76.4475 31.732 76.2803 31.2136 75.9625 30.7955C76.3973 30.7955 76.8321 30.7788 77.2669 30.7453C77.6013 30.7119 77.9358 30.645 78.2535 30.5279C78.4709 30.7453 78.7552 30.8958 79.0896 30.8958C79.4743 30.8958 79.8589 30.6617 79.9927 30.2938C80.0261 30.1935 80.0428 30.0932 80.0596 29.9761C80.2769 30.2771 80.6282 30.5614 80.9626 30.461C81.1131 30.6283 81.2636 30.8122 81.3974 31.0129C81.5646 31.2637 81.6148 31.3975 81.6984 31.6818C82.0161 32.7353 82.1332 33.839 82.0663 34.926C81.9994 36.1635 81.6816 37.3842 81.1465 38.5046Z" fill="black"/>
<path d="M69.5241 26.7325C69.0893 25.9298 68.3535 25.3445 67.4672 25.0936C65.6612 24.5752 63.7548 25.6455 63.2364 27.4683C62.9856 28.3546 63.0859 29.2743 63.5374 30.077C63.9722 30.8797 64.708 31.465 65.5943 31.7158C65.8953 31.7994 66.213 31.8496 66.514 31.8496C67.9187 31.8496 69.2064 30.98 69.7248 29.6255L71.6813 29.6924C72.1496 29.1907 72.6345 28.8562 72.8352 28.7225L69.9422 28.6221C69.9923 27.9867 69.8418 27.3178 69.5241 26.7325ZM65.8619 30.7626C65.2431 30.5787 64.7247 30.1773 64.4237 29.6087C64.106 29.0402 64.0391 28.388 64.2063 27.7525C64.5073 26.6823 65.494 25.9632 66.5475 25.9632C66.7649 25.9632 66.9823 25.9967 67.1997 26.0468C67.8184 26.2308 68.3368 26.6321 68.6378 27.2007C68.9054 27.6689 68.989 28.2041 68.9221 28.7225C68.8218 28.8061 68.7549 28.9399 68.7549 29.0736C68.7549 29.1405 68.7716 29.1907 68.7883 29.2576C68.3368 30.4449 67.0826 31.1138 65.8619 30.7626ZM88.8889 29.7593C88.8889 30.0435 88.6715 30.2609 88.3872 30.2609H86.3805C86.2969 30.2609 86.23 30.2442 86.1631 30.2108L83.3537 30.1104C83.3537 30.1104 83.4707 29.5419 83.4373 29.1071L84.6414 29.1572L84.6246 27.1505C84.6246 26.8663 84.842 26.6489 85.1263 26.6489C85.4106 26.6489 85.628 26.8663 85.628 27.1505L85.6447 29.1907L86.3638 29.2241L86.4139 25.5953C86.4139 25.3278 86.648 25.0936 86.9156 25.0936C87.1999 25.0936 87.4173 25.3278 87.4173 25.5953L87.3671 29.2409H88.3872C88.6715 29.2576 88.8889 29.475 88.8889 29.7593Z" fill="#F6B100"/>
</svg>
