<svg width="44" height="44" viewBox="0 0 44 44" fill="none" xmlns="http://www.w3.org/2000/svg">
<path d="M17.75 3.03125C20.3799 1.51287 23.6201 1.51287 26.25 3.03125L36.3027 8.83496C38.9326 10.3534 40.5527 13.1596 40.5527 16.1963V27.8037C40.5527 30.8404 38.9326 33.6466 36.3027 35.165L26.25 40.9688C23.6201 42.4871 20.3799 42.4871 17.75 40.9688L7.69727 35.165C5.06744 33.6466 3.44727 30.8404 3.44727 27.8037V16.1963C3.44727 13.1596 5.06744 10.3534 7.69727 8.83496L17.75 3.03125Z" fill="#F9F9F9" stroke="#DBDFE9"/>
<path opacity="0.1" d="M21.9912 22.5609C21.0509 22.5609 20.1317 22.2816 19.3503 21.7585C18.569 21.2354 17.9605 20.492 17.6022 19.6226C17.2439 18.7532 17.1519 17.797 17.3377 16.8752C17.5236 15.9534 17.9791 15.1076 18.6463 14.4451C19.3136 13.7825 20.1626 13.333 21.0856 13.1536C22.0087 12.9742 22.9642 13.073 23.831 13.4374C24.6979 13.8018 25.437 14.4154 25.9546 15.2005C26.4722 15.9855 26.745 16.9066 26.7384 17.8469C26.7297 19.1002 26.2256 20.2991 25.3363 21.1822C24.447 22.0653 23.2445 22.5609 21.9912 22.5609ZM28.3929 30.9413H15.5895C15.3465 30.9438 15.106 30.8929 14.8848 30.7924C14.6635 30.6918 14.4671 30.544 14.3091 30.3594C14.1718 30.1999 14.0709 30.0124 14.0134 29.8099C13.956 29.6075 13.9434 29.3949 13.9766 29.1871C14.5586 25.7368 18.0088 23.1346 21.9912 23.1346C25.9736 23.1346 29.4238 25.7368 30.0058 29.1871C30.039 29.3949 30.0264 29.6075 29.969 29.8099C29.9115 30.0124 29.8106 30.1999 29.6733 30.3594C29.5153 30.544 29.3188 30.6918 29.0976 30.7924C28.8764 30.8929 28.6359 30.9438 28.3929 30.9413Z" fill="#78829D"/>
<path d="M22.0002 22.5577C21.0577 22.5577 20.1364 22.2777 19.3532 21.7534C18.57 21.229 17.9601 20.4839 17.601 19.6125C17.2418 18.7411 17.1496 17.7826 17.3359 16.8587C17.5222 15.9348 17.9787 15.087 18.6475 14.4229C19.3163 13.7588 20.1673 13.3082 21.0925 13.1284C22.0177 12.9486 22.9755 13.0476 23.8443 13.4129C24.7132 13.7781 25.454 14.3932 25.9729 15.1801C26.4917 15.967 26.7651 16.8902 26.7585 17.8327C26.7497 19.0889 26.2445 20.2906 25.3531 21.1758C24.4617 22.061 23.2564 22.5577 22.0002 22.5577ZM22.0002 14.291C21.3077 14.291 20.6308 14.496 20.0546 14.88C19.4784 15.2641 19.0287 15.8101 18.7622 16.4492C18.4957 17.0883 18.4243 17.792 18.557 18.4716C18.6897 19.1513 19.0206 19.7764 19.5079 20.2684C19.9952 20.7603 20.6172 21.097 21.2955 21.2362C21.9739 21.3753 22.6782 21.3105 23.3198 21.0501C23.9615 20.7897 24.5117 20.3452 24.9011 19.7726C25.2906 19.2001 25.5019 18.5251 25.5085 17.8327C25.5118 17.3695 25.4236 16.9102 25.2488 16.4812C25.0741 16.0522 24.8163 15.6619 24.4903 15.3328C24.1643 15.0037 23.7765 14.7423 23.3492 14.5635C22.9219 14.3847 22.4634 14.2921 22.0002 14.291ZM28.4169 30.9577H15.5835C15.34 30.9601 15.0989 30.9092 14.8772 30.8084C14.6554 30.7076 14.4585 30.5594 14.3002 30.3743C14.1625 30.2145 14.0613 30.0266 14.0038 29.8237C13.9462 29.6207 13.9336 29.4077 13.9669 29.1994C14.5502 25.741 18.0085 23.1327 22.0002 23.1327C25.9919 23.1327 29.4502 25.741 30.0335 29.1994C30.0668 29.4077 30.0542 29.6207 29.9966 29.8237C29.939 30.0266 29.8379 30.2145 29.7002 30.3743C29.5419 30.5594 29.345 30.7076 29.1232 30.8084C28.9015 30.9092 28.6604 30.9601 28.4169 30.9577ZM22.0002 24.3827C18.6085 24.3827 15.6835 26.541 15.2002 29.3827C15.1967 29.4111 15.1994 29.44 15.208 29.4673C15.2166 29.4946 15.231 29.5197 15.2502 29.541C15.2919 29.5877 15.3434 29.6246 15.401 29.6491C15.4586 29.6736 15.521 29.6851 15.5835 29.6827H28.4169C28.4794 29.6851 28.5417 29.6736 28.5994 29.6491C28.657 29.6246 28.7085 29.5877 28.7502 29.541C28.7694 29.5197 28.7838 29.4946 28.7924 29.4673C28.801 29.44 28.8037 29.4111 28.8002 29.3827C28.3169 26.541 25.3919 24.3827 22.0002 24.3827Z" fill="#78829D"/>
</svg>
