<svg width="44" height="44" viewBox="0 0 44 44" fill="none" xmlns="http://www.w3.org/2000/svg">
<path d="M17.5 2.59808C20.2846 0.990381 23.7154 0.990381 26.5 2.59808L36.5526 8.40192C39.3372 10.0096 41.0526 12.9808 41.0526 16.1962V27.8038C41.0526 31.0192 39.3372 33.9904 36.5526 35.5981L26.5 41.4019C23.7154 43.0096 20.2846 43.0096 17.5 41.4019L7.44744 35.5981C4.66283 33.9904 2.94744 31.0192 2.94744 27.8038V16.1962C2.94744 12.9808 4.66283 10.0096 7.44744 8.40192L17.5 2.59808Z" fill="#EFF6FF"/>
<path d="M17.75 3.03125C20.3799 1.51287 23.6201 1.51287 26.25 3.03125L36.3027 8.83496C38.9326 10.3534 40.5527 13.1596 40.5527 16.1963V27.8037C40.5527 30.8404 38.9326 33.6466 36.3027 35.165L26.25 40.9688C23.6201 42.4871 20.3799 42.4871 17.75 40.9688L7.69727 35.165C5.06744 33.6466 3.44727 30.8404 3.44727 27.8037V16.1963C3.44727 13.1596 5.06744 10.3534 7.69727 8.83496L17.75 3.03125Z" stroke="#1B84FF" stroke-opacity="0.2"/>
<path opacity="0.1" d="M26.159 29.5016H17.8257C16.5475 29.5016 15.3215 28.9944 14.4169 28.0913C13.5122 27.1883 13.0029 25.9632 13.0007 24.6849V16.4516C12.992 16.1862 13.0643 15.9244 13.2079 15.7011C13.3515 15.4778 13.5597 15.3034 13.8048 15.2012C14.0499 15.099 14.3203 15.0738 14.58 15.129C14.8398 15.1841 15.0766 15.317 15.259 15.5099L17.759 18.0099L21.0924 14.8683C21.339 14.6319 21.6674 14.5 22.009 14.5C22.3506 14.5 22.679 14.6319 22.9257 14.8683L26.159 17.9849C26.1645 17.9905 26.1709 17.9949 26.1781 17.9979C26.1853 18.0009 26.1929 18.0024 26.2007 18.0024C26.2085 18.0024 26.2161 18.0009 26.2233 17.9979C26.2305 17.9949 26.2369 17.9905 26.2424 17.9849L28.7424 15.4849C28.9268 15.3038 29.1607 15.1814 29.4146 15.1331C29.6685 15.0848 29.931 15.1128 30.169 15.2136C30.407 15.3143 30.6098 15.4833 30.7519 15.6991C30.894 15.915 30.969 16.1682 30.9674 16.4266V24.6849C30.9652 25.9603 30.4581 27.1829 29.5571 28.0855C28.6561 28.988 27.4344 29.4972 26.159 29.5016Z" fill="#1B84FF"/>
<path d="M26.1668 29.4996H17.8335C16.5553 29.4996 15.3293 28.9924 14.4247 28.0894C13.52 27.1863 13.0107 25.9612 13.0085 24.683V16.4496C12.9998 16.1842 13.0721 15.9225 13.2157 15.6991C13.3593 15.4758 13.5675 15.3014 13.8126 15.1992C14.0577 15.0971 14.3281 15.0719 14.5878 15.127C14.8476 15.1821 15.0844 15.315 15.2668 15.508L17.7668 18.008L21.1002 14.8663C21.3468 14.63 21.6752 14.498 22.0168 14.498C22.3585 14.498 22.6869 14.63 22.9335 14.8663L26.1668 17.983C26.1723 17.9885 26.1788 17.9929 26.1859 17.9959C26.1931 17.9989 26.2008 18.0005 26.2085 18.0005C26.2163 18.0005 26.224 17.9989 26.2311 17.9959C26.2383 17.9929 26.2448 17.9885 26.2502 17.983L28.7502 15.483C28.9346 15.3019 29.1685 15.1795 29.4224 15.1312C29.6763 15.0829 29.9388 15.1109 30.1768 15.2116C30.4148 15.3123 30.6177 15.4813 30.7597 15.6972C30.9018 15.9131 30.9768 16.1662 30.9752 16.4246V24.683C30.973 25.9583 30.466 27.1809 29.5649 28.0835C28.6639 28.9861 27.4422 29.4952 26.1668 29.4996ZM14.3918 16.408H14.2918V24.6663C14.2874 25.1358 14.3756 25.6015 14.5512 26.037C14.7268 26.4724 14.9864 26.869 15.3153 27.204C15.6442 27.5391 16.0359 27.8061 16.4679 27.9898C16.9 28.1735 17.364 28.2703 17.8335 28.2746H26.1668C27.1136 28.2746 28.0216 27.8991 28.6918 27.2305C29.362 26.5619 29.7396 25.6547 29.7418 24.708V16.4496H29.6418L27.1418 18.9496C26.8952 19.186 26.5668 19.3179 26.2252 19.3179C25.8836 19.3179 25.5552 19.186 25.3085 18.9496L22.0418 15.7413L18.7085 18.883C18.4639 19.1232 18.1347 19.2578 17.7918 19.2578C17.449 19.2578 17.1198 19.1232 16.8752 18.883L14.3918 16.408Z" fill="#1B84FF"/>
</svg>
