<svg width="44" height="44" viewBox="0 0 44 44" fill="none" xmlns="http://www.w3.org/2000/svg">
<path d="M17.5 2.59808C20.2846 0.990381 23.7154 0.990381 26.5 2.59808L36.5526 8.40192C39.3372 10.0096 41.0526 12.9808 41.0526 16.1962V27.8038C41.0526 31.0192 39.3372 33.9904 36.5526 35.5981L26.5 41.4019C23.7154 43.0096 20.2846 43.0096 17.5 41.4019L7.44744 35.5981C4.66283 33.9904 2.94744 31.0192 2.94744 27.8038V16.1962C2.94744 12.9808 4.66283 10.0096 7.44744 8.40192L17.5 2.59808Z" fill="#F8F5FF"/>
<path d="M17.75 3.03125C20.3799 1.51287 23.6201 1.51287 26.25 3.03125L36.3027 8.83496C38.9326 10.3534 40.5527 13.1596 40.5527 16.1963V27.8037C40.5527 30.8404 38.9326 33.6466 36.3027 35.165L26.25 40.9688C23.6201 42.4871 20.3799 42.4871 17.75 40.9688L7.69727 35.165C5.06744 33.6466 3.44727 30.8404 3.44727 27.8037V16.1963C3.44727 13.1596 5.06744 10.3534 7.69727 8.83496L17.75 3.03125Z" stroke="#7239EA" stroke-opacity="0.2"/>
<path opacity="0.1" d="M21.9995 13.125C22.7312 13.125 23.4508 13.3168 24.0845 13.6826L28.1567 16.0352C28.7915 16.4016 29.3197 16.9282 29.687 17.5625C30.0542 18.1967 30.2477 18.9166 30.2495 19.6494V24.3545C30.2477 25.0874 30.0542 25.8071 29.687 26.4414C29.3197 27.0758 28.7915 27.6022 28.1567 27.9688L24.0845 30.3213C23.4505 30.6858 22.7308 30.8769 21.9995 30.875C21.2682 30.8781 20.5489 30.6868 19.9155 30.3213L15.8433 27.9688C15.2085 27.6022 14.6803 27.0758 14.313 26.4414C13.9458 25.8071 13.7523 25.0874 13.7505 24.3545V19.6494C13.7523 18.9166 13.9458 18.1967 14.313 17.5625C14.6802 16.9282 15.2085 16.4016 15.8433 16.0352L19.9155 13.6826C20.549 13.3169 21.268 13.1251 21.9995 13.125ZM23.311 18.5977C22.6753 18.3343 21.9752 18.2652 21.3003 18.3994C20.6255 18.5337 20.0056 18.8651 19.519 19.3516C19.0326 19.838 18.7012 20.4581 18.5669 21.1328C18.4327 21.8077 18.5018 22.5078 18.7651 23.1436C19.0285 23.7792 19.4743 24.3228 20.0464 24.7051C20.6184 25.0873 21.291 25.291 21.979 25.291C22.9016 25.291 23.7865 24.9247 24.439 24.2725C25.0913 23.6201 25.4584 22.7351 25.4585 21.8125C25.4585 21.1244 25.2548 20.451 24.8726 19.8789C24.4903 19.3068 23.9466 18.861 23.311 18.5977Z" fill="#7239EA"/>
<path d="M21.9937 13.041C22.7321 13.041 23.4577 13.2353 24.0972 13.6045L28.2085 15.9785C28.8491 16.3484 29.3817 16.8804 29.7524 17.5205C30.1232 18.1608 30.319 18.888 30.3208 19.6279V24.376C30.319 25.1158 30.1231 25.8421 29.7524 26.4824C29.3817 27.1227 28.8493 27.6545 28.2085 28.0244L24.0972 30.3994C23.4573 30.7672 22.7316 30.9599 21.9937 30.958C21.2555 30.9612 20.5295 30.7684 19.8901 30.3994L15.7788 28.0244C15.1381 27.6545 14.6055 27.1227 14.2349 26.4824C13.8643 25.8422 13.6683 25.1157 13.6665 24.376V19.6279C13.6683 18.888 13.8642 18.1608 14.2349 17.5205C14.6056 16.8803 15.1381 16.3484 15.7788 15.9785L19.8901 13.6045C20.5297 13.2353 21.2552 13.041 21.9937 13.041ZM21.9937 14.373C21.485 14.3689 20.9842 14.5012 20.5444 14.7568L16.4331 17.1133C15.9975 17.3719 15.6377 17.7407 15.3882 18.1816C15.1386 18.6226 15.0087 19.1212 15.0112 19.6279V24.376C15.0087 24.8827 15.1386 25.3813 15.3882 25.8223C15.6377 26.263 15.9977 26.631 16.4331 26.8896L20.5444 29.2646C20.9852 29.5181 21.4852 29.6513 21.9937 29.6514C22.5021 29.6514 23.0021 29.5181 23.4429 29.2646L27.5542 26.8896C27.9898 26.631 28.3506 26.2632 28.6001 25.8223C28.8496 25.3813 28.9796 24.8826 28.9771 24.376V19.6279C28.9796 19.1213 28.8496 18.6225 28.6001 18.1816C28.3505 17.7407 27.9899 17.3719 27.5542 17.1133L23.4429 14.7393C23.0031 14.4836 22.5023 14.3513 21.9937 14.3555V14.373ZM21.2993 18.3174C21.99 18.18 22.7063 18.2511 23.3569 18.5205C24.0076 18.79 24.5642 19.2464 24.9556 19.832C25.3469 20.4176 25.5561 21.1062 25.5562 21.8105C25.5562 22.755 25.181 23.6612 24.5132 24.3291C23.8453 24.997 22.9391 25.372 21.9946 25.3721C21.2903 25.3721 20.6018 25.1628 20.0161 24.7715C19.4306 24.3802 18.9741 23.8244 18.7046 23.1738C18.4351 22.5232 18.3641 21.807 18.5015 21.1162C18.6389 20.4254 18.978 19.7901 19.4761 19.292C19.974 18.7941 20.6087 18.4548 21.2993 18.3174ZM21.9946 19.5586C21.5492 19.5586 21.114 19.691 20.7437 19.9385C20.3733 20.1859 20.084 20.5377 19.9136 20.9492C19.7433 21.3606 19.6988 21.8133 19.7856 22.25C19.8725 22.6868 20.0869 23.0884 20.4019 23.4033C20.7168 23.7183 21.1183 23.9326 21.5552 24.0195C21.9919 24.1064 22.4446 24.0619 22.856 23.8916C23.2675 23.7211 23.6192 23.4319 23.8667 23.0615C24.1141 22.6912 24.2466 22.2559 24.2466 21.8105C24.2442 21.214 24.0063 20.6425 23.5845 20.2207C23.1627 19.7989 22.5911 19.5609 21.9946 19.5586Z" fill="#7239EA"/>
</svg>
