<svg width="44" height="44" viewBox="0 0 44 44" fill="none" xmlns="http://www.w3.org/2000/svg">
<path d="M17.5 2.59808C20.2846 0.990381 23.7154 0.990381 26.5 2.59808L36.5526 8.40192C39.3372 10.0096 41.0526 12.9808 41.0526 16.1962V27.8038C41.0526 31.0192 39.3372 33.9904 36.5526 35.5981L26.5 41.4019C23.7154 43.0096 20.2846 43.0096 17.5 41.4019L7.44744 35.5981C4.66283 33.9904 2.94744 31.0192 2.94744 27.8038V16.1962C2.94744 12.9808 4.66283 10.0096 7.44744 8.40192L17.5 2.59808Z" fill="#EAFFF1"/>
<path d="M17.75 3.03125C20.3799 1.51287 23.6201 1.51287 26.25 3.03125L36.3027 8.83496C38.9326 10.3534 40.5527 13.1596 40.5527 16.1963V27.8037C40.5527 30.8404 38.9326 33.6466 36.3027 35.165L26.25 40.9688C23.6201 42.4871 20.3799 42.4871 17.75 40.9688L7.69727 35.165C5.06744 33.6466 3.44727 30.8404 3.44727 27.8037V16.1963C3.44727 13.1596 5.06744 10.3534 7.69727 8.83496L17.75 3.03125Z" stroke="#17C653" stroke-opacity="0.2"/>
<g clip-path="url(#clip0_29919_164196)">
<path opacity="0.1" d="M21.9168 13C20.1203 13 18.3641 13.5327 16.8704 14.5308C15.3767 15.5289 14.2124 16.9475 13.5249 18.6073C12.8374 20.2671 12.6576 22.0934 13.008 23.8554C13.3585 25.6174 14.2236 27.2359 15.4939 28.5062C16.7643 29.7765 18.3828 30.6416 20.1448 30.9921C21.9068 31.3426 23.7331 31.1627 25.3929 30.4752C27.0526 29.7877 28.4713 28.6235 29.4693 27.1298C30.4674 25.636 31.0002 23.8798 31.0002 22.0833C30.9979 19.675 30.0402 17.3659 28.3372 15.6629C26.6343 13.9599 24.3252 13.0022 21.9168 13Z" fill="#17C653"/>
<path d="M22.0002 14.0278C23.577 14.0278 25.1185 14.4954 26.4297 15.3715C27.7408 16.2475 28.7627 17.4927 29.3661 18.9496C29.9696 20.4064 30.1275 22.0095 29.8198 23.5561C29.5122 25.1027 28.7529 26.5233 27.6378 27.6383C26.5228 28.7533 25.1022 29.5127 23.5556 29.8203C22.009 30.128 20.4059 29.9701 18.9491 29.3666C17.4922 28.7632 16.247 27.7413 15.371 26.4301C14.4949 25.119 14.0273 23.5775 14.0273 22.0006C14.0273 19.8861 14.8673 17.8582 16.3625 16.363C17.8577 14.8678 19.8856 14.0278 22.0002 14.0278ZM21.2071 23.2627L18.5893 20.6363C18.4364 20.493 18.236 20.4111 18.0265 20.4061C17.8691 20.4076 17.7157 20.4555 17.5853 20.5437C17.455 20.6318 17.3535 20.7564 17.2935 20.9019C17.2334 21.0474 17.2176 21.2074 17.2479 21.3618C17.2781 21.5162 17.3532 21.6584 17.4637 21.7704L20.6443 24.9596C20.8005 25.0986 21.0023 25.1754 21.2114 25.1754C21.4205 25.1754 21.6223 25.0986 21.7785 24.9596L26.5536 20.1758C26.6642 20.0638 26.7392 19.9217 26.7695 19.7672C26.7998 19.6128 26.7839 19.4528 26.7239 19.3074C26.6639 19.1619 26.5624 19.0373 26.432 18.9491C26.3017 18.8609 26.1482 18.8131 25.9909 18.8115C25.7813 18.8165 25.581 18.8984 25.4281 19.0417L21.2157 23.3053M22.0002 12.834C20.1872 12.834 18.4149 13.3716 16.9074 14.3788C15.4 15.3861 14.2251 16.8177 13.5313 18.4927C12.8375 20.1677 12.6559 22.0108 13.0096 23.789C13.3633 25.5671 14.2364 27.2005 15.5184 28.4825C16.8003 29.7644 18.4337 30.6375 20.2118 30.9912C21.99 31.3449 23.8331 31.1633 25.5081 30.4695C27.1831 29.7757 28.6147 28.6008 29.622 27.0934C30.6292 25.5859 31.1668 23.8136 31.1668 22.0006C31.1646 19.5702 30.1981 17.2399 28.4795 15.5213C26.7609 13.8027 24.4306 12.8362 22.0002 12.834Z" fill="#17C653"/>
</g>
<defs>
<clipPath id="clip0_29919_164196">
<rect width="20" height="20" fill="white" transform="translate(12 12)"/>
</clipPath>
</defs>
</svg>
