<svg width="50" height="50" viewBox="0 0 50 50" fill="none" xmlns="http://www.w3.org/2000/svg">
<path d="M19.25 3.89746C22.8081 1.84318 27.1919 1.84318 30.75 3.89746L40.4004 9.46875C43.9584 11.5229 46.1502 15.3194 46.1504 19.4277V30.5723C46.1502 34.6806 43.9584 38.4771 40.4004 40.5312L30.75 46.1025C27.303 48.0927 23.0813 48.1549 19.5859 46.2891L19.25 46.1025L9.59961 40.5312C6.04163 38.477 3.84978 34.6806 3.84961 30.5723V19.4277C3.84978 15.3194 6.04163 11.5229 9.59961 9.46875L19.25 3.89746Z" fill="#F9F9F9" stroke="#DBDFE9"/>
<path opacity="0.1" d="M34.7259 30.5943V26.3078C34.7361 25.214 34.3197 24.1592 33.565 23.3674C32.8103 22.5755 31.7767 22.1089 30.6837 22.0667L29.3272 22.0757H20.682L19.3256 22.0938C18.238 22.1382 17.2097 22.6017 16.4562 23.3872C15.7027 24.1727 15.2824 25.2193 15.2833 26.3078V30.5943C15.2833 31.7119 15.7273 32.7838 16.5176 33.574C17.3079 34.3643 18.3798 34.8083 19.4974 34.8083H30.5118C31.6295 34.8083 32.7013 34.3643 33.4916 33.574C34.2819 32.7838 34.7259 31.7119 34.7259 30.5943Z" fill="#99A1B7"/>
<path d="M22.25 28.0799C22.25 28.2612 22.1962 28.4384 22.0955 28.5892C21.9948 28.7399 21.8516 28.8574 21.6841 28.9268C21.5166 28.9962 21.3323 29.0143 21.1545 28.979C20.9767 28.9436 20.8133 28.8563 20.6851 28.7281C20.5569 28.5999 20.4696 28.4366 20.4343 28.2588C20.3989 28.0809 20.417 27.8966 20.4864 27.7291C20.5558 27.5616 20.6733 27.4185 20.824 27.3177C20.9748 27.217 21.152 27.1633 21.3333 27.1633C21.5764 27.1633 21.8096 27.2598 21.9815 27.4317C22.1534 27.6036 22.25 27.8368 22.25 28.0799ZM25 27.1633C24.8187 27.1633 24.6415 27.217 24.4907 27.3177C24.34 27.4185 24.2225 27.5616 24.1531 27.7291C24.0837 27.8966 24.0656 28.0809 24.1009 28.2588C24.1363 28.4366 24.2236 28.5999 24.3518 28.7281C24.48 28.8563 24.6433 28.9436 24.8211 28.979C24.999 29.0143 25.1833 28.9962 25.3508 28.9268C25.5183 28.8574 25.6614 28.7399 25.7622 28.5892C25.8629 28.4384 25.9166 28.2612 25.9166 28.0799C25.9142 27.8384 25.8166 27.6076 25.6449 27.4377C25.4733 27.2677 25.2415 27.1724 25 27.1724V27.1633ZM28.6666 27.1633C28.4853 27.1633 28.3081 27.217 28.1574 27.3177C28.0066 27.4185 27.8891 27.5616 27.8198 27.7291C27.7504 27.8966 27.7322 28.0809 27.7676 28.2588C27.803 28.4366 27.8903 28.5999 28.0185 28.7281C28.1467 28.8563 28.31 28.9436 28.4878 28.979C28.6656 29.0143 28.8499 28.9962 29.0174 28.9268C29.1849 28.8574 29.3281 28.7399 29.4288 28.5892C29.5296 28.4384 29.5833 28.2612 29.5833 28.0799C29.5833 27.8368 29.4867 27.6036 29.3148 27.4317C29.1429 27.2598 28.9098 27.1633 28.6666 27.1633ZM34.8541 26.2466V30.5916C34.8541 31.7245 34.4041 32.811 33.603 33.6121C32.8019 34.4132 31.7154 34.8633 30.5825 34.8633H19.4175C18.2846 34.8633 17.198 34.4132 16.397 33.6121C15.5959 32.811 15.1458 31.7245 15.1458 30.5916V26.2466C15.1496 25.1464 15.5778 24.0901 16.3411 23.2977C17.1044 22.5054 18.144 22.0381 19.2433 21.9933V20.8016C19.2482 19.4838 19.7744 18.2215 20.7071 17.2906C21.6398 16.3596 22.903 15.8357 24.2208 15.8333H25.7791C27.0985 15.8357 28.3632 16.3609 29.2961 17.2938C30.229 18.2267 30.7542 19.4914 30.7566 20.8108V22.0024C31.8544 22.0472 32.8926 22.5132 33.6557 23.3036C34.4188 24.094 34.848 25.148 34.8541 26.2466ZM20.6183 20.8016V21.9749H29.3816V20.8016C29.3816 19.8461 29.0021 18.9298 28.3265 18.2542C27.6509 17.5786 26.7346 17.1991 25.7791 17.1991H24.2208C23.2654 17.1991 22.3491 17.5786 21.6735 18.2542C20.9979 18.9298 20.6183 19.8461 20.6183 20.8016ZM33.4516 26.2466C33.4492 25.4791 33.1433 24.7437 32.6006 24.201C32.0579 23.6583 31.3225 23.3523 30.555 23.3499H19.4175C18.65 23.3523 17.9146 23.6583 17.3719 24.201C16.8292 24.7437 16.5232 25.4791 16.5208 26.2466V30.5916C16.5232 31.3591 16.8292 32.0945 17.3719 32.6372C17.9146 33.1799 18.65 33.4858 19.4175 33.4883H30.5825C31.35 33.4858 32.0854 33.1799 32.6281 32.6372C33.1708 32.0945 33.4767 31.3591 33.4791 30.5916L33.4516 26.2466Z" fill="#99A1B7"/>
</svg>
