<svg width="44" height="44" viewBox="0 0 44 44" fill="none" xmlns="http://www.w3.org/2000/svg">
<path d="M17.5 2.59808C20.2846 0.990381 23.7154 0.990381 26.5 2.59808L36.5526 8.40192C39.3372 10.0096 41.0526 12.9808 41.0526 16.1962V27.8038C41.0526 31.0192 39.3372 33.9904 36.5526 35.5981L26.5 41.4019C23.7154 43.0096 20.2846 43.0096 17.5 41.4019L7.44744 35.5981C4.66283 33.9904 2.94744 31.0192 2.94744 27.8038V16.1962C2.94744 12.9808 4.66283 10.0096 7.44744 8.40192L17.5 2.59808Z" fill="#FFF5EF"/>
<path d="M17.75 3.03125C20.3799 1.51287 23.6201 1.51287 26.25 3.03125L36.3027 8.83496C38.9326 10.3534 40.5527 13.1596 40.5527 16.1963V27.8037C40.5527 30.8404 38.9326 33.6466 36.3027 35.165L26.25 40.9688C23.6201 42.4871 20.3799 42.4871 17.75 40.9688L7.69727 35.165C5.06744 33.6466 3.44727 30.8404 3.44727 27.8037V16.1963C3.44727 13.1596 5.06744 10.3534 7.69727 8.83496L17.75 3.03125Z" stroke="#FF6F1E" stroke-opacity="0.2"/>
<path opacity="0.1" d="M25.4263 13.084C26.8707 13.0862 28.2555 13.6612 29.2769 14.6826C30.2982 15.704 30.8733 17.0888 30.8755 18.5332V25.3857C30.8732 26.8299 30.298 28.2141 29.2769 29.2354C28.2555 30.2567 26.8707 30.8318 25.4263 30.834H18.5737C17.1294 30.8317 15.7445 30.2567 14.7231 29.2354C13.7021 28.2141 13.1278 26.8299 13.1255 25.3857V18.5332C13.1277 17.0889 13.7019 15.704 14.7231 14.6826C15.7445 13.6613 17.1294 13.0862 18.5737 13.084H25.4263ZM18.4224 15.917C17.8235 15.9192 17.2494 16.1588 16.8267 16.583C16.404 17.0072 16.1665 17.5818 16.1665 18.1807V18.6953C16.1665 19.2941 16.4041 19.8687 16.8267 20.293C17.2494 20.7172 17.8235 20.9568 18.4224 20.959H25.5229C26.1232 20.959 26.6991 20.7204 27.1235 20.2959C27.5479 19.8714 27.7866 19.2955 27.7866 18.6953V18.1807C27.7866 17.5804 27.548 17.0045 27.1235 16.5801C26.6991 16.1556 26.1232 15.917 25.5229 15.917H18.4224Z" fill="#FF6F1E"/>
<path d="M25.4582 30.9577H18.5415C17.0835 30.9555 15.6858 30.3753 14.6549 29.3443C13.6239 28.3134 13.0437 26.9157 13.0415 25.4577V18.541C13.0437 17.083 13.6239 15.6853 14.6549 14.6544C15.6858 13.6234 17.0835 13.0432 18.5415 13.041H25.4582C26.9162 13.0432 28.3139 13.6234 29.3448 14.6544C30.3758 15.6853 30.956 17.083 30.9582 18.541V25.4577C30.956 26.9157 30.3758 28.3134 29.3448 29.3443C28.3139 30.3753 26.9162 30.9555 25.4582 30.9577ZM18.5415 14.291C17.415 14.2932 16.3353 14.7417 15.5387 15.5382C14.7422 16.3348 14.2937 17.4145 14.2915 18.541V25.4577C14.2937 26.5842 14.7422 27.6639 15.5387 28.4605C16.3353 29.257 17.415 29.7055 18.5415 29.7077H25.4582C26.5847 29.7055 27.6644 29.257 28.4609 28.4605C29.2575 27.6639 29.706 26.5842 29.7082 25.4577V18.541C29.706 17.4145 29.2575 16.3348 28.4609 15.5382C27.6644 14.7417 26.5847 14.2932 25.4582 14.291H18.5415ZM25.5915 20.9993H18.3498C17.7391 20.9971 17.1541 20.753 16.723 20.3203C16.2919 19.8877 16.0498 19.3018 16.0498 18.691V18.166C16.0498 17.5552 16.2919 16.9694 16.723 16.5367C17.1541 16.1041 17.7391 15.8599 18.3498 15.8577H25.5915C26.2037 15.8577 26.7908 16.1009 27.2237 16.5338C27.6566 16.9667 27.8998 17.5538 27.8998 18.166V18.691C27.8998 19.3032 27.6566 19.8904 27.2237 20.3233C26.7908 20.7562 26.2037 20.9993 25.5915 20.9993ZM18.3498 17.1077C18.2112 17.1077 18.074 17.1351 17.9461 17.1884C17.8181 17.2417 17.702 17.3198 17.6044 17.4182C17.5068 17.5165 17.4296 17.6333 17.3774 17.7616C17.3251 17.89 17.2987 18.0274 17.2998 18.166V18.691C17.2965 18.831 17.3212 18.9702 17.3725 19.1005C17.4237 19.2308 17.5006 19.3495 17.5984 19.4497C17.6962 19.5499 17.8131 19.6294 17.9422 19.6838C18.0712 19.7381 18.2098 19.7661 18.3498 19.766H25.5915C25.8722 19.766 26.1414 19.6545 26.3399 19.456C26.5383 19.2576 26.6498 18.9884 26.6498 18.7077V18.166C26.6498 17.8853 26.5383 17.6161 26.3399 17.4177C26.1414 17.2192 25.8722 17.1077 25.5915 17.1077H18.3498ZM18.2665 22.5493C18.1429 22.5158 18.0132 22.5111 17.8876 22.5358C17.7619 22.5604 17.6436 22.6137 17.5418 22.6915C17.4401 22.7693 17.3576 22.8695 17.3009 22.9843C17.2441 23.0991 17.2146 23.2254 17.2146 23.3535C17.2146 23.4816 17.2441 23.6079 17.3009 23.7228C17.3576 23.8376 17.4401 23.9378 17.5418 24.0155C17.6436 24.0933 17.7619 24.1466 17.8876 24.1713C18.0132 24.1959 18.1429 24.1913 18.2665 24.1577C18.3901 24.1913 18.5198 24.1959 18.6454 24.1713C18.7711 24.1466 18.8894 24.0933 18.9912 24.0155C19.0929 23.9378 19.1754 23.8376 19.2321 23.7228C19.2889 23.6079 19.3184 23.4816 19.3184 23.3535C19.3184 23.2254 19.2889 23.0991 19.2321 22.9843C19.1754 22.8695 19.0929 22.7693 18.9912 22.6915C18.8894 22.6137 18.7711 22.5604 18.6454 22.5358C18.5198 22.5111 18.3901 22.5158 18.2665 22.5493ZM22.6248 22.5493C22.46 22.5493 22.2989 22.5982 22.1619 22.6898C22.0248 22.7814 21.918 22.9115 21.8549 23.0638C21.7919 23.2161 21.7754 23.3836 21.8075 23.5453C21.8397 23.7069 21.919 23.8554 22.0356 23.9719C22.1521 24.0885 22.3006 24.1678 22.4623 24.2C22.6239 24.2322 22.7915 24.2157 22.9437 24.1526C23.096 24.0895 23.2262 23.9827 23.3177 23.8457C23.4093 23.7086 23.4582 23.5475 23.4582 23.3827C23.4582 23.1617 23.3704 22.9497 23.2141 22.7934C23.0578 22.6371 22.8459 22.5493 22.6248 22.5493ZM18.2665 25.5993C18.1017 25.5993 17.9406 25.6482 17.8035 25.7398C17.6665 25.8314 17.5597 25.9615 17.4966 26.1138C17.4335 26.2661 17.417 26.4336 17.4492 26.5953C17.4813 26.7569 17.5607 26.9054 17.6772 27.0219C17.7938 27.1385 17.9423 27.2178 18.1039 27.25C18.2656 27.2822 18.4331 27.2657 18.5854 27.2026C18.7377 27.1395 18.8678 27.0327 18.9594 26.8957C19.051 26.7586 19.0998 26.5975 19.0998 26.4327C19.0998 26.2117 19.012 25.9997 18.8558 25.8434C18.6995 25.6871 18.4875 25.5993 18.2665 25.5993ZM22.6248 25.5993C22.46 25.5993 22.2989 25.6482 22.1619 25.7398C22.0248 25.8314 21.918 25.9615 21.8549 26.1138C21.7919 26.2661 21.7754 26.4336 21.8075 26.5953C21.8397 26.7569 21.919 26.9054 22.0356 27.0219C22.1521 27.1385 22.3006 27.2178 22.4623 27.25C22.6239 27.2822 22.7915 27.2657 22.9437 27.2026C23.096 27.1395 23.2262 27.0327 23.3177 26.8957C23.4093 26.7586 23.4582 26.5975 23.4582 26.4327C23.4582 26.2117 23.3704 25.9997 23.2141 25.8434C23.0578 25.6871 22.8459 25.5993 22.6248 25.5993ZM26.9415 26.6993V23.0993C26.9415 22.9336 26.8757 22.7746 26.7584 22.6574C26.6412 22.5402 26.4823 22.4743 26.3165 22.4743C26.1507 22.4743 25.9918 22.5402 25.8746 22.6574C25.7574 22.7746 25.6915 22.9336 25.6915 23.0993V26.7243C25.6915 26.8901 25.7574 27.0491 25.8746 27.1663C25.9918 27.2835 26.1507 27.3493 26.3165 27.3493C26.4823 27.3493 26.6412 27.2835 26.7584 27.1663C26.8757 27.0491 26.9415 26.8901 26.9415 26.7243V26.6993Z" fill="#FF6F1E"/>
</svg>
