<svg width="50" height="50" viewBox="0 0 50 50" fill="none" xmlns="http://www.w3.org/2000/svg">
<path d="M19.25 3.89746C22.8081 1.84318 27.1919 1.84318 30.75 3.89746L40.4004 9.46875C43.9584 11.5229 46.1502 15.3194 46.1504 19.4277V30.5723C46.1502 34.6806 43.9584 38.4771 40.4004 40.5312L30.75 46.1025C27.303 48.0927 23.0813 48.1549 19.5859 46.2891L19.25 46.1025L9.59961 40.5312C6.04163 38.477 3.84978 34.6806 3.84961 30.5723V19.4277C3.84978 15.3194 6.04163 11.5229 9.59961 9.46875L19.25 3.89746Z" fill="#F9F9F9" stroke="#DBDFE9"/>
<path opacity="0.1" d="M25.0142 35.221C24.0671 35.2217 23.1491 34.9058 22.4171 34.3274L17.8843 30.7624C17.4136 30.3937 17.0344 29.9283 16.7747 29.4003C16.515 28.8723 16.3813 28.2951 16.3833 27.7108V20.7236C16.3837 19.9687 16.6091 19.2298 17.0327 18.5945C17.4563 17.9592 18.0603 17.4543 18.7731 17.1396L23.3058 15.1433C23.8409 14.9035 24.424 14.7793 25.0142 14.7793C25.6044 14.7793 26.1875 14.9035 26.7226 15.1433L31.2553 17.1396C31.9681 17.4543 32.5721 17.9592 32.9957 18.5945C33.4193 19.2298 33.6447 19.9687 33.6451 20.7236V27.7108C33.6472 28.2951 33.5135 28.8723 33.2537 29.4003C32.994 29.9283 32.6149 30.3937 32.1441 30.7624L27.6114 34.3274C26.8793 34.9058 25.9613 35.2217 25.0142 35.221Z" fill="#99A1B7"/>
<path d="M24.9998 35.3125C24.0442 35.3132 23.118 34.9945 22.3794 34.4109L17.806 30.814C17.331 30.442 16.9485 29.9724 16.6864 29.4397C16.4244 28.9069 16.2894 28.3245 16.2915 27.735V20.6851C16.2919 19.9234 16.5194 19.1779 16.9467 18.5369C17.3741 17.896 17.9836 17.3865 18.7028 17.069L23.2761 15.0547C23.816 14.8128 24.4043 14.6875 24.9998 14.6875C25.5954 14.6875 26.1837 14.8128 26.7236 15.0547L31.2969 17.069C32.0161 17.3865 32.6255 17.896 33.0529 18.5369C33.4803 19.1779 33.7077 19.9234 33.7081 20.6851V27.735C33.7102 28.3245 33.5753 28.9069 33.3132 29.4397C33.0512 29.9724 32.6687 30.442 32.1937 30.814L27.6203 34.4109C26.8817 34.9945 25.9554 35.3132 24.9998 35.3125ZM24.9998 16.129C24.6208 16.1317 24.2468 16.2135 23.9038 16.3688L19.3305 18.3735C18.8707 18.5767 18.481 18.9024 18.2073 19.312C17.9336 19.7216 17.7875 20.1981 17.7861 20.6851V27.735C17.7949 28.1057 17.8887 28.47 18.061 28.8017C18.2333 29.1333 18.4796 29.4242 18.7825 29.6534L23.3558 33.2503C23.8279 33.6228 24.4194 33.8263 25.0297 33.8263C25.6401 33.8263 26.2316 33.6228 26.7036 33.2503L31.277 29.6534C31.5798 29.4242 31.8262 29.1333 31.9984 28.8017C32.1707 28.47 32.2646 28.1057 32.2734 27.735V20.6851C32.272 20.1981 32.1258 19.7216 31.8521 19.312C31.5785 18.9024 31.1887 18.5767 30.729 18.3735L26.0958 16.3688C25.7528 16.2135 25.3789 16.1317 24.9998 16.129ZM24.9998 30.8332C22.489 30.8332 20.5261 29.4615 20.5261 27.7062C20.5841 27.0208 20.869 26.3714 21.3389 25.8534C21.8088 25.3355 22.4389 24.9763 23.1366 24.8287C22.7053 24.5432 22.3528 24.1608 22.1097 23.7145C21.8667 23.2682 21.7403 22.7716 21.7417 22.2677C21.7417 21.4359 22.085 20.6381 22.696 20.0499C23.307 19.4617 24.1357 19.1312 24.9998 19.1312C25.864 19.1312 26.6927 19.4617 27.3037 20.0499C27.9147 20.6381 28.258 21.4359 28.258 22.2677C28.2593 22.7716 28.133 23.2682 27.8899 23.7145C27.6469 24.1608 27.2944 24.5432 26.8631 24.8287C27.5608 24.9763 28.1909 25.3355 28.6608 25.8534C29.1307 26.3714 29.4156 27.0208 29.4736 27.7062C29.4736 29.4615 27.5107 30.8332 24.9998 30.8332ZM24.9998 26.0373C23.4156 26.0373 22.0107 26.8238 22.0107 27.7158C22.0107 28.6079 23.4056 29.404 24.9998 29.404C26.594 29.404 27.989 28.6175 27.989 27.7158C27.989 26.8142 26.5841 26.0277 24.9998 26.0277V26.0373ZM24.9998 20.6179C24.6534 20.6198 24.3154 20.7205 24.0283 20.9071C23.7412 21.0937 23.518 21.3581 23.3868 21.6667C23.2556 21.9753 23.2223 22.3144 23.2911 22.6413C23.3599 22.9681 23.5277 23.268 23.7733 23.5031C24.019 23.7383 24.3314 23.8981 24.6713 23.9625C25.0112 24.0268 25.3633 23.9928 25.6832 23.8648C26.003 23.7367 26.2763 23.5204 26.4686 23.243C26.6608 22.9656 26.7634 22.6396 26.7634 22.3061C26.7647 22.0828 26.72 21.8614 26.6319 21.6549C26.5437 21.4483 26.4139 21.2607 26.2498 21.1028C26.0858 20.9449 25.8909 20.8199 25.6763 20.735C25.4617 20.6501 25.2318 20.6071 24.9998 20.6084V20.6179Z" fill="#99A1B7"/>
</svg>
