<svg width="29" height="37" viewBox="0 0 29 37" fill="none" xmlns="http://www.w3.org/2000/svg">
<path fill-rule="evenodd" clip-rule="evenodd" d="M5.39013 0.166748H17.649L28.0388 10.9963V32.06C28.0388 34.6987 25.904 36.8334 23.2745 36.8334H5.39013C2.75146 36.8334 0.616699 34.6987 0.616699 32.06V4.94018C0.616653 2.30151 2.75141 0.166748 5.39013 0.166748Z" fill="#E5252A"/>
<path opacity="0.302" fill-rule="evenodd" clip-rule="evenodd" d="M17.6401 0.166748V10.9139H28.0391L17.6401 0.166748Z" fill="white"/>
<path d="M5.92188 27.5246V20.8271H8.77129C9.47678 20.8271 10.0357 21.0195 10.4571 21.4135C10.8786 21.7983 11.0893 22.3206 11.0893 22.9711C11.0893 23.6216 10.8786 24.1438 10.4571 24.5286C10.0357 24.9226 9.47678 25.115 8.77129 25.115H7.63519V27.5246H5.92188ZM7.63519 23.6583H8.57889C8.83541 23.6583 9.03699 23.6033 9.17444 23.475C9.31185 23.3559 9.38519 23.191 9.38519 22.9711C9.38519 22.7513 9.3119 22.5863 9.17444 22.4672C9.03703 22.3389 8.83546 22.284 8.57889 22.284H7.63519V23.6583ZM11.7948 27.5246V20.8271H14.1677C14.635 20.8271 15.0748 20.8913 15.4871 21.0287C15.8994 21.1661 16.275 21.3586 16.6048 21.6243C16.9347 21.8808 17.2004 22.2289 17.3928 22.6687C17.576 23.1085 17.6768 23.6124 17.6768 24.1805C17.6768 24.7394 17.5761 25.2433 17.3928 25.683C17.2004 26.1228 16.9347 26.471 16.6048 26.7275C16.275 26.9932 15.8994 27.1856 15.4871 27.3231C15.0748 27.4605 14.635 27.5246 14.1677 27.5246H11.7948ZM13.4714 26.0679H13.9662C14.2319 26.0679 14.4793 26.0404 14.7083 25.9763C14.9282 25.9121 15.1389 25.8113 15.3405 25.6739C15.5329 25.5365 15.6887 25.3441 15.7986 25.0875C15.9085 24.831 15.9635 24.5286 15.9635 24.1805C15.9635 23.8231 15.9085 23.5208 15.7986 23.2643C15.6887 23.0078 15.5329 22.8154 15.3405 22.6779C15.1389 22.5405 14.9282 22.4397 14.7083 22.3756C14.4793 22.3115 14.2319 22.2839 13.9662 22.2839H13.4714V26.0679ZM18.5381 27.5246V20.8271H23.3024V22.2839H20.2514V23.3559H22.6885V24.8035H20.2514V27.5246H18.5381Z" fill="white"/>
</svg>
