<svg width="16" height="17" viewBox="0 0 16 17" fill="none" xmlns="http://www.w3.org/2000/svg">
<path opacity="0.3" d="M10.8351 15.767L5.29857 15.833C4.81895 15.8398 4.35491 15.6628 4.00172 15.3382C3.64852 15.0136 3.43296 14.5662 3.39929 14.0877L2.86397 6.43189C2.85577 6.31989 2.87106 6.20741 2.90885 6.10165C2.94663 5.99589 3.00608 5.89919 3.0834 5.81774C3.16071 5.73628 3.25418 5.67187 3.35782 5.62862C3.46147 5.58537 3.573 5.56424 3.68528 5.56658H12.3091C12.4207 5.56432 12.5316 5.58526 12.6347 5.62807C12.7378 5.67087 12.8309 5.73462 12.9081 5.81526C12.9853 5.89591 13.0449 5.99171 13.0832 6.09659C13.1214 6.20147 13.1375 6.31315 13.1304 6.42456L12.6977 13.9924C12.6716 14.4697 12.4643 14.9191 12.1182 15.2489C11.7721 15.5787 11.3132 15.764 10.8351 15.767Z" fill="#F8285A"/>
<path d="M9.06006 11.2861C9.2058 11.2861 9.34561 11.3443 9.44873 11.4473C9.55179 11.5503 9.60977 11.6902 9.60986 11.8359C9.60986 11.9818 9.55187 12.1224 9.44873 12.2256C9.34563 12.3285 9.20574 12.3867 9.06006 12.3867H6.93408C6.78824 12.3867 6.64757 12.3287 6.54443 12.2256C6.44129 12.1224 6.3833 11.9818 6.3833 11.8359C6.38339 11.6902 6.44142 11.5503 6.54443 11.4473C6.64758 11.3441 6.78822 11.2861 6.93408 11.2861H9.06006ZM9.63232 8.57324C9.77813 8.57325 9.91787 8.6313 10.021 8.73438C10.1241 8.83747 10.1821 8.97726 10.1821 9.12305C10.1821 9.26885 10.1241 9.40859 10.021 9.51172C9.91786 9.61485 9.77818 9.67284 9.63232 9.67285H6.36182C6.21595 9.67285 6.07629 9.61486 5.97314 9.51172C5.87003 9.40858 5.81201 9.26889 5.81201 9.12305C5.81207 8.97726 5.87005 8.83747 5.97314 8.73438C6.07627 8.63134 6.21603 8.57324 6.36182 8.57324H9.63232ZM9.30225 1.16699C9.6224 1.16823 9.93204 1.28066 10.1782 1.48535C10.4244 1.69008 10.5922 1.97445 10.6519 2.28906L10.855 3.5293C11.9485 3.60058 13.0402 3.71216 14.1274 3.86523C14.263 3.8875 14.3852 3.95952 14.4702 4.06738C14.5552 4.17532 14.5965 4.31122 14.5864 4.44824C14.5763 4.58525 14.5155 4.71334 14.4155 4.80762C14.3156 4.9019 14.1838 4.9559 14.0464 4.95801V4.9502H13.9663C10.0079 4.40591 5.99306 4.40591 2.03467 4.9502C1.89311 4.96875 1.74987 4.9318 1.63525 4.84668C1.52051 4.76133 1.44332 4.63432 1.42041 4.49316C1.39752 4.35198 1.4303 4.2071 1.51221 4.08984C1.59407 3.97271 1.71858 3.89235 1.85889 3.86523C2.95289 3.71121 4.05149 3.59953 5.15186 3.52832L5.39404 2.28125C5.45287 1.97236 5.61574 1.69313 5.85596 1.49023C6.09623 1.28733 6.39896 1.17326 6.71338 1.16699H9.30225Z" fill="#F8285A"/>
</svg>
