<svg width="29" height="37" viewBox="0 0 29 37" fill="none" xmlns="http://www.w3.org/2000/svg">
<path fill-rule="evenodd" clip-rule="evenodd" d="M5.71417 0.166748H17.9855L28.3699 11.0062V32.056C28.3699 34.6923 26.2422 36.8334 23.6059 36.8334H5.71417C3.0913 36.8334 0.950195 34.6923 0.950195 32.056V4.93073C0.950149 2.30785 3.0913 0.166748 5.71417 0.166748Z" fill="#00733B"/>
<path opacity="0.302" fill-rule="evenodd" clip-rule="evenodd" d="M17.9727 0.166748V10.9125H28.3705L17.9727 0.166748Z" fill="white"/>
<path d="M12.3518 26.8637H10.572L9.35423 24.8163L8.13644 26.8637H6.34326L8.45764 23.3041L6.59756 20.2128H8.39069L9.35418 21.8186L10.3043 20.2128H12.0975L10.2507 23.3174L12.3518 26.8637ZM12.9807 26.8637V20.2128H14.6802V25.4184H17.5707V26.8636H12.9807V26.8637ZM20.3809 26.944C19.7118 26.944 19.123 26.7298 18.6145 26.315C18.1194 25.9135 17.8384 25.405 17.7982 24.8029L19.2569 24.3747C19.2971 24.6958 19.4309 24.9768 19.6584 25.191C19.8992 25.4051 20.1669 25.5121 20.4613 25.5121C20.7021 25.5121 20.9029 25.4586 21.0635 25.3515C21.2106 25.2445 21.2909 25.0973 21.2909 24.9233C21.2909 24.7761 21.224 24.6557 21.1036 24.5486C20.9831 24.4549 20.8225 24.3747 20.6352 24.3078C20.4478 24.2409 20.2204 24.1739 19.9929 24.1204C19.752 24.0535 19.5111 23.9732 19.2836 23.8662C19.0428 23.7725 18.8286 23.652 18.6413 23.5048C18.4405 23.371 18.2934 23.1703 18.1729 22.916C18.0524 22.6752 17.9855 22.3807 17.9855 22.0462C17.9855 21.4975 18.213 21.0425 18.6814 20.6812C19.1498 20.3065 19.7118 20.1326 20.3675 20.1326C21.0232 20.1326 21.5986 20.2931 22.0804 20.6009C22.5622 20.9221 22.8699 21.337 22.9904 21.8455L21.4648 22.4878C21.3979 22.2068 21.2641 21.9793 21.0768 21.8053C20.8894 21.6448 20.6485 21.5511 20.3675 21.5511C20.1534 21.5511 19.9928 21.6046 19.859 21.6849C19.7386 21.7652 19.6851 21.8857 19.6851 22.0329C19.6851 22.1667 19.7653 22.2871 19.9259 22.3808C20.0865 22.4611 20.3006 22.528 20.5415 22.5681C20.7823 22.6083 21.05 22.6752 21.331 22.7689C21.6254 22.8759 21.8797 22.983 22.1339 23.1302C22.3748 23.264 22.5755 23.4915 22.7361 23.7859C22.9101 24.0937 22.9903 24.455 22.9903 24.8699C22.9903 25.4854 22.7495 25.994 22.2677 26.3686C21.7859 26.7433 21.1571 26.944 20.3809 26.944Z" fill="white"/>
</svg>
