<svg xmlns="http://www.w3.org/2000/svg" width="100" height="114" viewBox="0 0 100 114" fill="none">
  <path d="M54.2415 59.0761L54.2402 59.0771C50.7019 61.924 50.1414 67.1004 52.9883 70.6387L82.031 106.735C84.878 110.273 90.0542 110.833 93.5925 107.986L93.5938 107.986C97.1321 105.139 97.6927 99.9624 94.8458 96.424L65.8031 60.328C62.9561 56.7897 57.7798 56.2292 54.2415 59.0761Z" fill="#EBECEE"/>
  <path d="M88.4287 109.981C87.1539 109.983 85.8948 109.7 84.7445 109.15C83.5942 108.601 82.5821 107.8 81.7831 106.806L52.7361 70.7126C52.0347 69.841 51.5119 68.8399 51.1974 67.7663C50.883 66.6927 50.7831 65.5676 50.9034 64.4554C51.0238 63.3432 51.362 62.2657 51.8988 61.2842C52.4356 60.3027 53.1605 59.4365 54.032 58.7351C54.9036 58.0338 55.9048 57.5109 56.9784 57.1965C58.052 56.882 59.1768 56.7821 60.2891 56.9025C61.4013 57.0228 62.4789 57.361 63.4604 57.8978C64.4419 58.4346 65.3081 59.1595 66.0095 60.031L95.0565 96.1248C96.0639 97.3757 96.6969 98.886 96.8826 100.481C97.0682 102.077 96.7989 103.692 96.1057 105.141C95.4125 106.59 94.3238 107.813 92.9651 108.669C91.6064 109.526 90.0332 109.98 88.4271 109.981H88.4287ZM59.3704 57.4521C57.8755 57.4525 56.4112 57.8756 55.1466 58.6728C53.882 59.4699 52.8687 60.6085 52.2236 61.957C51.5786 63.3055 51.3281 64.8091 51.5012 66.2939C51.6742 67.7787 52.2637 69.1843 53.2016 70.3484L82.2486 106.442C83.567 108.081 85.4822 109.128 87.5731 109.355C89.6641 109.581 91.7593 108.968 93.3979 107.65C95.0366 106.331 96.0844 104.416 96.3109 102.325C96.5373 100.234 95.924 98.1389 94.6056 96.5003L65.5586 60.4081C64.8147 59.483 63.8722 58.737 62.8011 58.2253C61.73 57.7136 60.5574 57.4494 59.3704 57.4521Z" fill="#9EA3B5"/>
  <path d="M63.9624 62.297L55.4289 69.1631C52.7841 71.2911 52.3652 75.1601 54.4932 77.8049L59.1258 83.5627C61.2538 86.2074 65.1229 86.6265 67.7677 84.4985L76.3013 77.6325C78.946 75.5045 79.3649 71.6353 77.2369 68.9906L72.6042 63.2328C70.4763 60.588 66.6072 60.1691 63.9624 62.297Z" fill="#EBECEE"/>
  <path d="M63.9046 86.0355C62.9402 86.0368 61.9879 85.821 61.1181 85.4043C60.2484 84.9876 59.4834 84.3807 58.88 83.6283L54.2469 77.8719C53.1782 76.5398 52.6813 74.8382 52.8651 73.1403C53.0489 71.4425 53.8985 69.8868 55.2275 68.8143L63.7603 61.9489C65.092 60.8793 66.7937 60.382 68.4918 60.5658C70.1899 60.7496 71.7457 61.5997 72.8177 62.9294L77.4508 68.6859C78.5195 70.018 79.0164 71.7194 78.8326 73.4173C78.6488 75.1151 77.7994 76.671 76.4704 77.7435L67.9375 84.6088C66.7964 85.5324 65.3727 86.0361 63.9046 86.0355ZM67.7931 61.124C66.4615 61.1206 65.1689 61.5737 64.1309 62.4079L55.5982 69.2749C54.3907 70.2487 53.6189 71.6616 53.4519 73.2038C53.2849 74.746 53.7365 76.2914 54.7075 77.5011L59.3406 83.2591C60.3144 84.4667 61.7274 85.2385 63.2697 85.4052C64.812 85.5719 66.3575 85.1198 67.5668 84.1482L76.0996 77.2829C77.307 76.3091 78.0789 74.8961 78.2459 73.354C78.4128 71.8118 77.9612 70.2662 76.9902 69.0566L72.3571 63.2985C71.8078 62.6174 71.1126 62.0684 70.3226 61.692C69.5326 61.3156 68.6682 61.1215 67.7931 61.124Z" fill="#9EA3B5"/>
  <path d="M38.8066 76.7259C59.9123 76.7259 77.0218 59.6164 77.0218 38.5107C77.0218 17.405 59.9123 0.29541 38.8066 0.29541C17.7009 0.29541 0.591309 17.405 0.591309 38.5107C0.591309 59.6164 17.7009 76.7259 38.8066 76.7259Z" fill="#FCFCFC"/>
  <path d="M38.8079 77.0308C17.573 77.0308 0.29248 59.755 0.29248 38.5154C0.29248 17.2758 17.5682 0 38.8079 0C60.0475 0 77.3232 17.2758 77.3232 38.5154C77.3232 59.755 60.0427 77.0308 38.8079 77.0308ZM38.8079 0.598669C17.8988 0.598669 0.887858 17.6095 0.887858 38.5185C0.887858 59.4276 17.8988 76.4402 38.8079 76.4402C59.7169 76.4402 76.7294 59.4292 76.7294 38.5185C76.7294 17.6079 59.7169 0.590519 38.8079 0.590519V0.598669Z" fill="#9EA3B5"/>
  <path d="M38.8068 63.1239C52.4002 63.1239 63.4198 52.1043 63.4198 38.5109C63.4198 24.9176 52.4002 13.8979 38.8068 13.8979C25.2135 13.8979 14.1938 24.9176 14.1938 38.5109C14.1938 52.1043 25.2135 63.1239 38.8068 63.1239Z" fill="#FCFCFC"/>
  <path d="M38.8081 63.4207C25.0742 63.4207 13.8999 52.2463 13.8999 38.5108C13.8999 24.7752 25.0742 13.6025 38.8081 13.6025C52.5421 13.6025 63.7179 24.7768 63.7179 38.5108C63.7179 52.2447 52.5421 63.4207 38.8081 63.4207ZM38.8081 14.1932C25.3999 14.1932 14.4904 25.1058 14.4904 38.5108C14.4904 51.9157 25.4032 62.83 38.8081 62.83C52.2131 62.83 63.1274 51.9173 63.1274 38.5108C63.1274 25.1042 52.2163 14.1932 38.8081 14.1932Z" fill="#9EA3B5"/>
  <path d="M36.562 20.02L34.0015 55.0557L34.5904 55.0987L37.151 20.063L36.562 20.02Z" fill="#9EA3B5"/>
  <path d="M41.9155 34.3974L40.5405 45.0273L41.1262 45.1031L42.5011 34.4731L41.9155 34.3974Z" fill="#9EA3B5"/>
  <path d="M73.5142 37.103C73.2523 37.1022 72.9996 37.0067 72.8026 36.8342C72.6055 36.6616 72.4775 36.4236 72.4423 36.1641C71.0188 25.5723 66.2109 17.2755 58.1499 11.5143C52.1062 7.19413 46.3915 5.99366 46.3353 5.98082C46.054 5.924 45.8067 5.75777 45.6479 5.51866C45.4892 5.27954 45.4319 4.98724 45.4887 4.70591C45.5455 4.42457 45.7118 4.17729 45.9509 4.01854C46.19 3.85978 46.4824 3.80249 46.7638 3.85931C47.0125 3.90906 52.9197 5.14314 59.331 9.69758C65.2527 13.907 72.7071 21.8653 74.5879 35.8752C74.6071 36.016 74.5983 36.1592 74.5621 36.2966C74.5258 36.4341 74.4628 36.5631 74.3767 36.6761C74.2905 36.7891 74.1828 36.8838 74.0599 36.9552C73.937 37.0265 73.8012 37.0729 73.6603 37.0917C73.612 37.0993 73.5631 37.1031 73.5142 37.103Z" fill="#FCFCFC"/>
  <path d="M22.1434 69.58C21.9764 69.5801 21.8116 69.5417 21.662 69.4676C13.5545 65.4668 9.00807 58.6625 6.62332 53.6587C4.05563 48.2601 3.38159 43.8421 3.35431 43.6559C3.31555 43.3736 3.38956 43.0872 3.5604 42.8591C3.73124 42.631 3.9852 42.4795 4.26705 42.4373C4.54889 42.395 4.83597 42.4656 5.06616 42.6336C5.29635 42.8016 5.45098 43.0536 5.49667 43.3349C5.49667 43.3767 6.15622 47.6679 8.60677 52.7825C10.8535 57.4541 15.0934 63.8042 22.62 67.5177C22.8391 67.6261 23.0152 67.8056 23.1195 68.0267C23.2237 68.2479 23.2502 68.4978 23.1944 68.7359C23.1386 68.9739 23.0038 69.186 22.8121 69.3378C22.6205 69.4896 22.3831 69.5721 22.1386 69.5718L22.1434 69.58Z" fill="#FCFCFC"/>
  <path d="M32.2389 83.8799C20.4837 83.8799 12.5991 79.1328 7.93076 74.9395C2.39418 69.9646 0.126627 64.8293 0.0319433 64.6175C-0.00955481 64.5217 -0.0112874 64.4133 0.027085 64.3162C0.0654574 64.2192 0.140854 64.1413 0.236619 64.0998C0.332384 64.0583 0.440618 64.0566 0.537677 64.095C0.634737 64.1333 0.712609 64.2087 0.754107 64.3045C0.776574 64.3558 3.06188 69.5216 8.48132 74.3778C13.4739 78.8504 22.2313 83.9682 35.6026 82.9652C35.6542 82.9609 35.7061 82.9667 35.7554 82.9826C35.8047 82.9986 35.8504 83.0243 35.8897 83.058C35.929 83.0918 35.9612 83.133 35.9843 83.1793C36.0075 83.2257 36.0212 83.2762 36.0246 83.3279C36.0286 83.3794 36.0222 83.4313 36.0061 83.4804C35.99 83.5295 35.9644 83.5749 35.9307 83.6141C35.8971 83.6533 35.856 83.6854 35.8099 83.7087C35.7638 83.732 35.7135 83.7461 35.662 83.7499C34.484 83.8387 33.343 83.882 32.2389 83.8799Z" fill="#9EA3B5"/>
</svg>