<svg xmlns="http://www.w3.org/2000/svg" width="18" height="19" viewBox="0 0 18 19" fill="none">
  <path opacity="0.1" d="M8.99277 17.3135C8.77102 17.3114 8.55257 17.2596 8.35346 17.1619C8.15435 17.0643 7.97964 16.9233 7.84216 16.7493L6.5505 15.2053C6.51863 15.1646 6.47812 15.1315 6.4319 15.1084C6.38569 15.0853 6.33492 15.0727 6.28326 15.0716H4.99902C3.94307 15.0716 2.93025 14.6527 2.18288 13.9067C1.43552 13.1607 1.01466 12.1487 1.0127 11.0927V5.32482C1.01466 4.26887 1.43552 3.25684 2.18288 2.51086C2.93025 1.76488 3.94307 1.34591 4.99902 1.34592H12.9865C14.0425 1.34591 15.0553 1.76488 15.8027 2.51086C16.55 3.25684 16.9709 4.26887 16.9728 5.32482V11.0927C16.9709 12.1487 16.55 13.1607 15.8027 13.9067C15.0553 14.6527 14.0425 15.0716 12.9865 15.0716H11.5909C11.5372 15.0713 11.4841 15.084 11.4363 15.1085C11.3885 15.1331 11.3473 15.1688 11.3163 15.2127L10.1285 16.7493C9.99337 16.9228 9.82136 17.064 9.62494 17.1629C9.42852 17.2617 9.2126 17.3157 8.99277 17.3209V17.3135Z" fill="#1B84FF"/>
  <path d="M9 17.3958C8.77596 17.3937 8.55525 17.3414 8.35408 17.2427C8.15292 17.1441 7.9764 17.0016 7.8375 16.8258L6.5325 15.2658C6.5003 15.2247 6.45938 15.1913 6.41268 15.168C6.36599 15.1446 6.31469 15.1319 6.2625 15.1308H4.965C3.89814 15.1308 2.87486 14.7075 2.11978 13.9539C1.36469 13.2002 0.939487 12.1777 0.9375 11.1108V5.28334C0.939487 4.21648 1.36469 3.19399 2.11978 2.44031C2.87486 1.68663 3.89814 1.26333 4.965 1.26334H13.035C14.1019 1.26333 15.1251 1.68663 15.8802 2.44031C16.6353 3.19399 17.0605 4.21648 17.0625 5.28334V11.1108C17.0605 12.1777 16.6353 13.2002 15.8802 13.9539C15.1251 14.7075 14.1019 15.1308 13.035 15.1308H11.625C11.5707 15.1305 11.5171 15.1433 11.4688 15.1681C11.4205 15.1929 11.3789 15.229 11.3475 15.2733L10.1475 16.8258C10.0109 17.0011 9.83715 17.1438 9.6387 17.2436C9.44025 17.3435 9.2221 17.3981 9 17.4033V17.3958ZM4.9875 2.39584C4.60571 2.39287 4.22708 2.46526 3.87331 2.60886C3.51954 2.75246 3.19758 2.96444 2.92587 3.23267C2.65416 3.5009 2.43803 3.8201 2.28988 4.17199C2.14173 4.52388 2.06446 4.90154 2.0625 5.28334V11.1108C2.06449 11.8793 2.37116 12.6157 2.91527 13.1584C3.45938 13.7011 4.19651 14.0058 4.965 14.0058H6.2625C6.48272 14.0113 6.69902 14.0652 6.89605 14.1637C7.09308 14.2622 7.26599 14.4029 7.4025 14.5758L8.7075 16.1658C8.74252 16.205 8.78523 16.2365 8.83297 16.2585C8.88072 16.2804 8.93247 16.2923 8.985 16.2933C9.03759 16.2903 9.08891 16.276 9.1355 16.2514C9.18208 16.2269 9.22284 16.1925 9.255 16.1508L10.455 14.5758C10.5939 14.3977 10.7713 14.2532 10.9739 14.1532C11.1765 14.0532 11.3991 14.0003 11.625 13.9983H13.035C13.8035 13.9983 14.5406 13.6936 15.0847 13.1509C15.6288 12.6082 15.9355 11.8718 15.9375 11.1033V5.28334C15.9355 4.51485 15.6288 3.77851 15.0847 3.23581C14.5406 2.6931 13.8035 2.38833 13.035 2.38834L4.9875 2.39584ZM6.4125 10.2408C6.51784 10.1354 6.577 9.9924 6.577 9.84334C6.577 9.69427 6.51784 9.5513 6.4125 9.44584L5.31 8.37334L6.3975 7.33084C6.46818 7.28721 6.52832 7.22847 6.57361 7.15884C6.61889 7.08921 6.64819 7.01042 6.65941 6.92812C6.67062 6.84582 6.66347 6.76205 6.63847 6.68285C6.61347 6.60364 6.57123 6.53095 6.5148 6.47C6.45837 6.40906 6.38914 6.36136 6.31208 6.33035C6.23503 6.29934 6.15207 6.28577 6.06915 6.29063C5.98623 6.29549 5.90542 6.31866 5.83251 6.35846C5.75961 6.39826 5.69643 6.45371 5.6475 6.52084L4.1475 7.96084C4.09333 8.01354 4.05019 8.07648 4.02058 8.14601C3.99096 8.21554 3.97547 8.29026 3.975 8.36584C3.97478 8.51725 4.03403 8.66269 4.14 8.77084L5.64 10.2708C5.68999 10.3239 5.75048 10.366 5.81763 10.3944C5.88477 10.4228 5.9571 10.4369 6.03 10.4358C6.17804 10.4232 6.31529 10.3532 6.4125 10.2408ZM12.4125 10.2408L13.9125 8.74084C14.0185 8.63269 14.0777 8.48725 14.0775 8.33584C14.077 8.26026 14.0615 8.18554 14.0319 8.11601C14.0023 8.04648 13.9592 7.98354 13.905 7.93084L12.405 6.49084C12.3561 6.42371 12.2929 6.36826 12.22 6.32846C12.1471 6.28866 12.0663 6.26549 11.9834 6.26063C11.9004 6.25577 11.8175 6.26934 11.7404 6.30035C11.6634 6.33136 11.5941 6.37906 11.5377 6.44C11.4813 6.50095 11.439 6.57364 11.414 6.65285C11.389 6.73205 11.3819 6.81582 11.3931 6.89812C11.4043 6.98042 11.4336 7.05921 11.4789 7.12884C11.5242 7.19847 11.5843 7.25721 11.655 7.30084L12.7425 8.34334L11.6475 9.41584C11.5581 9.48914 11.4934 9.58823 11.4623 9.69961C11.4312 9.81099 11.4352 9.92924 11.4737 10.0383C11.5123 10.1473 11.5835 10.2418 11.6776 10.3089C11.7718 10.376 11.8844 10.4125 12 10.4133C12.0716 10.4134 12.1425 10.3988 12.2083 10.3704C12.2741 10.342 12.3334 10.3005 12.3825 10.2483L12.4125 10.2408ZM8.88 10.2408L10.2825 6.87334C10.3168 6.80449 10.3366 6.72936 10.3406 6.65257C10.3447 6.57578 10.333 6.49897 10.3063 6.42688C10.2795 6.35479 10.2382 6.28895 10.185 6.23344C10.1318 6.17792 10.0678 6.13391 9.99688 6.10412C9.92599 6.07432 9.84974 6.05938 9.77285 6.06021C9.69596 6.06104 9.62005 6.07763 9.54982 6.10895C9.47959 6.14028 9.41653 6.18567 9.36453 6.24232C9.31253 6.29897 9.2727 6.36568 9.2475 6.43834L7.845 9.80584C7.81425 9.87462 7.79763 9.94887 7.79612 10.0242C7.79462 10.0995 7.80826 10.1744 7.83624 10.2443C7.86422 10.3143 7.90597 10.3779 7.95901 10.4314C8.01205 10.4849 8.0753 10.5272 8.145 10.5558C8.2136 10.5857 8.28766 10.6011 8.3625 10.6008C8.46855 10.5934 8.57039 10.5564 8.65654 10.4941C8.74269 10.4318 8.8097 10.3467 8.85 10.2483L8.88 10.2408Z" fill="#1B84FF"/>
</svg>